<?xml version="1.0" encoding="UTF-8" standalone="no"?>
<!-- Created with Inkscape (http://www.inkscape.org/) -->

<svg
   xmlns:dc="http://purl.org/dc/elements/1.1/"
   xmlns:cc="http://creativecommons.org/ns#"
   xmlns:rdf="http://www.w3.org/1999/02/22-rdf-syntax-ns#"
   xmlns:svg="http://www.w3.org/2000/svg"
   xmlns="http://www.w3.org/2000/svg"
   xmlns:sodipodi="http://sodipodi.sourceforge.net/DTD/sodipodi-0.dtd"
   xmlns:inkscape="http://www.inkscape.org/namespaces/inkscape"
   width="159.44882"
   height="53.149605"
   id="svg2"
   version="1.1"
   inkscape:version="0.48.4 r9939"
   sodipodi:docname="assbot_logo-outline-small.svg"
   inkscape:export-filename="C:\Documents and Settings\martins\My Documents\assbot_logo.png"
   inkscape:export-xdpi="90"
   inkscape:export-ydpi="90">
  <defs
     id="defs4" />
  <sodipodi:namedview
     id="base"
     pagecolor="#ffffff"
     bordercolor="#666666"
     borderopacity="1.0"
     inkscape:pageopacity="0.0"
     inkscape:pageshadow="2"
     inkscape:zoom="6.9489381"
     inkscape:cx="79.724411"
     inkscape:cy="26.574802"
     inkscape:document-units="px"
     inkscape:current-layer="layer1"
     showgrid="true"
     inkscape:window-width="1600"
     inkscape:window-height="1148"
     inkscape:window-x="-8"
     inkscape:window-y="-8"
     inkscape:window-maximized="1"
     inkscape:snap-bbox="false"
     inkscape:snap-grids="true"
     units="mm"
     inkscape:snap-nodes="false"
     inkscape:snap-global="false">
    <inkscape:grid
       type="xygrid"
       id="grid2985"
       empspacing="5"
       visible="true"
       enabled="true"
       snapvisiblegridlinesonly="true"
       units="mm"
       spacingx="2mm"
       spacingy="2mm"
       dotted="false" />
  </sodipodi:namedview>
  <metadata
     id="metadata7">
    <rdf:RDF>
      <cc:Work
         rdf:about="">
        <dc:format>image/svg+xml</dc:format>
        <dc:type
           rdf:resource="http://purl.org/dc/dcmitype/StillImage" />
        <dc:title></dc:title>
      </cc:Work>
    </rdf:RDF>
  </metadata>
  <g
     inkscape:groupmode="layer"
     id="layer2"
     inkscape:label="logo"
     style="display:inline"
     transform="translate(0,-690.9449)">
    <path
       sodipodi:type="arc"
       style="fill:none;stroke:#000000;stroke-width:4.6062994;stroke-miterlimit:4;stroke-opacity:1;stroke-dasharray:none"
       id="path3024"
       sodipodi:cx="-17.716536"
       sodipodi:cy="-124.01575"
       sodipodi:rx="17.716536"
       sodipodi:ry="17.716536"
       d="m 0,-124.01575 a 17.716536,17.716536 0 1 1 -35.433071,0 17.716536,17.716536 0 1 1 35.433071,0 z"
       transform="matrix(0.26548672,0,0,0.26548672,-27.717755,419.67651)" />
  </g>
  <g
     inkscape:label="text"
     inkscape:groupmode="layer"
     id="layer1"
     transform="translate(0,-999.21259)"
     style="display:inline">
    <g
       id="g3026"
       transform="matrix(0.25333183,0,0,0.25333183,-2.1010489,795.07822)"
       style="fill:#1a1a1a;display:inline">
      <path
         inkscape:connector-curvature="0"
         id="path3212"
         d="m 474.54178,536.48783 c -1.67524,2.87997 -3.00247,6.13421 -3.40246,9.45338 -0.50835,4.25316 -2.72766,8.23131 -3.99671,12.35335 -4.07691,11.11663 -7.91286,22.34976 -12.5931,33.19441 -0.79765,2.01285 -1.48395,4.05626 -2.19442,6.09241 0.0634,-6.65655 -0.8624,-13.55284 -0.009,-20.06606 0.71297,-2.63399 0.90849,-5.6746 0.14136,-8.28467 -1.5564,-1.33035 -3.20393,1.21806 -4.16589,2.29974 -1.04268,2.41964 -0.81072,5.44658 -0.0472,7.90765 1.24783,2.80477 0.42622,6.21038 0.77896,9.23183 0.18539,10.08622 0.50035,20.21889 -0.33699,30.2522 -0.10294,2.51894 0.19124,5.06976 0.41569,7.59436 -3.27908,-4.26107 -7.52095,-7.85837 -10.42418,-12.34688 0.37681,-2.85586 -2.75084,-4.43395 -4.28843,-6.34309 -1.22919,2.36897 -4.77601,5.74087 -1.84732,8.23755 0.86038,1.03702 2.39742,3.06673 3.79831,1.63054 5.04439,6.16455 10.88341,11.76921 15.39122,18.31298 1.36729,3.70329 4.07526,6.73789 7.15366,9.17062 -6.87492,0.93328 -13.77615,2.55204 -20.63157,3.13855 -0.49236,-2.37454 -3.57053,-0.89731 -5.13029,-0.79975 -1.51528,0.15249 -3.3019,0.60231 -3.45598,2.41143 -0.17897,1.52975 -1.94948,4.03575 -0.12253,5.08014 2.33941,0.34756 5.15908,0.28566 7.1348,-1.15927 0.52342,-2.04197 3.20097,-1.43278 4.7691,-1.99814 8.0996,-1.00783 16.20548,-2.75965 24.3639,-3.42131 7.04543,0.72353 14.38035,-0.21817 20.63437,-3.76622 7.54556,-3.67271 14.20972,-9.52098 19.95956,-15.20651 -6.39403,12.50968 -12.16434,25.39858 -18.75597,37.81352 -2.45606,0.63154 -3.1353,3.8924 -4.4015,5.83414 -1.19198,3.15735 -3.83057,6.09662 -3.70409,9.58533 0.66682,1.55634 2.47665,3.10321 4.21302,2.95006 2.60461,-1.80808 3.12999,-5.47681 4.77608,-8.04643 0.76695,-2.40681 3.08769,-4.73364 2.6415,-7.36362 -0.84169,-1.55178 1.14391,-3.30068 1.48464,-4.83984 8.04008,-16.04616 15.65107,-32.44851 23.88773,-48.37429 4.37102,-7.05963 8.68211,-14.29794 11.62115,-22.08304 -0.4323,12.39974 -1.00875,24.88539 -1.50801,37.26688 -0.24687,1.33913 -2.0075,1.7995 -1.86617,3.41188 -0.36527,4.55188 -0.86075,9.22914 -0.2639,13.74181 1.49375,1.33497 3.87291,-0.11547 5.55138,-0.5561 2.96805,-0.83726 1.74985,-4.70126 2.219,-6.92221 -0.21471,-3.1329 0.8885,-6.59895 -0.268,-9.56228 -0.49788,-0.73634 -1.87758,-0.43304 -1.40436,-1.70595 0.7251,-16.16874 1.04266,-32.49675 1.8662,-48.69008 1.316,-7.10894 2.22859,-14.33399 1.57398,-21.53637 5.79324,6.65829 11.44023,13.53221 17.18196,20.17914 -2.15672,1.92924 0.48133,4.46753 1.7248,6.02265 1.64774,1.90167 3.30701,3.7935 4.95759,5.69276 1.99869,-2.50336 4.4862,-4.67364 6.16403,-7.40813 -2.22701,-3.33888 -5.34175,-6.11297 -7.89824,-9.23661 -0.82817,0.95597 -1.74542,2.29377 -2.58249,0.58437 -6.96837,-8.06576 -14.27319,-15.92319 -20.84832,-24.27909 -1.9371,-3.25287 -3.46827,-6.79708 -6.45618,-9.30258 -1.3805,-1.26882 -3.13803,-2.80916 0.0848,-2.44109 7.99452,-0.71416 16.19266,-1.57297 24.06229,-2.15838 -0.0765,2.38878 3.13909,1.40997 4.53543,1.3913 2.4114,-0.5919 5.82039,0.41354 7.61351,-1.68348 0.75538,-1.9758 2.22031,-4.28575 1.55516,-6.4185 -2.0389,-1.05067 -4.70405,0.026 -6.95572,0.0565 -2.12312,0.0665 -4.13966,0.82799 -5.7022,2.25261 -5.64302,1.27936 -11.61563,1.24818 -17.39875,2.03581 -7.52191,0.75464 -14.89153,1.90285 -22.4129,1.16872 -1.86966,0.0467 -3.72317,0.25406 -5.55137,0.61266 8.15559,-5.99292 16.314,-12.06975 24.56181,-17.88887 2.29764,0.35167 4.06492,-2.08915 5.97551,-3.03487 1.42077,-1.61614 4.82223,-2.25052 5.00065,-4.47912 -0.18054,-1.36551 0.37689,-4.74191 -1.86208,-4.44645 -3.54212,2.10301 -6.98375,4.72517 -9.74556,7.82281 -1.56444,2.62646 -4.92044,3.7177 -7.0967,5.80905 -10.94578,7.83487 -21.39559,16.48298 -32.95057,23.34281 -9.55298,6.55942 -17.4758,15.30935 -24.02459,24.8163 2.95358,-7.8617 5.45169,-15.94446 8.81247,-23.62874 2.03976,-2.65546 2.89551,-6.19882 3.79833,-9.39683 0.12415,-2.47641 -3.32941,-0.92462 -4.09992,0.12253 z m 10.23566,17.1537 c 6.85298,-6.3886 15.75614,-11.56075 25.32524,-11.84738 6.32254,-0.10415 12.88835,3.20782 15.57028,9.08579 1.89213,3.04547 2.69066,6.70246 3.14799,10.12257 0.77543,4.3979 0.17294,9.02556 -0.0497,13.5161 -0.3621,2.72269 -0.39714,5.45718 -1.49606,8.02968 -3.22483,13.48521 -9.96654,25.87455 -18.44595,36.76404 -6.72435,7.66915 -13.83846,15.47129 -23.15832,19.90715 -7.41818,3.9077 -17.46574,5.51008 -24.67307,0.2753 -7.14314,-6.01198 -8.58006,-16.1716 -8.16214,-25.01423 1.15758,-16.41714 8.17484,-32.0507 17.51184,-45.41015 -4.78645,8.15178 -7.37529,17.2379 -10.80117,25.97559 -3.91127,8.7621 -7.37755,19.04859 -3.92083,28.48266 1.48665,3.91894 5.23608,6.39657 9.21775,7.29503 3.97707,1.69711 8.50085,1.52875 12.35631,-0.42413 10.08245,-4.91628 17.14879,-14.39624 21.6505,-24.42554 4.90162,-10.52072 13.10558,-19.73129 14.8812,-31.48417 0.70723,-1.46049 -0.84926,-2.69508 -2.18663,-1.84733 -2.83718,1.39223 -2.30231,5.2901 -3.44958,7.78513 -0.38015,1.37649 -1.19973,3.53911 -1.77192,4.2413 0.58875,-4.83079 0.98407,-9.89107 -1.51027,-14.21755 -1.90367,-4.78054 -7.36049,-6.64434 -12.1585,-6.28654 -6.86452,-0.46268 -13.5166,2.71537 -18.06239,7.81159 -1.98308,1.90151 -4.27742,4.45971 -5.79019,6.21746 3.61469,-8.63424 9.55584,-16.0627 15.08018,-23.54392 0.28489,-0.34843 0.58605,-0.68173 0.89538,-1.00847 z m -11.16876,24.70319 c 3.65747,-3.70643 7.2104,-7.87284 12.54483,-8.90672 3.5787,-0.52826 7.5501,-0.37516 10.99908,0.91423 3.73371,2.05736 5.13544,6.67518 4.98589,10.71635 -0.0828,9.69061 -5.1191,18.27289 -8.99491,26.88434 -2.85849,5.99399 -7.70429,10.79967 -12.63571,15.17991 -3.91685,2.52396 -8.91821,4.6854 -13.44995,2.35628 -3.42952,-0.90667 -7.12163,-2.70909 -7.98274,-6.52218 -0.61684,-1.97021 -0.90332,-4.16706 -0.89537,-6.15458 0.69399,-8.95759 4.92861,-17.27502 8.83131,-25.19332 1.70531,-3.43319 3.74514,-6.65004 6.59757,-9.27431 z"
         style="fill:#1a1a1a;stroke:#000000;stroke-width:0.56870872;stroke-opacity:1;display:inline"
         transform="translate(0,308.26769)" />
      <g
         transform="matrix(0.56870874,0,0,0.56870874,7.780337,564.02542)"
         id="text3917"
         style="font-size:345.45397949px;font-style:oblique;font-variant:normal;font-weight:normal;font-stretch:normal;text-align:start;line-height:125%;letter-spacing:0px;word-spacing:0px;writing-mode:lr-tb;text-anchor:start;fill:#1a1a1a;stroke:none;font-family:Sans;-inkscape-font-specification:Sans Oblique">
        <path
           style="fill:#1a1a1a;stroke:#000000;stroke-opacity:1"
           inkscape:connector-curvature="0"
           id="path3003"
           d="m 58.426085,768.89758 140.172005,-247.28297 38.96477,0 40.82025,247.28297 -32.04895,0 -11.97619,-71.18241 -100.02647,0 -39.639495,71.18241 z m 90.074425,-96.65289 81.80917,0 -9.61469,-62.07376 c -3.71108,-24.62691 -6.01635,-45.14947 -6.91582,-61.56773 -5.62277,14.16922 -13.83179,30.98084 -24.62709,50.43493 z" />
      </g>
      <g
         transform="matrix(0.56870874,0,0,0.56870874,13.467427,564.02542)"
         id="text3921"
         style="font-size:281.21038818px;font-style:oblique;font-variant:normal;font-weight:normal;font-stretch:normal;text-align:start;line-height:125%;letter-spacing:0px;word-spacing:0px;writing-mode:lr-tb;text-anchor:start;fill:#1a1a1a;stroke:#000000;stroke-opacity:1;font-family:Sans;-inkscape-font-specification:Sans Oblique">
        <path
           style="fill:#1a1a1a;stroke:#000000;stroke-opacity:1"
           inkscape:connector-curvature="0"
           id="path3006"
           d="m 267.55575,663.03315 26.36347,-2.47157 -0.27462,7.0028 c -4e-5,7.78094 1.78498,14.89815 5.35508,21.35166 3.57,6.4536 9.47432,11.44251 17.71296,14.96677 8.23851,3.5243 18.03326,5.28644 29.38429,5.28642 16.1109,2e-5 28.40011,-3.52426 36.86767,-10.57285 8.46729,-7.04853 12.70101,-15.10403 12.70115,-24.16652 -1.4e-4,-6.31618 -2.24287,-12.08319 -6.72817,-17.30102 -4.57713,-5.12616 -17.07231,-12.08318 -37.48557,-20.87109 -15.83648,-6.86539 -26.63817,-12.12892 -32.4051,-15.79062 -9.06251,-5.94998 -15.74491,-12.42641 -20.04723,-19.42933 -4.30242,-7.00267 -6.4536,-14.98951 -6.45356,-23.96055 -4e-5,-10.34385 2.83769,-19.6809 8.51321,-28.0112 5.67541,-8.32993 13.98264,-14.69195 24.92172,-19.08605 10.93892,-4.39371 23.2739,-6.59067 37.00498,-6.59087 16.3855,2e-4 30.208,2.7464 41.46755,8.23858 11.25923,5.49259 19.42915,12.81577 24.50979,21.96957 5.08028,9.15415 7.6205,17.89619 7.62069,26.22616 -1.9e-4,0.82401 -0.046,2.1971 -0.13731,4.11929 l -25.95154,2.05965 c -1.7e-4,-5.67532 -0.50363,-10.115 -1.51041,-13.31905 -1.83096,-5.58377 -4.66869,-10.29806 -8.5132,-14.1429 -3.84483,-3.8445 -9.13125,-6.93397 -15.85928,-9.26841 -6.72831,-2.33409 -14.25745,-3.50122 -22.58746,-3.5014 -14.64647,1.8e-4 -26.04317,3.29561 -34.19013,9.8863 -6.22478,5.03486 -9.33713,11.71726 -9.33706,20.04723 -7e-5,4.9433 1.28148,9.36009 3.84467,13.25039 2.56304,3.89058 7.1858,7.71236 13.86829,11.46536 4.75998,2.65478 16.06513,7.91832 33.91551,15.79063 14.46316,6.40789 24.44099,11.44258 29.93353,15.10407 7.32302,4.8517 12.95272,10.73313 16.8891,17.6443 3.93604,6.91133 5.90414,14.76087 5.90432,23.54863 -1.8e-4,10.89328 -3.3185,20.93977 -9.95496,30.13949 -6.6368,9.19977 -15.81366,16.31699 -27.53061,21.35167 -11.71722,5.03469 -25.1278,7.55203 -40.23176,7.55203 -22.79349,0 -41.39895,-4.96603 -55.81642,-14.8981 -14.41755,-9.93206 -21.67207,-27.80519 -21.76359,-53.61947 z" />
      </g>
      <g
         transform="matrix(0.56870874,0,0,0.56870874,24.841597,564.02542)"
         id="text3925"
         style="font-size:234.34199524px;font-style:oblique;font-variant:normal;font-weight:normal;font-stretch:normal;text-align:start;line-height:125%;letter-spacing:0px;word-spacing:0px;writing-mode:lr-tb;text-anchor:start;fill:#1a1a1a;stroke:#000000;stroke-opacity:1;font-family:Sans;-inkscape-font-specification:Sans Oblique">
        <path
           style="fill:#1a1a1a;stroke:#000000;stroke-opacity:1"
           inkscape:connector-curvature="0"
           id="path3009"
           d="m 419.37857,639.33869 21.96956,-2.05964 -0.22885,5.83566 c -4e-5,6.48412 1.48748,12.41513 4.46257,17.79306 2.975,5.37799 7.89526,9.53542 14.7608,12.4723 6.86542,2.93692 15.02772,4.40537 24.48691,4.40536 13.42574,10e-6 23.66675,-2.93689 30.72306,-8.81071 7.05607,-5.87378 10.58417,-12.58669 10.58429,-20.13877 -1.2e-4,-5.26349 -1.86906,-10.06933 -5.60682,-14.41752 -3.81427,-4.2718 -14.22692,-10.06932 -31.23797,-17.39257 -13.19706,-5.72116 -22.19847,-10.10744 -27.00425,-13.15886 -7.55209,-4.95831 -13.12076,-10.35534 -16.70602,-16.1911 -3.58535,-5.83556 -5.378,-12.49126 -5.37797,-19.96713 -3e-5,-8.61987 2.36474,-16.40075 7.09434,-23.34266 4.72951,-6.94162 11.6522,-12.24329 20.7681,-15.90505 9.11577,-3.66142 19.39492,-5.49222 30.83749,-5.49239 13.65458,1.7e-4 25.17333,2.28866 34.55629,6.86549 9.38269,4.57715 16.19096,10.6798 20.42482,18.30797 4.23357,7.62845 6.35042,14.91349 6.35058,21.85513 -1.6e-4,0.68667 -0.0383,1.83092 -0.11442,3.43275 l -21.62629,1.71637 c -1.4e-4,-4.72944 -0.41969,-8.42917 -1.25867,-11.09921 -1.5258,-4.65314 -3.89058,-8.58172 -7.09434,-11.78575 -3.20402,-3.20375 -7.60937,-5.77831 -13.21607,-7.72368 -5.60692,-1.94507 -11.88121,-2.91768 -18.82288,-2.91783 -12.20539,1.5e-4 -21.70264,2.74635 -28.49177,8.23859 -5.18732,4.19571 -7.78095,9.76438 -7.78089,16.70602 -6e-5,4.11941 1.06791,7.80008 3.2039,11.04199 2.13586,3.24215 5.98816,6.42697 11.5569,9.55447 3.96665,2.21232 13.38762,6.5986 28.26293,13.15886 12.05263,5.33991 20.36749,9.53548 24.9446,12.58672 6.10253,4.04309 10.79394,8.94428 14.07425,14.70359 3.28004,5.75944 4.92012,12.30072 4.92027,19.62385 -1.5e-4,9.07774 -2.76541,17.44982 -8.2958,25.11625 -5.53066,7.66647 -13.17804,13.59749 -22.94217,17.79306 -9.76436,4.19557 -20.93983,6.29336 -33.52647,6.29336 -18.99458,0 -34.49912,-4.13836 -46.51368,-12.41509 -12.01463,-8.27671 -18.06006,-23.17099 -18.13633,-44.68289 z" />
      </g>
      <g
         transform="matrix(0.56870874,0,0,0.56870874,38.490607,564.02542)"
         id="text3929"
         style="font-size:197.40228271px;font-style:oblique;font-variant:normal;font-weight:normal;font-stretch:normal;text-align:start;line-height:125%;letter-spacing:0px;word-spacing:0px;writing-mode:lr-tb;text-anchor:start;fill:#1a1a1a;stroke:#000000;stroke-opacity:1;font-family:Sans;-inkscape-font-specification:Sans Oblique">
        <path
           style="fill:#1a1a1a;stroke:#000000;stroke-opacity:1"
           inkscape:connector-curvature="0"
           id="path3015"
           d="m 609.95278,662.59839 29.59107,-141.30457 43.76008,0 c 7.96797,1.5e-4 13.87975,0.32144 17.73536,0.96388 6.29723,1.09254 11.61462,3.00423 15.95218,5.73508 4.33734,2.73112 7.69484,6.45811 10.07253,11.18099 2.37744,4.72312 3.56622,9.94412 3.56635,15.66302 -1.3e-4,7.77539 -2.13672,14.61892 -6.40979,20.53061 -4.27331,5.91187 -10.81161,10.40996 -19.61492,13.4943 7.64665,2.50615 13.36566,6.28134 17.15703,11.32557 3.79113,5.04435 5.68676,10.94007 5.68688,17.68716 -1.2e-4,7.77533 -2.23311,15.22931 -6.69895,22.36198 -4.46609,7.13272 -10.37787,12.64288 -17.73536,16.53051 -7.3577,3.88765 -15.56672,5.83147 -24.62709,5.83147 z m 35.85628,-80.96578 28.62719,0 c 13.68698,8e-5 23.53459,-2.18471 29.54287,-6.55437 6.00806,-4.36949 9.01215,-10.73108 9.01226,-19.0848 -1.1e-4,-3.98391 -0.93186,-7.42174 -2.79525,-10.31349 -1.8636,-2.89152 -4.35362,-4.99598 -7.47006,-6.31341 -3.11663,-1.31717 -8.98022,-1.97582 -17.59078,-1.97595 l -30.073,0 z m -13.59069,64.9654 32.19354,0 c 8.54632,10e-6 14.29745,-0.28915 17.25342,-0.86749 5.97596,-1.02812 10.82748,-2.77917 14.55457,-5.25314 3.72689,-2.47393 6.65065,-5.73505 8.77129,-9.78336 2.12043,-4.04826 3.18069,-8.28932 3.1808,-12.7232 -1.1e-4,-6.61858 -2.07245,-11.64681 -6.21702,-15.08469 -4.14477,-3.43777 -12.0325,-5.15669 -23.66321,-5.15675 l -35.85628,0 z" />
      </g>
      <g
         transform="matrix(0.56870874,0,0,0.56870874,48.727367,564.02542)"
         id="text3933"
         style="font-size:197.40228271px;font-style:oblique;font-variant:normal;font-weight:normal;font-stretch:normal;text-align:start;line-height:125%;letter-spacing:0px;word-spacing:0px;writing-mode:lr-tb;text-anchor:start;fill:#1a1a1a;stroke:#000000;stroke-opacity:1;font-family:Sans;-inkscape-font-specification:Sans Oblique">
        <path
           style="fill:#1a1a1a;stroke:#000000;stroke-opacity:1"
           inkscape:connector-curvature="0"
           id="path3018"
           d="m 874.8223,662.59839 26.1211,-125.2078 -46.36255,0 3.37357,-16.09677 111.23156,0 -3.37357,16.09677 -45.977,0 -26.1211,125.2078 z" />
      </g>
      <g
         id="text3937"
         style="font-size:221.91719055px;font-style:oblique;font-variant:normal;font-weight:normal;font-stretch:normal;text-align:start;line-height:125%;letter-spacing:0px;word-spacing:0px;writing-mode:lr-tb;text-anchor:start;fill:#1a1a1a;stroke:#000000;stroke-opacity:1;font-family:Sans;-inkscape-font-specification:Sans Oblique"
         transform="matrix(0.57881764,0,0,0.55877638,32.803517,564.02542)">
        <path
           style="fill:#1a1a1a;stroke:#000000;stroke-opacity:1"
           inkscape:connector-curvature="0"
           id="path3012"
           d="m 542.15961,616.70938 4.11761,-19.6128 59.81361,0 -4.00924,19.6128 z" />
      </g>
    </g>
  </g>
</svg>
