  0
SECTION
  2
HEADER
  9
$ACADVER
  1
AC1014
  9
$HANDSEED
  5
FFFF
  9
$MEASUREMENT
 70
     1
  0
ENDSEC
  0
SECTION
  2
TABLES
  0
TABLE
  2
VPORT
  5
8
330
0
100
AcDbSymbolTable
 70
     4
  0
VPORT
  5
2E
330
8
100
AcDbSymbolTableRecord
100
AcDbViewportTableRecord
  2
*ACTIVE
 70
     0
 10
0.0
 20
0.0
 11
1.0
 21
1.0
 12
210.0
 22
148.5
 13
0.0
 23
0.0
 14
10.0
 24
10.0
 15
10.0
 25
10.0
 16
0.0
 26
0.0
 36
1.0
 17
0.0
 27
0.0
 37
0.0
 40
341.0
 41
1.24
 42
50.0
 43
0.0
 44
0.0
 50
0.0
 51
0.0
 71
     0
 72
   100
 73
     1
 74
     3
 75
     0
 76
     0
 77
     0
 78
     0
  0
ENDTAB
  0
TABLE
  2
LTYPE
  5
5
330
0
100
AcDbSymbolTable
 70
     1
  0
LTYPE
  5
14
330
5
100
AcDbSymbolTableRecord
100
AcDbLinetypeTableRecord
  2
BYBLOCK
 70
     0
  3

 72
    65
 73
     0
 40
0.0
  0
LTYPE
  5
15
330
5
100
AcDbSymbolTableRecord
100
AcDbLinetypeTableRecord
  2
BYLAYER
 70
     0
  3

 72
    65
 73
     0
 40
0.0
  0
LTYPE
  5
16
330
5
100
AcDbSymbolTableRecord
100
AcDbLinetypeTableRecord
  2
CONTINUOUS
 70
     0
  3
Solid line
 72
    65
 73
     0
 40
0.0
  0
ENDTAB
  0
TABLE
  2
LAYER
  5
2
100
AcDbSymbolTable
 70
3
  0
LAYER
  5
50
100
AcDbSymbolTableRecord
100
AcDbLayerTableRecord
  2
0
 70
0
  6
CONTINUOUS
  0
LAYER
  5
51
100
AcDbSymbolTableRecord
100
AcDbLayerTableRecord
  2
logo
 70
0
  6
CONTINUOUS
  0
LAYER
  5
52
100
AcDbSymbolTableRecord
100
AcDbLayerTableRecord
  2
text
 70
0
  6
CONTINUOUS
  0
ENDTAB
  0
TABLE
  2
STYLE
  5
3
330
0
100
AcDbSymbolTable
 70
     1
  0
STYLE
  5
11
330
3
100
AcDbSymbolTableRecord
100
AcDbTextStyleTableRecord
  2
STANDARD
 70
     0
 40
0.0
 41
1.0
 50
0.0
 71
     0
 42
2.5
  3
txt
  4

  0
ENDTAB
  0
TABLE
  2
VIEW
  5
6
330
0
100
AcDbSymbolTable
 70
     0
  0
ENDTAB
  0
TABLE
  2
UCS
  5
7
330
0
100
AcDbSymbolTable
 70
     0
  0
ENDTAB
  0
TABLE
  2
APPID
  5
9
330
0
100
AcDbSymbolTable
 70
     2
  0
APPID
  5
12
330
9
100
AcDbSymbolTableRecord
100
AcDbRegAppTableRecord
  2
ACAD
 70
     0
  0
ENDTAB
  0
TABLE
  2
DIMSTYLE
  5
A
330
0
100
AcDbSymbolTable
 70
     1
  0
DIMSTYLE
105
27
330
A
100
AcDbSymbolTableRecord
100
AcDbDimStyleTableRecord
  2
ISO-25
 70
     0
  3

  4

  5

  6

  7

 40
1.0
 41
2.5
 42
0.625
 43
3.75
 44
1.25
 45
0.0
 46
0.0
 47
0.0
 48
0.0
140
2.5
141
2.5
142
0.0
143
0.03937007874016
144
1.0
145
0.0
146
1.0
147
0.625
 71
     0
 72
     0
 73
     0
 74
     0
 75
     0
 76
     0
 77
     1
 78
     8
170
     0
171
     3
172
     1
173
     0
174
     0
175
     0
176
     0
177
     0
178
     0
270
     2
271
     2
272
     2
273
     2
274
     3
340
11
275
     0
280
     0
281
     0
282
     0
283
     0
284
     8
285
     0
286
     0
287
     3
288
     0
  0
ENDTAB
  0
TABLE
  2
BLOCK_RECORD
  5
1
330
0
100
AcDbSymbolTable
 70
     1
  0
BLOCK_RECORD
  5
1F
330
1
100
AcDbSymbolTableRecord
100
AcDbBlockTableRecord
  2
*MODEL_SPACE
  0
BLOCK_RECORD
  5
1B
330
1
100
AcDbSymbolTableRecord
100
AcDbBlockTableRecord
  2
*PAPER_SPACE
  0
ENDTAB
  0
ENDSEC
  0
SECTION
  2
BLOCKS
  0
BLOCK
  5
20
330
1F
100
AcDbEntity
  8
0
100
AcDbBlockBegin
  2
*MODEL_SPACE
 70
     0
 10
0.0
 20
0.0
 30
0.0
  3
*MODEL_SPACE
  1

  0
ENDBLK
  5
21
330
1F
100
AcDbEntity
  8
0
100
AcDbBlockEnd
  0
BLOCK
  5
1C
330
1B
100
AcDbEntity
 67
     1
  8
0
100
AcDbBlockBegin
  2
*PAPER_SPACE
  1

  0
ENDBLK
  5
1D
330
1B
100
AcDbEntity
 67
     1
  8
0
100
AcDbBlockEnd
  0
ENDSEC
  0
SECTION
  2
ENTITIES
  0
SPLINE
  5
100
100
AcDbEntity
  8
logo
 62
7
100
AcDbSpline
 70
0
 71
3
 72
25
 73
21
 74
19
 40
0.000000
 40
0.000000
 40
0.000000
 40
0.000000
 40
0.463297
 40
0.919961
 40
1.383258
 40
1.846554
 40
2.303219
 40
2.766515
 40
3.229812
 40
3.686476
 40
4.149773
 40
4.613070
 40
5.069734
 40
5.533031
 40
5.996327
 40
6.452992
 40
6.916288
 40
7.379585
 40
7.836249
 40
8.299546
 40
8.299546
 40
8.299546
 40
8.299546
 10
-7.822566
 20
100.850003
 30
0.0
 10
-7.838395
 20
100.694779
 30
0.0
 10
-7.869824
 20
100.386553
 30
0.0
 10
-8.114135
 20
99.979197
 30
0.0
 10
-8.471908
 20
99.676330
 30
0.0
 10
-8.914975
 20
99.515695
 30
0.0
 10
-9.385127
 20
99.515695
 30
0.0
 10
-9.827574
 20
99.676330
 30
0.0
 10
-10.187819
 20
99.979197
 30
0.0
 10
-10.422944
 20
100.386553
 30
0.0
 10
-10.504875
 20
100.850003
 30
0.0
 10
-10.422944
 20
101.313452
 30
0.0
 10
-10.187819
 20
101.720809
 30
0.0
 10
-9.827574
 20
102.023676
 30
0.0
 10
-9.385127
 20
102.184310
 30
0.0
 10
-8.914975
 20
102.184310
 30
0.0
 10
-8.471908
 20
102.023676
 30
0.0
 10
-8.114135
 20
101.720809
 30
0.0
 10
-7.869824
 20
101.313452
 30
0.0
 10
-7.838395
 20
101.005227
 30
0.0
 10
-7.822566
 20
100.850003
 30
0.0
 11
-7.822566
 21
100.850003
 31
0.0
 11
-7.903288
 21
100.393793
 31
0.0
 11
-8.131558
 21
99.998274
 31
0.0
 11
-8.486192
 21
99.700149
 31
0.0
 11
-8.921668
 21
99.542020
 31
0.0
 11
-9.378332
 21
99.542020
 31
0.0
 11
-9.813808
 21
99.700149
 31
0.0
 11
-10.168442
 21
99.998274
 31
0.0
 11
-10.396712
 21
100.393793
 31
0.0
 11
-10.477434
 21
100.850003
 31
0.0
 11
-10.396712
 21
101.306213
 31
0.0
 11
-10.168442
 21
101.701732
 31
0.0
 11
-9.813808
 21
101.999857
 31
0.0
 11
-9.378332
 21
102.157986
 31
0.0
 11
-8.921668
 21
102.157986
 31
0.0
 11
-8.486192
 21
101.999857
 31
0.0
 11
-8.131558
 21
101.701732
 31
0.0
 11
-7.903288
 21
101.306213
 31
0.0
 11
-7.822566
 21
100.850003
 31
0.0
  0
SPLINE
  5
101
100
AcDbEntity
  8
text
 62
7
100
AcDbSpline
 70
0
 71
3
 72
13
 73
9
 74
7
 40
0.000000
 40
0.000000
 40
0.000000
 40
0.000000
 40
0.240597
 40
0.482629
 40
0.722658
 40
1.029407
 40
1.341383
 40
1.652506
 40
1.652506
 40
1.652506
 40
1.652506
 10
33.334816
 20
12.214723
 30
0.0
 10
33.296631
 20
12.144189
 30
0.0
 10
33.220032
 20
12.002701
 30
0.0
 10
33.133117
 20
11.776351
 30
0.0
 10
33.089136
 20
11.516702
 30
0.0
 10
33.030645
 20
11.235506
 30
0.0
 10
32.909102
 20
10.949308
 30
0.0
 10
32.840206
 20
10.753434
 30
0.0
 10
32.805806
 20
10.655631
 30
0.0
 11
33.334816
 21
12.214723
 31
0.0
 11
33.224870
 21
12.000716
 31
0.0
 11
33.140716
 21
11.773785
 31
0.0
 11
33.091554
 21
11.538845
 31
0.0
 11
33.021480
 21
11.240206
 31
0.0
 11
32.912137
 21
10.948020
 31
0.0
 11
32.805806
 21
10.655631
 31
0.0
  0
SPLINE
  5
102
100
AcDbEntity
  8
text
 62
7
100
AcDbSpline
 70
0
 71
3
 72
10
 73
6
 74
4
 40
0.000000
 40
0.000000
 40
0.000000
 40
0.000000
 40
0.846926
 40
1.693515
 40
2.538638
 40
2.538638
 40
2.538638
 40
2.538638
 10
32.805806
 20
10.655631
 30
0.0
 10
32.709599
 20
10.390232
 30
0.0
 10
32.517225
 20
9.859540
 30
0.0
 10
32.228882
 20
9.063801
 30
0.0
 10
32.013199
 20
8.542695
 30
0.0
 10
31.905451
 20
8.282368
 30
0.0
 11
32.805806
 21
10.655631
 31
0.0
 11
32.517192
 21
9.859399
 31
0.0
 11
32.222821
 21
9.065637
 31
0.0
 11
31.905451
 21
8.282368
 31
0.0
  0
SPLINE
  5
103
100
AcDbEntity
  8
text
 62
7
100
AcDbSpline
 70
0
 71
3
 72
10
 73
6
 74
4
 40
0.000000
 40
0.000000
 40
0.000000
 40
0.000000
 40
0.154555
 40
0.308827
 40
0.463009
 40
0.463009
 40
0.463009
 40
0.463009
 10
31.905451
 20
8.282368
 30
0.0
 10
31.886956
 20
8.234281
 30
0.0
 10
31.849999
 20
8.138194
 30
0.0
 10
31.799092
 20
7.992480
 30
0.0
 10
31.765400
 20
7.895341
 30
0.0
 10
31.748559
 20
7.846786
 30
0.0
 11
31.905451
 21
8.282368
 31
0.0
 11
31.850717
 21
8.137830
 31
0.0
 11
31.799137
 21
7.992435
 31
0.0
 11
31.748559
 21
7.846786
 31
0.0
  0
SPLINE
  5
104
100
AcDbEntity
  8
text
 62
7
100
AcDbSpline
 70
0
 71
3
 72
10
 73
6
 74
4
 40
0.000000
 40
0.000000
 40
0.000000
 40
0.000000
 40
0.480123
 40
0.961865
 40
1.435724
 40
1.435724
 40
1.435724
 40
1.435724
 10
31.748559
 20
7.846786
 30
0.0
 10
31.745852
 20
8.006776
 30
0.0
 10
31.740429
 20
8.327295
 30
0.0
 10
31.710826
 20
8.805778
 30
0.0
 10
31.735620
 20
9.123751
 30
0.0
 10
31.747915
 20
9.281426
 30
0.0
 11
31.748559
 21
7.846786
 31
0.0
 11
31.736848
 21
8.326766
 31
0.0
 11
31.721972
 21
8.808278
 31
0.0
 11
31.747915
 21
9.281426
 31
0.0
  0
SPLINE
  5
105
100
AcDbEntity
  8
text
 62
7
100
AcDbSpline
 70
0
 71
3
 72
10
 73
6
 74
4
 40
0.000000
 40
0.000000
 40
0.000000
 40
0.000000
 40
0.199345
 40
0.401300
 40
0.598744
 40
0.598744
 40
0.598744
 40
0.598744
 10
31.747915
 20
9.281426
 30
0.0
 10
31.762343
 20
9.346323
 30
0.0
 10
31.791387
 20
9.476965
 30
0.0
 10
31.799538
 20
9.678562
 30
0.0
 10
31.771756
 20
9.809177
 30
0.0
 10
31.758022
 20
9.873746
 30
0.0
 11
31.747915
 21
9.281426
 31
0.0
 11
31.785379
 21
9.477220
 31
0.0
 11
31.791106
 21
9.679093
 31
0.0
 11
31.758022
 21
9.873746
 31
0.0
  0
SPLINE
  5
106
100
AcDbEntity
  8
text
 62
7
100
AcDbSpline
 70
0
 71
3
 72
10
 73
6
 74
4
 40
0.000000
 40
0.000000
 40
0.000000
 40
0.000000
 40
0.112656
 40
0.245316
 40
0.373883
 40
0.373883
 40
0.373883
 40
0.373883
 10
31.758022
 20
9.873746
 30
0.0
 10
31.719267
 20
9.886219
 30
0.0
 10
31.634874
 20
9.913378
 30
0.0
 10
31.541483
 20
9.805995
 30
0.0
 10
31.486995
 20
9.741209
 30
0.0
 10
31.460178
 20
9.709324
 30
0.0
 11
31.758022
 21
9.873746
 31
0.0
 11
31.646631
 21
9.890577
 31
0.0
 11
31.543236
 21
9.807460
 31
0.0
 11
31.460178
 21
9.709324
 31
0.0
  0
SPLINE
  5
107
100
AcDbEntity
  8
text
 62
7
100
AcDbSpline
 70
0
 71
3
 72
10
 73
6
 74
4
 40
0.000000
 40
0.000000
 40
0.000000
 40
0.000000
 40
0.190046
 40
0.384735
 40
0.575305
 40
0.575305
 40
0.575305
 40
0.575305
 10
31.460178
 20
9.709324
 30
0.0
 10
31.441324
 20
9.648462
 30
0.0
 10
31.403156
 20
9.525252
 30
0.0
 10
31.409963
 20
9.330133
 30
0.0
 10
31.441302
 20
9.205574
 30
0.0
 10
31.456804
 20
9.143960
 30
0.0
 11
31.460178
 21
9.709324
 31
0.0
 11
31.414040
 21
9.524963
 31
0.0
 11
31.416851
 21
9.330295
 31
0.0
 11
31.456804
 21
9.143960
 31
0.0
  0
SPLINE
  5
108
100
AcDbEntity
  8
text
 62
7
100
AcDbSpline
 70
0
 71
3
 72
10
 73
6
 74
4
 40
0.000000
 40
0.000000
 40
0.000000
 40
0.000000
 40
0.217708
 40
0.442942
 40
0.665586
 40
0.665586
 40
0.665586
 40
0.665586
 10
31.456804
 20
9.143960
 30
0.0
 10
31.477187
 20
9.073693
 30
0.0
 10
31.518659
 20
8.930730
 30
0.0
 10
31.502197
 20
8.706955
 30
0.0
 10
31.509076
 20
8.557979
 30
0.0
 10
31.512496
 20
8.483922
 30
0.0
 11
31.456804
 21
9.143960
 31
0.0
 11
31.505289
 21
8.931720
 31
0.0
 11
31.506674
 21
8.706490
 31
0.0
 11
31.512496
 21
8.483922
 31
0.0
  0
SPLINE
  5
109
100
AcDbEntity
  8
text
 62
7
100
AcDbSpline
 70
0
 71
3
 72
10
 73
6
 74
4
 40
0.000000
 40
0.000000
 40
0.000000
 40
0.000000
 40
0.721960
 40
1.443703
 40
2.163915
 40
2.163915
 40
2.163915
 40
2.163915
 10
31.512496
 20
8.483922
 30
0.0
 10
31.517303
 20
8.243338
 30
0.0
 10
31.526915
 20
7.762241
 30
0.0
 10
31.532497
 20
7.040602
 30
0.0
 10
31.503090
 20
6.560707
 30
0.0
 10
31.488403
 20
6.321015
 30
0.0
 11
31.512496
 21
8.483922
 31
0.0
 11
31.525444
 21
7.762078
 31
0.0
 11
31.524202
 21
7.040337
 31
0.0
 11
31.488403
 21
6.321015
 31
0.0
  0
SPLINE
  5
10a
100
AcDbEntity
  8
text
 62
7
100
AcDbSpline
 70
0
 71
3
 72
10
 73
6
 74
4
 40
0.000000
 40
0.000000
 40
0.000000
 40
0.000000
 40
0.180702
 40
0.362420
 40
0.544138
 40
0.544138
 40
0.544138
 40
0.544138
 10
31.488403
 20
6.321015
 30
0.0
 10
31.487768
 20
6.260752
 30
0.0
 10
31.486495
 20
6.139886
 30
0.0
 10
31.501327
 20
5.958960
 30
0.0
 10
31.512524
 20
5.838353
 30
0.0
 10
31.518123
 20
5.778049
 30
0.0
 11
31.488403
 21
6.321015
 31
0.0
 11
31.489271
 21
6.140315
 31
0.0
 11
31.501650
 21
5.959019
 31
0.0
 11
31.518123
 21
5.778049
 31
0.0
  0
SPLINE
  5
10b
100
AcDbEntity
  8
text
 62
7
100
AcDbSpline
 70
0
 71
3
 72
10
 73
6
 74
4
 40
0.000000
 40
0.000000
 40
0.000000
 40
0.000000
 40
0.385961
 40
0.772905
 40
1.155988
 40
1.155988
 40
1.155988
 40
1.155988
 10
31.518123
 20
5.778049
 30
0.0
 10
31.435682
 20
5.876843
 30
0.0
 10
31.270591
 20
6.074681
 30
0.0
 10
30.999863
 20
6.349991
 30
0.0
 10
30.848259
 20
6.557544
 30
0.0
 10
30.772837
 20
6.660800
 30
0.0
 11
31.518123
 21
5.778049
 31
0.0
 11
31.266831
 21
6.070997
 31
0.0
 11
31.006214
 21
6.357012
 31
0.0
 11
30.772837
 21
6.660800
 31
0.0
  0
SPLINE
  5
10c
100
AcDbEntity
  8
text
 62
7
100
AcDbSpline
 70
0
 71
3
 72
10
 73
6
 74
4
 40
0.000000
 40
0.000000
 40
0.000000
 40
0.000000
 40
0.183132
 40
0.375580
 40
0.564523
 40
0.564523
 40
0.564523
 40
0.564523
 10
30.772837
 20
6.660800
 30
0.0
 10
30.765252
 20
6.723649
 30
0.0
 10
30.749695
 20
6.852542
 30
0.0
 10
30.597775
 20
6.979555
 30
0.0
 10
30.509810
 20
7.069665
 30
0.0
 10
30.466232
 20
7.114305
 30
0.0
 11
30.772837
 21
6.660800
 31
0.0
 11
30.729749
 21
6.838791
 31
0.0
 11
30.600567
 21
6.981439
 31
0.0
 11
30.466232
 21
7.114305
 31
0.0
  0
SPLINE
  5
10d
100
AcDbEntity
  8
text
 62
7
100
AcDbSpline
 70
0
 71
3
 72
10
 73
6
 74
4
 40
0.000000
 40
0.000000
 40
0.000000
 40
0.000000
 40
0.223196
 40
0.448478
 40
0.658061
 40
0.658061
 40
0.658061
 40
0.658061
 10
30.466232
 20
7.114305
 30
0.0
 10
30.427600
 20
7.052902
 30
0.0
 10
30.349974
 20
6.929521
 30
0.0
 10
30.212761
 20
6.724254
 30
0.0
 10
30.294677
 20
6.590039
 30
0.0
 10
30.334156
 20
6.525354
 30
0.0
 11
30.466232
 21
7.114305
 31
0.0
 11
30.346400
 21
6.926005
 31
0.0
 11
30.255807
 21
6.719741
 31
0.0
 11
30.334156
 21
6.525354
 31
0.0
  0
SPLINE
  5
10e
100
AcDbEntity
  8
text
 62
7
100
AcDbSpline
 70
0
 71
3
 72
10
 73
6
 74
4
 40
0.000000
 40
0.000000
 40
0.000000
 40
0.000000
 40
0.114426
 40
0.227981
 40
0.334134
 40
0.334134
 40
0.334134
 40
0.334134
 10
30.334156
 20
6.525354
 30
0.0
 10
30.357838
 20
6.496878
 30
0.0
 10
30.405023
 20
6.440142
 30
0.0
 10
30.500011
 20
6.353700
 30
0.0
 10
30.571284
 20
6.390835
 30
0.0
 10
30.605720
 20
6.408777
 30
0.0
 11
30.334156
 21
6.525354
 31
0.0
 11
30.409644
 21
6.439360
 31
0.0
 11
30.504469
 21
6.376889
 31
0.0
 11
30.605720
 21
6.408777
 31
0.0
  0
SPLINE
  5
10f
100
AcDbEntity
  8
text
 62
7
100
AcDbSpline
 70
0
 71
3
 72
10
 73
6
 74
4
 40
0.000000
 40
0.000000
 40
0.000000
 40
0.000000
 40
0.570897
 40
1.142333
 40
1.710989
 40
1.710989
 40
1.710989
 40
1.710989
 10
30.605720
 20
6.408777
 30
0.0
 10
30.729418
 20
6.264183
 30
0.0
 10
30.976933
 20
5.974857
 30
0.0
 10
31.364842
 20
5.556003
 30
0.0
 10
31.592551
 20
5.251403
 30
0.0
 10
31.706128
 20
5.099475
 30
0.0
 11
30.605720
 21
6.408777
 31
0.0
 11
30.979681
 21
5.977411
 31
0.0
 11
31.357742
 21
5.548916
 31
0.0
 11
31.706128
 21
5.099475
 31
0.0
  0
SPLINE
  5
110
100
AcDbEntity
  8
text
 62
7
100
AcDbSpline
 70
0
 71
3
 72
10
 73
6
 74
4
 40
0.000000
 40
0.000000
 40
0.000000
 40
0.000000
 40
0.279589
 40
0.559688
 40
0.840877
 40
0.840877
 40
0.840877
 40
0.840877
 10
31.706128
 20
5.099475
 30
0.0
 10
31.744944
 20
5.014374
 30
0.0
 10
31.822645
 20
4.844018
 30
0.0
 10
32.003753
 20
4.625951
 30
0.0
 10
32.146215
 20
4.504605
 30
0.0
 10
32.217585
 20
4.443813
 30
0.0
 11
31.706128
 21
5.099475
 31
0.0
 11
31.833266
 21
4.850464
 31
0.0
 11
32.008890
 21
4.632264
 31
0.0
 11
32.217585
 21
4.443813
 31
0.0
  0
SPLINE
  5
111
100
AcDbEntity
  8
text
 62
7
100
AcDbSpline
 70
0
 71
3
 72
10
 73
6
 74
4
 40
0.000000
 40
0.000000
 40
0.000000
 40
0.000000
 40
0.498190
 40
0.997363
 40
1.492295
 40
1.492295
 40
1.492295
 40
1.492295
 10
32.217585
 20
4.443813
 30
0.0
 10
32.053450
 20
4.418581
 30
0.0
 10
31.724856
 20
4.368068
 30
0.0
 10
31.235845
 20
4.275590
 30
0.0
 10
30.906489
 20
4.238090
 30
0.0
 10
30.742513
 20
4.219420
 30
0.0
 11
32.217585
 21
4.443813
 31
0.0
 11
31.725621
 21
4.365300
 31
0.0
 11
31.233548
 21
4.281405
 31
0.0
 11
30.742513
 21
4.219420
 31
0.0
  0
SPLINE
  5
112
100
AcDbEntity
  8
text
 62
7
100
AcDbSpline
 70
0
 71
3
 72
16
 73
12
 74
10
 40
0.000000
 40
0.000000
 40
0.000000
 40
0.000000
 40
0.125782
 40
0.270042
 40
0.409326
 40
0.521041
 40
0.627032
 40
0.736425
 40
0.867915
 40
1.005301
 40
1.123858
 40
1.123858
 40
1.123858
 40
1.123858
 10
30.742513
 20
4.219420
 30
0.0
 10
30.717223
 20
4.257941
 30
0.0
 10
30.662927
 20
4.340641
 30
0.0
 10
30.510147
 20
4.300174
 30
0.0
 10
30.385581
 20
4.276819
 30
0.0
 10
30.267653
 20
4.262231
 30
0.0
 10
30.160715
 20
4.213494
 30
0.0
 10
30.125022
 20
4.094991
 30
0.0
 10
30.096264
 20
3.978339
 30
0.0
 10
30.036282
 20
3.845927
 30
0.0
 10
30.093408
 20
3.774205
 30
0.0
 10
30.119870
 20
3.740983
 30
0.0
 11
30.742513
 21
4.219420
 31
0.0
 11
30.656555
 21
4.311247
 31
0.0
 11
30.512554
 21
4.302601
 31
0.0
 11
30.375719
 21
4.276599
 31
0.0
 11
30.265957
 21
4.255798
 31
0.0
 11
30.173512
 21
4.203953
 31
0.0
 11
30.128630
 21
4.104192
 31
0.0
 11
30.091646
 21
3.978010
 31
0.0
 11
30.061245
 21
3.844030
 31
0.0
 11
30.119870
 21
3.740983
 31
0.0
  0
SPLINE
  5
113
100
AcDbEntity
  8
text
 62
7
100
AcDbSpline
 70
0
 71
3
 72
10
 73
6
 74
4
 40
0.000000
 40
0.000000
 40
0.000000
 40
0.000000
 40
0.175643
 40
0.354113
 40
0.528005
 40
0.528005
 40
0.528005
 40
0.528005
 10
30.119870
 20
3.740983
 30
0.0
 10
30.178022
 20
3.734906
 30
0.0
 10
30.295263
 20
3.722656
 30
0.0
 10
30.474562
 20
3.739031
 30
0.0
 10
30.578624
 20
3.795833
 30
0.0
 10
30.629979
 20
3.823866
 30
0.0
 11
30.119870
 21
3.740983
 31
0.0
 11
30.295067
 21
3.728470
 31
0.0
 11
30.472117
 21
3.750941
 31
0.0
 11
30.629979
 21
3.823866
 31
0.0
  0
SPLINE
  5
114
100
AcDbEntity
  8
text
 62
7
100
AcDbSpline
 70
0
 71
3
 72
10
 73
6
 74
4
 40
0.000000
 40
0.000000
 40
0.000000
 40
0.000000
 40
0.122706
 40
0.256474
 40
0.388331
 40
0.388331
 40
0.388331
 40
0.388331
 10
30.629979
 20
3.823866
 30
0.0
 10
30.653288
 20
3.860548
 30
0.0
 10
30.702009
 20
3.937219
 30
0.0
 10
30.843176
 20
3.940158
 30
0.0
 10
30.928563
 20
3.957911
 30
0.0
 10
30.970950
 20
3.966724
 30
0.0
 11
30.629979
 21
3.823866
 31
0.0
 11
30.710096
 21
3.916806
 31
0.0
 11
30.841037
 21
3.944165
 31
0.0
 11
30.970950
 21
3.966724
 31
0.0
  0
SPLINE
  5
115
100
AcDbEntity
  8
text
 62
7
100
AcDbSpline
 70
0
 71
3
 72
10
 73
6
 74
4
 40
0.000000
 40
0.000000
 40
0.000000
 40
0.000000
 40
0.585552
 40
1.173076
 40
1.759248
 40
1.759248
 40
1.759248
 40
1.759248
 10
30.970950
 20
3.966724
 30
0.0
 10
31.164220
 20
3.993999
 30
0.0
 10
31.551411
 20
4.048639
 30
0.0
 10
32.129368
 20
4.149282
 30
0.0
 10
32.518517
 20
4.190666
 30
0.0
 10
32.712868
 20
4.211334
 30
0.0
 11
30.970950
 21
3.966724
 31
0.0
 11
31.550310
 21
4.051654
 31
0.0
 11
32.130704
 21
4.142904
 31
0.0
 11
32.712868
 21
4.211334
 31
0.0
  0
SPLINE
  5
116
100
AcDbEntity
  8
text
 62
7
100
AcDbSpline
 70
0
 71
3
 72
10
 73
6
 74
4
 40
0.000000
 40
0.000000
 40
0.000000
 40
0.000000
 40
0.507079
 40
1.013244
 40
1.521050
 40
1.521050
 40
1.521050
 40
1.521050
 10
32.712868
 20
4.211334
 30
0.0
 10
32.881798
 20
4.202162
 30
0.0
 10
33.219354
 20
4.183836
 30
0.0
 10
33.727274
 20
4.263990
 30
0.0
 10
34.034352
 20
4.408321
 30
0.0
 10
34.188140
 20
4.480603
 30
0.0
 11
32.712868
 21
4.211334
 31
0.0
 11
33.219858
 21
4.201782
 31
0.0
 11
33.718873
 21
4.286554
 31
0.0
 11
34.188140
 21
4.480603
 31
0.0
  0
SPLINE
  5
117
100
AcDbEntity
  8
text
 62
7
100
AcDbSpline
 70
0
 71
3
 72
10
 73
6
 74
4
 40
0.000000
 40
0.000000
 40
0.000000
 40
0.000000
 40
0.603103
 40
1.208823
 40
1.800997
 40
1.800997
 40
1.800997
 40
1.800997
 10
34.188140
 20
4.480603
 30
0.0
 10
34.364152
 20
4.578449
 30
0.0
 10
34.716940
 20
4.774566
 30
0.0
 10
35.184776
 20
5.154748
 30
0.0
 10
35.472789
 20
5.431162
 30
0.0
 10
35.615167
 20
5.567806
 30
0.0
 11
34.188140
 21
4.480603
 31
0.0
 11
34.706524
 21
4.788843
 31
0.0
 11
35.182374
 21
5.163627
 31
0.0
 11
35.615167
 21
5.567806
 31
0.0
  0
SPLINE
  5
118
100
AcDbEntity
  8
text
 62
7
100
AcDbSpline
 70
0
 71
3
 72
10
 73
6
 74
4
 40
0.000000
 40
0.000000
 40
0.000000
 40
0.000000
 40
1.005544
 40
2.012167
 40
3.017896
 40
3.017896
 40
3.017896
 40
3.017896
 10
35.615167
 20
5.567806
 30
0.0
 10
35.465452
 20
5.267914
 30
0.0
 10
35.165862
 20
4.667809
 30
0.0
 10
34.734758
 20
3.758782
 30
0.0
 10
34.427669
 20
3.162369
 30
0.0
 10
34.274192
 20
2.864295
 30
0.0
 11
35.615167
 21
5.567806
 31
0.0
 11
35.169058
 21
4.666637
 31
0.0
 11
34.729719
 21
3.760948
 31
0.0
 11
34.274192
 21
2.864295
 31
0.0
  0
SPLINE
  5
119
100
AcDbEntity
  8
text
 62
7
100
AcDbSpline
 70
0
 71
3
 72
10
 73
6
 74
4
 40
0.000000
 40
0.000000
 40
0.000000
 40
0.000000
 40
0.170125
 40
0.354834
 40
0.534819
 40
0.534819
 40
0.534819
 40
0.534819
 10
34.274192
 20
2.864295
 30
0.0
 10
34.223180
 20
2.836035
 30
0.0
 10
34.116781
 20
2.777093
 30
0.0
 10
34.045098
 20
2.605771
 30
0.0
 10
33.987787
 20
2.499584
 30
0.0
 10
33.959503
 20
2.447178
 30
0.0
 11
34.274192
 21
2.864295
 31
0.0
 11
34.134680
 21
2.766936
 31
0.0
 11
34.042302
 21
2.606986
 31
0.0
 11
33.959503
 21
2.447178
 31
0.0
  0
SPLINE
  5
11a
100
AcDbEntity
  8
text
 62
7
100
AcDbSpline
 70
0
 71
3
 72
10
 73
6
 74
4
 40
0.000000
 40
0.000000
 40
0.000000
 40
0.000000
 40
0.247630
 40
0.497772
 40
0.740480
 40
0.740480
 40
0.740480
 40
0.740480
 10
33.959503
 20
2.447178
 30
0.0
 10
33.924816
 20
2.372473
 30
0.0
 10
33.855089
 20
2.222306
 30
0.0
 10
33.724419
 20
2.008186
 30
0.0
 10
33.704490
 20
1.843143
 30
0.0
 10
33.694676
 20
1.761867
 30
0.0
 11
33.959503
 21
2.447178
 31
0.0
 11
33.850958
 21
2.224606
 31
0.0
 11
33.740378
 21
2.000233
 31
0.0
 11
33.694676
 21
1.761867
 31
0.0
  0
SPLINE
  5
11b
100
AcDbEntity
  8
text
 62
7
100
AcDbSpline
 70
0
 71
3
 72
10
 73
6
 74
4
 40
0.000000
 40
0.000000
 40
0.000000
 40
0.000000
 40
0.128441
 40
0.261476
 40
0.386688
 40
0.386688
 40
0.386688
 40
0.386688
 10
33.694676
 20
1.761867
 30
0.0
 10
33.716329
 20
1.724857
 30
0.0
 10
33.760410
 20
1.649514
 30
0.0
 10
33.866873
 20
1.565423
 30
0.0
 10
33.953761
 20
1.555675
 30
0.0
 10
33.995889
 20
1.550950
 30
0.0
 11
33.694676
 21
1.761867
 31
0.0
 11
33.766370
 21
1.655297
 31
0.0
 11
33.873217
 21
1.576038
 31
0.0
 11
33.995889
 21
1.550950
 31
0.0
  0
SPLINE
  5
11c
100
AcDbEntity
  8
text
 62
7
100
AcDbSpline
 70
0
 71
3
 72
10
 73
6
 74
4
 40
0.000000
 40
0.000000
 40
0.000000
 40
0.000000
 40
0.220334
 40
0.449278
 40
0.674500
 40
0.674500
 40
0.674500
 40
0.674500
 10
33.995889
 20
1.550950
 30
0.0
 10
34.048893
 20
1.603208
 30
0.0
 10
34.156970
 20
1.709766
 30
0.0
 10
34.232650
 20
1.925929
 30
0.0
 10
34.302648
 20
2.059833
 30
0.0
 10
34.337359
 20
2.126236
 30
0.0
 11
33.995889
 21
1.550950
 31
0.0
 11
34.141030
 21
1.716725
 31
0.0
 11
34.237906
 21
1.924162
 31
0.0
 11
34.337359
 21
2.126236
 31
0.0
  0
SPLINE
  5
11d
100
AcDbEntity
  8
text
 62
7
100
AcDbSpline
 70
0
 71
3
 72
10
 73
6
 74
4
 40
0.000000
 40
0.000000
 40
0.000000
 40
0.000000
 40
0.189135
 40
0.382671
 40
0.565893
 40
0.565893
 40
0.565893
 40
0.565893
 10
34.337359
 20
2.126236
 30
0.0
 10
34.362492
 20
2.183856
 30
0.0
 10
34.413341
 20
2.300437
 30
0.0
 10
34.518958
 20
2.462697
 30
0.0
 10
34.523841
 20
2.590535
 30
0.0
 10
34.526216
 20
2.652705
 30
0.0
 11
34.337359
 21
2.126236
 31
0.0
 11
34.417782
 21
2.297422
 31
0.0
 11
34.503616
 21
2.470882
 31
0.0
 11
34.526216
 21
2.652705
 31
0.0
  0
SPLINE
  5
11e
100
AcDbEntity
  8
text
 62
7
100
AcDbSpline
 70
0
 71
3
 72
10
 73
6
 74
4
 40
0.000000
 40
0.000000
 40
0.000000
 40
0.000000
 40
0.114660
 40
0.246169
 40
0.371320
 40
0.371320
 40
0.371320
 40
0.371320
 10
34.526216
 20
2.652705
 30
0.0
 10
34.519903
 20
2.691945
 30
0.0
 10
34.506350
 20
2.776193
 30
0.0
 10
34.585318
 20
2.881327
 30
0.0
 10
34.616941
 20
2.960249
 30
0.0
 10
34.632361
 20
2.998733
 30
0.0
 11
34.526216
 21
2.652705
 31
0.0
 11
34.521576
 21
2.767271
 31
0.0
 11
34.580642
 21
2.884768
 31
0.0
 11
34.632361
 21
2.998733
 31
0.0
  0
SPLINE
  5
11f
100
AcDbEntity
  8
text
 62
7
100
AcDbSpline
 70
0
 71
3
 72
10
 73
6
 74
4
 40
0.000000
 40
0.000000
 40
0.000000
 40
0.000000
 40
1.285514
 40
2.572768
 40
3.857316
 40
3.857316
 40
3.857316
 40
3.857316
 10
34.632361
 20
2.998733
 30
0.0
 10
34.822207
 20
3.382888
 30
0.0
 10
35.202157
 20
4.151719
 30
0.0
 10
35.758965
 20
5.310734
 30
0.0
 10
36.146615
 20
6.075376
 30
0.0
 10
36.340235
 20
6.457295
 30
0.0
 11
34.632361
 21
2.998733
 31
0.0
 11
35.199761
 21
4.152251
 31
0.0
 11
35.763466
 21
5.309515
 31
0.0
 11
36.340235
 21
6.457295
 31
0.0
  0
SPLINE
  5
120
100
AcDbEntity
  8
text
 62
7
100
AcDbSpline
 70
0
 71
3
 72
10
 73
6
 74
4
 40
0.000000
 40
0.000000
 40
0.000000
 40
0.000000
 40
0.595558
 40
1.191818
 40
1.786646
 40
1.786646
 40
1.786646
 40
1.786646
 10
36.340235
 20
6.457295
 30
0.0
 10
36.443930
 20
6.626541
 30
0.0
 10
36.651442
 20
6.965232
 30
0.0
 10
36.941648
 20
7.486349
 30
0.0
 10
37.094677
 20
7.853024
 30
0.0
 10
37.171100
 20
8.036141
 30
0.0
 11
36.340235
 21
6.457295
 31
0.0
 11
36.647843
 21
6.967263
 31
0.0
 11
36.931746
 21
7.491595
 31
0.0
 11
37.171100
 21
8.036141
 31
0.0
  0
SPLINE
  5
121
100
AcDbEntity
  8
text
 62
7
100
AcDbSpline
 70
0
 71
3
 72
10
 73
6
 74
4
 40
0.000000
 40
0.000000
 40
0.000000
 40
0.000000
 40
0.888716
 40
1.778639
 40
2.666613
 40
2.666613
 40
2.666613
 40
2.666613
 10
37.171100
 20
8.036141
 30
0.0
 10
37.160143
 20
7.740105
 30
0.0
 10
37.138214
 20
7.147629
 30
0.0
 10
37.100017
 20
6.259577
 30
0.0
 10
37.075519
 20
5.667451
 30
0.0
 10
37.063283
 20
5.371713
 30
0.0
 11
37.171100
 21
8.036141
 31
0.0
 11
37.137343
 21
7.148067
 31
0.0
 11
37.100232
 21
6.258918
 31
0.0
 11
37.063283
 21
5.371713
 31
0.0
  0
SPLINE
  5
122
100
AcDbEntity
  8
text
 62
7
100
AcDbSpline
 70
0
 71
3
 72
10
 73
6
 74
4
 40
0.000000
 40
0.000000
 40
0.000000
 40
0.000000
 40
0.091787
 40
0.186087
 40
0.282895
 40
0.282895
 40
0.282895
 40
0.282895
 10
37.063283
 20
5.371713
 30
0.0
 10
37.050592
 20
5.343553
 30
0.0
 10
37.024862
 20
5.286461
 30
0.0
 10
36.944460
 20
5.226560
 30
0.0
 10
36.934769
 20
5.160992
 30
0.0
 10
36.929860
 20
5.127778
 30
0.0
 11
37.063283
 21
5.371713
 31
0.0
 11
37.018602
 21
5.291536
 31
0.0
 11
36.956038
 21
5.220979
 31
0.0
 11
36.929860
 21
5.127778
 31
0.0
  0
SPLINE
  5
123
100
AcDbEntity
  8
text
 62
7
100
AcDbSpline
 70
0
 71
3
 72
10
 73
6
 74
4
 40
0.000000
 40
0.000000
 40
0.000000
 40
0.000000
 40
0.328689
 40
0.657967
 40
0.984364
 40
0.984364
 40
0.984364
 40
0.984364
 10
36.929860
 20
5.127778
 30
0.0
 10
36.920754
 20
5.018635
 30
0.0
 10
36.902526
 20
4.800154
 30
0.0
 10
36.883268
 20
4.471898
 30
0.0
 10
36.901778
 20
4.253843
 30
0.0
 10
36.910992
 20
4.145295
 30
0.0
 11
36.929860
 21
5.127778
 31
0.0
 11
36.903879
 21
4.800117
 31
0.0
 11
36.891115
 21
4.471087
 31
0.0
 11
36.910992
 21
4.145295
 31
0.0
  0
SPLINE
  5
124
100
AcDbEntity
  8
text
 62
7
100
AcDbSpline
 70
0
 71
3
 72
13
 73
9
 74
7
 40
0.000000
 40
0.000000
 40
0.000000
 40
0.000000
 40
0.129734
 40
0.274334
 40
0.414437
 40
0.589629
 40
0.780576
 40
0.966369
 40
0.966369
 40
0.966369
 40
0.966369
 10
36.910992
 20
4.145295
 30
0.0
 10
36.951972
 20
4.126482
 30
0.0
 10
37.038627
 20
4.086699
 30
0.0
 10
37.174659
 20
4.143650
 30
0.0
 10
37.320950
 20
4.177212
 30
0.0
 10
37.466571
 20
4.298752
 30
0.0
 10
37.453116
 20
4.495212
 30
0.0
 10
37.462108
 20
4.618944
 30
0.0
 10
37.466542
 20
4.679964
 30
0.0
 11
36.910992
 21
4.145295
 31
0.0
 11
37.034690
 21
4.106182
 31
0.0
 11
37.175390
 21
4.139535
 31
0.0
 11
37.307893
 21
4.185054
 31
0.0
 11
37.435883
 21
4.304682
 31
0.0
 11
37.457659
 21
4.494383
 31
0.0
 11
37.466542
 21
4.679964
 31
0.0
  0
SPLINE
  5
125
100
AcDbEntity
  8
text
 62
7
100
AcDbSpline
 70
0
 71
3
 72
10
 73
6
 74
4
 40
0.000000
 40
0.000000
 40
0.000000
 40
0.000000
 40
0.229810
 40
0.462464
 40
0.687383
 40
0.687383
 40
0.687383
 40
0.687383
 10
37.466542
 20
4.679964
 30
0.0
 10
37.467062
 20
4.756489
 30
0.0
 10
37.468109
 20
4.910486
 30
0.0
 10
37.499904
 20
5.140223
 30
0.0
 10
37.464690
 20
5.290003
 30
0.0
 10
37.447381
 20
5.363627
 30
0.0
 11
37.466542
 21
4.679964
 31
0.0
 11
37.473126
 21
4.909679
 31
0.0
 11
37.485686
 21
5.141994
 31
0.0
 11
37.447381
 21
5.363627
 31
0.0
  0
SPLINE
  5
126
100
AcDbEntity
  8
text
 62
7
100
AcDbSpline
 70
0
 71
3
 72
10
 73
6
 74
4
 40
0.000000
 40
0.000000
 40
0.000000
 40
0.000000
 40
0.060400
 40
0.115334
 40
0.175783
 40
0.175783
 40
0.175783
 40
0.175783
 10
37.447381
 20
5.363627
 30
0.0
 10
37.432328
 20
5.376398
 30
0.0
 10
37.403584
 20
5.400784
 30
0.0
 10
37.336373
 20
5.418406
 30
0.0
 10
37.343330
 20
5.462496
 30
0.0
 10
37.346975
 20
5.485595
 30
0.0
 11
37.447381
 21
5.363627
 31
0.0
 11
37.398011
 21
5.398422
 31
0.0
 11
37.350059
 21
5.425225
 31
0.0
 11
37.346975
 21
5.485595
 31
0.0
  0
SPLINE
  5
127
100
AcDbEntity
  8
text
 62
7
100
AcDbSpline
 70
0
 71
3
 72
10
 73
6
 74
4
 40
0.000000
 40
0.000000
 40
0.000000
 40
0.000000
 40
1.159871
 40
2.322484
 40
3.483716
 40
3.483716
 40
3.483716
 40
3.483716
 10
37.346975
 20
5.485595
 30
0.0
 10
37.362483
 20
5.871910
 30
0.0
 10
37.393535
 20
6.645451
 30
0.0
 10
37.428234
 20
7.806199
 30
0.0
 10
37.463019
 20
8.580043
 30
0.0
 10
37.480401
 20
8.966735
 30
0.0
 11
37.346975
 21
5.485595
 31
0.0
 11
37.391523
 21
6.644611
 31
0.0
 11
37.431161
 21
7.806548
 31
0.0
 11
37.480401
 21
8.966735
 31
0.0
  0
SPLINE
  5
128
100
AcDbEntity
  8
text
 62
7
100
AcDbSpline
 70
0
 71
3
 72
10
 73
6
 74
4
 40
0.000000
 40
0.000000
 40
0.000000
 40
0.000000
 40
0.517105
 40
1.032946
 40
1.548212
 40
1.548212
 40
1.548212
 40
1.548212
 10
37.480401
 20
8.966735
 30
0.0
 10
37.509624
 20
9.136585
 30
0.0
 10
37.568000
 20
9.475868
 30
0.0
 10
37.617950
 20
9.991044
 30
0.0
 10
37.601270
 20
10.334743
 30
0.0
 10
37.592934
 20
10.506497
 30
0.0
 11
37.480401
 21
8.966735
 31
0.0
 11
37.561794
 21
9.477395
 31
0.0
 11
37.605468
 21
9.991384
 31
0.0
 11
37.592934
 21
10.506497
 31
0.0
  0
SPLINE
  5
129
100
AcDbEntity
  8
text
 62
7
100
AcDbSpline
 70
0
 71
3
 72
10
 73
6
 74
4
 40
0.000000
 40
0.000000
 40
0.000000
 40
0.000000
 40
0.632149
 40
1.264733
 40
1.894875
 40
1.894875
 40
1.894875
 40
1.894875
 10
37.592934
 20
10.506497
 30
0.0
 10
37.730404
 20
10.346796
 30
0.0
 10
38.005438
 20
10.027285
 30
0.0
 10
38.411124
 20
9.543151
 30
0.0
 10
38.684800
 20
9.223359
 30
0.0
 10
38.821373
 20
9.063772
 30
0.0
 11
37.592934
 21
10.506497
 31
0.0
 11
38.004279
 21
10.026490
 31
0.0
 11
38.412483
 21
9.543237
 31
0.0
 11
38.821373
 21
9.063772
 31
0.0
  0
SPLINE
  5
12a
100
AcDbEntity
  8
text
 62
7
100
AcDbSpline
 70
0
 71
3
 72
10
 73
6
 74
4
 40
0.000000
 40
0.000000
 40
0.000000
 40
0.000000
 40
0.158569
 40
0.327542
 40
0.495432
 40
0.495432
 40
0.495432
 40
0.495432
 10
38.821373
 20
9.063772
 30
0.0
 10
38.792422
 20
9.014297
 30
0.0
 10
38.732620
 20
8.912101
 30
0.0
 10
38.839240
 20
8.758769
 30
0.0
 10
38.909615
 20
8.674951
 30
0.0
 10
38.944689
 20
8.633177
 30
0.0
 11
38.821373
 21
9.063772
 31
0.0
 11
38.765056
 21
8.915540
 31
0.0
 11
38.838940
 21
8.763576
 31
0.0
 11
38.944689
 21
8.633177
 31
0.0
  0
SPLINE
  5
12b
100
AcDbEntity
  8
text
 62
7
100
AcDbSpline
 70
0
 71
3
 72
10
 73
6
 74
4
 40
0.000000
 40
0.000000
 40
0.000000
 40
0.000000
 40
0.179902
 40
0.359808
 40
0.539712
 40
0.539712
 40
0.539712
 40
0.539712
 10
38.944689
 20
8.633177
 30
0.0
 10
38.984010
 20
8.587900
 30
0.0
 10
39.062651
 20
8.497345
 30
0.0
 10
39.181013
 20
8.361861
 30
0.0
 10
39.259762
 20
8.271399
 30
0.0
 10
39.299136
 20
8.226168
 30
0.0
 11
38.944689
 21
8.633177
 31
0.0
 11
39.062717
 21
8.497404
 31
0.0
 11
39.180973
 21
8.361826
 31
0.0
 11
39.299136
 21
8.226168
 31
0.0
  0
SPLINE
  5
12c
100
AcDbEntity
  8
text
 62
7
100
AcDbSpline
 70
0
 71
3
 72
10
 73
6
 74
4
 40
0.000000
 40
0.000000
 40
0.000000
 40
0.000000
 40
0.230017
 40
0.460586
 40
0.689632
 40
0.689632
 40
0.689632
 40
0.689632
 10
39.299136
 20
8.226168
 30
0.0
 10
39.348923
 20
8.284463
 30
0.0
 10
39.448615
 20
8.401192
 30
0.0
 10
39.608390
 20
8.567171
 30
0.0
 10
39.696120
 20
8.693075
 30
0.0
 10
39.739839
 20
8.755819
 30
0.0
 11
39.299136
 21
8.226168
 31
0.0
 11
39.450246
 21
8.399586
 31
0.0
 11
39.604023
 21
8.571384
 31
0.0
 11
39.739839
 21
8.755819
 31
0.0
  0
SPLINE
  5
12d
100
AcDbEntity
  8
text
 62
7
100
AcDbSpline
 70
0
 71
3
 72
10
 73
6
 74
4
 40
0.000000
 40
0.000000
 40
0.000000
 40
0.000000
 40
0.288109
 40
0.579175
 40
0.869403
 40
0.869403
 40
0.869403
 40
0.869403
 10
39.739839
 20
8.755819
 30
0.0
 10
39.682592
 20
8.833062
 30
0.0
 10
39.567509
 20
8.988341
 30
0.0
 10
39.365597
 20
9.196852
 30
0.0
 10
39.238570
 20
9.343153
 30
0.0
 10
39.175148
 20
9.416198
 30
0.0
 11
39.739839
 21
8.755819
 31
0.0
 11
39.563290
 21
8.983496
 31
0.0
 11
39.367401
 21
9.198780
 31
0.0
 11
39.175148
 21
9.416198
 31
0.0
  0
SPLINE
  5
12e
100
AcDbEntity
  8
text
 62
7
100
AcDbSpline
 70
0
 71
3
 72
10
 73
6
 74
4
 40
0.000000
 40
0.000000
 40
0.000000
 40
0.000000
 40
0.091549
 40
0.161753
 40
0.246615
 40
0.246615
 40
0.246615
 40
0.246615
 10
39.175148
 20
9.416198
 30
0.0
 10
39.157234
 20
9.393139
 30
0.0
 10
39.125582
 20
9.352396
 30
0.0
 10
39.043326
 20
9.294138
 30
0.0
 10
39.009191
 20
9.346023
 30
0.0
 10
38.990510
 20
9.374418
 30
0.0
 11
39.175148
 21
9.416198
 31
0.0
 11
39.114262
 21
9.347831
 31
0.0
 11
39.051820
 21
9.315744
 31
0.0
 11
38.990510
 21
9.374418
 31
0.0
  0
SPLINE
  5
12f
100
AcDbEntity
  8
text
 62
7
100
AcDbSpline
 70
0
 71
3
 72
10
 73
6
 74
4
 40
0.000000
 40
0.000000
 40
0.000000
 40
0.000000
 40
0.763155
 40
1.526692
 40
2.288231
 40
2.288231
 40
2.288231
 40
2.288231
 10
38.990510
 20
9.374418
 30
0.0
 10
38.822974
 20
9.565833
 30
0.0
 10
38.487819
 20
9.948759
 30
0.0
 10
37.980699
 20
10.518680
 30
0.0
 10
37.660054
 20
10.913248
 30
0.0
 10
37.499941
 20
11.110273
 30
0.0
 11
38.990510
 21
9.374418
 31
0.0
 11
38.487105
 21
9.947994
 31
0.0
 11
37.984603
 21
10.522869
 31
0.0
 11
37.499941
 21
11.110273
 31
0.0
  0
SPLINE
  5
130
100
AcDbEntity
  8
text
 62
7
100
AcDbSpline
 70
0
 71
3
 72
10
 73
6
 74
4
 40
0.000000
 40
0.000000
 40
0.000000
 40
0.000000
 40
0.271257
 40
0.541551
 40
0.813475
 40
0.813475
 40
0.813475
 40
0.813475
 10
37.499941
 20
11.110273
 30
0.0
 10
37.455452
 20
11.188849
 30
0.0
 10
37.366632
 20
11.345724
 30
0.0
 10
37.231504
 20
11.582915
 30
0.0
 10
37.102864
 20
11.711089
 30
0.0
 10
37.038351
 20
11.775369
 30
0.0
 11
37.499941
 21
11.110273
 31
0.0
 11
37.366189
 21
11.346261
 31
0.0
 11
37.222190
 21
11.575004
 31
0.0
 11
37.038351
 21
11.775369
 31
0.0
  0
SPLINE
  5
131
100
AcDbEntity
  8
text
 62
7
100
AcDbSpline
 70
0
 71
3
 72
10
 73
6
 74
4
 40
0.000000
 40
0.000000
 40
0.000000
 40
0.000000
 40
0.130761
 40
0.205296
 40
0.331920
 40
0.331920
 40
0.331920
 40
0.331920
 10
37.038351
 20
11.775369
 30
0.0
 10
37.005579
 20
11.800238
 30
0.0
 10
36.954128
 20
11.839282
 30
0.0
 10
36.890135
 20
11.969390
 30
0.0
 10
36.984815
 20
11.957427
 30
0.0
 10
37.044414
 20
11.949897
 30
0.0
 11
37.038351
 21
11.775369
 31
0.0
 11
36.944852
 21
11.866783
 31
0.0
 11
36.918500
 21
11.936504
 31
0.0
 11
37.044414
 21
11.949897
 31
0.0
  0
SPLINE
  5
132
100
AcDbEntity
  8
text
 62
7
100
AcDbSpline
 70
0
 71
3
 72
10
 73
6
 74
4
 40
0.000000
 40
0.000000
 40
0.000000
 40
0.000000
 40
0.577493
 40
1.156255
 40
1.727280
 40
1.727280
 40
1.727280
 40
1.727280
 10
37.044414
 20
11.949897
 30
0.0
 10
37.236099
 20
11.967557
 30
0.0
 10
37.619891
 20
12.002915
 30
0.0
 10
38.192999
 20
12.058255
 30
0.0
 10
38.575035
 20
12.088962
 30
0.0
 10
38.764768
 20
12.104212
 30
0.0
 11
37.044414
 21
11.949897
 31
0.0
 11
37.619433
 21
12.003297
 31
0.0
 11
38.195702
 21
12.056949
 31
0.0
 11
38.764768
 21
12.104212
 31
0.0
  0
SPLINE
  5
133
100
AcDbEntity
  8
text
 62
7
100
AcDbSpline
 70
0
 71
3
 72
10
 73
6
 74
4
 40
0.000000
 40
0.000000
 40
0.000000
 40
0.000000
 40
0.118055
 40
0.253600
 40
0.383880
 40
0.383880
 40
0.383880
 40
0.383880
 10
38.764768
 20
12.104212
 30
0.0
 10
38.779730
 20
12.062900
 30
0.0
 10
38.811870
 20
11.974156
 30
0.0
 10
38.962280
 20
11.993104
 30
0.0
 10
39.047343
 20
12.000913
 30
0.0
 10
39.089033
 20
12.004740
 30
0.0
 11
38.764768
 21
12.104212
 31
0.0
 11
38.824221
 21
12.002221
 31
0.0
 11
38.959379
 21
11.991983
 31
0.0
 11
39.089033
 21
12.004740
 31
0.0
  0
SPLINE
  5
134
100
AcDbEntity
  8
text
 62
7
100
AcDbSpline
 70
0
 71
3
 72
10
 73
6
 74
4
 40
0.000000
 40
0.000000
 40
0.000000
 40
0.000000
 40
0.189994
 40
0.385873
 40
0.568503
 40
0.568503
 40
0.568503
 40
0.568503
 10
39.089033
 20
12.004740
 30
0.0
 10
39.151578
 20
12.012229
 30
0.0
 10
39.278606
 20
12.027440
 30
0.0
 10
39.475618
 20
12.014772
 30
0.0
 10
39.582026
 20
12.089194
 30
0.0
 10
39.633368
 20
12.125102
 30
0.0
 11
39.089033
 21
12.004740
 31
0.0
 11
39.278292
 21
12.021436
 31
0.0
 11
39.473578
 21
12.036666
 31
0.0
 11
39.633368
 21
12.125102
 31
0.0
  0
SPLINE
  5
135
100
AcDbEntity
  8
text
 62
7
100
AcDbSpline
 70
0
 71
3
 72
10
 73
6
 74
4
 40
0.000000
 40
0.000000
 40
0.000000
 40
0.000000
 40
0.160888
 40
0.325049
 40
0.480461
 40
0.480461
 40
0.480461
 40
0.480461
 10
39.633368
 20
12.125102
 30
0.0
 10
39.654330
 20
12.174165
 30
0.0
 10
39.696681
 20
12.273288
 30
0.0
 10
39.762358
 20
12.423922
 30
0.0
 10
39.750380
 20
12.531622
 30
0.0
 10
39.744555
 20
12.583998
 30
0.0
 11
39.633368
 21
12.125102
 31
0.0
 11
39.696765
 21
12.272973
 31
0.0
 11
39.748866
 21
12.428646
 31
0.0
 11
39.744555
 21
12.583998
 31
0.0
  0
SPLINE
  5
136
100
AcDbEntity
  8
text
 62
7
100
AcDbSpline
 70
0
 71
3
 72
13
 73
9
 74
7
 40
0.000000
 40
0.000000
 40
0.000000
 40
0.000000
 40
0.161319
 40
0.333553
 40
0.502677
 40
0.652524
 40
0.800412
 40
0.949343
 40
0.949343
 40
0.949343
 40
0.949343
 10
39.744555
 20
12.583998
 30
0.0
 10
39.692128
 20
12.599223
 30
0.0
 10
39.583727
 20
12.630702
 30
0.0
 10
39.416087
 20
12.595347
 30
0.0
 10
39.253889
 20
12.580808
 30
0.0
 10
39.098305
 20
12.565538
 30
0.0
 10
38.956929
 20
12.510958
 30
0.0
 10
38.878779
 20
12.449662
 30
0.0
 10
38.839566
 20
12.418906
 30
0.0
 11
39.744555
 21
12.583998
 31
0.0
 11
39.586611
 21
12.616821
 31
0.0
 11
39.415336
 21
12.598668
 31
0.0
 11
39.247250
 21
12.579959
 31
0.0
 11
39.098915
 21
12.558725
 31
0.0
 11
38.961181
 21
12.504873
 31
0.0
 11
38.839566
 21
12.418906
 31
0.0
  0
SPLINE
  5
137
100
AcDbEntity
  8
text
 62
7
100
AcDbSpline
 70
0
 71
3
 72
10
 73
6
 74
4
 40
0.000000
 40
0.000000
 40
0.000000
 40
0.000000
 40
0.415192
 40
0.834245
 40
1.253012
 40
1.253012
 40
1.253012
 40
1.253012
 10
38.839566
 20
12.418906
 30
0.0
 10
38.703253
 20
12.394269
 30
0.0
 10
38.429358
 20
12.344764
 30
0.0
 10
38.011956
 20
12.319152
 30
0.0
 10
37.734372
 20
12.288617
 30
0.0
 10
37.595627
 20
12.273354
 30
0.0
 11
38.839566
 21
12.418906
 31
0.0
 11
38.429633
 21
12.353032
 31
0.0
 11
38.012238
 21
12.315791
 31
0.0
 11
37.595627
 21
12.273354
 31
0.0
  0
SPLINE
  5
138
100
AcDbEntity
  8
text
 62
7
100
AcDbSpline
 70
0
 71
3
 72
10
 73
6
 74
4
 40
0.000000
 40
0.000000
 40
0.000000
 40
0.000000
 40
0.538022
 40
1.072048
 40
1.607158
 40
1.607158
 40
1.607158
 40
1.607158
 10
37.595627
 20
12.273354
 30
0.0
 10
37.417416
 20
12.253928
 30
0.0
 10
37.062317
 20
12.215220
 30
0.0
 10
36.528022
 20
12.162976
 30
0.0
 10
36.171592
 20
12.180850
 30
0.0
 10
35.993197
 20
12.189796
 30
0.0
 11
37.595627
 21
12.273354
 31
0.0
 11
37.060666
 21
12.216048
 31
0.0
 11
36.528133
 21
12.176142
 31
0.0
 11
35.993197
 21
12.189796
 31
0.0
  0
SPLINE
  5
139
100
AcDbEntity
  8
text
 62
7
100
AcDbSpline
 70
0
 71
3
 72
10
 73
6
 74
4
 40
0.000000
 40
0.000000
 40
0.000000
 40
0.000000
 40
0.133455
 40
0.266612
 40
0.399732
 40
0.399732
 40
0.399732
 40
0.399732
 10
35.993197
 20
12.189796
 30
0.0
 10
35.948744
 20
12.187921
 30
0.0
 10
35.859936
 20
12.184177
 30
0.0
 10
35.727365
 20
12.169466
 30
0.0
 10
35.639983
 20
12.153817
 30
0.0
 10
35.596297
 20
12.145993
 30
0.0
 11
35.993197
 21
12.189796
 31
0.0
 11
35.859934
 21
12.182653
 31
0.0
 11
35.727585
 21
12.168002
 31
0.0
 11
35.596297
 21
12.145993
 31
0.0
  0
SPLINE
  5
13a
100
AcDbEntity
  8
text
 62
7
100
AcDbSpline
 70
0
 71
3
 72
10
 73
6
 74
4
 40
0.000000
 40
0.000000
 40
0.000000
 40
0.000000
 40
0.724477
 40
1.449325
 40
2.172489
 40
2.172489
 40
2.172489
 40
2.172489
 10
35.596297
 20
12.145993
 30
0.0
 10
35.790747
 20
12.289197
 30
0.0
 10
36.179746
 20
12.575678
 30
0.0
 10
36.763075
 20
13.004819
 30
0.0
 10
37.156088
 20
13.285030
 30
0.0
 10
37.352365
 20
13.424973
 30
0.0
 11
35.596297
 21
12.145993
 31
0.0
 11
36.179685
 21
12.575557
 31
0.0
 11
36.764582
 21
13.003693
 31
0.0
 11
37.352365
 21
13.424973
 31
0.0
  0
SPLINE
  5
13b
100
AcDbEntity
  8
text
 62
7
100
AcDbSpline
 70
0
 71
3
 72
10
 73
6
 74
4
 40
0.000000
 40
0.000000
 40
0.000000
 40
0.000000
 40
0.156332
 40
0.324582
 40
0.487863
 40
0.487863
 40
0.487863
 40
0.487863
 10
37.352365
 20
13.424973
 30
0.0
 10
37.405606
 20
13.429979
 30
0.0
 10
37.516147
 20
13.440373
 30
0.0
 10
37.641432
 20
13.553416
 30
0.0
 10
37.734000
 20
13.612738
 30
0.0
 10
37.779590
 20
13.641954
 30
0.0
 11
37.352365
 21
13.424973
 31
0.0
 11
37.505781
 21
13.455027
 31
0.0
 11
37.644622
 21
13.550061
 31
0.0
 11
37.779590
 21
13.641954
 31
0.0
  0
SPLINE
  5
13c
100
AcDbEntity
  8
text
 62
7
100
AcDbSpline
 70
0
 71
3
 72
10
 73
6
 74
4
 40
0.000000
 40
0.000000
 40
0.000000
 40
0.000000
 40
0.167395
 40
0.341175
 40
0.490070
 40
0.490070
 40
0.490070
 40
0.490070
 10
37.779590
 20
13.641954
 30
0.0
 10
37.822707
 20
13.677046
 30
0.0
 10
37.910586
 20
13.748568
 30
0.0
 10
38.070539
 20
13.813684
 30
0.0
 10
38.116094
 20
13.915302
 30
0.0
 10
38.137115
 20
13.962193
 30
0.0
 11
37.779590
 21
13.641954
 31
0.0
 11
37.914593
 21
13.740925
 31
0.0
 11
38.061327
 21
13.834029
 31
0.0
 11
38.137115
 21
13.962193
 31
0.0
  0
SPLINE
  5
13d
100
AcDbEntity
  8
text
 62
7
100
AcDbSpline
 70
0
 71
3
 72
10
 73
6
 74
4
 40
0.000000
 40
0.000000
 40
0.000000
 40
0.000000
 40
0.130588
 40
0.269049
 40
0.383948
 40
0.383948
 40
0.383948
 40
0.383948
 10
38.137115
 20
13.962193
 30
0.0
 10
38.135052
 20
14.004219
 30
0.0
 10
38.130800
 20
14.090807
 30
0.0
 10
38.133889
 20
14.241166
 30
0.0
 10
38.044515
 20
14.267949
 30
0.0
 10
38.003984
 20
14.280095
 30
0.0
 11
38.137115
 21
13.962193
 31
0.0
 11
38.132436
 21
14.092696
 31
0.0
 11
38.106777
 21
14.228760
 31
0.0
 11
38.003984
 21
14.280095
 31
0.0
  0
SPLINE
  5
13e
100
AcDbEntity
  8
text
 62
7
100
AcDbSpline
 70
0
 71
3
 72
10
 73
6
 74
4
 40
0.000000
 40
0.000000
 40
0.000000
 40
0.000000
 40
0.297662
 40
0.598030
 40
0.896536
 40
0.896536
 40
0.896536
 40
0.896536
 10
38.003984
 20
14.280095
 30
0.0
 10
37.919933
 20
14.227329
 30
0.0
 10
37.751066
 20
14.121315
 30
0.0
 10
37.515071
 20
13.936287
 30
0.0
 10
37.376358
 20
13.792478
 30
0.0
 10
37.307217
 20
13.720797
 30
0.0
 11
38.003984
 21
14.280095
 31
0.0
 11
37.754666
 21
14.117482
 31
0.0
 11
37.519343
 21
13.930818
 31
0.0
 11
37.307217
 21
13.720797
 31
0.0
  0
SPLINE
  5
13f
100
AcDbEntity
  8
text
 62
7
100
AcDbSpline
 70
0
 71
3
 72
10
 73
6
 74
4
 40
0.000000
 40
0.000000
 40
0.000000
 40
0.000000
 40
0.215522
 40
0.438688
 40
0.658802
 40
0.658802
 40
0.658802
 40
0.658802
 10
37.307217
 20
13.720797
 30
0.0
 10
37.261251
 20
13.664713
 30
0.0
 10
37.167687
 20
13.550555
 30
0.0
 10
36.972550
 20
13.443485
 30
0.0
 10
36.857140
 20
13.351266
 30
0.0
 10
36.799832
 20
13.305474
 30
0.0
 11
37.307217
 21
13.720797
 31
0.0
 11
37.160538
 21
13.562889
 31
0.0
 11
36.975674
 21
13.437876
 31
0.0
 11
36.799832
 21
13.305474
 31
0.0
  0
SPLINE
  5
140
100
AcDbEntity
  8
text
 62
7
100
AcDbSpline
 70
0
 71
3
 72
10
 73
6
 74
4
 40
0.000000
 40
0.000000
 40
0.000000
 40
0.000000
 40
0.963615
 40
1.927154
 40
2.888058
 40
2.888058
 40
2.888058
 40
2.888058
 10
36.799832
 20
13.305474
 30
0.0
 10
36.541010
 20
13.115310
 30
0.0
 10
36.023385
 20
12.734997
 30
0.0
 10
35.256476
 20
12.152099
 30
0.0
 10
34.714580
 20
11.808249
 30
0.0
 10
34.444003
 20
11.636559
 30
0.0
 11
36.799832
 21
13.305474
 31
0.0
 11
36.024834
 21
12.732821
 31
0.0
 11
35.248037
 21
12.162738
 31
0.0
 11
34.444003
 21
11.636559
 31
0.0
  0
SPLINE
  5
141
100
AcDbEntity
  8
text
 62
7
100
AcDbSpline
 70
0
 71
3
 72
10
 73
6
 74
4
 40
0.000000
 40
0.000000
 40
0.000000
 40
0.000000
 40
0.826731
 40
1.654427
 40
2.481731
 40
2.481731
 40
2.481731
 40
2.481731
 10
34.444003
 20
11.636559
 30
0.0
 10
34.223998
 20
11.469977
 30
0.0
 10
33.783731
 20
11.136617
 30
0.0
 10
33.214541
 20
10.530639
 30
0.0
 10
32.889050
 20
10.085042
 30
0.0
 10
32.726344
 20
9.862296
 30
0.0
 11
34.444003
 21
11.636559
 31
0.0
 11
33.799176
 21
11.119179
 31
0.0
 11
33.227979
 21
10.520167
 31
0.0
 11
32.726344
 21
9.862296
 31
0.0
  0
SPLINE
  5
142
100
AcDbEntity
  8
text
 62
7
100
AcDbSpline
 70
0
 71
3
 72
10
 73
6
 74
4
 40
0.000000
 40
0.000000
 40
0.000000
 40
0.000000
 40
0.601299
 40
1.202991
 40
1.803284
 40
1.803284
 40
1.803284
 40
1.803284
 10
32.726344
 20
9.862296
 30
0.0
 10
32.794818
 20
10.050662
 30
0.0
 10
32.931813
 20
10.427516
 30
0.0
 10
33.127448
 20
10.996080
 30
0.0
 10
33.280141
 20
11.366606
 30
0.0
 10
33.356399
 20
11.551653
 30
0.0
 11
32.726344
 21
9.862296
 31
0.0
 11
32.930148
 21
10.428003
 31
0.0
 11
33.133186
 21
10.994403
 31
0.0
 11
33.356399
 21
11.551653
 31
0.0
  0
SPLINE
  5
143
100
AcDbEntity
  8
text
 62
7
100
AcDbSpline
 70
0
 71
3
 72
10
 73
6
 74
4
 40
0.000000
 40
0.000000
 40
0.000000
 40
0.000000
 40
0.240356
 40
0.485663
 40
0.728604
 40
0.728604
 40
0.728604
 40
0.728604
 10
33.356399
 20
11.551653
 30
0.0
 10
33.399727
 20
11.619429
 30
0.0
 10
33.487275
 20
11.756375
 30
0.0
 10
33.562836
 20
11.988923
 30
0.0
 10
33.606325
 20
12.145553
 30
0.0
 10
33.627964
 20
12.223488
 30
0.0
 11
33.356399
 21
11.551653
 31
0.0
 11
33.477276
 21
11.759403
 31
0.0
 11
33.561278
 21
11.989879
 31
0.0
 11
33.627964
 21
12.223488
 31
0.0
  0
LWPOLYLINE
  5
144
100
AcDbEntity
  8
logo
 62
7
100
AcDbPolyline
 90
2
 70
0
 10
-7.822566
 20
100.850003
 30
0.0
 10
-7.822566
 20
100.850003
 30
0.0
  0
SPLINE
  5
145
100
AcDbEntity
  8
text
 62
7
100
AcDbSpline
 70
0
 71
3
 72
10
 73
6
 74
4
 40
0.000000
 40
0.000000
 40
0.000000
 40
0.000000
 40
0.110619
 40
0.244226
 40
0.371132
 40
0.371132
 40
0.371132
 40
0.371132
 10
33.627964
 20
12.223488
 30
0.0
 10
33.612365
 20
12.262976
 30
0.0
 10
33.577924
 20
12.350159
 30
0.0
 10
33.429208
 20
12.294433
 30
0.0
 10
33.365749
 20
12.240837
 30
0.0
 10
33.334836
 20
12.214728
 30
0.0
 11
33.627964
 21
12.223488
 31
0.0
 11
33.568155
 21
12.316544
 31
0.0
 11
33.437289
 21
12.289618
 31
0.0
 11
33.334836
 21
12.214728
 31
0.0
  0
SPLINE
  5
146
100
AcDbEntity
  8
text
 62
7
100
AcDbSpline
 70
0
 71
3
 72
10
 73
6
 74
4
 40
0.000000
 40
0.000000
 40
0.000000
 40
0.000000
 40
0.679086
 40
1.360441
 40
2.037121
 40
2.037121
 40
2.037121
 40
2.037121
 10
34.066623
 20
10.988304
 30
0.0
 10
34.239761
 20
11.134211
 30
0.0
 10
34.586614
 20
11.426512
 30
0.0
 10
35.200592
 20
11.746006
 30
0.0
 10
35.652231
 20
11.805632
 30
0.0
 10
35.877273
 20
11.835343
 30
0.0
 11
34.066623
 21
10.988304
 31
0.0
 11
34.601777
 21
11.406356
 31
0.0
 11
35.212658
 21
11.708134
 31
0.0
 11
35.877273
 21
11.835343
 31
0.0
  0
SPLINE
  5
147
100
AcDbEntity
  8
text
 62
7
100
AcDbSpline
 70
0
 71
3
 72
10
 73
6
 74
4
 40
0.000000
 40
0.000000
 40
0.000000
 40
0.000000
 40
0.452622
 40
0.903453
 40
1.352981
 40
1.352981
 40
1.352981
 40
1.352981
 10
35.877273
 20
11.835343
 30
0.0
 10
36.028251
 20
11.821751
 30
0.0
 10
36.329609
 20
11.794621
 30
0.0
 10
36.744940
 20
11.569386
 30
0.0
 10
36.908715
 20
11.313503
 30
0.0
 10
36.990484
 20
11.185746
 30
0.0
 11
35.877273
 21
11.835343
 31
0.0
 11
36.324178
 21
11.763627
 31
0.0
 11
36.717105
 21
11.542593
 31
0.0
 11
36.990484
 21
11.185746
 31
0.0
  0
SPLINE
  5
148
100
AcDbEntity
  8
text
 62
7
100
AcDbSpline
 70
0
 71
3
 72
10
 73
6
 74
4
 40
0.000000
 40
0.000000
 40
0.000000
 40
0.000000
 40
0.255534
 40
0.511330
 40
0.762923
 40
0.762923
 40
0.762923
 40
0.762923
 10
36.990484
 20
11.185746
 30
0.0
 10
37.030516
 20
11.110286
 30
0.0
 10
37.110620
 20
10.959290
 30
0.0
 10
37.177053
 20
10.711973
 30
0.0
 10
37.202790
 20
10.544879
 30
0.0
 10
37.215552
 20
10.462024
 30
0.0
 11
36.990484
 21
11.185746
 31
0.0
 11
37.101693
 21
10.955680
 31
0.0
 11
37.172731
 21
10.709947
 31
0.0
 11
37.215552
 21
10.462024
 31
0.0
  0
SPLINE
  5
149
100
AcDbEntity
  8
text
 62
7
100
AcDbSpline
 70
0
 71
3
 72
10
 73
6
 74
4
 40
0.000000
 40
0.000000
 40
0.000000
 40
0.000000
 40
0.320098
 40
0.644326
 40
0.968315
 40
0.968315
 40
0.968315
 40
0.968315
 10
37.215552
 20
10.462024
 30
0.0
 10
37.227747
 20
10.355810
 30
0.0
 10
37.252293
 20
10.142012
 30
0.0
 10
37.232387
 20
9.818917
 30
0.0
 10
37.218793
 20
9.603399
 30
0.0
 10
37.211999
 20
9.495679
 30
0.0
 11
37.215552
 21
10.462024
 31
0.0
 11
37.242808
 21
10.143088
 31
0.0
 11
37.232315
 21
9.819030
 31
0.0
 11
37.211999
 21
9.495679
 31
0.0
  0
SPLINE
  5
14a
100
AcDbEntity
  8
text
 62
7
100
AcDbSpline
 70
0
 71
3
 72
10
 73
6
 74
4
 40
0.000000
 40
0.000000
 40
0.000000
 40
0.000000
 40
0.195698
 40
0.390051
 40
0.585824
 40
0.585824
 40
0.585824
 40
0.585824
 10
37.211999
 20
9.495679
 30
0.0
 10
37.204707
 20
9.430915
 30
0.0
 10
37.190174
 20
9.301833
 30
0.0
 10
37.168930
 20
9.106819
 30
0.0
 10
37.126386
 20
8.983483
 30
0.0
 10
37.105037
 20
8.921590
 30
0.0
 11
37.211999
 21
9.495679
 31
0.0
 11
37.190222
 21
9.301197
 31
0.0
 11
37.161934
 21
9.108913
 31
0.0
 11
37.105037
 21
8.921590
 31
0.0
  0
SPLINE
  5
14b
100
AcDbEntity
  8
text
 62
7
100
AcDbSpline
 70
0
 71
3
 72
10
 73
6
 74
4
 40
0.000000
 40
0.000000
 40
0.000000
 40
0.000000
 40
0.986797
 40
1.973221
 40
2.960679
 40
2.960679
 40
2.960679
 40
2.960679
 10
37.105037
 20
8.921590
 30
0.0
 10
37.011764
 20
8.605553
 30
0.0
 10
36.825253
 20
7.973600
 30
0.0
 10
36.366346
 20
7.092348
 30
0.0
 10
35.979668
 20
6.559617
 30
0.0
 10
35.786228
 20
6.293113
 30
0.0
 11
37.105037
 21
8.921590
 31
0.0
 11
36.795372
 21
7.984639
 31
0.0
 11
36.346346
 21
7.106341
 31
0.0
 11
35.786228
 21
6.293113
 31
0.0
  0
SPLINE
  5
14c
100
AcDbEntity
  8
text
 62
7
100
AcDbSpline
 70
0
 71
3
 72
10
 73
6
 74
4
 40
0.000000
 40
0.000000
 40
0.000000
 40
0.000000
 40
0.734088
 40
1.466950
 40
2.197195
 40
2.197195
 40
2.197195
 40
2.197195
 10
35.786228
 20
6.293113
 30
0.0
 10
35.623822
 20
6.110374
 30
0.0
 10
35.299283
 20
5.745203
 30
0.0
 10
34.767461
 20
5.234133
 30
0.0
 10
34.342569
 20
4.991122
 30
0.0
 10
34.130503
 20
4.869834
 30
0.0
 11
35.786228
 21
6.293113
 31
0.0
 11
35.291367
 21
5.750897
 31
0.0
 11
34.749076
 21
5.257938
 31
0.0
 11
34.130503
 21
4.869834
 31
0.0
  0
SPLINE
  5
14d
100
AcDbEntity
  8
text
 62
7
100
AcDbSpline
 70
0
 71
3
 72
10
 73
6
 74
4
 40
0.000000
 40
0.000000
 40
0.000000
 40
0.000000
 40
0.616321
 40
1.234052
 40
1.844842
 40
1.844842
 40
1.844842
 40
1.844842
 10
34.130503
 20
4.869834
 30
0.0
 10
33.941878
 20
4.788570
 30
0.0
 10
33.564195
 20
4.625857
 30
0.0
 10
32.923626
 20
4.570486
 30
0.0
 10
32.551495
 20
4.757281
 30
0.0
 10
32.366481
 20
4.850151
 30
0.0
 11
34.130503
 21
4.869834
 31
0.0
 11
33.551954
 21
4.657390
 31
0.0
 11
32.934980
 21
4.626828
 31
0.0
 11
32.366481
 21
4.850151
 31
0.0
  0
SPLINE
  5
14e
100
AcDbEntity
  8
text
 62
7
100
AcDbSpline
 70
0
 71
3
 72
10
 73
6
 74
4
 40
0.000000
 40
0.000000
 40
0.000000
 40
0.000000
 40
0.642314
 40
1.291192
 40
1.940783
 40
1.940783
 40
1.940783
 40
1.940783
 10
32.366481
 20
4.850151
 30
0.0
 10
32.222647
 20
5.012815
 30
0.0
 10
31.933510
 20
5.339806
 30
0.0
 10
31.781882
 20
5.990530
 30
0.0
 10
31.782575
 20
6.422474
 30
0.0
 10
31.782921
 20
6.638565
 30
0.0
 11
32.366481
 21
4.850151
 31
0.0
 11
31.981568
 21
5.364359
 31
0.0
 11
31.807445
 21
5.989437
 31
0.0
 11
31.782921
 21
6.638565
 31
0.0
  0
SPLINE
  5
14f
100
AcDbEntity
  8
text
 62
7
100
AcDbSpline
 70
0
 71
3
 72
10
 73
6
 74
4
 40
0.000000
 40
0.000000
 40
0.000000
 40
0.000000
 40
1.170683
 40
2.344781
 40
3.517090
 40
3.517090
 40
3.517090
 40
3.517090
 10
31.782921
 20
6.638565
 30
0.0
 10
31.837959
 20
7.026135
 30
0.0
 10
31.948196
 20
7.802404
 30
0.0
 10
32.401910
 20
8.897149
 30
0.0
 10
32.824041
 20
9.556019
 30
0.0
 10
33.034946
 20
9.885203
 30
0.0
 11
31.782921
 21
6.638565
 31
0.0
 11
31.995957
 21
7.789702
 31
0.0
 11
32.432046
 21
8.879808
 31
0.0
 11
33.034946
 21
9.885203
 31
0.0
  0
SPLINE
  5
150
100
AcDbEntity
  8
text
 62
7
100
AcDbSpline
 70
0
 71
3
 72
10
 73
6
 74
4
 40
0.000000
 40
0.000000
 40
0.000000
 40
0.000000
 40
0.671385
 40
1.342150
 40
2.013504
 40
2.013504
 40
2.013504
 40
2.013504
 10
33.034946
 20
9.885203
 30
0.0
 10
32.930837
 20
9.686768
 30
0.0
 10
32.722715
 20
9.290081
 30
0.0
 10
32.497139
 20
8.656699
 30
0.0
 10
32.340874
 20
8.237665
 30
0.0
 10
32.262706
 20
8.028056
 30
0.0
 11
33.034946
 21
9.885203
 31
0.0
 11
32.737072
 21
9.283514
 31
0.0
 11
32.495730
 21
8.657672
 31
0.0
 11
32.262706
 21
8.028056
 31
0.0
  0
SPLINE
  5
151
100
AcDbEntity
  8
text
 62
7
100
AcDbSpline
 70
0
 71
3
 72
10
 73
6
 74
4
 40
0.000000
 40
0.000000
 40
0.000000
 40
0.000000
 40
0.703152
 40
1.406240
 40
2.101883
 40
2.101883
 40
2.101883
 40
2.101883
 10
32.262706
 20
8.028056
 30
0.0
 10
32.172808
 20
7.812234
 30
0.0
 10
31.993018
 20
7.380610
 30
0.0
 10
31.830796
 20
6.681522
 30
0.0
 10
31.932034
 20
6.220799
 30
0.0
 10
31.982383
 20
5.991663
 30
0.0
 11
32.262706
 21
8.028056
 31
0.0
 11
32.010826
 21
7.371567
 31
0.0
 11
31.883077
 21
6.680181
 31
0.0
 11
31.982383
 21
5.991663
 31
0.0
  0
SPLINE
  5
152
100
AcDbEntity
  8
text
 62
7
100
AcDbSpline
 70
0
 71
3
 72
10
 73
6
 74
4
 40
0.000000
 40
0.000000
 40
0.000000
 40
0.000000
 40
0.290228
 40
0.579327
 40
0.871301
 40
0.871301
 40
0.871301
 40
0.871301
 10
31.982383
 20
5.991663
 30
0.0
 10
32.028090
 20
5.905236
 30
0.0
 10
32.119326
 20
5.732717
 30
0.0
 10
32.362721
 20
5.556002
 30
0.0
 10
32.548211
 20
5.498827
 30
0.0
 10
32.641414
 20
5.470099
 30
0.0
 11
31.982383
 21
5.991663
 31
0.0
 11
32.137222
 21
5.746190
 31
0.0
 11
32.367653
 21
5.571605
 31
0.0
 11
32.641414
 21
5.470099
 31
0.0
  0
SPLINE
  5
153
100
AcDbEntity
  8
text
 62
7
100
AcDbSpline
 70
0
 71
3
 72
10
 73
6
 74
4
 40
0.000000
 40
0.000000
 40
0.000000
 40
0.000000
 40
0.304090
 40
0.605185
 40
0.909383
 40
0.909383
 40
0.909383
 40
0.909383
 10
32.641414
 20
5.470099
 30
0.0
 10
32.738249
 20
5.438483
 30
0.0
 10
32.930963
 20
5.375563
 30
0.0
 10
33.242287
 20
5.386680
 30
0.0
 10
33.430334
 20
5.462379
 30
0.0
 10
33.524840
 20
5.500422
 30
0.0
 11
32.641414
 21
5.470099
 31
0.0
 11
32.935570
 21
5.393006
 31
0.0
 11
33.236480
 21
5.403542
 31
0.0
 11
33.524840
 21
5.500422
 31
0.0
  0
SPLINE
  5
154
100
AcDbEntity
  8
text
 62
7
100
AcDbSpline
 70
0
 71
3
 72
10
 73
6
 74
4
 40
0.000000
 40
0.000000
 40
0.000000
 40
0.000000
 40
0.790495
 40
1.582847
 40
2.375497
 40
2.375497
 40
2.375497
 40
2.375497
 10
33.524840
 20
5.500422
 30
0.0
 10
33.750928
 20
5.638758
 30
0.0
 10
34.203637
 20
5.915754
 30
0.0
 10
34.713983
 20
6.539767
 30
0.0
 10
34.953153
 20
7.011058
 30
0.0
 10
35.072761
 20
7.246748
 30
0.0
 11
33.524840
 21
5.500422
 31
0.0
 11
34.175009
 21
5.950048
 31
0.0
 11
34.688592
 21
6.553416
 31
0.0
 11
35.072761
 21
7.246748
 31
0.0
  0
SPLINE
  5
155
100
AcDbEntity
  8
text
 62
7
100
AcDbSpline
 70
0
 71
3
 72
10
 73
6
 74
4
 40
0.000000
 40
0.000000
 40
0.000000
 40
0.000000
 40
0.835056
 40
1.670387
 40
2.500233
 40
2.500233
 40
2.500233
 40
2.500233
 10
35.072761
 20
7.246748
 30
0.0
 10
35.203638
 20
7.492054
 30
0.0
 10
35.465434
 20
7.982747
 30
0.0
 10
35.921673
 20
8.688748
 30
0.0
 10
36.065185
 20
9.228666
 30
0.0
 10
36.136705
 20
9.497736
 30
0.0
 11
35.072761
 21
7.246748
 31
0.0
 11
35.476141
 21
7.977913
 31
0.0
 11
35.882323
 21
8.707840
 31
0.0
 11
36.136705
 21
9.497736
 31
0.0
  0
SPLINE
  5
156
100
AcDbEntity
  8
text
 62
7
100
AcDbSpline
 70
0
 71
3
 72
10
 73
6
 74
4
 40
0.000000
 40
0.000000
 40
0.000000
 40
0.000000
 40
0.094174
 40
0.178788
 40
0.274383
 40
0.274383
 40
0.274383
 40
0.274383
 10
36.136705
 20
9.497736
 30
0.0
 10
36.144375
 20
9.530636
 30
0.0
 10
36.158936
 20
9.593097
 30
0.0
 10
36.071651
 20
9.663614
 30
0.0
 10
36.012009
 20
9.641528
 30
0.0
 10
35.980370
 20
9.629812
 30
0.0
 11
36.136705
 21
9.497736
 31
0.0
 11
36.139895
 21
9.591855
 31
0.0
 11
36.074634
 21
9.645712
 31
0.0
 11
35.980370
 21
9.629812
 31
0.0
  0
SPLINE
  5
157
100
AcDbEntity
  8
text
 62
7
100
AcDbSpline
 70
0
 71
3
 72
10
 73
6
 74
4
 40
0.000000
 40
0.000000
 40
0.000000
 40
0.000000
 40
0.201574
 40
0.415131
 40
0.624055
 40
0.624055
 40
0.624055
 40
0.624055
 10
35.980370
 20
9.629812
 30
0.0
 10
35.927828
 20
9.584145
 30
0.0
 10
35.819620
 20
9.490095
 30
0.0
 10
35.795689
 20
9.272836
 30
0.0
 10
35.754238
 20
9.139262
 30
0.0
 10
35.733740
 20
9.073208
 30
0.0
 11
35.980370
 21
9.629812
 31
0.0
 11
35.844503
 21
9.480909
 31
0.0
 11
35.789059
 21
9.274675
 31
0.0
 11
35.733740
 21
9.073208
 31
0.0
  0
SPLINE
  5
158
100
AcDbEntity
  8
text
 62
7
100
AcDbSpline
 70
0
 71
3
 72
10
 73
6
 74
4
 40
0.000000
 40
0.000000
 40
0.000000
 40
0.000000
 40
0.116830
 40
0.238762
 40
0.329725
 40
0.329725
 40
0.329725
 40
0.329725
 10
35.733740
 20
9.073208
 30
0.0
 10
35.722161
 20
9.036051
 30
0.0
 10
35.698497
 20
8.960114
 30
0.0
 10
35.659496
 20
8.856814
 30
0.0
 10
35.622754
 20
8.795969
 30
0.0
 10
35.607055
 20
8.769972
 30
0.0
 11
35.733740
 21
9.073208
 31
0.0
 11
35.697907
 21
8.962008
 31
0.0
 11
35.652041
 21
8.849032
 31
0.0
 11
35.607055
 21
8.769972
 31
0.0
  0
SPLINE
  5
159
100
AcDbEntity
  8
text
 62
7
100
AcDbSpline
 70
0
 71
3
 72
10
 73
6
 74
4
 40
0.000000
 40
0.000000
 40
0.000000
 40
0.000000
 40
0.349619
 40
0.694238
 40
1.038830
 40
1.038830
 40
1.038830
 40
1.038830
 10
35.607055
 20
8.769972
 30
0.0
 10
35.619702
 20
8.885570
 30
0.0
 10
35.644815
 20
9.115113
 30
0.0
 10
35.637566
 20
9.467474
 30
0.0
 10
35.545239
 20
9.680140
 30
0.0
 10
35.499077
 20
9.786468
 30
0.0
 11
35.607055
 21
8.769972
 31
0.0
 11
35.637398
 21
9.118272
 31
0.0
 11
35.615685
 21
9.462206
 31
0.0
 11
35.499077
 21
9.786468
 31
0.0
  0
SPLINE
  5
15a
100
AcDbEntity
  8
text
 62
7
100
AcDbSpline
 70
0
 71
3
 72
10
 73
6
 74
4
 40
0.000000
 40
0.000000
 40
0.000000
 40
0.000000
 40
0.345087
 40
0.689678
 40
1.038488
 40
1.038488
 40
1.038488
 40
1.038488
 10
35.499077
 20
9.786468
 30
0.0
 10
35.437655
 20
9.886606
 30
0.0
 10
35.314901
 20
10.086738
 30
0.0
 10
34.977504
 20
10.229936
 30
0.0
 10
34.746167
 20
10.233924
 30
0.0
 10
34.629794
 20
10.235930
 30
0.0
 11
35.499077
 21
9.786468
 31
0.0
 11
35.289447
 21
10.060586
 31
0.0
 11
34.977379
 21
10.206725
 31
0.0
 11
34.629794
 21
10.235930
 31
0.0
  0
SPLINE
  5
15b
100
AcDbEntity
  8
text
 62
7
100
AcDbSpline
 70
0
 71
3
 72
10
 73
6
 74
4
 40
0.000000
 40
0.000000
 40
0.000000
 40
0.000000
 40
0.483211
 40
0.965051
 40
1.450528
 40
1.450528
 40
1.450528
 40
1.450528
 10
34.629794
 20
10.235930
 30
0.0
 10
34.467715
 20
10.230023
 30
0.0
 10
34.144018
 20
10.218225
 30
0.0
 10
33.690627
 20
10.012225
 30
0.0
 10
33.456108
 20
9.789310
 30
0.0
 10
33.338408
 20
9.677433
 30
0.0
 11
34.629794
 21
10.235930
 31
0.0
 11
34.149087
 21
10.186805
 31
0.0
 11
33.708595
 21
9.991517
 31
0.0
 11
33.338408
 21
9.677433
 31
0.0
  0
SPLINE
  5
15c
100
AcDbEntity
  8
text
 62
7
100
AcDbSpline
 70
0
 71
3
 72
10
 73
6
 74
4
 40
0.000000
 40
0.000000
 40
0.000000
 40
0.000000
 40
0.207926
 40
0.419998
 40
0.607610
 40
0.607610
 40
0.607610
 40
0.607610
 10
33.338408
 20
9.677433
 30
0.0
 10
33.289253
 20
9.628560
 30
0.0
 10
33.189963
 20
9.529838
 30
0.0
 10
33.053157
 20
9.380400
 30
0.0
 10
32.965554
 20
9.280026
 30
0.0
 10
32.924433
 20
9.232911
 30
0.0
 11
33.338408
 21
9.677433
 31
0.0
 11
33.192101
 21
9.529692
 31
0.0
 11
33.048322
 21
9.373800
 31
0.0
 11
32.924433
 21
9.232911
 31
0.0
  0
SPLINE
  5
15d
100
AcDbEntity
  8
text
 62
7
100
AcDbSpline
 70
0
 71
3
 72
10
 73
6
 74
4
 40
0.000000
 40
0.000000
 40
0.000000
 40
0.000000
 40
0.666610
 40
1.335348
 40
2.003504
 40
2.003504
 40
2.003504
 40
2.003504
 10
32.924433
 20
9.232911
 30
0.0
 10
33.021302
 20
9.433320
 30
0.0
 10
33.215350
 20
9.834779
 30
0.0
 10
33.602864
 20
10.381003
 30
0.0
 10
33.869396
 20
10.737855
 30
0.0
 10
34.002604
 20
10.916204
 30
0.0
 11
32.924433
 21
9.232911
 31
0.0
 11
33.231048
 21
9.824820
 31
0.0
 11
33.604967
 21
10.379252
 31
0.0
 11
34.002604
 21
10.916204
 31
0.0
  0
LWPOLYLINE
  5
15e
100
AcDbEntity
  8
text
 62
7
100
AcDbPolyline
 90
2
 70
0
 10
33.334836
 20
12.214728
 30
0.0
 10
33.334816
 20
12.214723
 30
0.0
  0
SPLINE
  5
15f
100
AcDbEntity
  8
text
 62
7
100
AcDbSpline
 70
0
 71
3
 72
10
 73
6
 74
4
 40
0.000000
 40
0.000000
 40
0.000000
 40
0.000000
 40
0.032152
 40
0.064287
 40
0.096438
 40
0.096438
 40
0.096438
 40
0.096438
 10
34.002604
 20
10.916204
 30
0.0
 10
34.009468
 20
10.924436
 30
0.0
 10
34.023192
 20
10.940894
 30
0.0
 10
34.044632
 20
10.964855
 30
0.0
 10
34.059289
 20
10.980487
 30
0.0
 10
34.066620
 20
10.988305
 30
0.0
 11
34.002604
 21
10.916204
 31
0.0
 11
34.023338
 21
10.940777
 31
0.0
 11
34.044720
 21
10.964766
 31
0.0
 11
34.066620
 21
10.988305
 31
0.0
  0
SPLINE
  5
160
100
AcDbEntity
  8
text
 62
7
100
AcDbSpline
 70
0
 71
3
 72
10
 73
6
 74
4
 40
0.000000
 40
0.000000
 40
0.000000
 40
0.000000
 40
0.375082
 40
0.745223
 40
1.116200
 40
1.116200
 40
1.116200
 40
1.116200
 10
33.268103
 20
9.222128
 30
0.0
 10
33.354749
 20
9.311716
 30
0.0
 10
33.526899
 20
9.489711
 30
0.0
 10
33.808749
 20
9.742597
 30
0.0
 10
34.046165
 20
9.820118
 30
0.0
 10
34.165006
 20
9.858921
 30
0.0
 11
33.268103
 21
9.222128
 31
0.0
 11
33.532100
 21
9.488571
 31
0.0
 11
33.821079
 21
9.719862
 31
0.0
 11
34.165006
 21
9.858921
 31
0.0
  0
SPLINE
  5
161
100
AcDbEntity
  8
text
 62
7
100
AcDbSpline
 70
0
 71
3
 72
10
 73
6
 74
4
 40
0.000000
 40
0.000000
 40
0.000000
 40
0.000000
 40
0.263583
 40
0.531261
 40
0.796305
 40
0.796305
 40
0.796305
 40
0.796305
 10
34.165006
 20
9.858921
 30
0.0
 10
34.252427
 20
9.868136
 30
0.0
 10
34.428626
 20
9.886709
 30
0.0
 10
34.695997
 20
9.869984
 30
0.0
 10
34.866544
 20
9.818949
 30
0.0
 10
34.951395
 20
9.793558
 30
0.0
 11
34.165006
 21
9.858921
 31
0.0
 11
34.427804
 21
9.879247
 31
0.0
 11
34.694780
 21
9.859869
 31
0.0
 11
34.951395
 21
9.793558
 31
0.0
  0
SPLINE
  5
162
100
AcDbEntity
  8
text
 62
7
100
AcDbSpline
 70
0
 71
3
 72
10
 73
6
 74
4
 40
0.000000
 40
0.000000
 40
0.000000
 40
0.000000
 40
0.292366
 40
0.587562
 40
0.883286
 40
0.883286
 40
0.883286
 40
0.883286
 10
34.951395
 20
9.793558
 30
0.0
 10
35.029485
 20
9.732636
 30
0.0
 10
35.186419
 20
9.610201
 30
0.0
 10
35.295861
 20
9.322688
 30
0.0
 10
35.303862
 20
9.125877
 30
0.0
 10
35.307866
 20
9.027383
 30
0.0
 11
34.951395
 21
9.793558
 31
0.0
 11
35.164832
 21
9.593751
 31
0.0
 11
35.279521
 21
9.321746
 31
0.0
 11
35.307866
 21
9.027383
 31
0.0
  0
SPLINE
  5
163
100
AcDbEntity
  8
text
 62
7
100
AcDbSpline
 70
0
 71
3
 72
10
 73
6
 74
4
 40
0.000000
 40
0.000000
 40
0.000000
 40
0.000000
 40
0.678058
 40
1.359017
 40
2.041071
 40
2.041071
 40
2.041071
 40
2.041071
 10
35.307866
 20
9.027383
 30
0.0
 10
35.283260
 20
8.801304
 30
0.0
 10
35.233943
 20
8.348180
 30
0.0
 10
34.954964
 20
7.720729
 30
0.0
 10
34.761551
 20
7.310529
 30
0.0
 10
34.664767
 20
7.105264
 30
0.0
 11
35.307866
 21
9.027383
 31
0.0
 11
35.200084
 21
8.357946
 31
0.0
 11
34.953338
 21
7.723264
 31
0.0
 11
34.664767
 21
7.105264
 31
0.0
  0
SPLINE
  5
164
100
AcDbEntity
  8
text
 62
7
100
AcDbSpline
 70
0
 71
3
 72
10
 73
6
 74
4
 40
0.000000
 40
0.000000
 40
0.000000
 40
0.000000
 40
0.471869
 40
0.946018
 40
1.420580
 40
1.420580
 40
1.420580
 40
1.420580
 10
34.664767
 20
7.105264
 30
0.0
 10
34.587373
 20
6.967802
 30
0.0
 10
34.432213
 20
6.692214
 30
0.0
 10
34.111605
 20
6.339580
 30
0.0
 10
33.878146
 20
6.126533
 30
0.0
 10
33.761366
 20
6.019963
 30
0.0
 11
34.664767
 21
7.105264
 31
0.0
 11
34.418071
 21
6.703018
 31
0.0
 11
34.106866
 21
6.345291
 31
0.0
 11
33.761366
 21
6.019963
 31
0.0
  0
SPLINE
  5
165
100
AcDbEntity
  8
text
 62
7
100
AcDbSpline
 70
0
 71
3
 72
10
 73
6
 74
4
 40
0.000000
 40
0.000000
 40
0.000000
 40
0.000000
 40
0.341976
 40
0.679875
 40
1.018362
 40
1.018362
 40
1.018362
 40
1.018362
 10
33.761366
 20
6.019963
 30
0.0
 10
33.663505
 20
5.962364
 30
0.0
 10
33.468949
 20
5.847855
 30
0.0
 10
33.129068
 20
5.746861
 30
0.0
 10
32.909586
 20
5.816599
 30
0.0
 10
32.799750
 20
5.851498
 30
0.0
 11
33.761366
 21
6.019963
 31
0.0
 11
33.459597
 21
5.859081
 31
0.0
 11
33.130827
 21
5.781064
 31
0.0
 11
32.799750
 21
5.851498
 31
0.0
  0
SPLINE
  5
166
100
AcDbEntity
  8
text
 62
7
100
AcDbSpline
 70
0
 71
3
 72
10
 73
6
 74
4
 40
0.000000
 40
0.000000
 40
0.000000
 40
0.000000
 40
0.259075
 40
0.514133
 40
0.771872
 40
0.771872
 40
0.771872
 40
0.771872
 10
32.799750
 20
5.851498
 30
0.0
 10
32.717643
 20
5.877301
 30
0.0
 10
32.554701
 20
5.928507
 30
0.0
 10
32.328163
 20
6.074645
 30
0.0
 10
32.262181
 20
6.236471
 30
0.0
 10
32.229017
 20
6.317807
 30
0.0
 11
32.799750
 21
5.851498
 31
0.0
 11
32.556487
 21
5.940621
 31
0.0
 11
32.349859
 21
6.090153
 31
0.0
 11
32.229017
 21
6.317807
 31
0.0
  0
SPLINE
  5
167
100
AcDbEntity
  8
text
 62
7
100
AcDbSpline
 70
0
 71
3
 72
10
 73
6
 74
4
 40
0.000000
 40
0.000000
 40
0.000000
 40
0.000000
 40
0.149586
 40
0.300064
 40
0.446144
 40
0.446144
 40
0.446144
 40
0.446144
 10
32.229017
 20
6.317807
 30
0.0
 10
32.215874
 20
6.365942
 30
0.0
 10
32.189509
 20
6.462497
 30
0.0
 10
32.168891
 20
6.610285
 30
0.0
 10
32.166285
 20
6.709140
 30
0.0
 10
32.165002
 20
6.757835
 30
0.0
 11
32.229017
 21
6.317807
 31
0.0
 11
32.192693
 21
6.462916
 31
0.0
 11
32.171545
 21
6.611901
 31
0.0
 11
32.165002
 21
6.757835
 31
0.0
  0
LWPOLYLINE
  5
168
100
AcDbEntity
  8
text
 62
7
100
AcDbPolyline
 90
2
 70
0
 10
34.066620
 20
10.988305
 30
0.0
 10
34.066623
 20
10.988304
 30
0.0
  0
LWPOLYLINE
  5
169
100
AcDbEntity
  8
text
 62
7
100
AcDbPolyline
 90
2
 70
0
 10
33.268103
 20
9.222128
 30
0.0
 10
33.268103
 20
9.222128
 30
0.0
  0
LWPOLYLINE
  5
16a
100
AcDbEntity
  8
text
 62
7
100
AcDbPolyline
 90
9
 70
0
 10
2.338923
 20
1.022139
 30
0.0
 10
8.038363
 20
11.076745
 30
0.0
 10
9.622683
 20
11.076745
 30
0.0
 10
11.282448
 20
1.022139
 30
0.0
 10
9.979327
 20
1.022139
 30
0.0
 10
9.492371
 20
3.916439
 30
0.0
 10
5.425262
 20
3.916439
 30
0.0
 10
3.813507
 20
1.022139
 30
0.0
 10
2.338923
 20
1.022139
 30
0.0
  0
SPLINE
  5
16b
100
AcDbEntity
  8
text
 62
7
100
AcDbSpline
 70
0
 71
3
 72
13
 73
9
 74
7
 40
0.000000
 40
0.000000
 40
0.000000
 40
0.000000
 40
0.637929
 40
1.280040
 40
1.919296
 40
2.192189
 40
2.463610
 40
2.737172
 40
2.737172
 40
2.737172
 40
2.737172
 10
32.165002
 20
6.757835
 30
0.0
 10
32.197783
 20
6.968762
 30
0.0
 10
32.263562
 20
7.391999
 30
0.0
 10
32.515516
 20
7.984529
 30
0.0
 10
32.738052
 20
8.451642
 30
0.0
 10
32.923092
 20
8.800230
 30
0.0
 10
33.076321
 20
9.027340
 30
0.0
 10
33.204008
 20
9.157029
 30
0.0
 10
33.268103
 20
9.222128
 30
0.0
 11
32.165002
 21
6.757835
 31
0.0
 11
32.288745
 21
7.383647
 31
0.0
 11
32.519721
 21
7.982777
 31
0.0
 11
32.796404
 21
8.559053
 31
0.0
 11
32.927565
 21
8.798360
 31
0.0
 11
33.082266
 21
9.021377
 31
0.0
 11
33.268103
 21
9.222128
 31
0.0
  0
SPLINE
  5
16c
100
AcDbEntity
  8
text
 62
7
100
AcDbSpline
 70
0
 71
3
 72
10
 73
6
 74
4
 40
0.000000
 40
0.000000
 40
0.000000
 40
0.000000
 40
0.954856
 40
1.794558
 40
2.519894
 40
2.519894
 40
2.519894
 40
2.519894
 10
8.936830
 20
7.476016
 30
0.0
 10
8.891340
 20
7.791032
 30
0.0
 10
8.805848
 20
8.383074
 30
0.0
 10
8.708753
 20
9.217694
 30
0.0
 10
8.672454
 20
9.738163
 30
0.0
 10
8.655630
 20
9.979380
 30
0.0
 11
8.936830
 21
7.476016
 31
0.0
 11
8.804990
 21
8.421726
 31
0.0
 11
8.711256
 21
9.256181
 31
0.0
 11
8.655630
 21
9.979380
 31
0.0
  0
LWPOLYLINE
  5
16d
100
AcDbEntity
  8
text
 62
7
100
AcDbPolyline
 90
3
 70
0
 10
6.001379
 20
4.952077
 30
0.0
 10
9.327766
 20
4.952077
 30
0.0
 10
8.936830
 20
7.476016
 30
0.0
  0
LWPOLYLINE
  5
16e
100
AcDbEntity
  8
text
 62
7
100
AcDbPolyline
 90
2
 70
0
 10
7.654285
 20
7.928679
 30
0.0
 10
6.001379
 20
4.952077
 30
0.0
  0
SPLINE
  5
16f
100
AcDbEntity
  8
text
 62
7
100
AcDbSpline
 70
0
 71
3
 72
10
 73
6
 74
4
 40
0.000000
 40
0.000000
 40
0.000000
 40
0.000000
 40
0.666329
 40
1.427035
 40
2.283449
 40
2.283449
 40
2.283449
 40
2.283449
 10
8.655630
 20
9.979380
 30
0.0
 10
8.569694
 20
9.774525
 30
0.0
 10
8.385648
 20
9.335799
 30
0.0
 10
8.048099
 20
8.653061
 30
0.0
 10
7.790635
 20
8.179483
 30
0.0
 10
7.654285
 20
7.928679
 30
0.0
 11
8.655630
 21
9.979380
 31
0.0
 11
8.391954
 21
9.367441
 31
0.0
 11
8.058172
 21
8.683875
 31
0.0
 11
7.654285
 21
7.928679
 31
0.0
  0
SPLINE
  5
170
100
AcDbEntity
  8
text
 62
7
100
AcDbSpline
 70
0
 71
3
 72
25
 73
21
 74
19
 40
0.000000
 40
0.000000
 40
0.000000
 40
0.000000
 40
0.308330
 40
0.606682
 40
0.903817
 40
1.203966
 40
1.518263
 40
1.862701
 40
2.238265
 40
2.642917
 40
3.084007
 40
3.689173
 40
4.208998
 40
4.671522
 40
5.086804
 40
5.456825
 40
5.816271
 40
6.067492
 40
6.319088
 40
6.586151
 40
6.586151
 40
6.586151
 40
6.586151
 10
12.309588
 20
5.142380
 30
0.0
 10
12.313988
 20
5.039447
 30
0.0
 10
12.322644
 20
4.836912
 30
0.0
 10
12.398951
 20
4.543369
 30
0.0
 10
12.518344
 20
4.268285
 30
0.0
 10
12.697739
 20
4.019162
 30
0.0
 10
12.946405
 20
3.813562
 30
0.0
 10
13.253294
 20
3.652381
 30
0.0
 10
13.610772
 20
3.534651
 30
0.0
 10
14.013084
 20
3.464555
 30
0.0
 10
14.496969
 20
3.440852
 30
0.0
 10
15.019838
 20
3.475737
 30
0.0
 10
15.536522
 20
3.612730
 30
0.0
 10
15.941137
 20
3.855798
 30
0.0
 10
16.233544
 20
4.157780
 30
0.0
 10
16.419029
 20
4.497985
 30
0.0
 10
16.471729
 20
4.827384
 30
0.0
 10
16.437604
 20
5.114935
 30
0.0
 10
16.344464
 20
5.358135
 30
0.0
 10
16.238694
 20
5.495804
 30
0.0
 10
16.184232
 20
5.566692
 30
0.0
 11
12.309588
 21
5.142380
 31
0.0
 11
12.333780
 21
4.835000
 31
0.0
 11
12.406360
 21
4.545612
 31
0.0
 11
12.527328
 21
4.274214
 31
0.0
 11
12.704123
 21
4.031660
 31
0.0
 11
12.944195
 21
3.828809
 31
0.0
 11
13.247542
 21
3.665660
 31
0.0
 11
13.603615
 21
3.546245
 31
0.0
 11
14.001873
 21
3.474595
 31
0.0
 11
14.442317
 21
3.450713
 31
0.0
 11
15.045595
 21
3.498479
 31
0.0
 11
15.545278
 21
3.641777
 31
0.0
 11
15.941369
 21
3.880608
 31
0.0
 11
16.228272
 21
4.180852
 31
0.0
 11
16.400416
 21
4.508391
 31
0.0
 11
16.457802
 21
4.863227
 31
0.0
 11
16.427401
 21
5.112602
 31
0.0
 11
16.336211
 21
5.347090
 31
0.0
 11
16.184232
 21
5.566692
 31
0.0
  0
SPLINE
  5
171
100
AcDbEntity
  8
text
 62
7
100
AcDbSpline
 70
0
 71
3
 72
10
 73
6
 74
4
 40
0.000000
 40
0.000000
 40
0.000000
 40
0.000000
 40
0.374835
 40
0.956335
 40
1.751850
 40
1.751850
 40
1.751850
 40
1.751850
 10
16.184232
 20
5.566692
 30
0.0
 10
16.088610
 20
5.647616
 30
0.0
 10
15.844646
 20
5.854080
 30
0.0
 10
15.319533
 20
6.118710
 30
0.0
 10
14.901537
 20
6.306709
 30
0.0
 10
14.660057
 20
6.415318
 30
0.0
 11
16.184232
 21
5.566692
 31
0.0
 11
15.890808
 21
5.799938
 31
0.0
 11
15.382749
 21
6.082813
 31
0.0
 11
14.660057
 21
6.415318
 31
0.0
  0
SPLINE
  5
172
100
AcDbEntity
  8
text
 62
7
100
AcDbSpline
 70
0
 71
3
 72
10
 73
6
 74
4
 40
0.000000
 40
0.000000
 40
0.000000
 40
0.000000
 40
0.630618
 40
1.119188
 40
1.466671
 40
1.466671
 40
1.466671
 40
1.466671
 10
14.660057
 20
6.415318
 30
0.0
 10
14.467796
 20
6.500222
 30
0.0
 10
14.126582
 20
6.650906
 30
0.0
 10
13.683984
 20
6.859622
 30
0.0
 10
13.442727
 20
6.999311
 30
0.0
 10
13.342455
 20
7.057369
 30
0.0
 11
14.660057
 21
6.415318
 31
0.0
 11
14.084379
 21
6.672756
 31
0.0
 11
13.645178
 21
6.886773
 31
0.0
 11
13.342455
 21
7.057369
 31
0.0
  0
LWPOLYLINE
  5
173
100
AcDbEntity
  8
text
 62
7
100
AcDbPolyline
 90
3
 70
0
 10
11.248807
 20
5.326621
 30
0.0
 10
12.320754
 20
5.427116
 30
0.0
 10
12.309588
 20
5.142380
 30
0.0
  0
SPLINE
  5
174
100
AcDbEntity
  8
text
 62
7
100
AcDbSpline
 70
0
 71
3
 72
34
 73
30
 74
28
 40
0.000000
 40
0.000000
 40
0.000000
 40
0.000000
 40
0.418426
 40
0.796805
 40
1.143206
 40
1.475015
 40
1.811336
 40
2.163970
 40
2.572722
 40
2.969517
 40
3.370936
 40
3.781238
 40
4.206688
 40
4.664443
 40
5.151458
 40
5.660895
 40
6.201105
 40
6.833704
 40
7.406717
 40
7.933254
 40
8.417583
 40
8.863693
 40
9.290781
 40
9.695807
 40
10.065964
 40
10.411966
 40
10.452917
 40
10.508779
 40
10.579561
 40
10.579561
 40
10.579561
 40
10.579561
 10
13.342455
 20
7.057369
 30
0.0
 10
13.227979
 20
7.137353
 30
0.0
 10
13.009984
 20
7.289664
 30
0.0
 10
12.734685
 20
7.555607
 30
0.0
 10
12.520552
 20
7.837348
 30
0.0
 10
12.370752
 20
8.143046
 30
0.0
 10
12.282771
 20
8.473885
 30
0.0
 10
12.254358
 20
8.840306
 30
0.0
 10
12.289003
 20
9.227218
 30
0.0
 10
12.406711
 20
9.614963
 30
0.0
 10
12.601201
 20
9.970893
 30
0.0
 10
12.870738
 20
10.287173
 30
0.0
 10
13.217215
 20
10.549055
 30
0.0
 10
13.629174
 20
10.751275
 30
0.0
 10
14.092756
 20
10.898023
 30
0.0
 10
14.598715
 20
10.986739
 30
0.0
 10
15.159835
 20
11.014792
 30
0.0
 10
15.742268
 20
10.983152
 30
0.0
 10
16.311734
 20
10.875020
 30
0.0
 10
16.808853
 20
10.689088
 30
0.0
 10
17.229048
 20
10.440896
 30
0.0
 10
17.571997
 20
10.140088
 30
0.0
 10
17.818864
 20
9.788607
 30
0.0
 10
17.988366
 20
9.423892
 30
0.0
 10
18.096376
 20
9.064596
 30
0.0
 10
18.123473
 20
8.811620
 30
0.0
 10
18.120948
 20
8.664037
 30
0.0
 10
18.118976
 20
8.608203
 30
0.0
 10
18.117048
 20
8.566033
 30
0.0
 10
18.115970
 20
8.542463
 30
0.0
 11
13.342455
 21
7.057369
 31
0.0
 11
13.006229
 21
7.306433
 31
0.0
 11
12.734520
 21
7.569767
 31
0.0
 11
12.527328
 21
7.847372
 31
0.0
 11
12.381546
 21
8.145442
 31
0.0
 11
12.294079
 21
8.470190
 31
0.0
 11
12.264924
 21
8.821616
 31
0.0
 11
12.303384
 21
9.228555
 31
0.0
 11
12.418767
 21
9.608203
 31
0.0
 11
12.611074
 21
9.960561
 31
0.0
 11
12.877508
 21
10.272586
 31
0.0
 11
13.215283
 21
10.531268
 31
0.0
 11
13.624399
 21
10.736606
 31
0.0
 11
14.088100
 21
10.885482
 31
0.0
 11
14.589645
 21
10.974811
 31
0.0
 11
15.129034
 21
11.004593
 31
0.0
 11
15.760536
 21
10.967367
 31
0.0
 11
16.322564
 21
10.855706
 31
0.0
 11
16.815118
 21
10.669609
 31
0.0
 11
17.231051
 21
10.421468
 31
0.0
 11
17.563243
 21
10.123705
 31
0.0
 11
17.811694
 21
9.776319
 31
0.0
 11
17.983833
 21
9.409694
 31
0.0
 11
18.087120
 21
9.054239
 31
0.0
 11
18.121554
 21
8.709955
 31
0.0
 11
18.120928
 21
8.669009
 31
0.0
 11
18.119066
 21
8.613178
 31
0.0
 11
18.115970
 21
8.542463
 31
0.0
  0
LWPOLYLINE
  5
175
100
AcDbEntity
  8
text
 62
7
100
AcDbPolyline
 90
2
 70
0
 10
18.115970
 20
8.542463
 30
0.0
 10
17.060772
 20
8.458717
 30
0.0
  0
LWPOLYLINE
  5
176
100
AcDbEntity
  8
text
 62
7
100
AcDbPolyline
 90
2
 70
0
 10
11.248807
 20
5.326621
 30
0.0
 10
11.248807
 20
5.326621
 30
0.0
  0
SPLINE
  5
177
100
AcDbEntity
  8
text
 62
7
100
AcDbSpline
 70
0
 71
3
 72
58
 73
54
 74
52
 40
0.000000
 40
0.000000
 40
0.000000
 40
0.000000
 40
0.214122
 40
0.395798
 40
0.546729
 40
0.779311
 40
1.003044
 40
1.223541
 40
1.452170
 40
1.701133
 40
1.976062
 40
2.271282
 40
2.581076
 40
2.909304
 40
3.462595
 40
3.944973
 40
4.381692
 40
4.691591
 40
4.991325
 40
5.310493
 40
5.505130
 40
5.692125
 40
5.878867
 40
6.084267
 40
6.328147
 40
6.616258
 40
6.932805
 40
7.439856
 40
8.137681
 40
8.717821
 40
9.172245
 40
9.502058
 40
9.848664
 40
10.179702
 40
10.503443
 40
10.826036
 40
11.155081
 40
11.500709
 40
11.934495
 40
12.364694
 40
12.811020
 40
13.271664
 40
13.743866
 40
14.243479
 40
14.771191
 40
15.325993
 40
15.918158
 40
16.790786
 40
17.573774
 40
18.299501
 40
19.007214
 40
19.791524
 40
20.738890
 40
20.738890
 40
20.738890
 40
20.738890
 10
17.060772
 20
8.458717
 30
0.0
 10
17.059650
 20
8.530105
 30
0.0
 10
17.057576
 20
8.662063
 30
0.0
 10
17.038372
 20
8.843634
 30
0.0
 10
16.996767
 20
9.027945
 30
0.0
 10
16.917113
 20
9.215300
 30
0.0
 10
16.801577
 20
9.409832
 30
0.0
 10
16.656012
 20
9.582034
 30
0.0
 10
16.475568
 20
9.730879
 30
0.0
 10
16.257092
 20
9.856067
 30
0.0
 10
16.003779
 20
9.959697
 30
0.0
 10
15.720446
 20
10.038206
 30
0.0
 10
15.412163
 20
10.084986
 30
0.0
 10
15.015034
 20
10.102474
 30
0.0
 10
14.559172
 20
10.070979
 30
0.0
 10
14.081977
 20
9.940061
 30
0.0
 10
13.721985
 20
9.733163
 30
0.0
 10
13.476657
 20
9.478204
 30
0.0
 10
13.344845
 20
9.191735
 30
0.0
 10
13.311776
 20
8.918884
 30
0.0
 10
13.330684
 20
8.685007
 30
0.0
 10
13.383807
 20
8.501792
 30
0.0
 10
13.473636
 20
8.329270
 30
0.0
 10
13.613096
 20
8.167364
 30
0.0
 10
13.805563
 20
8.013123
 30
0.0
 10
14.046188
 20
7.863351
 30
0.0
 10
14.379360
 20
7.700542
 30
0.0
 10
14.839349
 20
7.487143
 30
0.0
 10
15.383971
 20
7.247440
 30
0.0
 10
15.910151
 20
7.009382
 30
0.0
 10
16.317438
 20
6.806805
 30
0.0
 10
16.645151
 20
6.619548
 30
0.0
 10
16.913146
 20
6.415003
 30
0.0
 10
17.145515
 20
6.173492
 30
0.0
 10
17.331220
 20
5.903938
 30
0.0
 10
17.466851
 20
5.606445
 30
0.0
 10
17.546769
 20
5.281913
 30
0.0
 10
17.574319
 20
4.912057
 30
0.0
 10
17.534298
 20
4.507799
 30
0.0
 10
17.395218
 20
4.089994
 30
0.0
 10
17.167248
 20
3.703601
 30
0.0
 10
16.861706
 20
3.356372
 30
0.0
 10
16.480931
 20
3.063650
 30
0.0
 10
16.035552
 20
2.831911
 30
0.0
 10
15.534218
 20
2.662217
 30
0.0
 10
14.983330
 20
2.560884
 30
0.0
 10
14.309921
 20
2.526337
 30
0.0
 10
13.558523
 20
2.577458
 30
0.0
 10
12.786550
 20
2.779094
 30
0.0
 10
12.115576
 20
3.108356
 30
0.0
 10
11.586645
 20
3.651508
 30
0.0
 10
11.293125
 20
4.431753
 30
0.0
 10
11.264479
 20
5.010177
 30
0.0
 10
11.248807
 20
5.326621
 30
0.0
 11
17.060772
 21
8.458717
 31
0.0
 11
17.053944
 21
8.672731
 31
0.0
 11
17.033473
 21
8.853250
 31
0.0
 11
16.999359
 21
9.000274
 31
0.0
 11
16.911266
 21
9.215528
 31
0.0
 11
16.795883
 21
9.407213
 31
0.0
 11
16.653209
 21
9.575329
 31
0.0
 11
16.477338
 21
9.721415
 31
0.0
 11
16.262391
 21
9.847033
 31
0.0
 11
16.008366
 21
9.952186
 31
0.0
 11
15.723936
 21
10.031274
 31
0.0
 11
15.417798
 21
10.078730
 31
0.0
 11
15.089952
 21
10.094554
 31
0.0
 11
14.538467
 21
10.049885
 31
0.0
 11
14.075073
 21
9.915891
 31
0.0
 11
13.699770
 21
9.692574
 31
0.0
 11
13.488853
 21
9.465525
 31
0.0
 11
13.362303
 21
9.193816
 31
0.0
 11
13.320122
 21
8.877447
 31
0.0
 11
13.337490
 21
8.683587
 31
0.0
 11
13.389598
 21
8.503998
 31
0.0
 11
13.476448
 21
8.338682
 31
0.0
 11
13.608578
 21
8.181422
 31
0.0
 11
13.796541
 21
8.026027
 31
0.0
 11
14.040337
 21
7.872496
 31
0.0
 11
14.322589
 21
7.729194
 31
0.0
 11
14.782261
 21
7.515177
 31
0.0
 11
15.419353
 21
7.230444
 31
0.0
 11
15.946638
 21
6.988509
 31
0.0
 11
16.352340
 21
6.783797
 31
0.0
 11
16.636460
 21
6.616308
 31
0.0
 11
16.911266
 21
6.405080
 31
0.0
 11
17.140171
 21
6.165939
 31
0.0
 11
17.323176
 21
5.898885
 31
0.0
 11
17.456545
 21
5.605152
 31
0.0
 11
17.536568
 21
5.285987
 31
0.0
 11
17.563248
 21
4.941390
 31
0.0
 11
17.518268
 21
4.509942
 31
0.0
 11
17.383344
 21
4.101448
 31
0.0
 11
17.158476
 21
3.715908
 31
0.0
 11
16.854195
 21
3.370068
 31
0.0
 11
16.481060
 21
3.080680
 31
0.0
 11
16.039072
 21
2.847742
 31
0.0
 11
15.539695
 21
2.677149
 31
0.0
 11
14.994417
 21
2.574793
 31
0.0
 11
14.403236
 21
2.540674
 31
0.0
 11
13.533207
 21
2.607981
 31
0.0
 11
12.776703
 21
2.809902
 31
0.0
 11
12.133722
 21
3.146436
 31
0.0
 11
11.644583
 21
3.657906
 31
0.0
 11
11.349612
 21
4.384634
 31
0.0
 11
11.248807
 21
5.326621
 31
0.0
  0
SPLINE
  5
178
100
AcDbEntity
  8
text
 62
7
100
AcDbSpline
 70
0
 71
3
 72
25
 73
21
 74
19
 40
0.000000
 40
0.000000
 40
0.000000
 40
0.000000
 40
0.256942
 40
0.505568
 40
0.753182
 40
1.003305
 40
1.265220
 40
1.552251
 40
1.865221
 40
2.202431
 40
2.570006
 40
3.074311
 40
3.507499
 40
3.892935
 40
4.239004
 40
4.547355
 40
4.846893
 40
5.056244
 40
5.265907
 40
5.488460
 40
5.488460
 40
5.488460
 40
5.488460
 10
19.119163
 20
6.136511
 30
0.0
 10
19.122829
 20
6.050734
 30
0.0
 10
19.130043
 20
5.881955
 30
0.0
 10
19.193632
 20
5.637336
 30
0.0
 10
19.293127
 20
5.408099
 30
0.0
 10
19.442622
 20
5.200496
 30
0.0
 10
19.649844
 20
5.029163
 30
0.0
 10
19.905585
 20
4.894846
 30
0.0
 10
20.203483
 20
4.796737
 30
0.0
 10
20.538743
 20
4.738324
 30
0.0
 10
20.941980
 20
4.718571
 30
0.0
 10
21.377704
 20
4.747642
 30
0.0
 10
21.808275
 20
4.861803
 30
0.0
 10
22.145454
 20
5.064359
 30
0.0
 10
22.389126
 20
5.316011
 30
0.0
 10
22.543697
 20
5.599516
 30
0.0
 10
22.587614
 20
5.874015
 30
0.0
 10
22.559176
 20
6.113640
 30
0.0
 10
22.481559
 20
6.316307
 30
0.0
 10
22.393418
 20
6.431032
 30
0.0
 10
22.348033
 20
6.490105
 30
0.0
 11
19.119163
 21
6.136511
 31
0.0
 11
19.139323
 21
5.880361
 31
0.0
 11
19.199806
 21
5.639204
 31
0.0
 11
19.300613
 21
5.413040
 31
0.0
 11
19.447942
 21
5.210912
 31
0.0
 11
19.648002
 21
5.041869
 31
0.0
 11
19.900792
 21
4.905912
 31
0.0
 11
20.197519
 21
4.806399
 31
0.0
 11
20.529401
 21
4.746691
 31
0.0
 11
20.896438
 21
4.726789
 31
0.0
 11
21.399169
 21
4.766593
 31
0.0
 11
21.815572
 21
4.886009
 31
0.0
 11
22.145647
 21
5.085035
 31
0.0
 11
22.384733
 21
5.335238
 31
0.0
 11
22.528187
 21
5.608187
 31
0.0
 11
22.576008
 21
5.903884
 31
0.0
 11
22.550674
 21
6.111696
 31
0.0
 11
22.474682
 21
6.307103
 31
0.0
 11
22.348033
 21
6.490105
 31
0.0
  0
SPLINE
  5
179
100
AcDbEntity
  8
text
 62
7
100
AcDbSpline
 70
0
 71
3
 72
10
 73
6
 74
4
 40
0.000000
 40
0.000000
 40
0.000000
 40
0.000000
 40
0.312363
 40
0.796946
 40
1.459874
 40
1.459874
 40
1.459874
 40
1.459874
 10
22.348033
 20
6.490105
 30
0.0
 10
22.268348
 20
6.557541
 30
0.0
 10
22.065044
 20
6.729595
 30
0.0
 10
21.627450
 20
6.950120
 30
0.0
 10
21.279120
 20
7.106785
 30
0.0
 10
21.077887
 20
7.197293
 30
0.0
 11
22.348033
 21
6.490105
 31
0.0
 11
22.103513
 21
6.684476
 31
0.0
 11
21.680131
 21
6.920206
 31
0.0
 11
21.077887
 21
7.197293
 31
0.0
  0
SPLINE
  5
17a
100
AcDbEntity
  8
text
 62
7
100
AcDbSpline
 70
0
 71
3
 72
10
 73
6
 74
4
 40
0.000000
 40
0.000000
 40
0.000000
 40
0.000000
 40
0.525515
 40
0.932657
 40
1.222226
 40
1.222226
 40
1.222226
 40
1.222226
 10
21.077887
 20
7.197293
 30
0.0
 10
20.917670
 20
7.268046
 30
0.0
 10
20.633325
 20
7.393616
 30
0.0
 10
20.264493
 20
7.567546
 30
0.0
 10
20.063445
 20
7.683954
 30
0.0
 10
19.979885
 20
7.732336
 30
0.0
 11
21.077887
 21
7.197293
 31
0.0
 11
20.598155
 21
7.411825
 31
0.0
 11
20.232155
 21
7.590172
 31
0.0
 11
19.979885
 21
7.732336
 31
0.0
  0
LWPOLYLINE
  5
17b
100
AcDbEntity
  8
text
 62
7
100
AcDbPolyline
 90
3
 70
0
 10
18.235179
 20
6.290046
 30
0.0
 10
19.128468
 20
6.373791
 30
0.0
 10
19.119163
 20
6.136511
 30
0.0
  0
SPLINE
  5
17c
100
AcDbEntity
  8
text
 62
7
100
AcDbSpline
 70
0
 71
3
 72
34
 73
30
 74
28
 40
0.000000
 40
0.000000
 40
0.000000
 40
0.000000
 40
0.348688
 40
0.664004
 40
0.952671
 40
1.229179
 40
1.509447
 40
1.803308
 40
2.143935
 40
2.474597
 40
2.809113
 40
3.151031
 40
3.505573
 40
3.887036
 40
4.292881
 40
4.717413
 40
5.167588
 40
5.694753
 40
6.172264
 40
6.611045
 40
7.014652
 40
7.386411
 40
7.742318
 40
8.079839
 40
8.388303
 40
8.676638
 40
8.710764
 40
8.757316
 40
8.816301
 40
8.816301
 40
8.816301
 40
8.816301
 10
19.979885
 20
7.732336
 30
0.0
 10
19.884489
 20
7.798989
 30
0.0
 10
19.702826
 20
7.925915
 30
0.0
 10
19.473410
 20
8.147534
 30
0.0
 10
19.294966
 20
8.382318
 30
0.0
 10
19.170133
 20
8.637066
 30
0.0
 10
19.096816
 20
8.912765
 30
0.0
 10
19.073138
 20
9.218116
 30
0.0
 10
19.102009
 20
9.540543
 30
0.0
 10
19.200098
 20
9.863664
 30
0.0
 10
19.362174
 20
10.160272
 30
0.0
 10
19.586788
 20
10.423839
 30
0.0
 10
19.875519
 20
10.642074
 30
0.0
 10
20.218818
 20
10.810590
 30
0.0
 10
20.605137
 20
10.932880
 30
0.0
 10
21.026769
 20
11.006810
 30
0.0
 10
21.494369
 20
11.030188
 30
0.0
 10
21.979730
 20
11.003822
 30
0.0
 10
22.454285
 20
10.913711
 30
0.0
 10
22.868550
 20
10.758768
 30
0.0
 10
23.218713
 20
10.551941
 30
0.0
 10
23.504504
 20
10.301269
 30
0.0
 10
23.710226
 20
10.008367
 30
0.0
 10
23.851478
 20
9.704438
 30
0.0
 10
23.941487
 20
9.405025
 30
0.0
 10
23.964067
 20
9.194212
 30
0.0
 10
23.961963
 20
9.071226
 30
0.0
 10
23.960321
 20
9.024697
 30
0.0
 10
23.958714
 20
8.989555
 30
0.0
 10
23.957815
 20
8.969914
 30
0.0
 11
19.979885
 21
7.732336
 31
0.0
 11
19.699697
 21
7.939889
 31
0.0
 11
19.473273
 21
8.159334
 31
0.0
 11
19.300613
 21
8.390671
 31
0.0
 11
19.179129
 21
8.639063
 31
0.0
 11
19.106239
 21
8.909686
 31
0.0
 11
19.081943
 21
9.202542
 31
0.0
 11
19.113993
 21
9.541657
 31
0.0
 11
19.210145
 21
9.858030
 31
0.0
 11
19.370401
 21
10.151662
 31
0.0
 11
19.592430
 21
10.411683
 31
0.0
 11
19.873909
 21
10.627251
 31
0.0
 11
20.214839
 21
10.798366
 31
0.0
 11
20.601257
 21
10.922430
 31
0.0
 11
21.019211
 21
10.996870
 31
0.0
 11
21.468701
 21
11.021689
 31
0.0
 11
21.994953
 21
10.990667
 31
0.0
 11
22.463310
 21
10.897616
 31
0.0
 11
22.873771
 21
10.742536
 31
0.0
 11
23.220382
 21
10.535751
 31
0.0
 11
23.497209
 21
10.287615
 31
0.0
 11
23.704251
 21
9.998128
 31
0.0
 11
23.847701
 21
9.692607
 31
0.0
 11
23.933773
 21
9.396394
 31
0.0
 11
23.962468
 21
9.109491
 31
0.0
 11
23.961946
 21
9.075369
 31
0.0
 11
23.960396
 21
9.028843
 31
0.0
 11
23.957815
 21
8.969914
 31
0.0
  0
LWPOLYLINE
  5
17d
100
AcDbEntity
  8
text
 62
7
100
AcDbPolyline
 90
2
 70
0
 10
23.957815
 20
8.969914
 30
0.0
 10
23.078483
 20
8.900126
 30
0.0
  0
LWPOLYLINE
  5
17e
100
AcDbEntity
  8
text
 62
7
100
AcDbPolyline
 90
2
 70
0
 10
18.235179
 20
6.290046
 30
0.0
 10
18.235179
 20
6.290046
 30
0.0
  0
SPLINE
  5
17f
100
AcDbEntity
  8
text
 62
7
100
AcDbSpline
 70
0
 71
3
 72
58
 73
54
 74
52
 40
0.000000
 40
0.000000
 40
0.000000
 40
0.000000
 40
0.178435
 40
0.329832
 40
0.455607
 40
0.649426
 40
0.835870
 40
1.019617
 40
1.210142
 40
1.417611
 40
1.646719
 40
1.892736
 40
2.150897
 40
2.424421
 40
2.885496
 40
3.287478
 40
3.651410
 40
3.909659
 40
4.159437
 40
4.425411
 40
4.587608
 40
4.743438
 40
4.899056
 40
5.070222
 40
5.273456
 40
5.513549
 40
5.777337
 40
6.199881
 40
6.781401
 40
7.264851
 40
7.643538
 40
7.918382
 40
8.207220
 40
8.483085
 40
8.752870
 40
9.021697
 40
9.295900
 40
9.583924
 40
9.945412
 40
10.303912
 40
10.675850
 40
11.059720
 40
11.453222
 40
11.869566
 40
12.309326
 40
12.771661
 40
13.265132
 40
13.992322
 40
14.644812
 40
15.249585
 40
15.839345
 40
16.492937
 40
17.282408
 40
17.282408
 40
17.282408
 40
17.282408
 10
23.078483
 20
8.900126
 30
0.0
 10
23.077548
 20
8.959616
 30
0.0
 10
23.075820
 20
9.069580
 30
0.0
 10
23.059817
 20
9.220890
 30
0.0
 10
23.025146
 20
9.374482
 30
0.0
 10
22.958768
 20
9.530611
 30
0.0
 10
22.862487
 20
9.692722
 30
0.0
 10
22.741183
 20
9.836223
 30
0.0
 10
22.590813
 20
9.960261
 30
0.0
 10
22.408749
 20
10.064584
 30
0.0
 10
22.197656
 20
10.150943
 30
0.0
 10
21.961544
 20
10.216367
 30
0.0
 10
21.704642
 20
10.255350
 30
0.0
 10
21.373701
 20
10.269923
 30
0.0
 10
20.993816
 20
10.243677
 30
0.0
 10
20.596154
 20
10.134578
 30
0.0
 10
20.296161
 20
9.962164
 30
0.0
 10
20.091721
 20
9.749698
 30
0.0
 10
19.981877
 20
9.510974
 30
0.0
 10
19.954320
 20
9.283599
 30
0.0
 10
19.970076
 20
9.088701
 30
0.0
 10
20.014346
 20
8.936022
 30
0.0
 10
20.089203
 20
8.792253
 30
0.0
 10
20.205420
 20
8.657331
 30
0.0
 10
20.365809
 20
8.528797
 30
0.0
 10
20.566330
 20
8.403987
 30
0.0
 10
20.843973
 20
8.268313
 30
0.0
 10
21.227297
 20
8.090481
 30
0.0
 10
21.681149
 20
7.890728
 30
0.0
 10
22.119632
 20
7.692346
 30
0.0
 10
22.459038
 20
7.523532
 30
0.0
 10
22.732132
 20
7.367484
 30
0.0
 10
22.955461
 20
7.197031
 30
0.0
 10
23.149102
 20
6.995771
 30
0.0
 10
23.303856
 20
6.771143
 30
0.0
 10
23.416882
 20
6.523232
 30
0.0
 10
23.483481
 20
6.252789
 30
0.0
 10
23.506439
 20
5.944575
 30
0.0
 10
23.473088
 20
5.607694
 30
0.0
 10
23.357188
 20
5.259523
 30
0.0
 10
23.167213
 20
4.937529
 30
0.0
 10
22.912595
 20
4.648171
 30
0.0
 10
22.595283
 20
4.404237
 30
0.0
 10
22.224133
 20
4.211120
 30
0.0
 10
21.806355
 20
4.069709
 30
0.0
 10
21.347281
 20
3.985265
 30
0.0
 10
20.786108
 20
3.956475
 30
0.0
 10
20.159942
 20
3.999076
 30
0.0
 10
19.516631
 20
4.167107
 30
0.0
 10
18.957486
 20
4.441492
 30
0.0
 10
18.516711
 20
4.894118
 30
0.0
 10
18.272111
 20
5.544322
 30
0.0
 10
18.248239
 20
6.026342
 30
0.0
 10
18.235179
 20
6.290046
 30
0.0
 11
23.078483
 21
8.900126
 31
0.0
 11
23.072793
 21
9.078470
 31
0.0
 11
23.055734
 21
9.228903
 31
0.0
 11
23.027305
 21
9.351423
 31
0.0
 11
22.953895
 21
9.530801
 31
0.0
 11
22.857742
 21
9.690539
 31
0.0
 11
22.738847
 21
9.830636
 31
0.0
 11
22.592289
 21
9.952374
 31
0.0
 11
22.413165
 21
10.057056
 31
0.0
 11
22.201478
 21
10.144683
 31
0.0
 11
21.964453
 21
10.210590
 31
0.0
 11
21.709338
 21
10.250137
 31
0.0
 11
21.436133
 21
10.263323
 31
0.0
 11
20.976562
 21
10.226099
 31
0.0
 11
20.590401
 21
10.114437
 31
0.0
 11
20.277648
 21
9.928339
 31
0.0
 11
20.101884
 21
9.739132
 31
0.0
 11
19.996426
 21
9.512708
 31
0.0
 11
19.961275
 21
9.249067
 31
0.0
 11
19.975748
 21
9.087517
 31
0.0
 11
20.019172
 21
8.937860
 31
0.0
 11
20.091546
 21
8.800096
 31
0.0
 11
20.201655
 21
8.669046
 31
0.0
 11
20.358291
 21
8.539550
 31
0.0
 11
20.561454
 21
8.411608
 31
0.0
 11
20.796664
 21
8.292190
 31
0.0
 11
21.179724
 21
8.113842
 31
0.0
 11
21.710634
 21
7.876565
 31
0.0
 11
22.150038
 21
7.674952
 31
0.0
 11
22.488123
 21
7.504359
 31
0.0
 11
22.724889
 21
7.364785
 31
0.0
 11
22.953895
 21
7.188761
 31
0.0
 11
23.144649
 21
6.989477
 31
0.0
 11
23.297153
 21
6.766932
 31
0.0
 11
23.408293
 21
6.522154
 31
0.0
 11
23.474980
 21
6.256184
 31
0.0
 11
23.497213
 21
5.969020
 31
0.0
 11
23.459730
 21
5.609480
 31
0.0
 11
23.347293
 21
5.269068
 31
0.0
 11
23.159903
 21
4.947785
 31
0.0
 11
22.906335
 21
4.659585
 31
0.0
 11
22.595390
 21
4.418428
 31
0.0
 11
22.227067
 21
4.224313
 31
0.0
 11
21.810919
 21
4.082152
 31
0.0
 11
21.356520
 21
3.996855
 31
0.0
 11
20.863869
 21
3.968423
 31
0.0
 11
20.138846
 21
4.024512
 31
0.0
 11
19.508425
 21
4.192779
 31
0.0
 11
18.972608
 21
4.473225
 31
0.0
 11
18.564992
 21
4.899449
 31
0.0
 11
18.319183
 21
5.505056
 31
0.0
 11
18.235179
 21
6.290046
 31
0.0
  0
SPLINE
  5
180
100
AcDbEntity
  8
text
 62
7
100
AcDbSpline
 70
0
 71
3
 72
25
 73
21
 74
19
 40
0.000000
 40
0.000000
 40
0.000000
 40
0.000000
 40
0.296144
 40
0.536874
 40
0.722791
 40
0.971827
 40
1.201582
 40
1.415949
 40
1.621146
 40
1.825111
 40
2.034791
 40
2.249285
 40
2.467006
 40
2.693364
 40
2.998263
 40
3.289769
 40
3.581271
 40
3.882498
 40
4.205184
 40
4.562943
 40
4.562943
 40
4.562943
 40
4.562943
 10
29.942318
 20
11.089789
 30
0.0
 10
30.041039
 20
11.089108
 30
0.0
 10
30.220008
 20
11.087875
 30
0.0
 10
30.460730
 20
11.075958
 30
0.0
 10
30.684869
 20
11.051443
 30
0.0
 10
30.901290
 20
11.001092
 30
0.0
 10
31.119714
 20
10.924183
 30
0.0
 10
31.312603
 20
10.824089
 30
0.0
 10
31.479258
 20
10.697974
 30
0.0
 10
31.617927
 20
10.543558
 30
0.0
 10
31.727535
 20
10.363936
 30
0.0
 10
31.808097
 20
10.164720
 30
0.0
 10
31.856616
 20
9.949628
 30
0.0
 10
31.873422
 20
9.699786
 30
0.0
 10
31.848944
 20
9.424776
 30
0.0
 10
31.760543
 20
9.139957
 30
0.0
 10
31.613340
 20
8.881703
 30
0.0
 10
31.403750
 20
8.656458
 30
0.0
 10
31.130969
 20
8.470151
 30
0.0
 10
30.919590
 20
8.386459
 30
0.0
 10
30.808453
 20
8.342456
 30
0.0
 11
29.942318
 21
11.089789
 31
0.0
 11
30.238430
 21
11.085430
 31
0.0
 11
30.478805
 21
11.072366
 31
0.0
 11
30.663444
 21
11.050597
 31
0.0
 11
30.906211
 21
10.995072
 31
0.0
 11
31.122418
 21
10.917342
 31
0.0
 11
31.312065
 21
10.817407
 31
0.0
 11
31.475142
 21
10.692861
 31
0.0
 11
31.611660
 21
10.541320
 31
0.0
 11
31.721617
 21
10.362784
 31
0.0
 11
31.802174
 21
10.163992
 31
0.0
 11
31.850510
 21
9.951705
 31
0.0
 11
31.866626
 21
9.725920
 31
0.0
 11
31.837664
 21
9.422400
 31
0.0
 11
31.750790
 21
9.144140
 31
0.0
 11
31.606002
 21
8.891139
 31
0.0
 11
31.401549
 21
8.669922
 31
0.0
 11
31.135700
 21
8.487028
 31
0.0
 11
30.808453
 21
8.342456
 31
0.0
  0
LWPOLYLINE
  5
181
100
AcDbEntity
  8
text
 62
7
100
AcDbPolyline
 90
3
 70
0
 10
26.959836
 20
5.344299
 30
0.0
 10
28.163019
 20
11.089789
 30
0.0
 10
29.942318
 20
11.089789
 30
0.0
  0
LWPOLYLINE
  5
182
100
AcDbEntity
  8
text
 62
7
100
AcDbPolyline
 90
2
 70
0
 10
29.742441
 20
5.344299
 30
0.0
 10
26.959836
 20
5.344299
 30
0.0
  0
SPLINE
  5
183
100
AcDbEntity
  8
text
 62
7
100
AcDbSpline
 70
0
 71
3
 72
22
 73
18
 74
16
 40
0.000000
 40
0.000000
 40
0.000000
 40
0.000000
 40
0.308691
 40
0.587322
 40
0.847724
 40
1.099589
 40
1.351398
 40
1.615451
 40
1.928708
 40
2.245098
 40
2.576084
 40
2.911218
 40
3.239816
 40
3.572350
 40
3.909825
 40
4.252837
 40
4.610667
 40
4.610667
 40
4.610667
 40
4.610667
 10
30.808453
 20
8.342456
 30
0.0
 10
30.905095
 20
8.306422
 30
0.0
 10
31.088969
 20
8.237862
 30
0.0
 10
31.327525
 20
8.081444
 30
0.0
 10
31.512330
 20
7.890346
 30
0.0
 10
31.643180
 20
7.669200
 30
0.0
 10
31.721816
 20
7.423393
 30
0.0
 10
31.746274
 20
7.146298
 30
0.0
 10
31.716923
 20
6.847969
 30
0.0
 10
31.623736
 20
6.539520
 30
0.0
 10
31.471748
 20
6.247609
 30
0.0
 10
31.272646
 20
5.980514
 30
0.0
 10
31.028417
 20
5.752790
 30
0.0
 10
30.746733
 20
5.572109
 30
0.0
 10
30.434340
 20
5.440409
 30
0.0
 10
30.095749
 20
5.358475
 30
0.0
 10
29.861859
 20
5.349090
 30
0.0
 10
29.742441
 20
5.344299
 30
0.0
 11
30.808453
 21
8.342456
 31
0.0
 11
31.093242
 21
8.223356
 31
0.0
 11
31.325779
 21
8.069855
 31
0.0
 11
31.506063
 21
7.881955
 31
0.0
 11
31.634521
 21
7.665311
 31
0.0
 11
31.711598
 21
7.425589
 31
0.0
 11
31.737294
 21
7.162789
 31
0.0
 11
31.707026
 21
6.850997
 31
0.0
 11
31.616232
 21
6.547916
 31
0.0
 11
31.464912
 21
6.253544
 31
0.0
 11
31.263725
 21
5.985516
 31
0.0
 11
31.023350
 21
5.761471
 31
0.0
 11
30.743787
 21
5.581408
 31
0.0
 11
30.433082
 21
5.449680
 31
0.0
 11
30.099300
 21
5.370644
 31
0.0
 11
29.742441
 21
5.344299
 31
0.0
  0
LWPOLYLINE
  5
184
100
AcDbEntity
  8
text
 62
7
100
AcDbPolyline
 90
2
 70
0
 10
28.417765
 20
8.636394
 30
0.0
 10
29.581755
 20
8.636394
 30
0.0
  0
LWPOLYLINE
  5
185
100
AcDbEntity
  8
text
 62
7
100
AcDbPolyline
 90
3
 70
0
 10
30.016782
 20
10.435289
 30
0.0
 10
28.794004
 20
10.435289
 30
0.0
 10
28.417765
 20
8.636394
 30
0.0
  0
SPLINE
  5
186
100
AcDbEntity
  8
text
 62
7
100
AcDbSpline
 70
0
 71
3
 72
22
 73
18
 74
16
 40
0.000000
 40
0.000000
 40
0.000000
 40
0.000000
 40
0.505349
 40
0.915492
 40
1.246756
 40
1.535427
 40
1.821481
 40
2.136787
 40
2.291888
 40
2.436714
 40
2.576738
 40
2.712858
 40
2.845420
 40
2.979968
 40
3.149888
 40
3.389803
 40
3.702808
 40
3.702808
 40
3.702808
 40
3.702808
 10
29.581755
 20
8.636394
 30
0.0
 10
29.750361
 20
8.640882
 30
0.0
 10
30.055807
 20
8.649013
 30
0.0
 10
30.465809
 20
8.732244
 30
0.0
 10
30.781377
 20
8.879677
 30
0.0
 10
31.000339
 20
9.096989
 30
0.0
 10
31.126942
 20
9.371519
 30
0.0
 10
31.156269
 20
9.625580
 30
0.0
 10
31.142101
 20
9.830768
 30
0.0
 10
31.104126
 20
9.973557
 30
0.0
 10
31.040300
 20
10.099576
 30
0.0
 10
30.955629
 20
10.207509
 30
0.0
 10
30.852255
 20
10.294666
 30
0.0
 10
30.723540
 20
10.365713
 30
0.0
 10
30.545546
 20
10.408283
 30
0.0
 10
30.305541
 20
10.431648
 30
0.0
 10
30.121159
 20
10.433973
 30
0.0
 10
30.016782
 20
10.435289
 30
0.0
 11
29.581755
 21
8.636394
 31
0.0
 11
30.086236
 21
8.666003
 31
0.0
 11
30.486643
 21
8.754837
 31
0.0
 11
30.782978
 21
8.902896
 31
0.0
 11
30.986554
 21
9.107561
 31
0.0
 11
31.108701
 21
9.366226
 31
0.0
 11
31.149420
 21
9.678891
 31
0.0
 11
31.136788
 21
9.833476
 31
0.0
 11
31.098903
 21
9.973260
 31
0.0
 11
31.035764
 21
10.098241
 31
0.0
 11
30.951499
 21
10.205143
 31
0.0
 11
30.850254
 21
10.290712
 31
0.0
 11
30.732029
 21
10.354946
 31
0.0
 11
30.568075
 21
10.399577
 31
0.0
 11
30.329659
 21
10.426358
 31
0.0
 11
30.016782
 21
10.435289
 31
0.0
  0
LWPOLYLINE
  5
187
100
AcDbEntity
  8
text
 62
7
100
AcDbPolyline
 90
2
 70
0
 10
27.865163
 20
5.994879
 30
0.0
 10
29.174163
 20
5.994879
 30
0.0
  0
LWPOLYLINE
  5
188
100
AcDbEntity
  8
text
 62
7
100
AcDbPolyline
 90
3
 70
0
 10
29.738522
 20
7.981894
 30
0.0
 10
28.280594
 20
7.981894
 30
0.0
 10
27.865163
 20
5.994879
 30
0.0
  0
LWPOLYLINE
  5
189
100
AcDbEntity
  8
text
 62
7
100
AcDbPolyline
 90
9
 70
0
 10
38.461404
 20
5.344299
 30
0.0
 10
39.523496
 20
10.435289
 30
0.0
 10
37.638380
 20
10.435289
 30
0.0
 10
37.775550
 20
11.089789
 30
0.0
 10
42.298262
 20
11.089789
 30
0.0
 10
42.161092
 20
10.435289
 30
0.0
 10
40.291652
 20
10.435289
 30
0.0
 10
39.229559
 20
5.344299
 30
0.0
 10
38.461404
 20
5.344299
 30
0.0
  0
SPLINE
  5
18a
100
AcDbEntity
  8
text
 62
7
100
AcDbSpline
 70
0
 71
3
 72
25
 73
21
 74
19
 40
0.000000
 40
0.000000
 40
0.000000
 40
0.000000
 40
0.309637
 40
0.543775
 40
0.703060
 40
0.936577
 40
1.146297
 40
1.336194
 40
1.515530
 40
1.693617
 40
1.875626
 40
2.057624
 40
2.235375
 40
2.413625
 40
2.662772
 40
2.883905
 40
3.097803
 40
3.346082
 40
3.674327
 40
4.097148
 40
4.097148
 40
4.097148
 40
4.097148
 10
29.174163
 20
5.994879
 30
0.0
 10
29.277365
 20
5.995558
 30
0.0
 10
29.458606
 20
5.996751
 30
0.0
 10
29.692956
 20
6.005795
 30
0.0
 10
29.900631
 20
6.030946
 30
0.0
 10
30.096959
 20
6.075489
 30
0.0
 10
30.296691
 20
6.145480
 30
0.0
 10
30.467528
 20
6.237257
 30
0.0
 10
30.611331
 20
6.351002
 30
0.0
 10
30.731948
 20
6.485552
 30
0.0
 10
30.828214
 20
6.639415
 30
0.0
 10
30.900095
 20
6.805820
 30
0.0
 10
30.944125
 20
6.980607
 30
0.0
 10
30.959587
 20
7.182364
 30
0.0
 10
30.938523
 20
7.399837
 30
0.0
 10
30.852849
 20
7.614740
 30
0.0
 10
30.701427
 20
7.792080
 30
0.0
 10
30.459436
 20
7.909878
 30
0.0
 10
30.130115
 20
7.972285
 30
0.0
 10
29.879569
 20
7.978433
 30
0.0
 10
29.738522
 20
7.981894
 30
0.0
 11
29.174163
 21
5.994879
 31
0.0
 11
29.483774
 21
5.998798
 31
0.0
 11
29.717617
 21
6.010556
 31
0.0
 11
29.875692
 21
6.030152
 31
0.0
 11
30.103437
 21
6.081754
 31
0.0
 11
30.300701
 21
6.152952
 31
0.0
 11
30.467486
 21
6.243746
 31
0.0
 11
30.608137
 21
6.355006
 31
0.0
 11
30.727018
 21
6.487604
 31
0.0
 11
30.824129
 21
6.641541
 31
0.0
 11
30.895978
 21
6.808757
 31
0.0
 11
30.939089
 21
6.981200
 31
0.0
 11
30.953462
 21
7.158870
 31
0.0
 11
30.925371
 21
7.406429
 31
0.0
 11
30.841109
 21
7.610879
 31
0.0
 11
30.700676
 21
7.772219
 31
0.0
 11
30.481418
 21
7.888703
 31
0.0
 11
30.160700
 21
7.958595
 31
0.0
 11
29.738522
 21
7.981894
 31
0.0
  0
LWPOLYLINE
  5
18b
100
AcDbEntity
  8
text
 62
7
100
AcDbPolyline
 90
5
 70
0
 10
24.188583
 20
7.648100
 30
0.0
 10
24.358983
 20
8.431635
 30
0.0
 10
26.834254
 20
8.431635
 30
0.0
 10
26.668339
 20
7.648100
 30
0.0
 10
24.188583
 20
7.648100
 30
0.0
  0
ENDSEC
  0
SECTION
  2
OBJECTS
  0
DICTIONARY
  5
C
330
0
100
AcDbDictionary
  3
ACAD_GROUP
350
D
  3
ACAD_MLINESTYLE
350
17
  0
DICTIONARY
  5
D
330
C
100
AcDbDictionary
  0
DICTIONARY
  5
1A
330
C
100
AcDbDictionary
  0
DICTIONARY
  5
17
330
C
100
AcDbDictionary
  3
STANDARD
350
18
  0
DICTIONARY
  5
19
330
C
100
AcDbDictionary
  0
ENDSEC
  0
EOF
