  0
SECTION
  2
HEADER
  9
$ACADVER
  1
AC1014
  9
$HANDSEED
  5
FFFF
  9
$MEASUREMENT
 70
     1
  0
ENDSEC
  0
SECTION
  2
TABLES
  0
TABLE
  2
VPORT
  5
8
330
0
100
AcDbSymbolTable
 70
     4
  0
VPORT
  5
2E
330
8
100
AcDbSymbolTableRecord
100
AcDbViewportTableRecord
  2
*ACTIVE
 70
     0
 10
0.0
 20
0.0
 11
1.0
 21
1.0
 12
210.0
 22
148.5
 13
0.0
 23
0.0
 14
10.0
 24
10.0
 15
10.0
 25
10.0
 16
0.0
 26
0.0
 36
1.0
 17
0.0
 27
0.0
 37
0.0
 40
341.0
 41
1.24
 42
50.0
 43
0.0
 44
0.0
 50
0.0
 51
0.0
 71
     0
 72
   100
 73
     1
 74
     3
 75
     0
 76
     0
 77
     0
 78
     0
  0
ENDTAB
  0
TABLE
  2
LTYPE
  5
5
330
0
100
AcDbSymbolTable
 70
     1
  0
LTYPE
  5
14
330
5
100
AcDbSymbolTableRecord
100
AcDbLinetypeTableRecord
  2
BYBLOCK
 70
     0
  3

 72
    65
 73
     0
 40
0.0
  0
LTYPE
  5
15
330
5
100
AcDbSymbolTableRecord
100
AcDbLinetypeTableRecord
  2
BYLAYER
 70
     0
  3

 72
    65
 73
     0
 40
0.0
  0
LTYPE
  5
16
330
5
100
AcDbSymbolTableRecord
100
AcDbLinetypeTableRecord
  2
CONTINUOUS
 70
     0
  3
Solid line
 72
    65
 73
     0
 40
0.0
  0
ENDTAB
  0
TABLE
  2
LAYER
  5
2
100
AcDbSymbolTable
 70
3
  0
LAYER
  5
50
100
AcDbSymbolTableRecord
100
AcDbLayerTableRecord
  2
0
 70
0
  6
CONTINUOUS
  0
LAYER
  5
51
100
AcDbSymbolTableRecord
100
AcDbLayerTableRecord
  2
logo
 70
0
  6
CONTINUOUS
  0
LAYER
  5
52
100
AcDbSymbolTableRecord
100
AcDbLayerTableRecord
  2
text
 70
0
  6
CONTINUOUS
  0
ENDTAB
  0
TABLE
  2
STYLE
  5
3
330
0
100
AcDbSymbolTable
 70
     1
  0
STYLE
  5
11
330
3
100
AcDbSymbolTableRecord
100
AcDbTextStyleTableRecord
  2
STANDARD
 70
     0
 40
0.0
 41
1.0
 50
0.0
 71
     0
 42
2.5
  3
txt
  4

  0
ENDTAB
  0
TABLE
  2
VIEW
  5
6
330
0
100
AcDbSymbolTable
 70
     0
  0
ENDTAB
  0
TABLE
  2
UCS
  5
7
330
0
100
AcDbSymbolTable
 70
     0
  0
ENDTAB
  0
TABLE
  2
APPID
  5
9
330
0
100
AcDbSymbolTable
 70
     2
  0
APPID
  5
12
330
9
100
AcDbSymbolTableRecord
100
AcDbRegAppTableRecord
  2
ACAD
 70
     0
  0
ENDTAB
  0
TABLE
  2
DIMSTYLE
  5
A
330
0
100
AcDbSymbolTable
 70
     1
  0
DIMSTYLE
105
27
330
A
100
AcDbSymbolTableRecord
100
AcDbDimStyleTableRecord
  2
ISO-25
 70
     0
  3

  4

  5

  6

  7

 40
1.0
 41
2.5
 42
0.625
 43
3.75
 44
1.25
 45
0.0
 46
0.0
 47
0.0
 48
0.0
140
2.5
141
2.5
142
0.0
143
0.03937007874016
144
1.0
145
0.0
146
1.0
147
0.625
 71
     0
 72
     0
 73
     0
 74
     0
 75
     0
 76
     0
 77
     1
 78
     8
170
     0
171
     3
172
     1
173
     0
174
     0
175
     0
176
     0
177
     0
178
     0
270
     2
271
     2
272
     2
273
     2
274
     3
340
11
275
     0
280
     0
281
     0
282
     0
283
     0
284
     8
285
     0
286
     0
287
     3
288
     0
  0
ENDTAB
  0
TABLE
  2
BLOCK_RECORD
  5
1
330
0
100
AcDbSymbolTable
 70
     1
  0
BLOCK_RECORD
  5
1F
330
1
100
AcDbSymbolTableRecord
100
AcDbBlockTableRecord
  2
*MODEL_SPACE
  0
BLOCK_RECORD
  5
1B
330
1
100
AcDbSymbolTableRecord
100
AcDbBlockTableRecord
  2
*PAPER_SPACE
  0
ENDTAB
  0
ENDSEC
  0
SECTION
  2
BLOCKS
  0
BLOCK
  5
20
330
1F
100
AcDbEntity
  8
0
100
AcDbBlockBegin
  2
*MODEL_SPACE
 70
     0
 10
0.0
 20
0.0
 30
0.0
  3
*MODEL_SPACE
  1

  0
ENDBLK
  5
21
330
1F
100
AcDbEntity
  8
0
100
AcDbBlockEnd
  0
BLOCK
  5
1C
330
1B
100
AcDbEntity
 67
     1
  8
0
100
AcDbBlockBegin
  2
*PAPER_SPACE
  1

  0
ENDBLK
  5
1D
330
1B
100
AcDbEntity
 67
     1
  8
0
100
AcDbBlockEnd
  0
ENDSEC
  0
SECTION
  2
ENTITIES
  0
LWPOLYLINE
  5
100
100
AcDbEntity
  8
text
 62
7
100
AcDbPolyline
 90
297
 70
0
 10
77.540559
 20
28.032287
 30
0.0
 10
77.329265
 20
27.634534
 30
0.0
 10
77.151005
 20
27.216879
 30
0.0
 10
77.015483
 20
26.784504
 30
0.0
 10
76.932404
 20
26.342593
 30
0.0
 10
76.814349
 20
25.780484
 30
0.0
 10
76.626207
 20
25.229787
 30
0.0
 10
76.412570
 20
24.683485
 30
0.0
 10
76.218034
 20
24.134559
 30
0.0
 10
75.676549
 20
22.641827
 30
0.0
 10
75.133030
 20
21.149750
 30
0.0
 10
74.569291
 20
19.666788
 30
0.0
 10
73.967147
 20
18.201401
 30
0.0
 10
73.863571
 20
17.930650
 30
0.0
 10
73.765189
 20
17.658485
 30
0.0
 10
73.669728
 20
17.385540
 30
0.0
 10
73.574917
 20
17.112446
 30
0.0
 10
73.557990
 20
18.011084
 30
0.0
 10
73.521156
 20
18.915354
 30
0.0
 10
73.510789
 20
19.814820
 30
0.0
 10
73.573296
 20
20.699047
 30
0.0
 10
73.650288
 20
21.063436
 30
0.0
 10
73.685137
 20
21.441051
 30
0.0
 10
73.670373
 20
21.817864
 30
0.0
 10
73.598554
 20
22.179846
 30
0.0
 10
73.389026
 20
22.243124
 30
0.0
 10
73.186405
 20
22.135991
 30
0.0
 10
73.003706
 20
21.948023
 30
0.0
 10
72.853944
 20
21.768791
 30
0.0
 10
72.754809
 20
21.427350
 30
0.0
 10
72.728660
 20
21.064863
 30
0.0
 10
72.763042
 20
20.700986
 30
0.0
 10
72.845507
 20
20.355381
 30
0.0
 10
72.952490
 20
19.962003
 30
0.0
 10
72.975118
 20
19.544857
 30
0.0
 10
72.967754
 20
19.120450
 30
0.0
 10
72.984735
 20
18.705286
 30
0.0
 10
73.010350
 20
17.352030
 30
0.0
 10
73.023165
 20
15.998106
 30
0.0
 10
73.001710
 20
14.645954
 30
0.0
 10
72.924498
 20
13.298017
 30
0.0
 10
72.922674
 20
12.959434
 30
0.0
 10
72.939708
 20
12.619690
 30
0.0
 10
72.967706
 20
12.279757
 30
0.0
 10
72.998803
 20
11.940604
 30
0.0
 10
72.533388
 20
12.493918
 30
0.0
 10
72.042004
 20
13.028798
 30
0.0
 10
71.563216
 20
13.571301
 30
0.0
 10
71.135589
 20
14.147481
 30
0.0
 10
71.082884
 20
14.491993
 30
0.0
 10
70.880650
 20
14.777819
 30
0.0
 10
70.614259
 20
15.031916
 30
0.0
 10
70.369076
 20
15.281243
 30
0.0
 10
70.151183
 20
14.935305
 30
0.0
 10
69.925290
 20
14.553615
 30
0.0
 10
69.838743
 20
14.167645
 30
0.0
 10
70.038887
 20
13.808866
 30
0.0
 10
70.174632
 20
13.649032
 30
0.0
 10
70.342111
 20
13.497373
 30
0.0
 10
70.527707
 20
13.428599
 30
0.0
 10
70.717795
 20
13.517424
 30
0.0
 10
71.414714
 20
12.705613
 30
0.0
 10
72.129272
 20
11.906214
 30
0.0
 10
72.825848
 20
11.094105
 30
0.0
 10
73.468817
 20
10.244168
 30
0.0
 10
73.694329
 20
9.769946
 30
0.0
 10
73.993447
 20
9.339429
 30
0.0
 10
74.349909
 20
8.951490
 30
0.0
 10
74.747460
 20
8.605014
 30
0.0
 10
73.825163
 20
8.461727
 30
0.0
 10
72.902312
 20
8.301280
 30
0.0
 10
71.980116
 20
8.152452
 30
0.0
 10
71.059780
 20
8.044031
 30
0.0
 10
70.918579
 20
8.247872
 30
0.0
 10
70.672832
 20
8.281202
 30
0.0
 10
70.391311
 20
8.231682
 30
0.0
 10
70.142793
 20
8.186978
 30
0.0
 10
69.935886
 20
8.153602
 30
0.0
 10
69.742695
 20
8.082508
 30
0.0
 10
69.595122
 20
7.955890
 30
0.0
 10
69.525073
 20
7.755959
 30
0.0
 10
69.462233
 20
7.524979
 30
0.0
 10
69.379670
 20
7.269416
 30
0.0
 10
69.364334
 20
7.030117
 30
0.0
 10
69.503173
 20
6.847937
 30
0.0
 10
69.829178
 20
6.817785
 30
0.0
 10
70.165186
 20
6.831387
 30
0.0
 10
70.489005
 20
6.905066
 30
0.0
 10
70.778445
 20
7.055137
 30
0.0
 10
70.911690
 20
7.250707
 30
0.0
 10
71.134634
 20
7.332684
 30
0.0
 10
71.392591
 20
7.365174
 30
0.0
 10
71.630873
 20
7.412284
 30
0.0
 10
72.717002
 20
7.567200
 30
0.0
 10
73.804328
 20
7.741249
 30
0.0
 10
74.893624
 20
7.903697
 30
0.0
 10
75.985668
 20
8.023808
 30
0.0
 10
76.936017
 20
7.985252
 30
0.0
 10
77.882804
 20
8.074082
 30
0.0
 10
78.803071
 20
8.306068
 30
0.0
 10
79.673849
 20
8.696981
 30
0.0
 10
80.655736
 20
9.255705
 30
0.0
 10
81.577993
 20
9.921071
 30
0.0
 10
82.440071
 20
10.653893
 30
0.0
 10
83.241415
 20
11.414988
 30
0.0
 10
82.401131
 20
9.727678
 30
0.0
 10
81.578440
 20
8.029249
 30
0.0
 10
80.749128
 20
6.333994
 30
0.0
 10
79.888979
 20
4.656211
 30
0.0
 10
79.612677
 20
4.494459
 30
0.0
 10
79.415864
 20
4.222633
 30
0.0
 10
79.258927
 20
3.906899
 30
0.0
 10
79.102256
 20
3.613419
 30
0.0
 10
78.905746
 20
3.195325
 30
0.0
 10
78.682849
 20
2.778989
 30
0.0
 10
78.504137
 20
2.351547
 30
0.0
 10
78.440188
 20
1.900140
 30
0.0
 10
78.564487
 20
1.696545
 30
0.0
 10
78.745016
 20
1.521911
 30
0.0
 10
78.961387
 20
1.404568
 30
0.0
 10
79.193222
 20
1.372847
 30
0.0
 10
79.481636
 20
1.669319
 30
0.0
 10
79.684306
 20
2.040912
 30
0.0
 10
79.854852
 20
2.438025
 30
0.0
 10
80.046897
 20
2.811063
 30
0.0
 10
80.189717
 20
3.132096
 30
0.0
 10
80.364281
 20
3.454190
 30
0.0
 10
80.498188
 20
3.783763
 30
0.0
 10
80.519038
 20
4.127235
 30
0.0
 10
80.488468
 20
4.340728
 30
0.0
 10
80.572465
 20
4.560616
 30
0.0
 10
80.696088
 20
4.780081
 30
0.0
 10
80.784402
 20
4.992306
 30
0.0
 10
81.850779
 20
7.152981
 30
0.0
 10
82.906069
 20
9.323578
 30
0.0
 10
83.967947
 20
11.490139
 30
0.0
 10
85.054087
 20
13.638711
 30
0.0
 10
85.634371
 20
14.592103
 30
0.0
 10
86.188650
 20
15.563643
 30
0.0
 10
86.694937
 20
16.559495
 30
0.0
 10
87.131248
 20
17.585827
 30
0.0
 10
87.069082
 20
15.921235
 30
0.0
 10
87.000966
 20
14.254069
 30
0.0
 10
86.930604
 20
12.587515
 30
0.0
 10
86.861707
 20
10.924757
 30
0.0
 10
86.787421
 20
10.769019
 30
0.0
 10
86.668907
 20
10.638153
 30
0.0
 10
86.563404
 20
10.498128
 30
0.0
 10
86.528148
 20
10.314918
 30
0.0
 10
86.478231
 20
9.701325
 30
0.0
 10
86.440074
 20
9.084186
 30
0.0
 10
86.434158
 20
8.468362
 30
0.0
 10
86.480977
 20
7.858711
 30
0.0
 10
86.706464
 20
7.762501
 30
0.0
 10
86.964721
 20
7.789396
 30
0.0
 10
87.229169
 20
7.875797
 30
0.0
 10
87.473229
 20
7.958109
 30
0.0
 10
87.747217
 20
8.158742
 30
0.0
 10
87.839035
 20
8.484000
 30
0.0
 10
87.847097
 20
8.855630
 30
0.0
 10
87.869845
 20
9.195382
 30
0.0
 10
87.875243
 20
9.624193
 30
0.0
 10
87.909023
 20
10.061328
 30
0.0
 10
87.911239
 20
10.492779
 30
0.0
 10
87.821943
 20
10.904541
 30
0.0
 10
87.733284
 20
10.975713
 30
0.0
 10
87.631345
 20
11.021037
 30
0.0
 10
87.561951
 20
11.084341
 30
0.0
 10
87.570924
 20
11.209462
 30
0.0
 10
87.657021
 20
13.381476
 30
0.0
 10
87.731109
 20
15.559239
 30
0.0
 10
87.808496
 20
17.737825
 30
0.0
 10
87.904488
 20
19.912312
 30
0.0
 10
88.064135
 20
20.868803
 30
0.0
 10
88.177240
 20
21.830750
 30
0.0
 10
88.224302
 20
22.795830
 30
0.0
 10
88.185819
 20
23.761716
 30
0.0
 10
88.958203
 20
22.863148
 30
0.0
 10
89.724821
 20
21.957548
 30
0.0
 10
90.489715
 20
21.052326
 30
0.0
 10
91.256917
 20
20.154902
 30
0.0
 10
91.111203
 20
19.880314
 30
0.0
 10
91.183157
 20
19.591583
 30
0.0
 10
91.369062
 20
19.315391
 30
0.0
 10
91.565207
 20
19.078416
 30
0.0
 10
91.786425
 20
18.823769
 30
0.0
 10
92.008076
 20
18.569494
 30
0.0
 10
92.229822
 20
18.315298
 30
0.0
 10
92.451325
 20
18.060894
 30
0.0
 10
92.732015
 20
18.387825
 30
0.0
 10
93.023711
 20
18.707465
 30
0.0
 10
93.304652
 20
19.034852
 30
0.0
 10
93.553082
 20
19.385021
 30
0.0
 10
93.228829
 20
19.816239
 30
0.0
 10
92.869301
 20
20.224922
 30
0.0
 10
92.498733
 20
20.626391
 30
0.0
 10
92.141353
 20
21.035969
 30
0.0
 10
92.027821
 20
20.904596
 30
0.0
 10
91.911153
 20
20.805091
 30
0.0
 10
91.794187
 20
20.794921
 30
0.0
 10
91.679760
 20
20.931528
 30
0.0
 10
90.737317
 20
22.007773
 30
0.0
 10
89.790190
 20
23.081899
 30
0.0
 10
88.856241
 20
24.165748
 30
0.0
 10
87.953338
 20
25.271165
 30
0.0
 10
87.702062
 20
25.713276
 30
0.0
 10
87.446782
 20
26.152629
 30
0.0
 10
87.156286
 20
26.566935
 30
0.0
 10
86.799362
 20
26.933905
 30
0.0
 10
86.616626
 20
27.107008
 30
0.0
 10
86.498391
 20
27.261782
 30
0.0
 10
86.534431
 20
27.361697
 30
0.0
 10
86.814519
 20
27.370223
 30
0.0
 10
87.891560
 20
27.469640
 30
0.0
 10
88.973334
 20
27.571747
 30
0.0
 10
90.050919
 20
27.669539
 30
0.0
 10
91.115405
 20
27.756011
 30
0.0
 10
91.201209
 20
27.536558
 30
0.0
 10
91.422015
 20
27.470307
 30
0.0
 10
91.692186
 20
27.484731
 30
0.0
 10
91.926067
 20
27.507325
 30
0.0
 10
92.275460
 20
27.546266
 30
0.0
 10
92.647927
 20
27.556901
 30
0.0
 10
92.999672
 20
27.617971
 30
0.0
 10
93.286903
 20
27.808237
 30
0.0
 10
93.404015
 20
28.082873
 30
0.0
 10
93.521102
 20
28.371337
 30
0.0
 10
93.590582
 20
28.665062
 30
0.0
 10
93.564872
 20
28.955478
 30
0.0
 10
93.273464
 20
29.033893
 30
0.0
 10
92.957502
 20
29.022900
 30
0.0
 10
92.634409
 20
28.975670
 30
0.0
 10
92.321609
 20
28.945383
 30
0.0
 10
92.041536
 20
28.913261
 30
0.0
 10
91.774429
 20
28.835099
 30
0.0
 10
91.526110
 20
28.711416
 30
0.0
 10
91.302399
 20
28.542752
 30
0.0
 10
90.536330
 20
28.409221
 30
0.0
 10
89.756866
 20
28.327853
 30
0.0
 10
88.972708
 20
28.262964
 30
0.0
 10
88.192552
 20
28.178872
 30
0.0
 10
87.188459
 20
28.070876
 30
0.0
 10
86.189479
 20
27.974635
 30
0.0
 10
85.190517
 20
27.928288
 30
0.0
 10
84.186478
 20
27.969970
 30
0.0
 10
83.936408
 20
27.958352
 30
0.0
 10
83.687574
 20
27.936122
 30
0.0
 10
83.440129
 20
27.903443
 30
0.0
 10
83.194227
 20
27.860463
 30
0.0
 10
84.287859
 20
28.665702
 30
0.0
 10
85.383131
 20
29.470838
 30
0.0
 10
86.481493
 20
30.270151
 30
0.0
 10
87.584398
 20
31.057914
 30
0.0
 10
87.876514
 20
31.092382
 30
0.0
 10
88.144371
 20
31.242179
 30
0.0
 10
88.399256
 20
31.435455
 30
0.0
 10
88.652458
 20
31.600366
 30
0.0
 10
88.894767
 20
31.791308
 30
0.0
 10
89.182638
 20
31.959613
 30
0.0
 10
89.428871
 20
32.148443
 30
0.0
 10
89.546273
 20
32.400962
 30
0.0
 10
89.536943
 20
32.635537
 30
0.0
 10
89.517839
 20
32.909672
 30
0.0
 10
89.429749
 20
33.128140
 30
0.0
 10
89.213454
 20
33.195719
 30
0.0
 10
88.743601
 20
32.896524
 30
0.0
 10
88.290192
 20
32.563263
 30
0.0
 10
87.862935
 20
32.196668
 30
0.0
 10
87.471536
 20
31.797473
 30
0.0
 10
87.210072
 20
31.489753
 30
0.0
 10
86.878313
 20
31.242452
 30
0.0
 10
86.526051
 20
31.013085
 30
0.0
 10
86.203074
 20
30.759165
 30
0.0
 10
84.747890
 20
29.688874
 30
0.0
 10
83.299119
 20
28.607667
 30
0.0
 10
81.829932
 20
27.559137
 30
0.0
 10
80.313500
 20
26.586879
 30
0.0
 10
79.086795
 20
25.638148
 30
0.0
 10
77.965062
 20
24.566614
 30
0.0
 10
76.944012
 20
23.396298
 30
0.0
 10
76.019352
 20
22.151221
 30
0.0
 10
76.403710
 20
23.210797
 30
0.0
 10
76.779627
 20
24.274809
 30
0.0
 10
77.169191
 20
25.332877
 30
0.0
 10
77.594490
 20
26.374615
 30
0.0
 10
77.831688
 20
26.756905
 30
0.0
 10
78.010153
 20
27.178042
 30
0.0
 10
78.150515
 20
27.617363
 30
0.0
 10
78.273402
 20
28.054201
 30
0.0
 10
78.187631
 20
28.263834
 30
0.0
 10
77.966960
 20
28.279420
 30
0.0
 10
77.716308
 20
28.176922
 30
0.0
 10
77.540584
 20
28.032295
 30
0.0
 10
77.540571
 20
28.032291
 30
0.0
 10
77.540557
 20
28.032287
 30
0.0
 10
77.540545
 20
28.032291
 30
0.0
 10
77.540559
 20
28.032287
 30
0.0
  0
LWPOLYLINE
  5
101
100
AcDbEntity
  8
text
 62
7
100
AcDbPolyline
 90
105
 70
0
 10
79.370078
 20
24.966241
 30
0.0
 10
80.353594
 20
25.771649
 30
0.0
 10
81.451335
 20
26.434038
 30
0.0
 10
82.640104
 20
26.891928
 30
0.0
 10
83.896703
 20
27.083838
 30
0.0
 10
84.740896
 20
26.985688
 30
0.0
 10
85.532237
 20
26.672808
 30
0.0
 10
86.201567
 20
26.159446
 30
0.0
 10
86.679730
 20
25.459846
 30
0.0
 10
86.898829
 20
25.033463
 30
0.0
 10
87.057235
 20
24.580306
 30
0.0
 10
87.167557
 20
24.114592
 30
0.0
 10
87.242401
 20
23.650541
 30
0.0
 10
87.305081
 20
23.054307
 30
0.0
 10
87.304902
 20
22.448819
 30
0.0
 10
87.271230
 20
21.840226
 30
0.0
 10
87.233562
 20
21.234678
 30
0.0
 10
87.192096
 20
20.869779
 30
0.0
 10
87.149247
 20
20.507000
 30
0.0
 10
87.081703
 20
20.149254
 30
0.0
 10
86.966157
 20
19.799455
 30
0.0
 10
86.420958
 20
18.029554
 30
0.0
 10
85.669845
 20
16.339876
 30
0.0
 10
84.742633
 20
14.737188
 30
0.0
 10
83.669133
 20
13.228262
 30
0.0
 10
82.749568
 20
12.205493
 30
0.0
 10
81.773449
 20
11.232444
 30
0.0
 10
80.710343
 20
10.367755
 30
0.0
 10
79.529823
 20
9.670065
 30
0.0
 10
78.462536
 20
9.236135
 30
0.0
 10
77.310662
 20
9.032665
 30
0.0
 10
76.165854
 20
9.135592
 30
0.0
 10
75.119766
 20
9.620858
 30
0.0
 10
74.342674
 20
10.550533
 30
0.0
 10
73.883518
 20
11.666644
 30
0.0
 10
73.677762
 20
12.877620
 30
0.0
 10
73.660871
 20
14.091893
 30
0.0
 10
74.002543
 20
16.262265
 30
0.0
 10
74.677657
 20
18.355140
 30
0.0
 10
75.626891
 20
20.345539
 30
0.0
 10
76.790932
 20
22.208489
 30
0.0
 10
76.214461
 20
21.087974
 30
0.0
 10
75.734437
 20
19.926327
 30
0.0
 10
75.300012
 20
18.745045
 30
0.0
 10
74.860334
 20
17.565620
 30
0.0
 10
74.369014
 20
16.346569
 30
0.0
 10
74.016073
 20
15.065170
 30
0.0
 10
73.910059
 20
13.761252
 30
0.0
 10
74.159526
 20
12.474639
 30
0.0
 10
74.428982
 20
11.997974
 30
0.0
 10
74.816080
 20
11.620227
 30
0.0
 10
75.286796
 20
11.343708
 30
0.0
 10
75.807104
 20
11.170727
 30
0.0
 10
76.355179
 20
11.005515
 30
0.0
 10
76.919537
 20
10.963983
 30
0.0
 10
77.479820
 20
11.044775
 30
0.0
 10
78.015667
 20
11.246536
 30
0.0
 10
79.267447
 20
12.047322
 30
0.0
 10
80.324631
 20
13.086731
 30
0.0
 10
81.194785
 20
14.297496
 30
0.0
 10
81.885470
 20
15.612350
 30
0.0
 10
82.626053
 20
16.989553
 30
0.0
 10
83.424929
 20
18.343497
 30
0.0
 10
84.119039
 20
19.738734
 30
0.0
 10
84.545331
 20
21.239820
 30
0.0
 10
84.571208
 20
21.422850
 30
0.0
 10
84.486957
 20
21.559630
 30
0.0
 10
84.334184
 20
21.619054
 30
0.0
 10
84.154494
 20
21.570015
 30
0.0
 10
83.873050
 20
21.310322
 30
0.0
 10
83.732935
 20
20.948176
 30
0.0
 10
83.649454
 20
20.549072
 30
0.0
 10
83.537917
 20
20.178503
 30
0.0
 10
83.474148
 20
19.973907
 30
0.0
 10
83.392434
 20
19.754263
 30
0.0
 10
83.304283
 20
19.557217
 30
0.0
 10
83.221205
 20
19.420415
 30
0.0
 10
83.286117
 20
20.073006
 30
0.0
 10
83.292874
 20
20.724837
 30
0.0
 10
83.196315
 20
21.359767
 30
0.0
 10
82.951250
 20
21.961655
 30
0.0
 10
82.588738
 20
22.506700
 30
0.0
 10
82.058648
 20
22.867892
 30
0.0
 10
81.431557
 20
23.056879
 30
0.0
 10
80.778044
 20
23.085309
 30
0.0
 10
79.870231
 20
23.030131
 30
0.0
 10
79.008392
 20
22.759787
 30
0.0
 10
78.224263
 20
22.303144
 30
0.0
 10
77.549578
 20
21.689068
 30
0.0
 10
77.276358
 20
21.416224
 30
0.0
 10
77.000586
 20
21.123779
 30
0.0
 10
76.740577
 20
20.836153
 30
0.0
 10
76.514641
 20
20.577761
 30
0.0
 10
77.069516
 20
21.698327
 30
0.0
 10
77.734356
 20
22.759161
 30
0.0
 10
78.463195
 20
23.781354
 30
0.0
 10
79.210068
 20
24.785994
 30
0.0
 10
79.248781
 20
24.832220
 30
0.0
 10
79.288451
 20
24.877575
 30
0.0
 10
79.328937
 20
24.922203
 30
0.0
 10
79.370108
 20
24.966248
 30
0.0
 10
79.370110
 20
24.966248
 30
0.0
 10
79.370113
 20
24.966246
 30
0.0
 10
79.370115
 20
24.966244
 30
0.0
 10
79.370078
 20
24.966241
 30
0.0
  0
LWPOLYLINE
  5
102
100
AcDbEntity
  8
text
 62
7
100
AcDbPolyline
 90
41
 70
0
 10
77.373777
 20
20.550800
 30
0.0
 10
77.865842
 20
21.053048
 30
0.0
 10
78.382503
 20
21.525927
 30
0.0
 10
78.955366
 20
21.909238
 30
0.0
 10
79.616036
 20
22.142784
 30
0.0
 10
80.106381
 20
22.189495
 30
0.0
 10
80.607716
 20
22.182917
 30
0.0
 10
81.104703
 20
22.115419
 30
0.0
 10
81.582008
 20
21.979381
 30
0.0
 10
82.006556
 20
21.626532
 30
0.0
 10
82.287881
 20
21.154631
 30
0.0
 10
82.439063
 20
20.616246
 30
0.0
 10
82.473184
 20
20.063944
 30
0.0
 10
82.313150
 20
18.798838
 30
0.0
 10
81.923546
 20
17.588962
 30
0.0
 10
81.406823
 20
16.415252
 30
0.0
 10
80.865437
 20
15.258645
 30
0.0
 10
80.420951
 20
14.492817
 30
0.0
 10
79.875128
 20
13.793854
 30
0.0
 10
79.259833
 20
13.148974
 30
0.0
 10
78.606934
 20
12.545393
 30
0.0
 10
78.049856
 20
12.230722
 30
0.0
 10
77.446129
 20
12.009524
 30
0.0
 10
76.821793
 20
11.950969
 30
0.0
 10
76.202894
 20
12.124232
 30
0.0
 10
75.742990
 20
12.278910
 30
0.0
 10
75.317325
 20
12.512308
 30
0.0
 10
74.977736
 20
12.843112
 30
0.0
 10
74.776062
 20
13.290005
 30
0.0
 10
74.704343
 20
13.560498
 30
0.0
 10
74.654165
 20
13.838878
 30
0.0
 10
74.624925
 20
14.117837
 30
0.0
 10
74.616024
 20
14.390072
 30
0.0
 10
74.816900
 20
15.570099
 30
0.0
 10
75.190205
 20
16.711255
 30
0.0
 10
75.671046
 20
17.817583
 30
0.0
 10
76.194529
 20
18.893118
 30
0.0
 10
76.435680
 20
19.345053
 30
0.0
 10
76.707264
 20
19.776182
 30
0.0
 10
77.017293
 20
20.180201
 30
0.0
 10
77.373777
 20
20.550800
 30
0.0
  0
LWPOLYLINE
  5
103
100
AcDbEntity
  8
text
 62
7
100
AcDbPolyline
 90
89
 70
0
 10
26.393764
 20
1.222397
 30
0.0
 10
26.354998
 20
1.072632
 30
0.0
 10
26.311343
 20
0.934393
 30
0.0
 10
26.262798
 20
0.807678
 30
0.0
 10
26.209367
 20
0.692489
 30
0.0
 10
26.148947
 20
0.587309
 30
0.0
 10
26.079449
 20
0.490629
 30
0.0
 10
26.000872
 20
0.402446
 30
0.0
 10
25.913214
 20
0.322762
 30
0.0
 10
25.825729
 20
0.258270
 30
0.0
 10
25.734636
 20
0.202625
 30
0.0
 10
25.639934
 20
0.155827
 30
0.0
 10
25.541625
 20
0.117877
 30
0.0
 10
25.437145
 20
0.088540
 30
0.0
 10
25.323933
 20
0.067586
 30
0.0
 10
25.201991
 20
0.055014
 30
0.0
 10
25.071319
 20
0.050826
 30
0.0
 10
24.866432
 20
0.063165
 30
0.0
 10
24.689486
 20
0.100184
 30
0.0
 10
24.540478
 20
0.161883
 30
0.0
 10
24.419410
 20
0.248261
 30
0.0
 10
24.325698
 20
0.356409
 30
0.0
 10
24.258761
 20
0.483414
 30
0.0
 10
24.218598
 20
0.629279
 30
0.0
 10
24.205211
 20
0.794003
 30
0.0
 10
24.206227
 20
0.851627
 30
0.0
 10
24.209196
 20
0.907156
 30
0.0
 10
24.214146
 20
0.960589
 30
0.0
 10
24.221068
 20
1.011927
 30
0.0
 10
24.229505
 20
1.062798
 30
0.0
 10
24.238989
 20
1.114835
 30
0.0
 10
24.249526
 20
1.168036
 30
0.0
 10
24.261109
 20
1.222400
 30
0.0
 10
24.357032
 20
1.637294
 30
0.0
 10
24.452956
 20
2.052188
 30
0.0
 10
24.548880
 20
2.467082
 30
0.0
 10
24.644804
 20
2.881976
 30
0.0
 10
24.737934
 20
2.881976
 30
0.0
 10
24.831064
 20
2.881976
 30
0.0
 10
24.924193
 20
2.881976
 30
0.0
 10
25.017324
 20
2.881976
 30
0.0
 10
24.920469
 20
2.462426
 30
0.0
 10
24.823614
 20
2.042876
 30
0.0
 10
24.726758
 20
1.623325
 30
0.0
 10
24.629903
 20
1.203775
 30
0.0
 10
24.619251
 20
1.158664
 30
0.0
 10
24.609645
 20
1.110877
 30
0.0
 10
24.601086
 20
1.060413
 30
0.0
 10
24.593574
 20
1.007271
 30
0.0
 10
24.587465
 20
0.955757
 30
0.0
 10
24.583094
 20
0.910182
 30
0.0
 10
24.580471
 20
0.870544
 30
0.0
 10
24.579556
 20
0.836843
 30
0.0
 10
24.588288
 20
0.726426
 30
0.0
 10
24.614480
 20
0.629862
 30
0.0
 10
24.658135
 20
0.547150
 30
0.0
 10
24.719252
 20
0.478293
 30
0.0
 10
24.797713
 20
0.424103
 30
0.0
 10
24.893404
 20
0.385395
 30
0.0
 10
25.006325
 20
0.362171
 30
0.0
 10
25.136475
 20
0.354425
 30
0.0
 10
25.233096
 20
0.358268
 30
0.0
 10
25.323665
 20
0.369793
 30
0.0
 10
25.408180
 20
0.389001
 30
0.0
 10
25.486642
 20
0.415893
 30
0.0
 10
25.559633
 20
0.450467
 30
0.0
 10
25.627734
 20
0.492724
 30
0.0
 10
25.690945
 20
0.542665
 30
0.0
 10
25.749270
 20
0.600289
 30
0.0
 10
25.797056
 20
0.659601
 30
0.0
 10
25.839837
 20
0.722057
 30
0.0
 10
25.877613
 20
0.787655
 30
0.0
 10
25.910384
 20
0.856397
 30
0.0
 10
25.939661
 20
0.930260
 30
0.0
 10
25.966959
 20
1.011225
 30
0.0
 10
25.992279
 20
1.099291
 30
0.0
 10
26.015621
 20
1.194459
 30
0.0
 10
26.112942
 20
1.616337
 30
0.0
 10
26.210262
 20
2.038215
 30
0.0
 10
26.307584
 20
2.460095
 30
0.0
 10
26.404904
 20
2.881973
 30
0.0
 10
26.498034
 20
2.881973
 30
0.0
 10
26.591164
 20
2.881973
 30
0.0
 10
26.684293
 20
2.881973
 30
0.0
 10
26.777424
 20
2.881973
 30
0.0
 10
26.681500
 20
2.467079
 30
0.0
 10
26.585576
 20
2.052185
 30
0.0
 10
26.489652
 20
1.637291
 30
0.0
 10
26.393764
 20
1.222397
 30
0.0
  0
LWPOLYLINE
  5
104
100
AcDbEntity
  8
text
 62
7
100
AcDbPolyline
 90
137
 70
0
 10
27.800026
 20
0.058274
 30
0.0
 10
27.666618
 20
0.061821
 30
0.0
 10
27.536468
 20
0.072472
 30
0.0
 10
27.409579
 20
0.090226
 30
0.0
 10
27.285949
 20
0.115079
 30
0.0
 10
27.164531
 20
0.147268
 30
0.0
 10
27.044277
 20
0.187023
 30
0.0
 10
26.925187
 20
0.234344
 30
0.0
 10
26.807261
 20
0.289233
 30
0.0
 10
26.829612
 20
0.394935
 30
0.0
 10
26.851963
 20
0.500638
 30
0.0
 10
26.874314
 20
0.606340
 30
0.0
 10
26.896665
 20
0.712042
 30
0.0
 10
26.903181
 20
0.712042
 30
0.0
 10
26.909697
 20
0.712042
 30
0.0
 10
26.916213
 20
0.712042
 30
0.0
 10
26.922729
 20
0.712042
 30
0.0
 10
27.017197
 20
0.632241
 30
0.0
 10
27.121794
 20
0.562336
 30
0.0
 10
27.236519
 20
0.502325
 30
0.0
 10
27.361371
 20
0.452210
 30
0.0
 10
27.490181
 20
0.412688
 30
0.0
 10
27.616779
 20
0.384458
 30
0.0
 10
27.741166
 20
0.367520
 30
0.0
 10
27.863341
 20
0.361878
 30
0.0
 10
28.050125
 20
0.371718
 30
0.0
 10
28.213742
 20
0.401228
 30
0.0
 10
28.354194
 20
0.450412
 30
0.0
 10
28.471481
 20
0.519271
 30
0.0
 10
28.563969
 20
0.603378
 30
0.0
 10
28.630032
 20
0.698313
 30
0.0
 10
28.669671
 20
0.804074
 30
0.0
 10
28.682885
 20
0.920661
 30
0.0
 10
28.678168
 20
0.982242
 30
0.0
 10
28.664024
 20
1.038469
 30
0.0
 10
28.640451
 20
1.089342
 30
0.0
 10
28.607449
 20
1.134860
 30
0.0
 10
28.565364
 20
1.174905
 30
0.0
 10
28.514550
 20
1.209363
 30
0.0
 10
28.455006
 20
1.238234
 30
0.0
 10
28.386731
 20
1.261517
 30
0.0
 10
28.323344
 20
1.278105
 30
0.0
 10
28.254252
 20
1.294344
 30
0.0
 10
28.179458
 20
1.310235
 30
0.0
 10
28.098960
 20
1.325776
 30
0.0
 10
28.016597
 20
1.341433
 30
0.0
 10
27.936214
 20
1.357672
 30
0.0
 10
27.857811
 20
1.374493
 30
0.0
 10
27.781386
 20
1.391898
 30
0.0
 10
27.643437
 20
1.430314
 30
0.0
 10
27.522019
 20
1.480371
 30
0.0
 10
27.417132
 20
1.542070
 30
0.0
 10
27.328775
 20
1.615410
 30
0.0
 10
27.258694
 20
1.699343
 30
0.0
 10
27.208637
 20
1.792821
 30
0.0
 10
27.178602
 20
1.895846
 30
0.0
 10
27.168589
 20
2.008418
 30
0.0
 10
27.189602
 20
2.198461
 30
0.0
 10
27.252638
 20
2.371857
 30
0.0
 10
27.357701
 20
2.528606
 30
0.0
 10
27.504788
 20
2.668710
 30
0.0
 10
27.685168
 20
2.784015
 30
0.0
 10
27.890112
 20
2.866377
 30
0.0
 10
28.119619
 20
2.915794
 30
0.0
 10
28.373690
 20
2.932268
 30
0.0
 10
28.515655
 20
2.928486
 30
0.0
 10
28.650984
 20
2.917136
 30
0.0
 10
28.779678
 20
2.898220
 30
0.0
 10
28.901737
 20
2.871737
 30
0.0
 10
29.016344
 20
2.840130
 30
0.0
 10
29.122686
 20
2.805846
 30
0.0
 10
29.220764
 20
2.768885
 30
0.0
 10
29.310578
 20
2.729249
 30
0.0
 10
29.289623
 20
2.630065
 30
0.0
 10
29.268669
 20
2.530882
 30
0.0
 10
29.247716
 20
2.431699
 30
0.0
 10
29.226761
 20
2.332515
 30
0.0
 10
29.220246
 20
2.332515
 30
0.0
 10
29.213730
 20
2.332515
 30
0.0
 10
29.207214
 20
2.332515
 30
0.0
 10
29.200698
 20
2.332515
 30
0.0
 10
29.127532
 20
2.390953
 30
0.0
 10
29.040280
 20
2.445200
 30
0.0
 10
28.938943
 20
2.495258
 30
0.0
 10
28.823522
 20
2.541126
 30
0.0
 10
28.699483
 20
2.579425
 30
0.0
 10
28.572302
 20
2.606781
 30
0.0
 10
28.441978
 20
2.623195
 30
0.0
 10
28.308513
 20
2.628664
 30
0.0
 10
28.147572
 20
2.619353
 30
0.0
 10
28.003743
 20
2.591413
 30
0.0
 10
27.877030
 20
2.544849
 30
0.0
 10
27.767428
 20
2.479659
 30
0.0
 10
27.679012
 20
2.400148
 30
0.0
 10
27.615858
 20
2.310626
 30
0.0
 10
27.577966
 20
2.211095
 30
0.0
 10
27.565336
 20
2.101552
 30
0.0
 10
27.569879
 20
2.041947
 30
0.0
 10
27.583500
 20
1.986069
 30
0.0
 10
27.606200
 20
1.933917
 30
0.0
 10
27.637981
 20
1.885490
 30
0.0
 10
27.681403
 20
1.841834
 30
0.0
 10
27.739026
 20
1.804000
 30
0.0
 10
27.810854
 20
1.771987
 30
0.0
 10
27.896883
 20
1.745795
 30
0.0
 10
27.961374
 20
1.731068
 30
0.0
 10
28.035646
 20
1.714828
 30
0.0
 10
28.119696
 20
1.697075
 30
0.0
 10
28.213524
 20
1.677810
 30
0.0
 10
28.308283
 20
1.658078
 30
0.0
 10
28.395127
 20
1.638928
 30
0.0
 10
28.474054
 20
1.620360
 30
0.0
 10
28.545067
 20
1.602375
 30
0.0
 10
28.669336
 20
1.561630
 30
0.0
 10
28.777658
 20
1.512038
 30
0.0
 10
28.870031
 20
1.453599
 30
0.0
 10
28.946457
 20
1.386313
 30
0.0
 10
29.006350
 20
1.309946
 30
0.0
 10
29.049131
 20
1.224267
 30
0.0
 10
29.074801
 20
1.129274
 30
0.0
 10
29.083360
 20
1.024969
 30
0.0
 10
29.077769
 20
0.933818
 30
0.0
 10
29.061006
 20
0.842899
 30
0.0
 10
29.033067
 20
0.752215
 30
0.0
 10
28.993954
 20
0.661763
 30
0.0
 10
28.944826
 20
0.574686
 30
0.0
 10
28.886852
 20
0.494128
 30
0.0
 10
28.820032
 20
0.420091
 30
0.0
 10
28.744365
 20
0.352571
 30
0.0
 10
28.655017
 20
0.287381
 30
0.0
 10
28.558336
 20
0.229640
 30
0.0
 10
28.454322
 20
0.179349
 30
0.0
 10
28.342975
 20
0.136509
 30
0.0
 10
28.222778
 20
0.102284
 30
0.0
 10
28.092221
 20
0.077838
 30
0.0
 10
27.951304
 20
0.063170
 30
0.0
 10
27.800026
 20
0.058274
 30
0.0
  0
LWPOLYLINE
  5
105
100
AcDbEntity
  8
text
 62
7
100
AcDbPolyline
 90
9
 70
0
 10
31.996462
 20
2.567194
 30
0.0
 10
31.007422
 20
2.567194
 30
0.0
 10
30.439329
 20
0.108564
 30
0.0
 10
30.066809
 20
0.108564
 30
0.0
 10
30.634902
 20
2.567194
 30
0.0
 10
29.645862
 20
2.567194
 30
0.0
 10
29.716640
 20
2.881973
 30
0.0
 10
32.067240
 20
2.881973
 30
0.0
 10
31.996462
 20
2.567194
 30
0.0
  0
LWPOLYLINE
  5
106
100
AcDbEntity
  8
text
 62
7
100
AcDbPolyline
 90
45
 70
0
 10
33.708190
 20
2.192812
 30
0.0
 10
33.706330
 20
2.240249
 30
0.0
 10
33.700739
 20
2.283844
 30
0.0
 10
33.691428
 20
2.323600
 30
0.0
 10
33.678393
 20
2.359514
 30
0.0
 10
33.661512
 20
2.392283
 30
0.0
 10
33.640675
 20
2.422608
 30
0.0
 10
33.615879
 20
2.450490
 30
0.0
 10
33.587126
 20
2.475927
 30
0.0
 10
33.549757
 20
2.502584
 30
0.0
 10
33.508430
 20
2.524818
 30
0.0
 10
33.463146
 20
2.542630
 30
0.0
 10
33.413904
 20
2.556019
 30
0.0
 10
33.359772
 20
2.565797
 30
0.0
 10
33.299819
 20
2.572781
 30
0.0
 10
33.234046
 20
2.576969
 30
0.0
 10
33.162454
 20
2.578361
 30
0.0
 10
33.058148
 20
2.578361
 30
0.0
 10
32.953843
 20
2.578361
 30
0.0
 10
32.849538
 20
2.578361
 30
0.0
 10
32.745232
 20
2.578361
 30
0.0
 10
32.683300
 20
2.311079
 30
0.0
 10
32.621368
 20
2.043795
 30
0.0
 10
32.559437
 20
1.776512
 30
0.0
 10
32.497506
 20
1.509230
 30
0.0
 10
32.595292
 20
1.509230
 30
0.0
 10
32.693079
 20
1.509230
 30
0.0
 10
32.790865
 20
1.509230
 30
0.0
 10
32.888652
 20
1.509230
 30
0.0
 10
32.976892
 20
1.511324
 30
0.0
 10
33.059079
 20
1.517606
 30
0.0
 10
33.135212
 20
1.528083
 30
0.0
 10
33.205293
 20
1.542752
 30
0.0
 10
33.270833
 20
1.562657
 30
0.0
 10
33.333346
 20
1.588850
 30
0.0
 10
33.392833
 20
1.621329
 30
0.0
 10
33.449294
 20
1.660096
 30
0.0
 10
33.507324
 20
1.709628
 30
0.0
 10
33.558487
 20
1.765098
 30
0.0
 10
33.602783
 20
1.826506
 30
0.0
 10
33.640210
 20
1.893852
 30
0.0
 10
33.669952
 20
1.965270
 30
0.0
 10
33.691197
 20
2.038900
 30
0.0
 10
33.703945
 20
2.114743
 30
0.0
 10
33.708190
 20
2.192812
 30
0.0
  0
LWPOLYLINE
  5
107
100
AcDbEntity
  8
text
 62
7
100
AcDbPolyline
 90
57
 70
0
 10
34.121687
 20
0.108564
 30
0.0
 10
34.013191
 20
0.108564
 30
0.0
 10
33.904695
 20
0.108564
 30
0.0
 10
33.796198
 20
0.108564
 30
0.0
 10
33.687702
 20
0.108564
 30
0.0
 10
33.505167
 20
0.385625
 30
0.0
 10
33.322633
 20
0.662687
 30
0.0
 10
33.140097
 20
0.939748
 30
0.0
 10
32.957563
 20
1.216810
 30
0.0
 10
32.825784
 20
1.216810
 30
0.0
 10
32.694005
 20
1.216810
 30
0.0
 10
32.562226
 20
1.216810
 30
0.0
 10
32.430447
 20
1.216810
 30
0.0
 10
32.366653
 20
0.939748
 30
0.0
 10
32.302859
 20
0.662687
 30
0.0
 10
32.239065
 20
0.385625
 30
0.0
 10
32.175271
 20
0.108564
 30
0.0
 10
32.082141
 20
0.108564
 30
0.0
 10
31.989011
 20
0.108564
 30
0.0
 10
31.895881
 20
0.108564
 30
0.0
 10
31.802751
 20
0.108564
 30
0.0
 10
31.962469
 20
0.801916
 30
0.0
 10
32.122187
 20
1.495268
 30
0.0
 10
32.281905
 20
2.188621
 30
0.0
 10
32.441623
 20
2.881973
 30
0.0
 10
32.630677
 20
2.881973
 30
0.0
 10
32.819731
 20
2.881973
 30
0.0
 10
33.008785
 20
2.881973
 30
0.0
 10
33.197838
 20
2.881973
 30
0.0
 10
33.318557
 20
2.879930
 30
0.0
 10
33.427402
 20
2.873821
 30
0.0
 10
33.524374
 20
2.863635
 30
0.0
 10
33.609472
 20
2.849376
 30
0.0
 10
33.686070
 20
2.829759
 30
0.0
 10
33.757547
 20
2.803507
 30
0.0
 10
33.823903
 20
2.770621
 30
0.0
 10
33.885137
 20
2.731101
 30
0.0
 10
33.934495
 20
2.690937
 30
0.0
 10
33.978265
 20
2.646816
 30
0.0
 10
34.016448
 20
2.598738
 30
0.0
 10
34.049046
 20
2.546703
 30
0.0
 10
34.075120
 20
2.489311
 30
0.0
 10
34.093746
 20
2.425167
 30
0.0
 10
34.104922
 20
2.354273
 30
0.0
 10
34.108653
 20
2.276627
 30
0.0
 10
34.095090
 20
2.108701
 30
0.0
 10
34.054403
 20
1.951369
 30
0.0
 10
33.986593
 20
1.804632
 30
0.0
 10
33.891660
 20
1.668488
 30
0.0
 10
33.774723
 20
1.547593
 30
0.0
 10
33.640907
 20
1.446605
 30
0.0
 10
33.490210
 20
1.365524
 30
0.0
 10
33.322636
 20
1.304350
 30
0.0
 10
33.522400
 20
1.005403
 30
0.0
 10
33.722163
 20
0.706455
 30
0.0
 10
33.921927
 20
0.407508
 30
0.0
 10
34.121687
 20
0.108564
 30
0.0
  0
LWPOLYLINE
  5
108
100
AcDbEntity
  8
text
 62
7
100
AcDbPolyline
 90
9
 70
0
 10
36.673447
 20
0.108564
 30
0.0
 10
36.299065
 20
0.108564
 30
0.0
 10
36.205935
 20
0.888993
 30
0.0
 10
35.010146
 20
0.888993
 30
0.0
 10
34.555673
 20
0.108564
 30
0.0
 10
34.166390
 20
0.108564
 30
0.0
 10
35.816652
 20
2.881973
 30
0.0
 10
36.304653
 20
2.881973
 30
0.0
 10
36.673447
 20
0.108564
 30
0.0
  0
LWPOLYLINE
  5
109
100
AcDbEntity
  8
text
 62
7
100
AcDbPolyline
 90
4
 70
0
 10
36.164959
 20
1.190733
 30
0.0
 10
35.991736
 20
2.559744
 30
0.0
 10
35.187094
 20
1.190733
 30
0.0
 10
36.164959
 20
1.190733
 30
0.0
  0
LWPOLYLINE
  5
10a
100
AcDbEntity
  8
text
 62
7
100
AcDbPolyline
 90
7
 70
0
 10
38.819162
 20
0.108564
 30
0.0
 10
37.062731
 20
0.108564
 30
0.0
 10
37.703465
 20
2.881973
 30
0.0
 10
38.075985
 20
2.881973
 30
0.0
 10
37.507893
 20
0.423343
 30
0.0
 10
38.891804
 20
0.423343
 30
0.0
 10
38.819162
 20
0.108564
 30
0.0
  0
LWPOLYLINE
  5
10b
100
AcDbEntity
  8
text
 62
7
100
AcDbPolyline
 90
13
 70
0
 10
40.167684
 20
0.108564
 30
0.0
 10
39.068750
 20
0.108564
 30
0.0
 10
39.130217
 20
0.378641
 30
0.0
 10
39.493423
 20
0.378641
 30
0.0
 10
40.011225
 20
2.611897
 30
0.0
 10
39.648019
 20
2.611897
 30
0.0
 10
39.709485
 20
2.881973
 30
0.0
 10
40.808418
 20
2.881973
 30
0.0
 10
40.746953
 20
2.611897
 30
0.0
 10
40.383745
 20
2.611897
 30
0.0
 10
39.865943
 20
0.378641
 30
0.0
 10
40.229149
 20
0.378641
 30
0.0
 10
40.167684
 20
0.108564
 30
0.0
  0
LWPOLYLINE
  5
10c
100
AcDbEntity
  8
text
 62
7
100
AcDbPolyline
 90
9
 70
0
 10
43.013734
 20
0.108564
 30
0.0
 10
42.639352
 20
0.108564
 30
0.0
 10
42.546222
 20
0.888993
 30
0.0
 10
41.350433
 20
0.888993
 30
0.0
 10
40.895960
 20
0.108564
 30
0.0
 10
40.506677
 20
0.108564
 30
0.0
 10
42.156939
 20
2.881973
 30
0.0
 10
42.644940
 20
2.881973
 30
0.0
 10
43.013734
 20
0.108564
 30
0.0
  0
LWPOLYLINE
  5
10d
100
AcDbEntity
  8
text
 62
7
100
AcDbPolyline
 90
4
 70
0
 10
42.505244
 20
1.190733
 30
0.0
 10
42.332023
 20
2.559744
 30
0.0
 10
41.527381
 20
1.190733
 30
0.0
 10
42.505244
 20
1.190733
 30
0.0
  0
LWPOLYLINE
  5
10e
100
AcDbEntity
  8
text
 62
7
100
AcDbPolyline
 90
11
 70
0
 10
45.522656
 20
0.108564
 30
0.0
 10
45.083083
 20
0.108564
 30
0.0
 10
44.325005
 20
2.589545
 30
0.0
 10
43.751324
 20
0.108564
 30
0.0
 10
43.403018
 20
0.108564
 30
0.0
 10
44.043752
 20
2.881973
 30
0.0
 10
44.598807
 20
2.881973
 30
0.0
 10
45.291694
 20
0.617054
 30
0.0
 10
45.815084
 20
2.881973
 30
0.0
 10
46.163390
 20
2.881973
 30
0.0
 10
45.522656
 20
0.108564
 30
0.0
  0
LWPOLYLINE
  5
10f
100
AcDbEntity
  8
text
 62
7
100
AcDbPolyline
 90
10
 70
0
 10
41.374879
 20
6.476476
 30
0.0
 10
40.050271
 20
4.923359
 30
0.0
 10
39.769745
 20
3.710219
 30
0.0
 10
39.398186
 20
3.710219
 30
0.0
 10
39.669423
 20
4.884346
 30
0.0
 10
39.052636
 20
6.476476
 30
0.0
 10
39.446488
 20
6.476476
 30
0.0
 10
39.925799
 20
5.233611
 30
0.0
 10
40.971738
 20
6.476476
 30
0.0
 10
41.374879
 20
6.476476
 30
0.0
  0
LWPOLYLINE
  5
110
100
AcDbEntity
  8
text
 62
7
100
AcDbPolyline
 90
11
 70
0
 10
43.241964
 20
3.710219
 30
0.0
 10
42.803525
 20
3.710219
 30
0.0
 10
42.047401
 20
6.184802
 30
0.0
 10
41.475200
 20
3.710219
 30
0.0
 10
41.127793
 20
3.710219
 30
0.0
 10
41.766874
 20
6.476476
 30
0.0
 10
42.320497
 20
6.476476
 30
0.0
 10
43.011597
 20
4.217397
 30
0.0
 10
43.533638
 20
6.476476
 30
0.0
 10
43.881046
 20
6.476476
 30
0.0
 10
43.241964
 20
3.710219
 30
0.0
  0
LWPOLYLINE
  5
111
100
AcDbEntity
  8
text
 62
7
100
AcDbPolyline
 90
113
 70
0
 10
45.214942
 20
3.660058
 30
0.0
 10
44.966229
 20
3.677068
 30
0.0
 10
44.745848
 20
3.728100
 30
0.0
 10
44.553799
 20
3.813153
 30
0.0
 10
44.390081
 20
3.932225
 30
0.0
 10
44.259223
 20
4.082533
 30
0.0
 10
44.165752
 20
4.261287
 30
0.0
 10
44.109671
 20
4.468489
 30
0.0
 10
44.090976
 20
4.704139
 30
0.0
 10
44.098173
 20
4.892240
 30
0.0
 10
44.119770
 20
5.073839
 30
0.0
 10
44.155765
 20
5.248937
 30
0.0
 10
44.206158
 20
5.417533
 30
0.0
 10
44.270019
 20
5.577766
 30
0.0
 10
44.346420
 20
5.727783
 30
0.0
 10
44.435363
 20
5.867583
 30
0.0
 10
44.536845
 20
5.997165
 30
0.0
 10
44.649822
 20
6.113334
 30
0.0
 10
44.775106
 20
6.216615
 30
0.0
 10
44.912700
 20
6.307009
 30
0.0
 10
45.062601
 20
6.384515
 30
0.0
 10
45.223183
 20
6.446692
 30
0.0
 10
45.392822
 20
6.491105
 30
0.0
 10
45.571520
 20
6.517753
 30
0.0
 10
45.759274
 20
6.526637
 30
0.0
 10
45.877476
 20
6.522977
 30
0.0
 10
45.992426
 20
6.512004
 30
0.0
 10
46.104126
 20
6.493717
 30
0.0
 10
46.212576
 20
6.468116
 30
0.0
 10
46.320095
 20
6.434616
 30
0.0
 10
46.429008
 20
6.392642
 30
0.0
 10
46.539315
 20
6.342191
 30
0.0
 10
46.651016
 20
6.283265
 30
0.0
 10
46.630116
 20
6.179229
 30
0.0
 10
46.609216
 20
6.075192
 30
0.0
 10
46.588316
 20
5.971156
 30
0.0
 10
46.567416
 20
5.867119
 30
0.0
 10
46.560453
 20
5.867119
 30
0.0
 10
46.553489
 20
5.867119
 30
0.0
 10
46.546526
 20
5.867119
 30
0.0
 10
46.539563
 20
5.867119
 30
0.0
 10
46.508850
 20
5.897249
 30
0.0
 10
46.478022
 20
5.926335
 30
0.0
 10
46.447078
 20
5.954376
 30
0.0
 10
46.416020
 20
5.981374
 30
0.0
 10
46.381010
 20
6.008485
 30
0.0
 10
46.338223
 20
6.036874
 30
0.0
 10
46.287656
 20
6.066541
 30
0.0
 10
46.229312
 20
6.097485
 30
0.0
 10
46.175782
 20
6.123319
 30
0.0
 10
46.117378
 20
6.146948
 30
0.0
 10
46.054097
 20
6.168371
 30
0.0
 10
45.985940
 20
6.187589
 30
0.0
 10
45.913486
 20
6.203437
 30
0.0
 10
45.837316
 20
6.214757
 30
0.0
 10
45.757430
 20
6.221547
 30
0.0
 10
45.673831
 20
6.223814
 30
0.0
 10
45.546455
 20
6.217024
 30
0.0
 10
45.424420
 20
6.196646
 30
0.0
 10
45.307728
 20
6.162683
 30
0.0
 10
45.196378
 20
6.115137
 30
0.0
 10
45.091295
 20
6.055396
 30
0.0
 10
44.993413
 20
5.984857
 30
0.0
 10
44.902729
 20
5.903521
 30
0.0
 10
44.819245
 20
5.811387
 30
0.0
 10
44.745397
 20
5.711529
 30
0.0
 10
44.679910
 20
5.601455
 30
0.0
 10
44.622784
 20
5.481163
 30
0.0
 10
44.574017
 20
5.350654
 30
0.0
 10
44.535003
 20
5.212827
 30
0.0
 10
44.507135
 20
5.070590
 30
0.0
 10
44.490415
 20
4.923941
 30
0.0
 10
44.484844
 20
4.772880
 30
0.0
 10
44.497269
 20
4.592151
 30
0.0
 10
44.534540
 20
4.432671
 30
0.0
 10
44.596659
 20
4.294440
 30
0.0
 10
44.683628
 20
4.177457
 30
0.0
 10
44.794051
 20
4.084393
 30
0.0
 10
44.926535
 20
4.017919
 30
0.0
 10
45.081079
 20
3.978034
 30
0.0
 10
45.257686
 20
3.964739
 30
0.0
 10
45.344828
 20
3.967230
 30
0.0
 10
45.429764
 20
3.974721
 30
0.0
 10
45.512495
 20
3.987203
 30
0.0
 10
45.593019
 20
4.004679
 30
0.0
 10
45.670639
 20
4.025985
 30
0.0
 10
45.744660
 20
4.049962
 30
0.0
 10
45.815083
 20
4.076610
 30
0.0
 10
45.881906
 20
4.105928
 30
0.0
 10
45.940774
 20
4.135073
 30
0.0
 10
45.996623
 20
4.164913
 30
0.0
 10
46.049455
 20
4.195451
 30
0.0
 10
46.099268
 20
4.226685
 30
0.0
 10
46.145828
 20
4.257687
 30
0.0
 10
46.188906
 20
4.287527
 30
0.0
 10
46.228500
 20
4.316207
 30
0.0
 10
46.264612
 20
4.343726
 30
0.0
 10
46.271118
 20
4.343726
 30
0.0
 10
46.277623
 20
4.343726
 30
0.0
 10
46.284129
 20
4.343726
 30
0.0
 10
46.290635
 20
4.343726
 30
0.0
 10
46.268805
 20
4.236903
 30
0.0
 10
46.246977
 20
4.130079
 30
0.0
 10
46.225147
 20
4.023257
 30
0.0
 10
46.203318
 20
3.916433
 30
0.0
 10
46.102124
 20
3.868420
 30
0.0
 10
45.993618
 20
3.822847
 30
0.0
 10
45.877796
 20
3.779711
 30
0.0
 10
45.754660
 20
3.739013
 30
0.0
 10
45.625833
 20
3.704471
 30
0.0
 10
45.492942
 20
3.679797
 30
0.0
 10
45.355988
 20
3.664992
 30
0.0
 10
45.214942
 20
3.660058
 30
0.0
  0
LWPOLYLINE
  5
112
100
AcDbEntity
  8
text
 62
7
100
AcDbPolyline
 90
13
 70
0
 10
49.389408
 20
6.476476
 30
0.0
 10
48.752184
 20
3.710219
 30
0.0
 10
48.384341
 20
3.710219
 30
0.0
 10
48.698308
 20
5.070125
 30
0.0
 10
47.317966
 20
5.070125
 30
0.0
 10
47.003999
 20
3.710219
 30
0.0
 10
46.636155
 20
3.710219
 30
0.0
 10
47.273379
 20
6.476476
 30
0.0
 10
47.641222
 20
6.476476
 30
0.0
 10
47.390420
 20
5.382235
 30
0.0
 10
48.770762
 20
5.382235
 30
0.0
 10
49.021564
 20
6.476476
 30
0.0
 10
49.389408
 20
6.476476
 30
0.0
  0
LWPOLYLINE
  5
113
100
AcDbEntity
  8
text
 62
7
100
AcDbPolyline
 90
45
 70
0
 10
51.395827
 20
5.789092
 30
0.0
 10
51.393966
 20
5.836406
 30
0.0
 10
51.388396
 20
5.879891
 30
0.0
 10
51.379105
 20
5.919543
 30
0.0
 10
51.366102
 20
5.955364
 30
0.0
 10
51.349264
 20
5.988049
 30
0.0
 10
51.328480
 20
6.018295
 30
0.0
 10
51.303749
 20
6.046105
 30
0.0
 10
51.275070
 20
6.071477
 30
0.0
 10
51.237797
 20
6.098065
 30
0.0
 10
51.196577
 20
6.120242
 30
0.0
 10
51.151409
 20
6.138007
 30
0.0
 10
51.102295
 20
6.151362
 30
0.0
 10
51.048302
 20
6.161111
 30
0.0
 10
50.988504
 20
6.168074
 30
0.0
 10
50.922901
 20
6.172252
 30
0.0
 10
50.851492
 20
6.173644
 30
0.0
 10
50.747456
 20
6.173644
 30
0.0
 10
50.643419
 20
6.173644
 30
0.0
 10
50.539383
 20
6.173644
 30
0.0
 10
50.435346
 20
6.173644
 30
0.0
 10
50.373574
 20
5.907051
 30
0.0
 10
50.311803
 20
5.640457
 30
0.0
 10
50.250032
 20
5.373864
 30
0.0
 10
50.188260
 20
5.107270
 30
0.0
 10
50.285793
 20
5.107270
 30
0.0
 10
50.383327
 20
5.107270
 30
0.0
 10
50.480862
 20
5.107270
 30
0.0
 10
50.578396
 20
5.107270
 30
0.0
 10
50.666409
 20
5.109364
 30
0.0
 10
50.748384
 20
5.115636
 30
0.0
 10
50.824322
 20
5.126087
 30
0.0
 10
50.894222
 20
5.140717
 30
0.0
 10
50.959592
 20
5.160572
 30
0.0
 10
51.021945
 20
5.186697
 30
0.0
 10
51.081277
 20
5.219092
 30
0.0
 10
51.137593
 20
5.257758
 30
0.0
 10
51.195474
 20
5.307162
 30
0.0
 10
51.246505
 20
5.362490
 30
0.0
 10
51.290686
 20
5.423740
 30
0.0
 10
51.328017
 20
5.490912
 30
0.0
 10
51.357683
 20
5.562145
 30
0.0
 10
51.378872
 20
5.635586
 30
0.0
 10
51.391588
 20
5.711234
 30
0.0
 10
51.395827
 20
5.789092
 30
0.0
  0
LWPOLYLINE
  5
114
100
AcDbEntity
  8
text
 62
7
100
AcDbPolyline
 90
57
 70
0
 10
51.808257
 20
3.710219
 30
0.0
 10
51.700041
 20
3.710219
 30
0.0
 10
51.591824
 20
3.710219
 30
0.0
 10
51.483607
 20
3.710219
 30
0.0
 10
51.375391
 20
3.710219
 30
0.0
 10
51.193327
 20
3.986566
 30
0.0
 10
51.011262
 20
4.262914
 30
0.0
 10
50.829198
 20
4.539261
 30
0.0
 10
50.647135
 20
4.815607
 30
0.0
 10
50.515696
 20
4.815607
 30
0.0
 10
50.384257
 20
4.815607
 30
0.0
 10
50.252818
 20
4.815607
 30
0.0
 10
50.121379
 20
4.815607
 30
0.0
 10
50.057750
 20
4.539261
 30
0.0
 10
49.994120
 20
4.262914
 30
0.0
 10
49.930490
 20
3.986566
 30
0.0
 10
49.866861
 20
3.710219
 30
0.0
 10
49.773971
 20
3.710219
 30
0.0
 10
49.681081
 20
3.710219
 30
0.0
 10
49.588191
 20
3.710219
 30
0.0
 10
49.495302
 20
3.710219
 30
0.0
 10
49.654608
 20
4.401783
 30
0.0
 10
49.813913
 20
5.093348
 30
0.0
 10
49.973219
 20
5.784912
 30
0.0
 10
50.132525
 20
6.476476
 30
0.0
 10
50.321092
 20
6.476476
 30
0.0
 10
50.509658
 20
6.476476
 30
0.0
 10
50.698224
 20
6.476476
 30
0.0
 10
50.886791
 20
6.476476
 30
0.0
 10
51.007198
 20
6.474443
 30
0.0
 10
51.115762
 20
6.468344
 30
0.0
 10
51.212484
 20
6.458179
 30
0.0
 10
51.297363
 20
6.443957
 30
0.0
 10
51.373764
 20
6.424390
 30
0.0
 10
51.445056
 20
6.398207
 30
0.0
 10
51.511241
 20
6.365406
 30
0.0
 10
51.572317
 20
6.325987
 30
0.0
 10
51.621547
 20
6.285928
 30
0.0
 10
51.665205
 20
6.241920
 30
0.0
 10
51.703291
 20
6.193966
 30
0.0
 10
51.735803
 20
6.142065
 30
0.0
 10
51.761810
 20
6.084821
 30
0.0
 10
51.780388
 20
6.020843
 30
0.0
 10
51.791536
 20
5.950131
 30
0.0
 10
51.795256
 20
5.872686
 30
0.0
 10
51.781728
 20
5.705192
 30
0.0
 10
51.741147
 20
5.548267
 30
0.0
 10
51.673511
 20
5.401908
 30
0.0
 10
51.578823
 20
5.266116
 30
0.0
 10
51.462188
 20
5.145533
 30
0.0
 10
51.328717
 20
5.044805
 30
0.0
 10
51.178410
 20
4.963932
 30
0.0
 10
51.011267
 20
4.902916
 30
0.0
 10
51.210516
 20
4.604740
 30
0.0
 10
51.409764
 20
4.306565
 30
0.0
 10
51.609013
 20
4.008388
 30
0.0
 10
51.808257
 20
3.710219
 30
0.0
  0
LWPOLYLINE
  5
115
100
AcDbEntity
  8
text
 62
7
100
AcDbPolyline
 90
49
 70
0
 10
54.914491
 20
5.497418
 30
0.0
 10
54.907701
 20
5.318837
 30
0.0
 10
54.887323
 20
5.143508
 30
0.0
 10
54.853360
 20
4.971429
 30
0.0
 10
54.805814
 20
4.802602
 30
0.0
 10
54.745377
 20
4.640393
 30
0.0
 10
54.672747
 20
4.488170
 30
0.0
 10
54.587928
 20
4.345933
 30
0.0
 10
54.490918
 20
4.213681
 30
0.0
 10
54.379682
 20
4.089731
 30
0.0
 10
54.257763
 20
3.979831
 30
0.0
 10
54.125163
 20
3.883981
 30
0.0
 10
53.981882
 20
3.802179
 30
0.0
 10
53.828496
 20
3.736751
 30
0.0
 10
53.665591
 20
3.690016
 30
0.0
 10
53.493165
 20
3.661974
 30
0.0
 10
53.311218
 20
3.652633
 30
0.0
 10
53.077600
 20
3.669527
 30
0.0
 10
52.870920
 20
3.720209
 30
0.0
 10
52.691178
 20
3.804681
 30
0.0
 10
52.538375
 20
3.922941
 30
0.0
 10
52.416458
 20
4.072319
 30
0.0
 10
52.329373
 20
4.250145
 30
0.0
 10
52.277123
 20
4.456419
 30
0.0
 10
52.259706
 20
4.691140
 30
0.0
 10
52.266669
 20
4.877500
 30
0.0
 10
52.287569
 20
5.057589
 30
0.0
 10
52.322402
 20
5.231409
 30
0.0
 10
52.371169
 20
5.398960
 30
0.0
 10
52.433056
 20
5.558962
 30
0.0
 10
52.507252
 20
5.710140
 30
0.0
 10
52.593756
 20
5.852493
 30
0.0
 10
52.692568
 20
5.986023
 30
0.0
 10
52.800842
 20
6.104282
 30
0.0
 10
52.921309
 20
6.210117
 30
0.0
 10
53.053967
 20
6.303531
 30
0.0
 10
53.198817
 20
6.384520
 30
0.0
 10
53.353420
 20
6.449947
 30
0.0
 10
53.515338
 20
6.496682
 30
0.0
 10
53.684572
 20
6.524724
 30
0.0
 10
53.861121
 20
6.534076
 30
0.0
 10
54.094041
 20
6.517296
 30
0.0
 10
54.300489
 20
6.466961
 30
0.0
 10
54.480462
 20
6.383070
 30
0.0
 10
54.633964
 20
6.265624
 30
0.0
 10
54.756693
 20
6.116941
 30
0.0
 10
54.844357
 20
5.939347
 30
0.0
 10
54.896956
 20
5.732842
 30
0.0
 10
54.914491
 20
5.497418
 30
0.0
  0
LWPOLYLINE
  5
116
100
AcDbEntity
  8
text
 62
7
100
AcDbPolyline
 90
49
 70
0
 10
54.210386
 20
4.397603
 30
0.0
 10
54.283652
 20
4.506574
 30
0.0
 10
54.347397
 20
4.621699
 30
0.0
 10
54.401623
 20
4.742979
 30
0.0
 10
54.446327
 20
4.870413
 30
0.0
 10
54.481276
 20
5.004231
 30
0.0
 10
54.506239
 20
5.144667
 30
0.0
 10
54.521218
 20
5.291724
 30
0.0
 10
54.526209
 20
5.445399
 30
0.0
 10
54.514306
 20
5.623921
 30
0.0
 10
54.478601
 20
5.780497
 30
0.0
 10
54.419094
 20
5.915131
 30
0.0
 10
54.335785
 20
6.027819
 30
0.0
 10
54.231109
 20
6.116817
 30
0.0
 10
54.107507
 20
6.180388
 30
0.0
 10
53.964980
 20
6.218531
 30
0.0
 10
53.803527
 20
6.231247
 30
0.0
 10
53.673944
 20
6.223643
 30
0.0
 10
53.550866
 20
6.200827
 30
0.0
 10
53.434289
 20
6.162801
 30
0.0
 10
53.324216
 20
6.109564
 30
0.0
 10
53.221107
 20
6.043321
 30
0.0
 10
53.125430
 20
5.966281
 30
0.0
 10
53.037185
 20
5.878442
 30
0.0
 10
52.956372
 20
5.779806
 30
0.0
 10
52.886356
 20
5.673504
 30
0.0
 10
52.824932
 20
5.558959
 30
0.0
 10
52.772101
 20
5.436171
 30
0.0
 10
52.727863
 20
5.305140
 30
0.0
 10
52.692913
 20
5.168998
 30
0.0
 10
52.667949
 20
5.030882
 30
0.0
 10
52.652971
 20
4.890793
 30
0.0
 10
52.647980
 20
4.748729
 30
0.0
 10
52.659881
 20
4.568465
 30
0.0
 10
52.695586
 20
4.410379
 30
0.0
 10
52.755093
 20
4.274468
 30
0.0
 10
52.838404
 20
4.160737
 30
0.0
 10
52.943196
 20
4.070925
 30
0.0
 10
53.067145
 20
4.006773
 30
0.0
 10
53.210253
 20
3.968282
 30
0.0
 10
53.372520
 20
3.955451
 30
0.0
 10
53.500533
 20
3.962994
 30
0.0
 10
53.622625
 20
3.985636
 30
0.0
 10
53.738796
 20
4.023373
 30
0.0
 10
53.849045
 20
4.076203
 30
0.0
 10
53.952094
 20
4.141574
 30
0.0
 10
54.046666
 20
4.216931
 30
0.0
 10
54.132764
 20
4.302274
 30
0.0
 10
54.210386
 20
4.397603
 30
0.0
  0
LWPOLYLINE
  5
117
100
AcDbEntity
  8
text
 62
7
100
AcDbPolyline
 90
9
 70
0
 10
57.677032
 20
6.162508
 30
0.0
 10
56.690543
 20
6.162508
 30
0.0
 10
56.123915
 20
3.710219
 30
0.0
 10
55.752357
 20
3.710219
 30
0.0
 10
56.318984
 20
6.162508
 30
0.0
 10
55.332494
 20
6.162508
 30
0.0
 10
55.403091
 20
6.476476
 30
0.0
 10
57.747629
 20
6.476476
 30
0.0
 10
57.677032
 20
6.162508
 30
0.0
  0
LWPOLYLINE
  5
118
100
AcDbEntity
  8
text
 62
7
100
AcDbPolyline
 90
45
 70
0
 10
59.384347
 20
5.789092
 30
0.0
 10
59.382487
 20
5.836406
 30
0.0
 10
59.376916
 20
5.879891
 30
0.0
 10
59.367625
 20
5.919543
 30
0.0
 10
59.354622
 20
5.955364
 30
0.0
 10
59.337785
 20
5.988049
 30
0.0
 10
59.317000
 20
6.018295
 30
0.0
 10
59.292270
 20
6.046105
 30
0.0
 10
59.263591
 20
6.071477
 30
0.0
 10
59.226318
 20
6.098065
 30
0.0
 10
59.185097
 20
6.120242
 30
0.0
 10
59.139930
 20
6.138007
 30
0.0
 10
59.090815
 20
6.151362
 30
0.0
 10
59.036822
 20
6.161111
 30
0.0
 10
58.977024
 20
6.168074
 30
0.0
 10
58.911422
 20
6.172252
 30
0.0
 10
58.840013
 20
6.173644
 30
0.0
 10
58.735976
 20
6.173644
 30
0.0
 10
58.631940
 20
6.173644
 30
0.0
 10
58.527903
 20
6.173644
 30
0.0
 10
58.423867
 20
6.173644
 30
0.0
 10
58.362095
 20
5.907051
 30
0.0
 10
58.300323
 20
5.640457
 30
0.0
 10
58.238551
 20
5.373864
 30
0.0
 10
58.176780
 20
5.107270
 30
0.0
 10
58.274314
 20
5.107270
 30
0.0
 10
58.371848
 20
5.107270
 30
0.0
 10
58.469383
 20
5.107270
 30
0.0
 10
58.566917
 20
5.107270
 30
0.0
 10
58.654929
 20
5.109364
 30
0.0
 10
58.736904
 20
5.115636
 30
0.0
 10
58.812843
 20
5.126087
 30
0.0
 10
58.882743
 20
5.140717
 30
0.0
 10
58.948112
 20
5.160572
 30
0.0
 10
59.010464
 20
5.186697
 30
0.0
 10
59.069798
 20
5.219092
 30
0.0
 10
59.126113
 20
5.257758
 30
0.0
 10
59.183994
 20
5.307162
 30
0.0
 10
59.235026
 20
5.362490
 30
0.0
 10
59.279207
 20
5.423740
 30
0.0
 10
59.316538
 20
5.490912
 30
0.0
 10
59.346204
 20
5.562145
 30
0.0
 10
59.367394
 20
5.635586
 30
0.0
 10
59.380108
 20
5.711234
 30
0.0
 10
59.384347
 20
5.789092
 30
0.0
  0
LWPOLYLINE
  5
119
100
AcDbEntity
  8
text
 62
7
100
AcDbPolyline
 90
57
 70
0
 10
59.796778
 20
3.710219
 30
0.0
 10
59.688561
 20
3.710219
 30
0.0
 10
59.580344
 20
3.710219
 30
0.0
 10
59.472128
 20
3.710219
 30
0.0
 10
59.363911
 20
3.710219
 30
0.0
 10
59.181847
 20
3.986566
 30
0.0
 10
58.999783
 20
4.262914
 30
0.0
 10
58.817719
 20
4.539261
 30
0.0
 10
58.635655
 20
4.815607
 30
0.0
 10
58.504217
 20
4.815607
 30
0.0
 10
58.372777
 20
4.815607
 30
0.0
 10
58.241338
 20
4.815607
 30
0.0
 10
58.109900
 20
4.815607
 30
0.0
 10
58.046270
 20
4.539261
 30
0.0
 10
57.982640
 20
4.262914
 30
0.0
 10
57.919011
 20
3.986566
 30
0.0
 10
57.855381
 20
3.710219
 30
0.0
 10
57.762492
 20
3.710219
 30
0.0
 10
57.669601
 20
3.710219
 30
0.0
 10
57.576712
 20
3.710219
 30
0.0
 10
57.483822
 20
3.710219
 30
0.0
 10
57.643128
 20
4.401783
 30
0.0
 10
57.802435
 20
5.093348
 30
0.0
 10
57.961741
 20
5.784912
 30
0.0
 10
58.121047
 20
6.476476
 30
0.0
 10
58.309613
 20
6.476476
 30
0.0
 10
58.498179
 20
6.476476
 30
0.0
 10
58.686745
 20
6.476476
 30
0.0
 10
58.875311
 20
6.476476
 30
0.0
 10
58.995719
 20
6.474443
 30
0.0
 10
59.104283
 20
6.468344
 30
0.0
 10
59.201004
 20
6.458179
 30
0.0
 10
59.285884
 20
6.443957
 30
0.0
 10
59.362285
 20
6.424390
 30
0.0
 10
59.433576
 20
6.398207
 30
0.0
 10
59.499761
 20
6.365406
 30
0.0
 10
59.560837
 20
6.325987
 30
0.0
 10
59.610068
 20
6.285928
 30
0.0
 10
59.653726
 20
6.241920
 30
0.0
 10
59.691811
 20
6.193966
 30
0.0
 10
59.724323
 20
6.142065
 30
0.0
 10
59.750331
 20
6.084821
 30
0.0
 10
59.768908
 20
6.020843
 30
0.0
 10
59.780056
 20
5.950131
 30
0.0
 10
59.783777
 20
5.872686
 30
0.0
 10
59.770248
 20
5.705192
 30
0.0
 10
59.729667
 20
5.548267
 30
0.0
 10
59.662032
 20
5.401908
 30
0.0
 10
59.567344
 20
5.266116
 30
0.0
 10
59.450709
 20
5.145533
 30
0.0
 10
59.317237
 20
5.044805
 30
0.0
 10
59.166930
 20
4.963932
 30
0.0
 10
58.999788
 20
4.902916
 30
0.0
 10
59.199037
 20
4.604740
 30
0.0
 10
59.398284
 20
4.306565
 30
0.0
 10
59.597533
 20
4.008388
 30
0.0
 10
59.796778
 20
3.710219
 30
0.0
  0
LWPOLYLINE
  5
11a
100
AcDbEntity
  8
text
 62
7
100
AcDbPolyline
 90
49
 70
0
 10
62.903010
 20
5.497418
 30
0.0
 10
62.896220
 20
5.318837
 30
0.0
 10
62.875842
 20
5.143508
 30
0.0
 10
62.841880
 20
4.971429
 30
0.0
 10
62.794334
 20
4.802602
 30
0.0
 10
62.733896
 20
4.640393
 30
0.0
 10
62.661267
 20
4.488170
 30
0.0
 10
62.576447
 20
4.345933
 30
0.0
 10
62.479437
 20
4.213681
 30
0.0
 10
62.368200
 20
4.089731
 30
0.0
 10
62.246282
 20
3.979831
 30
0.0
 10
62.113682
 20
3.883981
 30
0.0
 10
61.970401
 20
3.802179
 30
0.0
 10
61.817016
 20
3.736750
 30
0.0
 10
61.654110
 20
3.690015
 30
0.0
 10
61.481684
 20
3.661974
 30
0.0
 10
61.299737
 20
3.652633
 30
0.0
 10
61.066119
 20
3.669527
 30
0.0
 10
60.859439
 20
3.720209
 30
0.0
 10
60.679698
 20
3.804681
 30
0.0
 10
60.526894
 20
3.922941
 30
0.0
 10
60.404976
 20
4.072320
 30
0.0
 10
60.317892
 20
4.250146
 30
0.0
 10
60.265641
 20
4.456419
 30
0.0
 10
60.248224
 20
4.691140
 30
0.0
 10
60.255188
 20
4.877500
 30
0.0
 10
60.276088
 20
5.057589
 30
0.0
 10
60.310922
 20
5.231409
 30
0.0
 10
60.359689
 20
5.398960
 30
0.0
 10
60.421576
 20
5.558962
 30
0.0
 10
60.495772
 20
5.710140
 30
0.0
 10
60.582275
 20
5.852493
 30
0.0
 10
60.681087
 20
5.986023
 30
0.0
 10
60.789362
 20
6.104282
 30
0.0
 10
60.909827
 20
6.210117
 30
0.0
 10
61.042485
 20
6.303531
 30
0.0
 10
61.187336
 20
6.384520
 30
0.0
 10
61.341938
 20
6.449947
 30
0.0
 10
61.503857
 20
6.496682
 30
0.0
 10
61.673090
 20
6.524724
 30
0.0
 10
61.849641
 20
6.534076
 30
0.0
 10
62.082560
 20
6.517296
 30
0.0
 10
62.289007
 20
6.466961
 30
0.0
 10
62.468981
 20
6.383070
 30
0.0
 10
62.622483
 20
6.265624
 30
0.0
 10
62.745212
 20
6.116941
 30
0.0
 10
62.832876
 20
5.939347
 30
0.0
 10
62.885476
 20
5.732842
 30
0.0
 10
62.903010
 20
5.497418
 30
0.0
  0
LWPOLYLINE
  5
11b
100
AcDbEntity
  8
text
 62
7
100
AcDbPolyline
 90
49
 70
0
 10
62.198906
 20
4.397603
 30
0.0
 10
62.272172
 20
4.506574
 30
0.0
 10
62.335917
 20
4.621699
 30
0.0
 10
62.390141
 20
4.742979
 30
0.0
 10
62.434845
 20
4.870413
 30
0.0
 10
62.469794
 20
5.004231
 30
0.0
 10
62.494758
 20
5.144667
 30
0.0
 10
62.509737
 20
5.291724
 30
0.0
 10
62.514728
 20
5.445399
 30
0.0
 10
62.502825
 20
5.623921
 30
0.0
 10
62.467121
 20
5.780497
 30
0.0
 10
62.407613
 20
5.915131
 30
0.0
 10
62.324304
 20
6.027819
 30
0.0
 10
62.219627
 20
6.116817
 30
0.0
 10
62.096026
 20
6.180388
 30
0.0
 10
61.953498
 20
6.218531
 30
0.0
 10
61.792045
 20
6.231247
 30
0.0
 10
61.662463
 20
6.223643
 30
0.0
 10
61.539384
 20
6.200827
 30
0.0
 10
61.422808
 20
6.162801
 30
0.0
 10
61.312734
 20
6.109564
 30
0.0
 10
61.209626
 20
6.043321
 30
0.0
 10
61.113949
 20
5.966281
 30
0.0
 10
61.025704
 20
5.878442
 30
0.0
 10
60.944890
 20
5.779806
 30
0.0
 10
60.874874
 20
5.673504
 30
0.0
 10
60.813451
 20
5.558959
 30
0.0
 10
60.760621
 20
5.436171
 30
0.0
 10
60.716382
 20
5.305140
 30
0.0
 10
60.681433
 20
5.168997
 30
0.0
 10
60.656468
 20
5.030882
 30
0.0
 10
60.641489
 20
4.890793
 30
0.0
 10
60.636498
 20
4.748729
 30
0.0
 10
60.648400
 20
4.568465
 30
0.0
 10
60.684104
 20
4.410379
 30
0.0
 10
60.743612
 20
4.274468
 30
0.0
 10
60.826922
 20
4.160737
 30
0.0
 10
60.931712
 20
4.070925
 30
0.0
 10
61.055662
 20
4.006773
 30
0.0
 10
61.198770
 20
3.968282
 30
0.0
 10
61.361038
 20
3.955451
 30
0.0
 10
61.489051
 20
3.962994
 30
0.0
 10
61.611142
 20
3.985636
 30
0.0
 10
61.727313
 20
4.023373
 30
0.0
 10
61.837562
 20
4.076203
 30
0.0
 10
61.940611
 20
4.141574
 30
0.0
 10
62.035184
 20
4.216931
 30
0.0
 10
62.121281
 20
4.302274
 30
0.0
 10
62.198906
 20
4.397603
 30
0.0
  0
LWPOLYLINE
  5
11c
100
AcDbEntity
  8
text
 62
7
100
AcDbPolyline
 90
11
 70
0
 10
65.238258
 20
3.710219
 30
0.0
 10
64.799819
 20
3.710219
 30
0.0
 10
64.043696
 20
6.184802
 30
0.0
 10
63.471495
 20
3.710219
 30
0.0
 10
63.124088
 20
3.710219
 30
0.0
 10
63.763170
 20
6.476476
 30
0.0
 10
64.316792
 20
6.476476
 30
0.0
 10
65.007892
 20
4.217397
 30
0.0
 10
65.529932
 20
6.476476
 30
0.0
 10
65.877340
 20
6.476476
 30
0.0
 10
65.238258
 20
3.710219
 30
0.0
  0
LWPOLYLINE
  5
11d
100
AcDbEntity
  8
text
 62
7
100
AcDbPolyline
 90
89
 70
0
 10
55.466355
 20
8.446809
 30
0.0
 10
55.426899
 20
8.294383
 30
0.0
 10
55.382468
 20
8.153688
 30
0.0
 10
55.333063
 20
8.024723
 30
0.0
 10
55.278682
 20
7.907487
 30
0.0
 10
55.217189
 20
7.800439
 30
0.0
 10
55.146455
 20
7.702042
 30
0.0
 10
55.066482
 20
7.612293
 30
0.0
 10
54.977268
 20
7.531193
 30
0.0
 10
54.888229
 20
7.465555
 30
0.0
 10
54.795517
 20
7.408922
 30
0.0
 10
54.699134
 20
7.361293
 30
0.0
 10
54.599078
 20
7.322668
 30
0.0
 10
54.492741
 20
7.292812
 30
0.0
 10
54.377519
 20
7.271484
 30
0.0
 10
54.253411
 20
7.258688
 30
0.0
 10
54.120418
 20
7.254419
 30
0.0
 10
53.911892
 20
7.266978
 30
0.0
 10
53.731802
 20
7.304655
 30
0.0
 10
53.580147
 20
7.367449
 30
0.0
 10
53.456928
 20
7.455361
 30
0.0
 10
53.361551
 20
7.565430
 30
0.0
 10
53.293426
 20
7.694692
 30
0.0
 10
53.252550
 20
7.843148
 30
0.0
 10
53.238925
 20
8.010798
 30
0.0
 10
53.239941
 20
8.069445
 30
0.0
 10
53.242960
 20
8.125960
 30
0.0
 10
53.247992
 20
8.180342
 30
0.0
 10
53.255047
 20
8.232593
 30
0.0
 10
53.263636
 20
8.284368
 30
0.0
 10
53.273293
 20
8.337329
 30
0.0
 10
53.284015
 20
8.391474
 30
0.0
 10
53.295805
 20
8.446805
 30
0.0
 10
53.393432
 20
8.869068
 30
0.0
 10
53.491061
 20
9.291333
 30
0.0
 10
53.588688
 20
9.713596
 30
0.0
 10
53.686315
 20
10.135860
 30
0.0
 10
53.781100
 20
10.135860
 30
0.0
 10
53.875884
 20
10.135860
 30
0.0
 10
53.970668
 20
10.135860
 30
0.0
 10
54.065453
 20
10.135860
 30
0.0
 10
53.966877
 20
9.708857
 30
0.0
 10
53.868301
 20
9.281854
 30
0.0
 10
53.769726
 20
8.854851
 30
0.0
 10
53.671150
 20
8.427848
 30
0.0
 10
53.660309
 20
8.381936
 30
0.0
 10
53.650530
 20
8.333300
 30
0.0
 10
53.641819
 20
8.281939
 30
0.0
 10
53.634175
 20
8.227854
 30
0.0
 10
53.627954
 20
8.175425
 30
0.0
 10
53.623512
 20
8.129040
 30
0.0
 10
53.620848
 20
8.088698
 30
0.0
 10
53.619933
 20
8.054398
 30
0.0
 10
53.628818
 20
7.942019
 30
0.0
 10
53.655476
 20
7.843740
 30
0.0
 10
53.699905
 20
7.759560
 30
0.0
 10
53.762108
 20
7.689478
 30
0.0
 10
53.841964
 20
7.634327
 30
0.0
 10
53.939354
 20
7.594932
 30
0.0
 10
54.054280
 20
7.571295
 30
0.0
 10
54.186741
 20
7.563417
 30
0.0
 10
54.285079
 20
7.567331
 30
0.0
 10
54.377256
 20
7.579060
 30
0.0
 10
54.463273
 20
7.598609
 30
0.0
 10
54.543130
 20
7.625978
 30
0.0
 10
54.617417
 20
7.661167
 30
0.0
 10
54.686727
 20
7.704175
 30
0.0
 10
54.751062
 20
7.755003
 30
0.0
 10
54.810422
 20
7.813651
 30
0.0
 10
54.859057
 20
7.874016
 30
0.0
 10
54.902598
 20
7.937582
 30
0.0
 10
54.941044
 20
8.004345
 30
0.0
 10
54.974398
 20
8.074308
 30
0.0
 10
55.004195
 20
8.149483
 30
0.0
 10
55.031978
 20
8.231886
 30
0.0
 10
55.057748
 20
8.321517
 30
0.0
 10
55.081504
 20
8.418375
 30
0.0
 10
55.180554
 20
8.847748
 30
0.0
 10
55.279604
 20
9.277120
 30
0.0
 10
55.378653
 20
9.706493
 30
0.0
 10
55.477703
 20
10.135865
 30
0.0
 10
55.572487
 20
10.135865
 30
0.0
 10
55.667271
 20
10.135865
 30
0.0
 10
55.762056
 20
10.135865
 30
0.0
 10
55.856840
 20
10.135865
 30
0.0
 10
55.759213
 20
9.713601
 30
0.0
 10
55.661584
 20
9.291338
 30
0.0
 10
55.563957
 20
8.869073
 30
0.0
 10
55.466355
 20
8.446809
 30
0.0
  0
LWPOLYLINE
  5
11e
100
AcDbEntity
  8
text
 62
7
100
AcDbPolyline
 90
45
 70
0
 10
57.860603
 20
9.434460
 30
0.0
 10
57.858703
 20
9.482739
 30
0.0
 10
57.853010
 20
9.527110
 30
0.0
 10
57.843536
 20
9.567572
 30
0.0
 10
57.830269
 20
9.604125
 30
0.0
 10
57.813088
 20
9.637475
 30
0.0
 10
57.791880
 20
9.668339
 30
0.0
 10
57.766643
 20
9.696715
 30
0.0
 10
57.737380
 20
9.722605
 30
0.0
 10
57.699347
 20
9.749735
 30
0.0
 10
57.657286
 20
9.772365
 30
0.0
 10
57.611197
 20
9.790492
 30
0.0
 10
57.561081
 20
9.804119
 30
0.0
 10
57.505987
 20
9.814071
 30
0.0
 10
57.444969
 20
9.821176
 30
0.0
 10
57.378028
 20
9.825446
 30
0.0
 10
57.305164
 20
9.826869
 30
0.0
 10
57.199006
 20
9.826869
 30
0.0
 10
57.092847
 20
9.826869
 30
0.0
 10
56.986689
 20
9.826869
 30
0.0
 10
56.880531
 20
9.826869
 30
0.0
 10
56.817499
 20
9.554838
 30
0.0
 10
56.754468
 20
9.282808
 30
0.0
 10
56.691436
 20
9.010778
 30
0.0
 10
56.628404
 20
8.738747
 30
0.0
 10
56.727928
 20
8.738747
 30
0.0
 10
56.827452
 20
8.738747
 30
0.0
 10
56.926975
 20
8.738747
 30
0.0
 10
57.026498
 20
8.738747
 30
0.0
 10
57.116306
 20
8.740881
 30
0.0
 10
57.199952
 20
8.747275
 30
0.0
 10
57.277439
 20
8.757938
 30
0.0
 10
57.348765
 20
8.772868
 30
0.0
 10
57.415468
 20
8.793127
 30
0.0
 10
57.479092
 20
8.819785
 30
0.0
 10
57.539636
 20
8.852841
 30
0.0
 10
57.597099
 20
8.892295
 30
0.0
 10
57.656160
 20
8.942708
 30
0.0
 10
57.708232
 20
8.999164
 30
0.0
 10
57.753314
 20
9.061662
 30
0.0
 10
57.791407
 20
9.130204
 30
0.0
 10
57.821677
 20
9.202890
 30
0.0
 10
57.843300
 20
9.277829
 30
0.0
 10
57.856274
 20
9.355019
 30
0.0
 10
57.860603
 20
9.434460
 30
0.0
  0
LWPOLYLINE
  5
11f
100
AcDbEntity
  8
text
 62
7
100
AcDbPolyline
 90
57
 70
0
 10
58.281446
 20
7.313190
 30
0.0
 10
58.171022
 20
7.313190
 30
0.0
 10
58.060598
 20
7.313190
 30
0.0
 10
57.950174
 20
7.313190
 30
0.0
 10
57.839751
 20
7.313190
 30
0.0
 10
57.653974
 20
7.595173
 30
0.0
 10
57.468197
 20
7.877155
 30
0.0
 10
57.282420
 20
8.159139
 30
0.0
 10
57.096643
 20
8.441122
 30
0.0
 10
56.962523
 20
8.441122
 30
0.0
 10
56.828403
 20
8.441122
 30
0.0
 10
56.694284
 20
8.441122
 30
0.0
 10
56.560164
 20
8.441122
 30
0.0
 10
56.495237
 20
8.159139
 30
0.0
 10
56.430310
 20
7.877155
 30
0.0
 10
56.365383
 20
7.595173
 30
0.0
 10
56.300455
 20
7.313190
 30
0.0
 10
56.205671
 20
7.313190
 30
0.0
 10
56.110887
 20
7.313190
 30
0.0
 10
56.016102
 20
7.313190
 30
0.0
 10
55.921318
 20
7.313190
 30
0.0
 10
56.083873
 20
8.018859
 30
0.0
 10
56.246428
 20
8.724527
 30
0.0
 10
56.408983
 20
9.430196
 30
0.0
 10
56.571538
 20
10.135864
 30
0.0
 10
56.763950
 20
10.135864
 30
0.0
 10
56.956362
 20
10.135864
 30
0.0
 10
57.148774
 20
10.135864
 30
0.0
 10
57.341186
 20
10.135864
 30
0.0
 10
57.464049
 20
10.133790
 30
0.0
 10
57.574827
 20
10.127569
 30
0.0
 10
57.673522
 20
10.117202
 30
0.0
 10
57.760133
 20
10.102690
 30
0.0
 10
57.838092
 20
10.082725
 30
0.0
 10
57.910838
 20
10.056007
 30
0.0
 10
57.978372
 20
10.022537
 30
0.0
 10
58.040694
 20
9.982314
 30
0.0
 10
58.090928
 20
9.941438
 30
0.0
 10
58.135476
 20
9.896533
 30
0.0
 10
58.174338
 20
9.847601
 30
0.0
 10
58.207514
 20
9.794642
 30
0.0
 10
58.234052
 20
9.736229
 30
0.0
 10
58.253009
 20
9.670947
 30
0.0
 10
58.264383
 20
9.598793
 30
0.0
 10
58.268174
 20
9.519768
 30
0.0
 10
58.254370
 20
9.348858
 30
0.0
 10
58.212962
 20
9.188732
 30
0.0
 10
58.143947
 20
9.039388
 30
0.0
 10
58.047328
 20
8.900826
 30
0.0
 10
57.928314
 20
8.777783
 30
0.0
 10
57.792120
 20
8.675001
 30
0.0
 10
57.638747
 20
8.592480
 30
0.0
 10
57.468196
 20
8.530220
 30
0.0
 10
57.671508
 20
8.225963
 30
0.0
 10
57.874820
 20
7.921706
 30
0.0
 10
58.078133
 20
7.617448
 30
0.0
 10
58.281446
 20
7.313190
 30
0.0
  0
LWPOLYLINE
  5
120
100
AcDbEntity
  8
text
 62
7
100
AcDbPolyline
 90
8
 70
0
 10
61.466196
 20
10.135864
 30
0.0
 10
59.786619
 20
7.313190
 30
0.0
 10
59.286159
 20
7.313190
 30
0.0
 10
58.910813
 20
10.135864
 30
0.0
 10
59.301324
 20
10.135864
 30
0.0
 10
59.610320
 20
7.656309
 30
0.0
 10
61.066206
 20
10.135864
 30
0.0
 10
61.466196
 20
10.135864
 30
0.0
  0
LWPOLYLINE
  5
121
100
AcDbEntity
  8
text
 62
7
100
AcDbPolyline
 90
13
 70
0
 10
63.786514
 20
10.135864
 30
0.0
 10
63.712582
 20
9.815493
 30
0.0
 10
62.228261
 20
9.815493
 30
0.0
 10
62.046275
 20
9.019306
 30
0.0
 10
63.530596
 20
9.019306
 30
0.0
 10
63.456664
 20
8.700831
 30
0.0
 10
61.972343
 20
8.700831
 30
0.0
 10
61.725904
 20
7.633560
 30
0.0
 10
63.210225
 20
7.633560
 30
0.0
 10
63.136293
 20
7.313190
 30
0.0
 10
61.276627
 20
7.313190
 30
0.0
 10
61.926847
 20
10.135864
 30
0.0
 10
63.786514
 20
10.135864
 30
0.0
  0
LWPOLYLINE
  5
122
100
AcDbEntity
  8
text
 62
7
100
AcDbPolyline
 90
10
 70
0
 10
66.372227
 20
10.135864
 30
0.0
 10
65.020604
 20
8.551072
 30
0.0
 10
64.734356
 20
7.313190
 30
0.0
 10
64.355219
 20
7.313190
 30
0.0
 10
64.631988
 20
8.511262
 30
0.0
 10
64.002621
 20
10.135864
 30
0.0
 10
64.404506
 20
10.135864
 30
0.0
 10
64.893593
 20
8.867651
 30
0.0
 10
65.960863
 20
10.135864
 30
0.0
 10
66.372227
 20
10.135864
 30
0.0
  0
LWPOLYLINE
  5
123
100
AcDbEntity
  8
text
 62
7
100
AcDbPolyline
 90
9
 70
0
 10
0.050825
 20
0.050827
 30
0.0
 10
14.299425
 20
25.187344
 30
0.0
 10
18.260226
 20
25.187344
 30
0.0
 10
22.409638
 20
0.050827
 30
0.0
 10
19.151835
 20
0.050827
 30
0.0
 10
17.934446
 20
7.286577
 30
0.0
 10
7.766673
 20
7.286577
 30
0.0
 10
3.737286
 20
0.050827
 30
0.0
 10
0.050825
 20
0.050827
 30
0.0
  0
LWPOLYLINE
  5
124
100
AcDbEntity
  8
text
 62
7
100
AcDbPolyline
 90
6
 70
0
 10
9.206965
 20
9.875673
 30
0.0
 10
17.522934
 20
9.875673
 30
0.0
 10
16.545593
 20
16.185521
 30
0.0
 10
15.842594
 20
22.443931
 30
0.0
 10
13.339230
 20
17.317179
 30
0.0
 10
9.206965
 20
9.875673
 30
0.0
  0
LWPOLYLINE
  5
125
100
AcDbEntity
  8
text
 62
7
100
AcDbPolyline
 90
149
 70
0
 10
22.325536
 20
10.812033
 30
0.0
 10
22.995504
 20
10.874842
 30
0.0
 10
23.665471
 20
10.937651
 30
0.0
 10
24.335437
 20
11.000461
 30
0.0
 10
25.005405
 20
11.063270
 30
0.0
 10
24.998431
 20
10.885310
 30
0.0
 10
24.991448
 20
10.707350
 30
0.0
 10
24.984464
 20
10.529390
 30
0.0
 10
24.977491
 20
10.351430
 30
0.0
 10
25.011511
 20
9.770876
 30
0.0
 10
25.113575
 20
9.215622
 30
0.0
 10
25.283685
 20
8.685670
 30
0.0
 10
25.521840
 20
8.181016
 30
0.0
 10
25.838500
 20
7.716922
 30
0.0
 10
26.244144
 20
7.308660
 30
0.0
 10
26.738769
 20
6.956230
 30
0.0
 10
27.322376
 20
6.659632
 30
0.0
 10
27.980127
 20
6.424535
 30
0.0
 10
28.697200
 20
6.256606
 30
0.0
 10
29.473594
 20
6.155848
 30
0.0
 10
30.309314
 20
6.122263
 30
0.0
 10
31.464739
 20
6.189435
 30
0.0
 10
32.474485
 20
6.390947
 30
0.0
 10
33.338553
 20
6.726803
 30
0.0
 10
34.056943
 20
7.197002
 30
0.0
 10
34.621787
 20
7.753556
 30
0.0
 10
35.025247
 20
8.348501
 30
0.0
 10
35.267325
 20
8.981832
 30
0.0
 10
35.348025
 20
9.653548
 30
0.0
 10
35.305272
 20
10.124615
 30
0.0
 10
35.177033
 20
10.574748
 30
0.0
 10
34.963309
 20
11.003947
 30
0.0
 10
34.664101
 20
11.412211
 30
0.0
 10
34.164235
 20
11.837916
 30
0.0
 10
33.362539
 20
12.333410
 30
0.0
 10
32.259016
 20
12.898697
 30
0.0
 10
30.853662
 20
13.533774
 30
0.0
 10
29.742279
 20
14.026648
 30
0.0
 10
28.822818
 20
14.458460
 30
0.0
 10
28.095277
 20
14.829213
 30
0.0
 10
27.559657
 20
15.138904
 30
0.0
 10
26.914112
 20
15.602554
 30
0.0
 10
26.359294
 20
16.086270
 30
0.0
 10
25.895204
 20
16.590057
 30
0.0
 10
25.521840
 20
17.113911
 30
0.0
 10
25.234832
 20
17.666539
 30
0.0
 10
25.029829
 20
18.256684
 30
0.0
 10
24.906828
 20
18.884344
 30
0.0
 10
24.865830
 20
19.549521
 30
0.0
 10
24.919917
 20
20.318927
 30
0.0
 10
25.082173
 20
21.049956
 30
0.0
 10
25.352602
 20
21.742608
 30
0.0
 10
25.731205
 20
22.396882
 30
0.0
 10
26.214044
 20
22.994436
 30
0.0
 10
26.797212
 20
23.516972
 30
0.0
 10
27.480704
 20
23.964490
 30
0.0
 10
28.264518
 20
24.336995
 30
0.0
 10
29.125089
 20
24.630094
 30
0.0
 10
30.038877
 20
24.839455
 30
0.0
 10
31.005882
 20
24.965078
 30
0.0
 10
32.026105
 20
25.006962
 30
0.0
 10
33.226454
 20
24.954610
 30
0.0
 10
34.329107
 20
24.797582
 30
0.0
 10
35.334059
 20
24.535880
 30
0.0
 10
36.241315
 20
24.169504
 30
0.0
 10
37.040817
 20
23.715869
 30
0.0
 10
37.722558
 20
23.192454
 30
0.0
 10
38.286537
 20
22.599257
 30
0.0
 10
38.732755
 20
21.936279
 30
0.0
 10
39.071654
 20
21.246239
 30
0.0
 10
39.313728
 20
20.571907
 30
0.0
 10
39.458978
 20
19.913283
 30
0.0
 10
39.507405
 20
19.270368
 30
0.0
 10
39.506490
 20
19.197082
 30
0.0
 10
39.503867
 20
19.102865
 30
0.0
 10
39.499506
 20
18.987718
 30
0.0
 10
39.493407
 20
18.851639
 30
0.0
 10
38.833908
 20
18.799298
 30
0.0
 10
38.174410
 20
18.746957
 30
0.0
 10
37.514911
 20
18.694615
 30
0.0
 10
36.855412
 20
18.642274
 30
0.0
 10
36.845806
 20
19.051399
 30
0.0
 10
36.817014
 20
19.413423
 30
0.0
 10
36.769038
 20
19.728345
 30
0.0
 10
36.701877
 20
19.996166
 30
0.0
 10
36.543099
 20
20.405291
 30
0.0
 10
36.345944
 20
20.781272
 30
0.0
 10
36.110412
 20
21.124109
 30
0.0
 10
35.836503
 20
21.433804
 30
0.0
 10
35.515904
 20
21.712511
 30
0.0
 10
35.140353
 20
21.962437
 30
0.0
 10
34.709850
 20
22.183581
 30
0.0
 10
34.224394
 20
22.375945
 30
0.0
 10
33.696177
 20
22.531650
 30
0.0
 10
33.137433
 20
22.642872
 30
0.0
 10
32.548161
 20
22.709610
 30
0.0
 10
31.928360
 20
22.731866
 30
0.0
 10
30.873680
 20
22.669046
 30
0.0
 10
29.942878
 20
22.480614
 30
0.0
 10
29.135953
 20
22.166571
 30
0.0
 10
28.452905
 20
21.726915
 30
0.0
 10
28.037662
 20
21.311665
 30
0.0
 10
27.741060
 20
20.833613
 30
0.0
 10
27.563102
 20
20.292757
 30
0.0
 10
27.503786
 20
19.689098
 30
0.0
 10
27.528207
 20
19.322265
 30
0.0
 10
27.601483
 20
18.975502
 30
0.0
 10
27.723614
 20
18.648808
 30
0.0
 10
27.894599
 20
18.342185
 30
0.0
 10
28.129258
 20
18.046885
 30
0.0
 10
28.442431
 20
17.754209
 30
0.0
 10
28.834119
 20
17.464154
 30
0.0
 10
29.304322
 20
17.176721
 30
0.0
 10
29.791963
 20
16.924604
 30
0.0
 10
30.529098
 20
16.573044
 30
0.0
 10
31.515731
 20
16.122039
 30
0.0
 10
32.751862
 20
15.571591
 30
0.0
 10
33.769018
 20
15.109238
 30
0.0
 10
34.615198
 20
14.699231
 30
0.0
 10
35.290401
 20
14.341567
 30
0.0
 10
35.794630
 20
14.036250
 30
0.0
 10
36.320649
 20
13.646739
 30
0.0
 10
36.782121
 20
13.217976
 30
0.0
 10
37.179045
 20
12.749960
 30
0.0
 10
37.511421
 20
12.242692
 30
0.0
 10
37.773989
 20
11.697904
 30
0.0
 10
37.961542
 20
11.117352
 30
0.0
 10
38.074078
 20
10.501034
 30
0.0
 10
38.111600
 20
9.848955
 30
0.0
 10
38.048343
 20
9.034611
 30
0.0
 10
37.858603
 20
8.252546
 30
0.0
 10
37.542378
 20
7.502759
 30
0.0
 10
37.099670
 20
6.785251
 30
0.0
 10
36.545280
 20
6.123570
 30
0.0
 10
35.894066
 20
5.541274
 30
0.0
 10
35.146026
 20
5.038363
 30
0.0
 10
34.301161
 20
4.614836
 30
0.0
 10
33.375589
 20
4.278977
 30
0.0
 10
32.385466
 20
4.039080
 30
0.0
 10
31.330793
 20
3.895144
 30
0.0
 10
30.211569
 20
3.847166
 30
0.0
 10
28.553659
 20
3.941816
 30
0.0
 10
27.055391
 20
4.225766
 30
0.0
 10
25.716766
 20
4.699018
 30
0.0
 10
24.537784
 20
5.361570
 30
0.0
 10
23.575143
 20
6.270127
 30
0.0
 10
22.885548
 20
7.481388
 30
0.0
 10
22.468999
 20
8.995356
 30
0.0
 10
22.325536
 20
10.812033
 30
0.0
  0
LWPOLYLINE
  5
126
100
AcDbEntity
  8
text
 62
7
100
AcDbPolyline
 90
149
 70
0
 10
39.791466
 20
13.220594
 30
0.0
 10
40.349772
 20
13.272935
 30
0.0
 10
40.908078
 20
13.325276
 30
0.0
 10
41.466384
 20
13.377617
 30
0.0
 10
42.024690
 20
13.429959
 30
0.0
 10
42.018875
 20
13.281658
 30
0.0
 10
42.013061
 20
13.133359
 30
0.0
 10
42.007247
 20
12.985059
 30
0.0
 10
42.001432
 20
12.836759
 30
0.0
 10
42.029781
 20
12.352964
 30
0.0
 10
42.114835
 20
11.890253
 30
0.0
 10
42.256593
 20
11.448624
 30
0.0
 10
42.455056
 20
11.028080
 30
0.0
 10
42.718941
 20
10.641335
 30
0.0
 10
43.056976
 20
10.301117
 30
0.0
 10
43.469163
 20
10.007425
 30
0.0
 10
43.955503
 20
9.760260
 30
0.0
 10
44.503628
 20
9.564343
 30
0.0
 10
45.101188
 20
9.424403
 30
0.0
 10
45.748185
 20
9.340439
 30
0.0
 10
46.444618
 20
9.312452
 30
0.0
 10
47.407472
 20
9.368428
 30
0.0
 10
48.248927
 20
9.536356
 30
0.0
 10
48.968984
 20
9.816235
 30
0.0
 10
49.567642
 20
10.208068
 30
0.0
 10
50.038342
 20
10.671867
 30
0.0
 10
50.374560
 20
11.167653
 30
0.0
 10
50.576293
 20
11.695428
 30
0.0
 10
50.643544
 20
12.255190
 30
0.0
 10
50.607916
 20
12.647746
 30
0.0
 10
50.501051
 20
13.022857
 30
0.0
 10
50.322947
 20
13.380523
 30
0.0
 10
50.073606
 20
13.720743
 30
0.0
 10
49.657051
 20
14.075496
 30
0.0
 10
48.988973
 20
14.488409
 30
0.0
 10
48.069369
 20
14.959481
 30
0.0
 10
46.898241
 20
15.488712
 30
0.0
 10
45.972089
 20
15.899440
 30
0.0
 10
45.205872
 20
16.259284
 30
0.0
 10
44.599587
 20
16.568245
 30
0.0
 10
44.153237
 20
16.826321
 30
0.0
 10
43.615282
 20
17.212695
 30
0.0
 10
43.152935
 20
17.615793
 30
0.0
 10
42.766192
 20
18.035614
 30
0.0
 10
42.455056
 20
18.472159
 30
0.0
 10
42.215884
 20
18.932683
 30
0.0
 10
42.045047
 20
19.424470
 30
0.0
 10
41.942547
 20
19.947520
 30
0.0
 10
41.908381
 20
20.501835
 30
0.0
 10
41.953454
 20
21.143006
 30
0.0
 10
42.088667
 20
21.752197
 30
0.0
 10
42.314024
 20
22.329407
 30
0.0
 10
42.629526
 20
22.874635
 30
0.0
 10
43.031893
 20
23.372597
 30
0.0
 10
43.517866
 20
23.808043
 30
0.0
 10
44.087442
 20
24.180975
 30
0.0
 10
44.740621
 20
24.491396
 30
0.0
 10
45.457763
 20
24.735645
 30
0.0
 10
46.219254
 20
24.910112
 30
0.0
 10
47.025091
 20
25.014799
 30
0.0
 10
47.875277
 20
25.049702
 30
0.0
 10
48.875569
 20
25.006075
 30
0.0
 10
49.794444
 20
24.875219
 30
0.0
 10
50.631906
 20
24.657134
 30
0.0
 10
51.387952
 20
24.351820
 30
0.0
 10
52.054203
 20
23.973792
 30
0.0
 10
52.622321
 20
23.537612
 30
0.0
 10
53.092303
 20
23.043281
 30
0.0
 10
53.464152
 20
22.490800
 30
0.0
 10
53.746567
 20
21.915766
 30
0.0
 10
53.948297
 20
21.353823
 30
0.0
 10
54.069338
 20
20.804971
 30
0.0
 10
54.109694
 20
20.269208
 30
0.0
 10
54.108982
 20
20.208136
 30
0.0
 10
54.106797
 20
20.129622
 30
0.0
 10
54.103168
 20
20.033665
 30
0.0
 10
54.098085
 20
19.920266
 30
0.0
 10
53.548503
 20
19.876648
 30
0.0
 10
52.998921
 20
19.833030
 30
0.0
 10
52.449337
 20
19.789413
 30
0.0
 10
51.899755
 20
19.745795
 30
0.0
 10
51.891755
 20
20.086733
 30
0.0
 10
51.867762
 20
20.388420
 30
0.0
 10
51.827782
 20
20.650855
 30
0.0
 10
51.771814
 20
20.874039
 30
0.0
 10
51.639499
 20
21.214976
 30
0.0
 10
51.475203
 20
21.528293
 30
0.0
 10
51.278927
 20
21.813991
 30
0.0
 10
51.050669
 20
22.072070
 30
0.0
 10
50.783504
 20
22.304326
 30
0.0
 10
50.470544
 20
22.512598
 30
0.0
 10
50.111791
 20
22.696885
 30
0.0
 10
49.707244
 20
22.857189
 30
0.0
 10
49.267064
 20
22.986943
 30
0.0
 10
48.801443
 20
23.079627
 30
0.0
 10
48.310383
 20
23.135242
 30
0.0
 10
47.793883
 20
23.153789
 30
0.0
 10
46.914983
 20
23.101438
 30
0.0
 10
46.139315
 20
22.944412
 30
0.0
 10
45.466877
 20
22.682709
 30
0.0
 10
44.897671
 20
22.316329
 30
0.0
 10
44.551635
 20
21.970288
 30
0.0
 10
44.304467
 20
21.571911
 30
0.0
 10
44.156167
 20
21.121198
 30
0.0
 10
44.106737
 20
20.618149
 30
0.0
 10
44.127089
 20
20.312455
 30
0.0
 10
44.188153
 20
20.023485
 30
0.0
 10
44.289929
 20
19.751241
 30
0.0
 10
44.432417
 20
19.495721
 30
0.0
 10
44.627965
 20
19.249639
 30
0.0
 10
44.888943
 20
19.005741
 30
0.0
 10
45.215349
 20
18.764028
 30
0.0
 10
45.607185
 20
18.524501
 30
0.0
 10
46.013551
 20
18.314403
 30
0.0
 10
46.627832
 20
18.021437
 30
0.0
 10
47.450027
 20
17.645599
 30
0.0
 10
48.480135
 20
17.186893
 30
0.0
 10
49.327765
 20
16.801598
 30
0.0
 10
50.032914
 20
16.459926
 30
0.0
 10
50.595584
 20
16.161873
 30
0.0
 10
51.015774
 20
15.907442
 30
0.0
 10
51.454124
 20
15.582850
 30
0.0
 10
51.838684
 20
15.225547
 30
0.0
 10
52.169454
 20
14.835534
 30
0.0
 10
52.446433
 20
14.412810
 30
0.0
 10
52.665241
 20
13.958819
 30
0.0
 10
52.821534
 20
13.475026
 30
0.0
 10
52.915315
 20
12.961430
 30
0.0
 10
52.946583
 20
12.418030
 30
0.0
 10
52.893869
 20
11.739410
 30
0.0
 10
52.735753
 20
11.087688
 30
0.0
 10
52.472232
 20
10.462866
 30
0.0
 10
52.103308
 20
9.864942
 30
0.0
 10
51.641317
 20
9.313541
 30
0.0
 10
51.098639
 20
8.828295
 30
0.0
 10
50.475272
 20
8.409202
 30
0.0
 10
49.771217
 20
8.056263
 30
0.0
 10
48.999907
 20
7.776380
 30
0.0
 10
48.174804
 20
7.576466
 30
0.0
 10
47.295910
 20
7.456519
 30
0.0
 10
46.363224
 20
7.416538
 30
0.0
 10
44.981632
 20
7.495413
 30
0.0
 10
43.733075
 20
7.732039
 30
0.0
 10
42.617555
 20
8.126415
 30
0.0
 10
41.635070
 20
8.678542
 30
0.0
 10
40.832870
 20
9.435673
 30
0.0
 10
40.258206
 20
10.445057
 30
0.0
 10
39.911083
 20
11.706697
 30
0.0
 10
39.791466
 20
13.220594
 30
0.0
  0
LWPOLYLINE
  5
127
100
AcDbEntity
  8
text
 62
7
100
AcDbPolyline
 90
225
 70
0
 10
61.603111
 20
10.856227
 30
0.0
 10
61.791108
 20
11.753960
 30
0.0
 10
61.979106
 20
12.651692
 30
0.0
 10
62.167103
 20
13.549425
 30
0.0
 10
62.355100
 20
14.447158
 30
0.0
 10
62.543097
 20
15.344891
 30
0.0
 10
62.731095
 20
16.242625
 30
0.0
 10
62.919092
 20
17.140357
 30
0.0
 10
63.107089
 20
18.038090
 30
0.0
 10
63.295086
 20
18.935823
 30
0.0
 10
63.483084
 20
19.833556
 30
0.0
 10
63.671081
 20
20.731288
 30
0.0
 10
63.859078
 20
21.629021
 30
0.0
 10
64.047075
 20
22.526754
 30
0.0
 10
64.235072
 20
23.424487
 30
0.0
 10
64.423070
 20
24.322220
 30
0.0
 10
64.611067
 20
25.219952
 30
0.0
 10
64.889083
 20
25.219952
 30
0.0
 10
65.167098
 20
25.219952
 30
0.0
 10
65.445114
 20
25.219952
 30
0.0
 10
65.723129
 20
25.219952
 30
0.0
 10
66.001145
 20
25.219952
 30
0.0
 10
66.279160
 20
25.219952
 30
0.0
 10
66.557176
 20
25.219952
 30
0.0
 10
66.835191
 20
25.219952
 30
0.0
 10
67.113207
 20
25.219952
 30
0.0
 10
67.391222
 20
25.219952
 30
0.0
 10
67.669238
 20
25.219952
 30
0.0
 10
67.947253
 20
25.219952
 30
0.0
 10
68.225269
 20
25.219952
 30
0.0
 10
68.503284
 20
25.219952
 30
0.0
 10
68.781300
 20
25.219952
 30
0.0
 10
69.059315
 20
25.219952
 30
0.0
 10
69.201383
 20
25.218417
 30
0.0
 10
69.343452
 20
25.216882
 30
0.0
 10
69.485520
 20
25.215348
 30
0.0
 10
69.627588
 20
25.213813
 30
0.0
 10
69.750061
 20
25.209218
 30
0.0
 10
69.872535
 20
25.204623
 30
0.0
 10
69.995008
 20
25.200029
 30
0.0
 10
70.117481
 20
25.195434
 30
0.0
 10
70.220360
 20
25.187780
 30
0.0
 10
70.323238
 20
25.180126
 30
0.0
 10
70.426116
 20
25.172471
 30
0.0
 10
70.528995
 20
25.164817
 30
0.0
 10
70.612278
 20
25.154103
 30
0.0
 10
70.695562
 20
25.143389
 30
0.0
 10
70.778846
 20
25.132674
 30
0.0
 10
70.862129
 20
25.121960
 30
0.0
 10
70.977482
 20
25.097233
 30
0.0
 10
71.092836
 20
25.072507
 30
0.0
 10
71.208189
 20
25.047780
 30
0.0
 10
71.323542
 20
25.023054
 30
0.0
 10
71.429558
 20
24.990521
 30
0.0
 10
71.535575
 20
24.957989
 30
0.0
 10
71.641591
 20
24.925456
 30
0.0
 10
71.747606
 20
24.892923
 30
0.0
 10
71.844284
 20
24.852584
 30
0.0
 10
71.940962
 20
24.812245
 30
0.0
 10
72.037641
 20
24.771906
 30
0.0
 10
72.134319
 20
24.731567
 30
0.0
 10
72.221659
 20
24.683421
 30
0.0
 10
72.309000
 20
24.635276
 30
0.0
 10
72.396341
 20
24.587130
 30
0.0
 10
72.483681
 20
24.538984
 30
0.0
 10
72.561680
 20
24.482185
 30
0.0
 10
72.639679
 20
24.425386
 30
0.0
 10
72.717678
 20
24.368587
 30
0.0
 10
72.795677
 20
24.311788
 30
0.0
 10
72.864338
 20
24.245498
 30
0.0
 10
72.932999
 20
24.179210
 30
0.0
 10
73.001660
 20
24.112920
 30
0.0
 10
73.070321
 20
24.046630
 30
0.0
 10
73.129646
 20
23.970851
 30
0.0
 10
73.188969
 20
23.895070
 30
0.0
 10
73.248293
 20
23.819290
 30
0.0
 10
73.307617
 20
23.743510
 30
0.0
 10
73.357604
 20
23.658239
 30
0.0
 10
73.407590
 20
23.572969
 30
0.0
 10
73.457576
 20
23.487698
 30
0.0
 10
73.507562
 20
23.402428
 30
0.0
 10
73.547211
 20
23.310035
 30
0.0
 10
73.586861
 20
23.217643
 30
0.0
 10
73.626510
 20
23.125249
 30
0.0
 10
73.666159
 20
23.032857
 30
0.0
 10
73.694481
 20
22.935719
 30
0.0
 10
73.722802
 20
22.838582
 30
0.0
 10
73.751124
 20
22.741444
 30
0.0
 10
73.779445
 20
22.644307
 30
0.0
 10
73.796439
 20
22.542424
 30
0.0
 10
73.813433
 20
22.440542
 30
0.0
 10
73.830426
 20
22.338660
 30
0.0
 10
73.847420
 20
22.236777
 30
0.0
 10
73.853081
 20
22.130151
 30
0.0
 10
73.858743
 20
22.023523
 30
0.0
 10
73.864405
 20
21.916896
 30
0.0
 10
73.870067
 20
21.810269
 30
0.0
 10
73.859885
 20
21.666514
 30
0.0
 10
73.849703
 20
21.522758
 30
0.0
 10
73.839520
 20
21.379004
 30
0.0
 10
73.829338
 20
21.235248
 30
0.0
 10
73.798796
 20
21.100374
 30
0.0
 10
73.768253
 20
20.965500
 30
0.0
 10
73.737711
 20
20.830624
 30
0.0
 10
73.707168
 20
20.695750
 30
0.0
 10
73.656265
 20
20.569756
 30
0.0
 10
73.605362
 20
20.443761
 30
0.0
 10
73.554460
 20
20.317766
 30
0.0
 10
73.503557
 20
20.191772
 30
0.0
 10
73.432295
 20
20.074658
 30
0.0
 10
73.361033
 20
19.957544
 30
0.0
 10
73.289769
 20
19.840429
 30
0.0
 10
73.218507
 20
19.723315
 30
0.0
 10
73.126268
 20
19.617374
 30
0.0
 10
73.034029
 20
19.511432
 30
0.0
 10
72.941790
 20
19.405491
 30
0.0
 10
72.849551
 20
19.299549
 30
0.0
 10
72.735726
 20
19.207082
 30
0.0
 10
72.621902
 20
19.114614
 30
0.0
 10
72.508077
 20
19.022145
 30
0.0
 10
72.394253
 20
18.929678
 30
0.0
 10
72.258843
 20
18.850683
 30
0.0
 10
72.123433
 20
18.771688
 30
0.0
 10
71.988023
 20
18.692693
 30
0.0
 10
71.852613
 20
18.613698
 30
0.0
 10
71.695618
 20
18.548176
 30
0.0
 10
71.538623
 20
18.482654
 30
0.0
 10
71.381629
 20
18.417131
 30
0.0
 10
71.224634
 20
18.351609
 30
0.0
 10
71.361191
 20
18.297796
 30
0.0
 10
71.497748
 20
18.243983
 30
0.0
 10
71.634303
 20
18.190170
 30
0.0
 10
71.770860
 20
18.136357
 30
0.0
 10
71.889046
 20
18.070451
 30
0.0
 10
72.007234
 20
18.004544
 30
0.0
 10
72.125420
 20
17.938638
 30
0.0
 10
72.243606
 20
17.872732
 30
0.0
 10
72.343423
 20
17.794732
 30
0.0
 10
72.443240
 20
17.716731
 30
0.0
 10
72.543057
 20
17.638731
 30
0.0
 10
72.642874
 20
17.560731
 30
0.0
 10
72.724320
 20
17.470637
 30
0.0
 10
72.805767
 20
17.380543
 30
0.0
 10
72.887214
 20
17.290449
 30
0.0
 10
72.968660
 20
17.200355
 30
0.0
 10
73.031886
 20
17.100156
 30
0.0
 10
73.095111
 20
16.999957
 30
0.0
 10
73.158337
 20
16.899756
 30
0.0
 10
73.221562
 20
16.799557
 30
0.0
 10
73.266723
 20
16.691244
 30
0.0
 10
73.311885
 20
16.582931
 30
0.0
 10
73.357047
 20
16.474618
 30
0.0
 10
73.402208
 20
16.366305
 30
0.0
 10
73.429306
 20
16.249879
 30
0.0
 10
73.456404
 20
16.133453
 30
0.0
 10
73.483501
 20
16.017027
 30
0.0
 10
73.510600
 20
15.900600
 30
0.0
 10
73.519636
 20
15.776060
 30
0.0
 10
73.528673
 20
15.651521
 30
0.0
 10
73.537710
 20
15.526980
 30
0.0
 10
73.546747
 20
15.402441
 30
0.0
 10
73.536105
 20
15.255778
 30
0.0
 10
73.525464
 20
15.109115
 30
0.0
 10
73.514822
 20
14.962452
 30
0.0
 10
73.504180
 20
14.815790
 30
0.0
 10
73.472260
 20
14.672188
 30
0.0
 10
73.440339
 20
14.528588
 30
0.0
 10
73.408419
 20
14.384987
 30
0.0
 10
73.376499
 20
14.241386
 30
0.0
 10
73.323300
 20
14.100848
 30
0.0
 10
73.270101
 20
13.960309
 30
0.0
 10
73.216902
 20
13.819771
 30
0.0
 10
73.163703
 20
13.679233
 30
0.0
 10
73.089225
 20
13.541756
 30
0.0
 10
73.014748
 20
13.404279
 30
0.0
 10
72.940270
 20
13.266804
 30
0.0
 10
72.865793
 20
13.129327
 30
0.0
 10
72.773783
 20
13.001112
 30
0.0
 10
72.681773
 20
12.872897
 30
0.0
 10
72.589763
 20
12.744683
 30
0.0
 10
72.497753
 20
12.616467
 30
0.0
 10
72.391966
 20
12.503715
 30
0.0
 10
72.286178
 20
12.390962
 30
0.0
 10
72.180391
 20
12.278210
 30
0.0
 10
72.074603
 20
12.165458
 30
0.0
 10
71.955039
 20
12.068168
 30
0.0
 10
71.835474
 20
11.970878
 30
0.0
 10
71.715911
 20
11.873588
 30
0.0
 10
71.596346
 20
11.776298
 30
0.0
 10
71.463004
 20
11.694470
 30
0.0
 10
71.329663
 20
11.612642
 30
0.0
 10
71.196320
 20
11.530815
 30
0.0
 10
71.062979
 20
11.448987
 30
0.0
 10
70.918689
 20
11.384151
 30
0.0
 10
70.774398
 20
11.319316
 30
0.0
 10
70.630108
 20
11.254481
 30
0.0
 10
70.485818
 20
11.189646
 30
0.0
 10
70.333414
 20
11.143335
 30
0.0
 10
70.181011
 20
11.097024
 30
0.0
 10
70.028607
 20
11.050714
 30
0.0
 10
69.876203
 20
11.004404
 30
0.0
 10
69.715686
 20
10.976619
 30
0.0
 10
69.555169
 20
10.948833
 30
0.0
 10
69.394652
 20
10.921048
 30
0.0
 10
69.234135
 20
10.893261
 30
0.0
 10
69.065506
 20
10.884001
 30
0.0
 10
68.896875
 20
10.874740
 30
0.0
 10
68.728246
 20
10.865480
 30
0.0
 10
68.559615
 20
10.856220
 30
0.0
 10
68.124833
 20
10.856220
 30
0.0
 10
67.690051
 20
10.856220
 30
0.0
 10
67.255269
 20
10.856220
 30
0.0
 10
66.820487
 20
10.856220
 30
0.0
 10
66.385705
 20
10.856220
 30
0.0
 10
65.950924
 20
10.856220
 30
0.0
 10
65.516141
 20
10.856220
 30
0.0
 10
65.081359
 20
10.856220
 30
0.0
 10
64.646577
 20
10.856220
 30
0.0
 10
64.211795
 20
10.856220
 30
0.0
 10
63.777013
 20
10.856220
 30
0.0
 10
63.342231
 20
10.856220
 30
0.0
 10
62.907449
 20
10.856219
 30
0.0
 10
62.472667
 20
10.856218
 30
0.0
 10
62.037885
 20
10.856218
 30
0.0
 10
61.603111
 20
10.856227
 30
0.0
  0
LWPOLYLINE
  5
128
100
AcDbEntity
  8
text
 62
7
100
AcDbPolyline
 90
129
 70
0
 10
65.247931
 20
19.086465
 30
0.0
 10
65.429805
 20
19.086465
 30
0.0
 10
65.611678
 20
19.086465
 30
0.0
 10
65.793552
 20
19.086465
 30
0.0
 10
65.975425
 20
19.086465
 30
0.0
 10
66.157299
 20
19.086465
 30
0.0
 10
66.339173
 20
19.086465
 30
0.0
 10
66.521046
 20
19.086465
 30
0.0
 10
66.702920
 20
19.086465
 30
0.0
 10
66.884794
 20
19.086465
 30
0.0
 10
67.066666
 20
19.086465
 30
0.0
 10
67.248540
 20
19.086465
 30
0.0
 10
67.430414
 20
19.086465
 30
0.0
 10
67.612287
 20
19.086465
 30
0.0
 10
67.794161
 20
19.086465
 30
0.0
 10
67.976035
 20
19.086465
 30
0.0
 10
68.157908
 20
19.086465
 30
0.0
 10
68.400482
 20
19.096874
 30
0.0
 10
68.643054
 20
19.107284
 30
0.0
 10
68.885627
 20
19.117694
 30
0.0
 10
69.128201
 20
19.128103
 30
0.0
 10
69.334186
 20
19.159333
 30
0.0
 10
69.540171
 20
19.190563
 30
0.0
 10
69.746157
 20
19.221793
 30
0.0
 10
69.952142
 20
19.253023
 30
0.0
 10
70.121539
 20
19.305075
 30
0.0
 10
70.290936
 20
19.357126
 30
0.0
 10
70.460333
 20
19.409179
 30
0.0
 10
70.629730
 20
19.461230
 30
0.0
 10
70.762539
 20
19.534104
 30
0.0
 10
70.895348
 20
19.606976
 30
0.0
 10
71.028156
 20
19.679849
 30
0.0
 10
71.160965
 20
19.752722
 30
0.0
 10
71.261162
 20
19.845495
 30
0.0
 10
71.361360
 20
19.938267
 30
0.0
 10
71.461557
 20
20.031040
 30
0.0
 10
71.561754
 20
20.123812
 30
0.0
 10
71.633324
 20
20.235569
 30
0.0
 10
71.704894
 20
20.347326
 30
0.0
 10
71.776464
 20
20.459083
 30
0.0
 10
71.848034
 20
20.570840
 30
0.0
 10
71.890978
 20
20.701581
 30
0.0
 10
71.933920
 20
20.832323
 30
0.0
 10
71.976863
 20
20.963063
 30
0.0
 10
72.019806
 20
21.093804
 30
0.0
 10
72.034121
 20
21.243530
 30
0.0
 10
72.048437
 20
21.393256
 30
0.0
 10
72.062753
 20
21.542982
 30
0.0
 10
72.077069
 20
21.692707
 30
0.0
 10
72.072627
 20
21.766037
 30
0.0
 10
72.068185
 20
21.839366
 30
0.0
 10
72.063742
 20
21.912696
 30
0.0
 10
72.059300
 20
21.986025
 30
0.0
 10
72.045981
 20
22.054150
 30
0.0
 10
72.032661
 20
22.122276
 30
0.0
 10
72.019341
 20
22.190401
 30
0.0
 10
72.006022
 20
22.258526
 30
0.0
 10
71.983825
 20
22.321448
 30
0.0
 10
71.961626
 20
22.384370
 30
0.0
 10
71.939429
 20
22.447291
 30
0.0
 10
71.917231
 20
22.510213
 30
0.0
 10
71.886155
 20
22.567930
 30
0.0
 10
71.855079
 20
22.625648
 30
0.0
 10
71.824002
 20
22.683365
 30
0.0
 10
71.792926
 20
22.741082
 30
0.0
 10
71.754422
 20
22.792443
 30
0.0
 10
71.715919
 20
22.843804
 30
0.0
 10
71.677414
 20
22.895165
 30
0.0
 10
71.638910
 20
22.946526
 30
0.0
 10
71.594436
 20
22.990386
 30
0.0
 10
71.549963
 20
23.034246
 30
0.0
 10
71.505488
 20
23.078107
 30
0.0
 10
71.461014
 20
23.121967
 30
0.0
 10
71.410571
 20
23.158327
 30
0.0
 10
71.360128
 20
23.194687
 30
0.0
 10
71.309684
 20
23.231047
 30
0.0
 10
71.259241
 20
23.267407
 30
0.0
 10
71.202828
 20
23.296266
 30
0.0
 10
71.146415
 20
23.325126
 30
0.0
 10
71.090002
 20
23.353986
 30
0.0
 10
71.033589
 20
23.382846
 30
0.0
 10
70.961098
 20
23.404812
 30
0.0
 10
70.888608
 20
23.426779
 30
0.0
 10
70.816117
 20
23.448746
 30
0.0
 10
70.743627
 20
23.470712
 30
0.0
 10
70.644958
 20
23.486404
 30
0.0
 10
70.546290
 20
23.502095
 30
0.0
 10
70.447621
 20
23.517787
 30
0.0
 10
70.348953
 20
23.533478
 30
0.0
 10
70.224107
 20
23.542891
 30
0.0
 10
70.099261
 20
23.552304
 30
0.0
 10
69.974414
 20
23.561716
 30
0.0
 10
69.849568
 20
23.571129
 30
0.0
 10
69.698544
 20
23.574270
 30
0.0
 10
69.547520
 20
23.577411
 30
0.0
 10
69.396495
 20
23.580552
 30
0.0
 10
69.245471
 20
23.583693
 30
0.0
 10
69.054413
 20
23.583693
 30
0.0
 10
68.863354
 20
23.583693
 30
0.0
 10
68.672294
 20
23.583693
 30
0.0
 10
68.481235
 20
23.583693
 30
0.0
 10
68.290176
 20
23.583693
 30
0.0
 10
68.099117
 20
23.583693
 30
0.0
 10
67.908058
 20
23.583693
 30
0.0
 10
67.716999
 20
23.583693
 30
0.0
 10
67.525940
 20
23.583693
 30
0.0
 10
67.334881
 20
23.583693
 30
0.0
 10
67.143821
 20
23.583693
 30
0.0
 10
66.952763
 20
23.583693
 30
0.0
 10
66.761704
 20
23.583693
 30
0.0
 10
66.570645
 20
23.583693
 30
0.0
 10
66.379585
 20
23.583693
 30
0.0
 10
66.188526
 20
23.583693
 30
0.0
 10
66.129739
 20
23.302617
 30
0.0
 10
66.070952
 20
23.021539
 30
0.0
 10
66.012164
 20
22.740462
 30
0.0
 10
65.953376
 20
22.459384
 30
0.0
 10
65.894589
 20
22.178307
 30
0.0
 10
65.835802
 20
21.897230
 30
0.0
 10
65.777014
 20
21.616152
 30
0.0
 10
65.718227
 20
21.335074
 30
0.0
 10
65.659440
 20
21.053997
 30
0.0
 10
65.600652
 20
20.772920
 30
0.0
 10
65.541865
 20
20.491842
 30
0.0
 10
65.483078
 20
20.210765
 30
0.0
 10
65.424290
 20
19.929688
 30
0.0
 10
65.365503
 20
19.648610
 30
0.0
 10
65.306716
 20
19.367533
 30
0.0
 10
65.247931
 20
19.086465
 30
0.0
  0
LWPOLYLINE
  5
129
100
AcDbEntity
  8
text
 62
7
100
AcDbPolyline
 90
145
 70
0
 10
63.866426
 20
12.482679
 30
0.0
 10
64.070957
 20
12.482679
 30
0.0
 10
64.275488
 20
12.482679
 30
0.0
 10
64.480019
 20
12.482679
 30
0.0
 10
64.684551
 20
12.482679
 30
0.0
 10
64.889082
 20
12.482679
 30
0.0
 10
65.093613
 20
12.482679
 30
0.0
 10
65.298144
 20
12.482679
 30
0.0
 10
65.502676
 20
12.482679
 30
0.0
 10
65.707207
 20
12.482679
 30
0.0
 10
65.911738
 20
12.482679
 30
0.0
 10
66.116269
 20
12.482679
 30
0.0
 10
66.320800
 20
12.482679
 30
0.0
 10
66.525332
 20
12.482679
 30
0.0
 10
66.729863
 20
12.482679
 30
0.0
 10
66.934394
 20
12.482679
 30
0.0
 10
67.138926
 20
12.482679
 30
0.0
 10
67.288496
 20
12.484061
 30
0.0
 10
67.438066
 20
12.485443
 30
0.0
 10
67.587636
 20
12.486826
 30
0.0
 10
67.737206
 20
12.488208
 30
0.0
 10
67.860138
 20
12.492346
 30
0.0
 10
67.983071
 20
12.496483
 30
0.0
 10
68.106004
 20
12.500620
 30
0.0
 10
68.228937
 20
12.504757
 30
0.0
 10
68.325232
 20
12.511649
 30
0.0
 10
68.421527
 20
12.518541
 30
0.0
 10
68.517822
 20
12.525433
 30
0.0
 10
68.614118
 20
12.532325
 30
0.0
 10
68.683776
 20
12.541972
 30
0.0
 10
68.753435
 20
12.551618
 30
0.0
 10
68.823092
 20
12.561265
 30
0.0
 10
68.892750
 20
12.570911
 30
0.0
 10
69.001291
 20
12.593952
 30
0.0
 10
69.109833
 20
12.616992
 30
0.0
 10
69.218374
 20
12.640032
 30
0.0
 10
69.326915
 20
12.663072
 30
0.0
 10
69.424741
 20
12.693002
 30
0.0
 10
69.522565
 20
12.722931
 30
0.0
 10
69.620391
 20
12.752861
 30
0.0
 10
69.718217
 20
12.782790
 30
0.0
 10
69.805326
 20
12.819609
 30
0.0
 10
69.892436
 20
12.856428
 30
0.0
 10
69.979547
 20
12.893246
 30
0.0
 10
70.066657
 20
12.930065
 30
0.0
 10
70.143051
 20
12.973773
 30
0.0
 10
70.219445
 20
13.017482
 30
0.0
 10
70.295839
 20
13.061190
 30
0.0
 10
70.372234
 20
13.104897
 30
0.0
 10
70.439441
 20
13.155800
 30
0.0
 10
70.506646
 20
13.206704
 30
0.0
 10
70.573852
 20
13.257606
 30
0.0
 10
70.641058
 20
13.308509
 30
0.0
 10
70.700610
 20
13.366914
 30
0.0
 10
70.760162
 20
13.425318
 30
0.0
 10
70.819715
 20
13.483723
 30
0.0
 10
70.879267
 20
13.542127
 30
0.0
 10
70.931166
 20
13.608033
 30
0.0
 10
70.983064
 20
13.673940
 30
0.0
 10
71.034963
 20
13.739846
 30
0.0
 10
71.086862
 20
13.805752
 30
0.0
 10
71.131107
 20
13.879161
 30
0.0
 10
71.175352
 20
13.952569
 30
0.0
 10
71.219597
 20
14.025976
 30
0.0
 10
71.263843
 20
14.099384
 30
0.0
 10
71.299206
 20
14.177461
 30
0.0
 10
71.334569
 20
14.255538
 30
0.0
 10
71.369932
 20
14.333614
 30
0.0
 10
71.405294
 20
14.411691
 30
0.0
 10
71.430553
 20
14.491605
 30
0.0
 10
71.455814
 20
14.571519
 30
0.0
 10
71.481073
 20
14.651432
 30
0.0
 10
71.506333
 20
14.731346
 30
0.0
 10
71.521489
 20
14.813098
 30
0.0
 10
71.536646
 20
14.894850
 30
0.0
 10
71.551802
 20
14.976600
 30
0.0
 10
71.566960
 20
15.058352
 30
0.0
 10
71.572012
 20
15.141941
 30
0.0
 10
71.577064
 20
15.225530
 30
0.0
 10
71.582116
 20
15.309119
 30
0.0
 10
71.587168
 20
15.392708
 30
0.0
 10
71.577287
 20
15.511277
 30
0.0
 10
71.567407
 20
15.629846
 30
0.0
 10
71.557537
 20
15.748416
 30
0.0
 10
71.547656
 20
15.866984
 30
0.0
 10
71.518032
 20
15.970398
 30
0.0
 10
71.488408
 20
16.073812
 30
0.0
 10
71.458785
 20
16.177225
 30
0.0
 10
71.429161
 20
16.280639
 30
0.0
 10
71.379789
 20
16.368897
 30
0.0
 10
71.330417
 20
16.457155
 30
0.0
 10
71.281045
 20
16.545413
 30
0.0
 10
71.231674
 20
16.633670
 30
0.0
 10
71.162554
 20
16.706772
 30
0.0
 10
71.093434
 20
16.779875
 30
0.0
 10
71.024315
 20
16.852977
 30
0.0
 10
70.955195
 20
16.926079
 30
0.0
 10
70.858363
 20
16.983411
 30
0.0
 10
70.761531
 20
17.040743
 30
0.0
 10
70.664699
 20
17.098075
 30
0.0
 10
70.567867
 20
17.155407
 30
0.0
 10
70.435365
 20
17.196359
 30
0.0
 10
70.302864
 20
17.237311
 30
0.0
 10
70.170362
 20
17.278263
 30
0.0
 10
70.037860
 20
17.319215
 30
0.0
 10
69.869689
 20
17.343788
 30
0.0
 10
69.701517
 20
17.368360
 30
0.0
 10
69.533345
 20
17.392931
 30
0.0
 10
69.365174
 20
17.417503
 30
0.0
 10
69.161333
 20
17.425696
 30
0.0
 10
68.957493
 20
17.433889
 30
0.0
 10
68.753651
 20
17.442082
 30
0.0
 10
68.549811
 20
17.450275
 30
0.0
 10
68.322009
 20
17.450275
 30
0.0
 10
68.094208
 20
17.450275
 30
0.0
 10
67.866407
 20
17.450275
 30
0.0
 10
67.638606
 20
17.450275
 30
0.0
 10
67.410804
 20
17.450275
 30
0.0
 10
67.183003
 20
17.450275
 30
0.0
 10
66.955202
 20
17.450275
 30
0.0
 10
66.727401
 20
17.450275
 30
0.0
 10
66.499599
 20
17.450275
 30
0.0
 10
66.271798
 20
17.450275
 30
0.0
 10
66.043997
 20
17.450275
 30
0.0
 10
65.816196
 20
17.450275
 30
0.0
 10
65.588394
 20
17.450275
 30
0.0
 10
65.360592
 20
17.450275
 30
0.0
 10
65.132792
 20
17.450275
 30
0.0
 10
64.904990
 20
17.450275
 30
0.0
 10
64.840079
 20
17.139804
 30
0.0
 10
64.775168
 20
16.829333
 30
0.0
 10
64.710257
 20
16.518862
 30
0.0
 10
64.645346
 20
16.208391
 30
0.0
 10
64.580435
 20
15.897919
 30
0.0
 10
64.515523
 20
15.587449
 30
0.0
 10
64.450612
 20
15.276978
 30
0.0
 10
64.385701
 20
14.966507
 30
0.0
 10
64.320790
 20
14.656036
 30
0.0
 10
64.255879
 20
14.345565
 30
0.0
 10
64.190969
 20
14.035094
 30
0.0
 10
64.126058
 20
13.724623
 30
0.0
 10
64.061146
 20
13.414152
 30
0.0
 10
63.996235
 20
13.103682
 30
0.0
 10
63.931324
 20
12.793211
 30
0.0
 10
63.866426
 20
12.482679
 30
0.0
  0
LWPOLYLINE
  5
12a
100
AcDbEntity
  8
text
 62
7
100
AcDbPolyline
 90
9
 70
0
 10
90.357030
 20
10.856227
 30
0.0
 10
93.012261
 20
23.583702
 30
0.0
 10
88.299470
 20
23.583702
 30
0.0
 10
88.642396
 20
25.219952
 30
0.0
 10
99.949175
 20
25.219952
 30
0.0
 10
99.606249
 20
23.583702
 30
0.0
 10
94.932649
 20
23.583702
 30
0.0
 10
92.277418
 20
10.856227
 30
0.0
 10
90.357030
 20
10.856227
 30
0.0
  0
LWPOLYLINE
  5
12b
100
AcDbEntity
  8
text
 62
7
100
AcDbPolyline
 90
5
 70
0
 10
54.674978
 20
16.615731
 30
0.0
 10
55.100976
 20
18.574569
 30
0.0
 10
61.289154
 20
18.574569
 30
0.0
 10
60.874367
 20
16.615731
 30
0.0
 10
54.674978
 20
16.615731
 30
0.0
  0
ENDSEC
  0
SECTION
  2
OBJECTS
  0
DICTIONARY
  5
C
330
0
100
AcDbDictionary
  3
ACAD_GROUP
350
D
  3
ACAD_MLINESTYLE
350
17
  0
DICTIONARY
  5
D
330
C
100
AcDbDictionary
  0
DICTIONARY
  5
1A
330
C
100
AcDbDictionary
  0
DICTIONARY
  5
17
330
C
100
AcDbDictionary
  3
STANDARD
350
18
  0
DICTIONARY
  5
19
330
C
100
AcDbDictionary
  0
ENDSEC
  0
EOF
