<?xml version="1.0" encoding="UTF-8" standalone="no"?>
<!-- Created with Inkscape (http://www.inkscape.org/) -->

<svg
   xmlns:dc="http://purl.org/dc/elements/1.1/"
   xmlns:cc="http://creativecommons.org/ns#"
   xmlns:rdf="http://www.w3.org/1999/02/22-rdf-syntax-ns#"
   xmlns:svg="http://www.w3.org/2000/svg"
   xmlns="http://www.w3.org/2000/svg"
   xmlns:sodipodi="http://sodipodi.sourceforge.net/DTD/sodipodi-0.dtd"
   xmlns:inkscape="http://www.inkscape.org/namespaces/inkscape"
   width="35.433071"
   height="12.401574"
   id="svg2"
   version="1.1"
   inkscape:version="0.48.4 r9939"
   sodipodi:docname="assbot_logo-outline-small.svg"
   inkscape:export-filename="C:\Documents and Settings\martins\My Documents\assbot_logo.png"
   inkscape:export-xdpi="90"
   inkscape:export-ydpi="90">
  <defs
     id="defs4" />
  <sodipodi:namedview
     id="base"
     pagecolor="#ffffff"
     bordercolor="#666666"
     borderopacity="1.0"
     inkscape:pageopacity="0.0"
     inkscape:pageshadow="2"
     inkscape:zoom="39.990889"
     inkscape:cx="17.466479"
     inkscape:cy="6.2007871"
     inkscape:document-units="px"
     inkscape:current-layer="layer1"
     showgrid="true"
     inkscape:window-width="1920"
     inkscape:window-height="1017"
     inkscape:window-x="-9"
     inkscape:window-y="-9"
     inkscape:window-maximized="1"
     inkscape:snap-bbox="false"
     inkscape:snap-grids="true"
     units="mm"
     inkscape:snap-global="false">
    <inkscape:grid
       type="xygrid"
       id="grid2985"
       empspacing="5"
       visible="true"
       enabled="true"
       snapvisiblegridlinesonly="true"
       units="mm"
       spacingx="2mm"
       spacingy="2mm"
       dotted="false" />
  </sodipodi:namedview>
  <metadata
     id="metadata7">
    <rdf:RDF>
      <cc:Work
         rdf:about="">
        <dc:format>image/svg+xml</dc:format>
        <dc:type
           rdf:resource="http://purl.org/dc/dcmitype/StillImage" />
        <dc:title></dc:title>
      </cc:Work>
    </rdf:RDF>
  </metadata>
  <g
     inkscape:groupmode="layer"
     id="layer2"
     inkscape:label="logo"
     style="display:inline"
     transform="translate(0,-731.69293)">
    <path
       sodipodi:type="arc"
       style="fill:none;stroke:#000000;stroke-width:4.6062994;stroke-miterlimit:4;stroke-opacity:1;stroke-dasharray:none"
       id="path3024"
       sodipodi:cx="-17.716536"
       sodipodi:cy="-124.01575"
       sodipodi:rx="17.716536"
       sodipodi:ry="17.716536"
       d="m 0,-124.01575 c 0,9.78458 -7.9319632,17.71654 -17.716536,17.71654 -9.784572,0 -17.716535,-7.93196 -17.716535,-17.71654 0,-9.78457 7.931963,-17.71653 17.716535,-17.71653 9.7845728,0 17.716536,7.93196 17.716536,17.71653 z"
       transform="matrix(0.26548672,0,0,0.26548672,-27.717755,419.67651)" />
  </g>
  <g
     inkscape:label="text"
     inkscape:groupmode="layer"
     id="layer1"
     transform="translate(0,-1039.9606)"
     style="display:inline">
    <g
       transform="translate(-303.25684,137.49011)"
       style="display:inline;fill:#000000;fill-opacity:1"
       id="g3026">
      <path
         inkscape:connector-curvature="0"
         id="path3212"
         d="m 328.98786,596.77705 c -0.0926,0.15934 -0.16604,0.33952 -0.18818,0.52324 -0.0291,0.23538 -0.1509,0.45557 -0.2211,0.68372 -0.22576,0.61526 -0.43795,1.23699 -0.697,1.83723 -0.0443,0.11127 -0.0822,0.22459 -0.12148,0.33718 0.003,-0.36841 -0.0478,-0.75011 -4.9e-4,-1.1106 0.0393,-0.14594 0.0504,-0.31408 0.009,-0.45854 -0.0862,-0.0737 -0.17741,0.0673 -0.23072,0.1273 -0.0577,0.134 -0.0449,0.30144 -0.003,0.43766 0.069,0.15526 0.0233,0.34374 0.0431,0.51097 0.0117,0.55823 0.0291,1.11905 -0.0175,1.67436 -0.006,0.13954 0.0116,0.28053 0.0233,0.42035 -0.18148,-0.23595 -0.41627,-0.43494 -0.57696,-0.68337 0.0204,-0.15818 -0.15235,-0.24528 -0.23741,-0.35108 -0.0679,0.13109 -0.26421,0.31773 -0.10225,0.45592 0.0475,0.0574 0.13255,0.16983 0.21032,0.0903 0.27907,0.3412 0.60236,0.65138 0.85186,1.01359 0.0757,0.20508 0.22547,0.3729 0.39595,0.50757 -0.38051,0.0516 -0.76246,0.14128 -1.14192,0.17361 -0.0262,-0.13137 -0.1975,-0.0498 -0.28402,-0.0443 -0.0839,0.009 -0.18265,0.0332 -0.19138,0.13341 -0.009,0.0848 -0.10779,0.22343 -0.006,0.28111 0.12934,0.0204 0.28548,0.0146 0.39489,-0.0641 0.0291,-0.11302 0.17711,-0.0792 0.26392,-0.11069 0.44829,-0.0556 0.89693,-0.15264 1.34848,-0.18935 0.38994,0.0399 0.79593,-0.0116 1.14205,-0.20857 0.41765,-0.20333 0.7865,-0.52697 1.10472,-0.84164 -0.35388,0.69237 -0.67326,1.40575 -1.03809,2.09288 -0.13604,0.0349 -0.17362,0.21556 -0.24353,0.32291 -0.0658,0.17478 -0.21207,0.33741 -0.20508,0.53052 0.037,0.0862 0.1372,0.17187 0.23304,0.16342 0.1442,-0.10021 0.17333,-0.30313 0.26451,-0.44535 0.0425,-0.13312 0.17099,-0.26188 0.14623,-0.40756 -0.0466,-0.0859 0.0632,-0.18265 0.0822,-0.268 0.44499,-0.8881 0.86625,-1.79592 1.32214,-2.67737 0.24207,-0.39073 0.48053,-0.79136 0.6432,-1.22226 -0.0233,0.68632 -0.0559,1.37735 -0.0833,2.06264 -0.0146,0.074 -0.11127,0.0996 -0.10341,0.18876 -0.0204,0.25198 -0.0478,0.51084 -0.0146,0.7606 0.0827,0.074 0.2144,-0.006 0.30726,-0.0309 0.1643,-0.0463 0.0967,-0.26013 0.12293,-0.38312 -0.0117,-0.17333 0.0492,-0.36524 -0.0146,-0.52924 -0.0262,-0.0408 -0.104,-0.0233 -0.0778,-0.0944 0.0402,-0.89488 0.0577,-1.79859 0.10341,-2.69485 0.0728,-0.39346 0.12323,-0.79336 0.0871,-1.19198 0.32064,0.36852 0.63318,0.74897 0.95097,1.11685 -0.11944,0.10691 0.0262,0.24732 0.0955,0.33334 0.0912,0.10516 0.18294,0.21003 0.27441,0.31508 0.1107,-0.13866 0.24819,-0.25868 0.34118,-0.41001 -0.12322,-0.18469 -0.29568,-0.33835 -0.43716,-0.51124 -0.0457,0.053 -0.0967,0.12701 -0.14303,0.0323 -0.38569,-0.44642 -0.78999,-0.88131 -1.15389,-1.34378 -0.1072,-0.18003 -0.19197,-0.37622 -0.35734,-0.51488 -0.0763,-0.0702 -0.17362,-0.15556 0.006,-0.13517 0.44249,-0.0396 0.89622,-0.0871 1.33178,-0.11943 -0.003,0.13225 0.17362,0.0781 0.2511,0.0769 0.13342,-0.0326 0.32216,0.0233 0.4214,-0.0932 0.0419,-0.10924 0.12293,-0.23712 0.0862,-0.35525 -0.11273,-0.0583 -0.26043,10e-4 -0.38499,0.003 -0.11739,0.003 -0.22925,0.0457 -0.3156,0.12468 -0.31233,0.0708 -0.6429,0.069 -0.96296,0.11274 -0.41633,0.0417 -0.82422,0.10545 -1.24052,0.0647 -0.10341,0.003 -0.20595,0.0146 -0.30724,0.0338 0.45138,-0.33171 0.90293,-0.66805 1.35943,-0.99011 0.12701,0.0204 0.22489,-0.11565 0.33072,-0.16809 0.0786,-0.0894 0.26683,-0.12468 0.27674,-0.2479 -0.009,-0.0754 0.0204,-0.26246 -0.10312,-0.24615 -0.19605,0.11652 -0.38656,0.26159 -0.53941,0.433 -0.0865,0.14536 -0.27237,0.20566 -0.39279,0.32151 -0.6058,0.43363 -1.18418,0.91227 -1.82371,1.29196 -0.52875,0.36305 -0.96725,0.84732 -1.32972,1.37353 0.16342,-0.43515 0.30173,-0.88251 0.48776,-1.30781 0.11274,-0.14711 0.16022,-0.3431 0.21032,-0.5201 0.006,-0.1372 -0.18439,-0.0513 -0.22692,0.006 z m 0.56653,0.94942 c 0.37931,-0.35359 0.87205,-0.63985 1.40169,-0.65573 0.34992,-0.006 0.71332,0.1777 0.86177,0.50288 0.10487,0.16867 0.14886,0.37098 0.1742,0.56027 0.0428,0.24353 0.009,0.49953 -0.003,0.74807 -0.0204,0.1506 -0.0233,0.30205 -0.0827,0.44444 -0.17857,0.74635 -0.55161,1.43208 -1.02093,2.03479 -0.37217,0.42445 -0.76593,0.85628 -1.28174,1.10179 -0.41059,0.21644 -0.96669,0.30497 -1.3656,0.0146 -0.39536,-0.33273 -0.47489,-0.89506 -0.45176,-1.38445 0.0641,-0.90867 0.45246,-1.77393 0.96923,-2.51334 -0.2648,0.45117 -0.40821,0.95408 -0.59782,1.43767 -0.21643,0.48496 -0.40832,1.05429 -0.21702,1.57645 0.0822,0.21702 0.28985,0.35402 0.51016,0.40375 0.22023,0.0941 0.47052,0.0848 0.6839,-0.0233 0.55805,-0.27208 0.94915,-0.79677 1.19831,-1.35188 0.2712,-0.58229 0.72534,-1.09207 0.82363,-1.74255 0.039,-0.0807 -0.0469,-0.14915 -0.12118,-0.10225 -0.15702,0.0769 -0.1273,0.29279 -0.19081,0.43087 -0.0204,0.0763 -0.0664,0.19575 -0.0982,0.23479 0.0326,-0.26742 0.0545,-0.54745 -0.0836,-0.7869 -0.10545,-0.2645 -0.40739,-0.36777 -0.67294,-0.34796 -0.37992,-0.0262 -0.7481,0.15031 -0.9997,0.43235 -0.10982,0.10516 -0.23683,0.24673 -0.32049,0.34412 0.20012,-0.47789 0.52889,-0.88903 0.83467,-1.30309 0.0146,-0.0204 0.0323,-0.0379 0.0495,-0.0559 z m -0.61818,1.36726 c 0.20246,-0.20507 0.39909,-0.43573 0.69433,-0.49297 0.19808,-0.0291 0.4179,-0.0204 0.60879,0.0507 0.20654,0.1139 0.28431,0.36946 0.27587,0.59312 -0.006,0.53635 -0.28344,1.01135 -0.49787,1.48798 -0.15818,0.33177 -0.42641,0.59773 -0.69933,0.84018 -0.21673,0.13983 -0.49362,0.25926 -0.74443,0.1305 -0.18993,-0.0501 -0.39417,-0.15002 -0.44182,-0.36098 -0.0341,-0.10895 -0.0501,-0.23071 -0.0495,-0.34065 0.0385,-0.49577 0.27266,-0.95612 0.48877,-1.39438 0.0944,-0.18994 0.20741,-0.36807 0.36515,-0.51331 z"
         style="fill:#000000;stroke:#000000;stroke-width:0.03147656000000000;stroke-opacity:1;display:inline;fill-opacity:1"
         transform="translate(0,308.26769)" />
      <g
         transform="matrix(0.03147656,0,0,0.03147656,303.15383,889.50706)"
         id="text3917"
         style="font-size:345.45397948999999000px;font-style:oblique;font-variant:normal;font-weight:normal;font-stretch:normal;text-align:start;line-height:125%;letter-spacing:0px;word-spacing:0px;writing-mode:lr-tb;text-anchor:start;fill:#000000;stroke:none;font-family:Sans;-inkscape-font-specification:Sans Oblique;fill-opacity:1">
        <path
           style="fill:#000000;stroke:#000000;stroke-opacity:1;fill-opacity:1"
           inkscape:connector-curvature="0"
           id="path3003"
           d="m 58.426085,768.89758 140.172005,-247.28297 38.96477,0 40.82025,247.28297 -32.04895,0 -11.97619,-71.18241 -100.02647,0 -39.639495,71.18241 z m 90.074425,-96.65289 81.80917,0 -9.61469,-62.07376 c -3.71108,-24.62691 -6.01635,-45.14947 -6.91582,-61.56773 -5.62277,14.16922 -13.83179,30.98084 -24.62709,50.43493 z" />
      </g>
      <g
         transform="matrix(0.03147656,0,0,0.03147656,303.46859,889.50706)"
         id="text3921"
         style="font-size:281.21038818000000000px;font-style:oblique;font-variant:normal;font-weight:normal;font-stretch:normal;text-align:start;line-height:125%;letter-spacing:0px;word-spacing:0px;writing-mode:lr-tb;text-anchor:start;fill:#000000;stroke:#000000;stroke-opacity:1;font-family:Sans;-inkscape-font-specification:Sans Oblique;fill-opacity:1">
        <path
           style="fill:#000000;stroke:#000000;stroke-opacity:1;fill-opacity:1"
           inkscape:connector-curvature="0"
           id="path3006"
           d="m 267.55575,663.03315 26.36347,-2.47157 -0.27462,7.0028 c -4e-5,7.78094 1.78498,14.89815 5.35508,21.35166 3.57,6.4536 9.47432,11.44251 17.71296,14.96677 8.23851,3.5243 18.03326,5.28644 29.38429,5.28642 16.1109,2e-5 28.40011,-3.52426 36.86767,-10.57285 8.46729,-7.04853 12.70101,-15.10403 12.70115,-24.16652 -1.4e-4,-6.31618 -2.24287,-12.08319 -6.72817,-17.30102 -4.57713,-5.12616 -17.07231,-12.08318 -37.48557,-20.87109 -15.83648,-6.86539 -26.63817,-12.12892 -32.4051,-15.79062 -9.06251,-5.94998 -15.74491,-12.42641 -20.04723,-19.42933 -4.30242,-7.00267 -6.4536,-14.98951 -6.45356,-23.96055 -4e-5,-10.34385 2.83769,-19.6809 8.51321,-28.0112 5.67541,-8.32993 13.98264,-14.69195 24.92172,-19.08605 10.93892,-4.39371 23.2739,-6.59067 37.00498,-6.59087 16.3855,2e-4 30.208,2.7464 41.46755,8.23858 11.25923,5.49259 19.42915,12.81577 24.50979,21.96957 5.08028,9.15415 7.6205,17.89619 7.62069,26.22616 -1.9e-4,0.82401 -0.046,2.1971 -0.13731,4.11929 l -25.95154,2.05965 c -1.7e-4,-5.67532 -0.50363,-10.115 -1.51041,-13.31905 -1.83096,-5.58377 -4.66869,-10.29806 -8.5132,-14.1429 -3.84483,-3.8445 -9.13125,-6.93397 -15.85928,-9.26841 -6.72831,-2.33409 -14.25745,-3.50122 -22.58746,-3.5014 -14.64647,1.8e-4 -26.04317,3.29561 -34.19013,9.8863 -6.22478,5.03486 -9.33713,11.71726 -9.33706,20.04723 -7e-5,4.9433 1.28148,9.36009 3.84467,13.25039 2.56304,3.89058 7.1858,7.71236 13.86829,11.46536 4.75998,2.65478 16.06513,7.91832 33.91551,15.79063 14.46316,6.40789 24.44099,11.44258 29.93353,15.10407 7.32302,4.8517 12.95272,10.73313 16.8891,17.6443 3.93604,6.91133 5.90414,14.76087 5.90432,23.54863 -1.8e-4,10.89328 -3.3185,20.93977 -9.95496,30.13949 -6.6368,9.19977 -15.81366,16.31699 -27.53061,21.35167 -11.71722,5.03469 -25.1278,7.55203 -40.23176,7.55203 -22.79349,0 -41.39895,-4.96603 -55.81642,-14.8981 -14.41755,-9.93206 -21.67207,-27.80519 -21.76359,-53.61947 z" />
      </g>
      <g
         transform="matrix(0.03147656,0,0,0.03147656,304.09812,889.50706)"
         id="text3925"
         style="font-size:234.34199523999999000px;font-style:oblique;font-variant:normal;font-weight:normal;font-stretch:normal;text-align:start;line-height:125%;letter-spacing:0px;word-spacing:0px;writing-mode:lr-tb;text-anchor:start;fill:#000000;stroke:#000000;stroke-opacity:1;font-family:Sans;-inkscape-font-specification:Sans Oblique;fill-opacity:1">
        <path
           style="fill:#000000;stroke:#000000;stroke-opacity:1;fill-opacity:1"
           inkscape:connector-curvature="0"
           id="path3009"
           d="m 419.37857,639.33869 21.96956,-2.05964 -0.22885,5.83566 c -4e-5,6.48412 1.48748,12.41513 4.46257,17.79306 2.975,5.37799 7.89526,9.53542 14.7608,12.4723 6.86542,2.93692 15.02772,4.40537 24.48691,4.40536 13.42574,10e-6 23.66675,-2.93689 30.72306,-8.81071 7.05607,-5.87378 10.58417,-12.58669 10.58429,-20.13877 -1.2e-4,-5.26349 -1.86906,-10.06933 -5.60682,-14.41752 -3.81427,-4.2718 -14.22692,-10.06932 -31.23797,-17.39257 -13.19706,-5.72116 -22.19847,-10.10744 -27.00425,-13.15886 -7.55209,-4.95831 -13.12076,-10.35534 -16.70602,-16.1911 -3.58535,-5.83556 -5.378,-12.49126 -5.37797,-19.96713 -3e-5,-8.61987 2.36474,-16.40075 7.09434,-23.34266 4.72951,-6.94162 11.6522,-12.24329 20.7681,-15.90505 9.11577,-3.66142 19.39492,-5.49222 30.83749,-5.49239 13.65458,1.7e-4 25.17333,2.28866 34.55629,6.86549 9.38269,4.57715 16.19096,10.6798 20.42482,18.30797 4.23357,7.62845 6.35042,14.91349 6.35058,21.85513 -1.6e-4,0.68667 -0.0383,1.83092 -0.11442,3.43275 l -21.62629,1.71637 c -1.4e-4,-4.72944 -0.41969,-8.42917 -1.25867,-11.09921 -1.5258,-4.65314 -3.89058,-8.58172 -7.09434,-11.78575 -3.20402,-3.20375 -7.60937,-5.77831 -13.21607,-7.72368 -5.60692,-1.94507 -11.88121,-2.91768 -18.82288,-2.91783 -12.20539,1.5e-4 -21.70264,2.74635 -28.49177,8.23859 -5.18732,4.19571 -7.78095,9.76438 -7.78089,16.70602 -6e-5,4.11941 1.06791,7.80008 3.2039,11.04199 2.13586,3.24215 5.98816,6.42697 11.5569,9.55447 3.96665,2.21232 13.38762,6.5986 28.26293,13.15886 12.05263,5.33991 20.36749,9.53548 24.9446,12.58672 6.10253,4.04309 10.79394,8.94428 14.07425,14.70359 3.28004,5.75944 4.92012,12.30072 4.92027,19.62385 -1.5e-4,9.07774 -2.76541,17.44982 -8.2958,25.11625 -5.53066,7.66647 -13.17804,13.59749 -22.94217,17.79306 -9.76436,4.19557 -20.93983,6.29336 -33.52647,6.29336 -18.99458,0 -34.49912,-4.13836 -46.51368,-12.41509 -12.01463,-8.27671 -18.06006,-23.17099 -18.13633,-44.68289 z" />
      </g>
      <g
         transform="matrix(0.03147656,0,0,0.03147656,304.85356,889.50706)"
         id="text3929"
         style="font-size:197.40228271000001000px;font-style:oblique;font-variant:normal;font-weight:normal;font-stretch:normal;text-align:start;line-height:125%;letter-spacing:0px;word-spacing:0px;writing-mode:lr-tb;text-anchor:start;fill:#000000;stroke:#000000;stroke-opacity:1;font-family:Sans;-inkscape-font-specification:Sans Oblique;fill-opacity:1">
        <path
           style="fill:#000000;stroke:#000000;stroke-opacity:1;fill-opacity:1"
           inkscape:connector-curvature="0"
           id="path3015"
           d="m 609.95278,662.59839 29.59107,-141.30457 43.76008,0 c 7.96797,1.5e-4 13.87975,0.32144 17.73536,0.96388 6.29723,1.09254 11.61462,3.00423 15.95218,5.73508 4.33734,2.73112 7.69484,6.45811 10.07253,11.18099 2.37744,4.72312 3.56622,9.94412 3.56635,15.66302 -1.3e-4,7.77539 -2.13672,14.61892 -6.40979,20.53061 -4.27331,5.91187 -10.81161,10.40996 -19.61492,13.4943 7.64665,2.50615 13.36566,6.28134 17.15703,11.32557 3.79113,5.04435 5.68676,10.94007 5.68688,17.68716 -1.2e-4,7.77533 -2.23311,15.22931 -6.69895,22.36198 -4.46609,7.13272 -10.37787,12.64288 -17.73536,16.53051 -7.3577,3.88765 -15.56672,5.83147 -24.62709,5.83147 z m 35.85628,-80.96578 28.62719,0 c 13.68698,8e-5 23.53459,-2.18471 29.54287,-6.55437 6.00806,-4.36949 9.01215,-10.73108 9.01226,-19.0848 -1.1e-4,-3.98391 -0.93186,-7.42174 -2.79525,-10.31349 -1.8636,-2.89152 -4.35362,-4.99598 -7.47006,-6.31341 -3.11663,-1.31717 -8.98022,-1.97582 -17.59078,-1.97595 l -30.073,0 z m -13.59069,64.9654 32.19354,0 c 8.54632,10e-6 14.29745,-0.28915 17.25342,-0.86749 5.97596,-1.02812 10.82748,-2.77917 14.55457,-5.25314 3.72689,-2.47393 6.65065,-5.73505 8.77129,-9.78336 2.12043,-4.04826 3.18069,-8.28932 3.1808,-12.7232 -1.1e-4,-6.61858 -2.07245,-11.64681 -6.21702,-15.08469 -4.14477,-3.43777 -12.0325,-5.15669 -23.66321,-5.15675 l -35.85628,0 z" />
      </g>
      <g
         transform="matrix(0.03147656,0,0,0.03147656,305.42015,889.50706)"
         id="text3933"
         style="font-size:197.40228271000001000px;font-style:oblique;font-variant:normal;font-weight:normal;font-stretch:normal;text-align:start;line-height:125%;letter-spacing:0px;word-spacing:0px;writing-mode:lr-tb;text-anchor:start;fill:#000000;stroke:#000000;stroke-opacity:1;font-family:Sans;-inkscape-font-specification:Sans Oblique;fill-opacity:1">
        <path
           style="fill:#000000;stroke:#000000;stroke-opacity:1;fill-opacity:1"
           inkscape:connector-curvature="0"
           id="path3018"
           d="m 874.8223,662.59839 26.1211,-125.2078 -46.36255,0 3.37357,-16.09677 111.23156,0 -3.37357,16.09677 -45.977,0 -26.1211,125.2078 z" />
      </g>
      <g
         id="text3937"
         style="font-size:221.91719054999999000px;font-style:oblique;font-variant:normal;font-weight:normal;font-stretch:normal;text-align:start;line-height:125%;letter-spacing:0px;word-spacing:0px;writing-mode:lr-tb;text-anchor:start;fill:#000000;stroke:#000000;stroke-opacity:1;font-family:Sans;-inkscape-font-specification:Sans Oblique;fill-opacity:1"
         transform="matrix(0.03203606,0,0,0.03092684,304.53881,889.50706)">
        <path
           style="fill:#000000;stroke:#000000;stroke-opacity:1;fill-opacity:1"
           inkscape:connector-curvature="0"
           id="path3012"
           d="m 542.15961,616.70938 4.11761,-19.6128 59.81361,0 -4.00924,19.6128 z" />
      </g>
    </g>
  </g>
</svg>
