  0
SECTION
  2
HEADER
  9
$ACADVER
  1
AC1014
  9
$HANDSEED
  5
FFFF
  9
$MEASUREMENT
 70
     1
  0
ENDSEC
  0
SECTION
  2
TABLES
  0
TABLE
  2
VPORT
  5
8
330
0
100
AcDbSymbolTable
 70
     4
  0
VPORT
  5
2E
330
8
100
AcDbSymbolTableRecord
100
AcDbViewportTableRecord
  2
*ACTIVE
 70
     0
 10
0.0
 20
0.0
 11
1.0
 21
1.0
 12
210.0
 22
148.5
 13
0.0
 23
0.0
 14
10.0
 24
10.0
 15
10.0
 25
10.0
 16
0.0
 26
0.0
 36
1.0
 17
0.0
 27
0.0
 37
0.0
 40
341.0
 41
1.24
 42
50.0
 43
0.0
 44
0.0
 50
0.0
 51
0.0
 71
     0
 72
   100
 73
     1
 74
     3
 75
     0
 76
     0
 77
     0
 78
     0
  0
ENDTAB
  0
TABLE
  2
LTYPE
  5
5
330
0
100
AcDbSymbolTable
 70
     1
  0
LTYPE
  5
14
330
5
100
AcDbSymbolTableRecord
100
AcDbLinetypeTableRecord
  2
BYBLOCK
 70
     0
  3

 72
    65
 73
     0
 40
0.0
  0
LTYPE
  5
15
330
5
100
AcDbSymbolTableRecord
100
AcDbLinetypeTableRecord
  2
BYLAYER
 70
     0
  3

 72
    65
 73
     0
 40
0.0
  0
LTYPE
  5
16
330
5
100
AcDbSymbolTableRecord
100
AcDbLinetypeTableRecord
  2
CONTINUOUS
 70
     0
  3
Solid line
 72
    65
 73
     0
 40
0.0
  0
ENDTAB
  0
TABLE
  2
LAYER
  5
2
100
AcDbSymbolTable
 70
3
  0
LAYER
  5
50
100
AcDbSymbolTableRecord
100
AcDbLayerTableRecord
  2
0
 70
0
  6
CONTINUOUS
  0
LAYER
  5
51
100
AcDbSymbolTableRecord
100
AcDbLayerTableRecord
  2
logo
 70
0
  6
CONTINUOUS
  0
LAYER
  5
52
100
AcDbSymbolTableRecord
100
AcDbLayerTableRecord
  2
text
 70
0
  6
CONTINUOUS
  0
ENDTAB
  0
TABLE
  2
STYLE
  5
3
330
0
100
AcDbSymbolTable
 70
     1
  0
STYLE
  5
11
330
3
100
AcDbSymbolTableRecord
100
AcDbTextStyleTableRecord
  2
STANDARD
 70
     0
 40
0.0
 41
1.0
 50
0.0
 71
     0
 42
2.5
  3
txt
  4

  0
ENDTAB
  0
TABLE
  2
VIEW
  5
6
330
0
100
AcDbSymbolTable
 70
     0
  0
ENDTAB
  0
TABLE
  2
UCS
  5
7
330
0
100
AcDbSymbolTable
 70
     0
  0
ENDTAB
  0
TABLE
  2
APPID
  5
9
330
0
100
AcDbSymbolTable
 70
     2
  0
APPID
  5
12
330
9
100
AcDbSymbolTableRecord
100
AcDbRegAppTableRecord
  2
ACAD
 70
     0
  0
ENDTAB
  0
TABLE
  2
DIMSTYLE
  5
A
330
0
100
AcDbSymbolTable
 70
     1
  0
DIMSTYLE
105
27
330
A
100
AcDbSymbolTableRecord
100
AcDbDimStyleTableRecord
  2
ISO-25
 70
     0
  3

  4

  5

  6

  7

 40
1.0
 41
2.5
 42
0.625
 43
3.75
 44
1.25
 45
0.0
 46
0.0
 47
0.0
 48
0.0
140
2.5
141
2.5
142
0.0
143
0.03937007874016
144
1.0
145
0.0
146
1.0
147
0.625
 71
     0
 72
     0
 73
     0
 74
     0
 75
     0
 76
     0
 77
     1
 78
     8
170
     0
171
     3
172
     1
173
     0
174
     0
175
     0
176
     0
177
     0
178
     0
270
     2
271
     2
272
     2
273
     2
274
     3
340
11
275
     0
280
     0
281
     0
282
     0
283
     0
284
     8
285
     0
286
     0
287
     3
288
     0
  0
ENDTAB
  0
TABLE
  2
BLOCK_RECORD
  5
1
330
0
100
AcDbSymbolTable
 70
     1
  0
BLOCK_RECORD
  5
1F
330
1
100
AcDbSymbolTableRecord
100
AcDbBlockTableRecord
  2
*MODEL_SPACE
  0
BLOCK_RECORD
  5
1B
330
1
100
AcDbSymbolTableRecord
100
AcDbBlockTableRecord
  2
*PAPER_SPACE
  0
ENDTAB
  0
ENDSEC
  0
SECTION
  2
BLOCKS
  0
BLOCK
  5
20
330
1F
100
AcDbEntity
  8
0
100
AcDbBlockBegin
  2
*MODEL_SPACE
 70
     0
 10
0.0
 20
0.0
 30
0.0
  3
*MODEL_SPACE
  1

  0
ENDBLK
  5
21
330
1F
100
AcDbEntity
  8
0
100
AcDbBlockEnd
  0
BLOCK
  5
1C
330
1B
100
AcDbEntity
 67
     1
  8
0
100
AcDbBlockBegin
  2
*PAPER_SPACE
  1

  0
ENDBLK
  5
1D
330
1B
100
AcDbEntity
 67
     1
  8
0
100
AcDbBlockEnd
  0
ENDSEC
  0
SECTION
  2
ENTITIES
  0
LWPOLYLINE
  5
100
100
AcDbEntity
  8
text
 62
7
100
AcDbPolyline
 90
297
 70
1
 10
54.608764
 20
18.436692
 30
0.0
 10
54.391983
 20
18.240788
 30
0.0
 10
54.190643
 20
18.025808
 30
0.0
 10
54.012200
 20
17.792353
 30
0.0
 10
53.862619
 20
17.542034
 30
0.0
 10
53.666116
 20
17.225530
 30
0.0
 10
53.429318
 20
16.931818
 30
0.0
 10
53.177925
 20
16.646068
 30
0.0
 10
52.938677
 20
16.353771
 30
0.0
 10
52.276615
 20
15.564864
 30
0.0
 10
51.614203
 20
14.775945
 30
0.0
 10
50.941687
 20
13.997351
 30
0.0
 10
50.249424
 20
13.237891
 30
0.0
 10
50.125145
 20
13.096695
 30
0.0
 10
50.004576
 20
12.952536
 30
0.0
 10
49.887592
 20
12.806006
 30
0.0
 10
49.770552
 20
12.659335
 30
0.0
 10
49.959548
 20
13.210713
 30
0.0
 10
50.137794
 20
13.770134
 30
0.0
 10
50.330856
 20
14.320721
 30
0.0
 10
50.565112
 20
14.845705
 30
0.0
 10
50.692849
 20
15.050740
 30
0.0
 10
50.796898
 20
15.273554
 30
0.0
 10
50.870793
 20
15.506754
 30
0.0
 10
50.906705
 20
15.743313
 30
0.0
 10
50.793207
 20
15.828561
 30
0.0
 10
50.645881
 20
15.808015
 30
0.0
 10
50.491957
 20
15.735682
 30
0.0
 10
50.360761
 20
15.659961
 30
0.0
 10
50.224577
 20
15.474033
 30
0.0
 10
50.129358
 20
15.258162
 30
0.0
 10
50.068034
 20
15.029223
 30
0.0
 10
50.041675
 20
14.800200
 30
0.0
 10
50.018899
 20
14.536790
 30
0.0
 10
49.939936
 20
14.277513
 30
0.0
 10
49.840854
 20
14.020747
 30
0.0
 10
49.759441
 20
13.763868
 30
0.0
 10
49.474670
 20
12.933429
 30
0.0
 10
49.182062
 20
12.105559
 30
0.0
 10
48.869304
 20
11.285985
 30
0.0
 10
48.523017
 20
10.481737
 30
0.0
 10
48.448084
 20
10.275065
 30
0.0
 10
48.383069
 20
10.064330
 30
0.0
 10
48.325899
 20
9.850716
 30
0.0
 10
48.268786
 20
9.637187
 30
0.0
 10
48.108308
 20
10.077764
 30
0.0
 10
47.927709
 20
10.512781
 30
0.0
 10
47.755844
 20
10.949520
 30
0.0
 10
47.623185
 20
11.395713
 30
0.0
 10
47.667376
 20
11.617371
 30
0.0
 10
47.608634
 20
11.836798
 30
0.0
 10
47.502685
 20
12.050554
 30
0.0
 10
47.406681
 20
12.256181
 30
0.0
 10
47.197188
 20
12.093451
 30
0.0
 10
46.974108
 20
11.911841
 30
0.0
 10
46.835698
 20
11.695659
 30
0.0
 10
46.877430
 20
11.432487
 30
0.0
 10
46.923912
 20
11.304499
 30
0.0
 10
46.991676
 20
11.174620
 30
0.0
 10
47.090282
 20
11.092522
 30
0.0
 10
47.225780
 20
11.104375
 30
0.0
 10
47.470613
 20
10.454982
 30
0.0
 10
47.728705
 20
9.809258
 30
0.0
 10
47.973045
 20
9.159751
 30
0.0
 10
48.176095
 20
8.498843
 30
0.0
 10
48.210329
 20
8.160007
 30
0.0
 10
48.298283
 20
7.831614
 30
0.0
 10
48.429723
 20
7.516202
 30
0.0
 10
48.595097
 20
7.216708
 30
0.0
 10
48.001304
 20
7.334056
 30
0.0
 10
47.402967
 20
7.439579
 30
0.0
 10
46.807989
 20
7.553201
 30
0.0
 10
46.222816
 20
7.691152
 30
0.0
 10
46.181244
 20
7.846543
 30
0.0
 10
46.038869
 20
7.921671
 30
0.0
 10
45.856240
 20
7.954070
 30
0.0
 10
45.695176
 20
7.982546
 30
0.0
 10
45.561340
 20
8.005970
 30
0.0
 10
45.427860
 20
8.005970
 30
0.0
 10
45.309299
 20
7.963044
 30
0.0
 10
45.221017
 20
7.857606
 30
0.0
 10
45.131708
 20
7.730747
 30
0.0
 10
45.024652
 20
7.593136
 30
0.0
 10
44.963870
 20
7.450218
 30
0.0
 10
45.008749
 20
7.308458
 30
0.0
 10
45.201369
 20
7.219050
 30
0.0
 10
45.408875
 20
7.152813
 30
0.0
 10
45.622678
 20
7.126002
 30
0.0
 10
45.832372
 20
7.153377
 30
0.0
 10
45.957967
 20
7.241628
 30
0.0
 10
46.112142
 20
7.241459
 30
0.0
 10
46.276757
 20
7.203867
 30
0.0
 10
46.432574
 20
7.180724
 30
0.0
 10
47.128873
 20
7.034251
 30
0.0
 10
47.830164
 20
6.898954
 30
0.0
 10
48.530338
 20
6.756460
 30
0.0
 10
49.222203
 20
6.587211
 30
0.0
 10
49.792850
 20
6.352713
 30
0.0
 10
50.389776
 20
6.197575
 30
0.0
 10
51.002029
 20
6.134668
 30
0.0
 10
51.619666
 20
6.179513
 30
0.0
 10
52.341944
 20
6.302364
 30
0.0
 10
53.051603
 20
6.503278
 30
0.0
 10
53.739562
 20
6.758435
 30
0.0
 10
54.397055
 20
7.044439
 30
0.0
 10
53.510505
 20
6.202542
 30
0.0
 10
52.632494
 20
5.349723
 30
0.0
 10
51.750979
 20
4.500488
 30
0.0
 10
50.854562
 20
3.668779
 30
0.0
 10
50.650033
 20
3.632373
 30
0.0
 10
50.469046
 20
3.511638
 30
0.0
 10
50.302899
 20
3.354553
 30
0.0
 10
50.142174
 20
3.210563
 30
0.0
 10
49.930242
 20
2.998643
 30
0.0
 10
49.702116
 20
2.794201
 30
0.0
 10
49.498239
 20
2.573531
 30
0.0
 10
49.359078
 20
2.312589
 30
0.0
 10
49.390910
 20
2.161148
 30
0.0
 10
49.464115
 20
2.015465
 30
0.0
 10
49.570214
 20
1.896650
 30
0.0
 10
49.704365
 20
1.825614
 30
0.0
 10
49.945502
 20
1.943132
 30
0.0
 10
50.151374
 20
2.124770
 30
0.0
 10
50.343407
 20
2.329014
 30
0.0
 10
50.543277
 20
2.513644
 30
0.0
 10
50.700844
 20
2.678179
 30
0.0
 10
50.878751
 20
2.835631
 30
0.0
 10
51.033576
 20
3.006827
 30
0.0
 10
51.122617
 20
3.211382
 30
0.0
 10
51.151931
 20
3.348175
 30
0.0
 10
51.253571
 20
3.462306
 30
0.0
 10
51.378750
 20
3.567095
 30
0.0
 10
51.479772
 20
3.677274
 30
0.0
 10
52.609104
 20
4.757508
 30
0.0
 10
53.733686
 20
5.846434
 30
0.0
 10
54.861378
 20
6.931438
 30
0.0
 10
56.000001
 20
7.999987
 30
0.0
 10
56.565247
 20
8.452192
 30
0.0
 10
57.118027
 20
8.921979
 30
0.0
 10
57.647318
 20
9.416940
 30
0.0
 10
58.140879
 20
9.945458
 30
0.0
 10
57.733825
 20
8.944670
 30
0.0
 10
57.322333
 20
7.943797
 30
0.0
 10
56.909462
 20
6.943686
 30
0.0
 10
56.498450
 20
5.945692
 30
0.0
 10
56.419507
 20
5.866444
 30
0.0
 10
56.318017
 20
5.812793
 30
0.0
 10
56.222395
 20
5.751184
 30
0.0
 10
56.162595
 20
5.645972
 30
0.0
 10
55.993832
 20
5.284022
 30
0.0
 10
55.834322
 20
4.916089
 30
0.0
 10
55.693400
 20
4.542426
 30
0.0
 10
55.585261
 20
4.160806
 30
0.0
 10
55.701686
 20
4.052319
 30
0.0
 10
55.865626
 20
4.013119
 30
0.0
 10
56.045854
 20
4.007756
 30
0.0
 10
56.212960
 20
4.002959
 30
0.0
 10
56.424297
 20
4.064963
 30
0.0
 10
56.553557
 20
4.242001
 30
0.0
 10
56.640928
 20
4.466706
 30
0.0
 10
56.730059
 20
4.668918
 30
0.0
 10
56.829325
 20
4.928760
 30
0.0
 10
56.945465
 20
5.188377
 30
0.0
 10
57.041147
 20
5.451069
 30
0.0
 10
57.078180
 20
5.722002
 30
0.0
 10
57.041502
 20
5.785982
 30
0.0
 10
56.990384
 20
5.837375
 30
0.0
 10
56.960107
 20
5.890489
 30
0.0
 10
56.994140
 20
5.964036
 30
0.0
 10
57.528308
 20
7.268665
 30
0.0
 10
58.056639
 20
8.579502
 30
0.0
 10
58.587011
 20
9.890114
 30
0.0
 10
59.127926
 20
11.194263
 30
0.0
 10
59.437682
 20
11.741718
 30
0.0
 10
59.719913
 20
12.302804
 30
0.0
 10
59.962624
 20
12.880682
 30
0.0
 10
60.153203
 20
13.477949
 30
0.0
 10
60.424605
 20
12.758960
 30
0.0
 10
60.692205
 20
12.037261
 30
0.0
 10
60.959441
 20
11.316494
 30
0.0
 10
61.227730
 20
10.599395
 30
0.0
 10
61.078023
 20
10.464324
 30
0.0
 10
61.056009
 20
10.272920
 30
0.0
 10
61.107334
 20
10.063032
 30
0.0
 10
61.175499
 20
9.875382
 30
0.0
 10
61.254702
 20
9.671420
 30
0.0
 10
61.333809
 20
9.467486
 30
0.0
 10
61.412961
 20
9.263835
 30
0.0
 10
61.492209
 20
9.059675
 30
0.0
 10
61.736577
 20
9.195368
 30
0.0
 10
61.985147
 20
9.325416
 30
0.0
 10
62.229873
 20
9.461193
 30
0.0
 10
62.457844
 20
9.620846
 30
0.0
 10
62.356396
 20
9.955816
 30
0.0
 10
62.227906
 20
10.284604
 30
0.0
 10
62.091054
 20
10.611220
 30
0.0
 10
61.963927
 20
10.940122
 30
0.0
 10
61.866289
 20
10.884355
 30
0.0
 10
61.773192
 20
10.850347
 30
0.0
 10
61.699515
 20
10.869256
 30
0.0
 10
61.660365
 20
10.978024
 30
0.0
 10
61.324657
 20
11.842753
 30
0.0
 10
60.985598
 20
12.707510
 30
0.0
 10
60.656639
 20
13.575259
 30
0.0
 10
60.351628
 20
14.449217
 30
0.0
 10
60.294461
 20
14.774083
 30
0.0
 10
60.237302
 20
15.098847
 30
0.0
 10
60.152277
 20
15.415726
 30
0.0
 10
60.016116
 20
15.718494
 30
0.0
 10
59.943317
 20
15.864733
 30
0.0
 10
59.905923
 20
15.985186
 30
0.0
 10
59.949887
 20
16.038385
 30
0.0
 10
60.122570
 20
15.981604
 30
0.0
 10
60.801400
 20
15.804516
 30
0.0
 10
61.483494
 20
15.626970
 30
0.0
 10
62.161364
 20
15.445275
 30
0.0
 10
62.829096
 20
15.261633
 30
0.0
 10
62.833696
 20
15.108922
 30
0.0
 10
62.953494
 20
15.019402
 30
0.0
 10
63.121275
 20
14.968460
 30
0.0
 10
63.268504
 20
14.928865
 30
0.0
 10
63.490105
 20
14.875017
 30
0.0
 10
63.719456
 20
14.798873
 30
0.0
 10
63.947520
 20
14.758560
 30
0.0
 10
64.164467
 20
14.811658
 30
0.0
 10
64.296829
 20
14.952938
 30
0.0
 10
64.431807
 20
15.103250
 30
0.0
 10
64.539216
 20
15.266995
 30
0.0
 10
64.588483
 20
15.449508
 30
0.0
 10
64.428345
 20
15.562030
 30
0.0
 10
64.233490
 20
15.625643
 30
0.0
 10
64.026042
 20
15.668259
 30
0.0
 10
63.829116
 20
15.720837
 30
0.0
 10
63.651359
 20
15.763368
 30
0.0
 10
63.471055
 20
15.774656
 30
0.0
 10
63.292338
 20
15.754619
 30
0.0
 10
63.118684
 20
15.700912
 30
0.0
 10
62.621987
 20
15.788457
 30
0.0
 10
62.128809
 20
15.911503
 30
0.0
 10
61.637082
 20
16.048152
 30
0.0
 10
61.142849
 20
16.169573
 30
0.0
 10
60.507205
 20
16.326706
 30
0.0
 10
59.876766
 20
16.489398
 30
0.0
 10
59.257641
 20
16.682966
 30
0.0
 10
58.655080
 20
16.930884
 30
0.0
 10
58.500041
 20
16.978837
 30
0.0
 10
58.343453
 20
17.021068
 30
0.0
 10
58.185386
 20
17.056264
 30
0.0
 10
58.026142
 20
17.084667
 30
0.0
 10
58.871149
 20
17.333023
 30
0.0
 10
59.717350
 20
17.580464
 30
0.0
 10
60.564037
 20
17.823900
 30
0.0
 10
61.410969
 20
18.059547
 30
0.0
 10
61.596851
 20
18.015989
 30
0.0
 10
61.793865
 20
18.045275
 30
0.0
 10
61.992073
 20
18.106614
 30
0.0
 10
62.182796
 20
18.151803
 30
0.0
 10
62.372751
 20
18.214549
 30
0.0
 10
62.585820
 20
18.252062
 30
0.0
 10
62.777638
 20
18.312687
 30
0.0
 10
62.905152
 20
18.440542
 30
0.0
 10
62.951899
 20
18.585545
 30
0.0
 10
63.002493
 20
18.756453
 30
0.0
 10
62.997441
 20
18.909358
 30
0.0
 10
62.880923
 20
18.998907
 30
0.0
 10
62.528145
 20
18.920864
 30
0.0
 10
62.177972
 20
18.817904
 30
0.0
 10
61.836492
 20
18.688734
 30
0.0
 10
61.509766
 20
18.531502
 30
0.0
 10
61.283091
 20
18.400325
 30
0.0
 10
61.025890
 20
18.323707
 30
0.0
 10
60.760243
 20
18.261926
 30
0.0
 10
60.507174
 20
18.178724
 30
0.0
 10
59.382841
 20
17.848860
 30
0.0
 10
58.260166
 20
17.510837
 30
0.0
 10
57.132183
 20
17.197852
 30
0.0
 10
55.992169
 20
16.941614
 30
0.0
 10
55.034239
 20
16.635547
 30
0.0
 10
54.112558
 20
16.231487
 30
0.0
 10
53.230676
 20
15.744656
 30
0.0
 10
52.391064
 20
15.190880
 30
0.0
 10
52.861117
 20
15.750809
 30
0.0
 10
53.326307
 20
16.315849
 30
0.0
 10
53.799839
 20
16.872986
 30
0.0
 10
54.289935
 20
17.413735
 30
0.0
 10
54.519630
 20
17.593903
 30
0.0
 10
54.721977
 20
17.810785
 30
0.0
 10
54.904877
 20
18.047494
 30
0.0
 10
55.077510
 20
18.285912
 30
0.0
 10
55.072288
 20
18.432814
 30
0.0
 10
54.940183
 20
18.488790
 30
0.0
 10
54.764740
 20
18.481622
 30
0.0
 10
54.626058
 20
18.431107
 30
0.0
 10
54.626058
 20
18.431107
 30
0.0
 10
54.626058
 20
18.431107
 30
0.0
 10
54.626058
 20
18.431107
 30
0.0
 10
54.608764
 20
18.436692
 30
0.0
  0
LWPOLYLINE
  5
101
100
AcDbEntity
  8
text
 62
7
100
AcDbPolyline
 90
105
 70
1
 10
55.043855
 20
16.161956
 30
0.0
 10
55.821885
 20
16.434907
 30
0.0
 10
56.637823
 20
16.595076
 30
0.0
 10
57.463955
 20
16.610683
 30
0.0
 10
58.272401
 20
16.448589
 30
0.0
 10
58.765048
 20
16.201709
 30
0.0
 10
59.177944
 20
15.835509
 30
0.0
 10
59.472074
 20
15.374110
 30
0.0
 10
59.608204
 20
14.841472
 30
0.0
 10
59.647114
 20
14.533234
 30
0.0
 10
59.642598
 20
14.221661
 30
0.0
 10
59.606488
 20
13.913474
 30
0.0
 10
59.548906
 20
13.614178
 30
0.0
 10
59.454985
 20
13.236875
 30
0.0
 10
59.320726
 20
12.867700
 30
0.0
 10
59.165414
 20
12.504310
 30
0.0
 10
59.008253
 20
12.143405
 30
0.0
 10
58.902374
 20
11.929875
 30
0.0
 10
58.795624
 20
11.718434
 30
0.0
 10
58.673656
 20
11.516053
 30
0.0
 10
58.526020
 20
11.328375
 30
0.0
 10
57.801121
 20
10.370598
 30
0.0
 10
56.968331
 20
9.507393
 30
0.0
 10
56.048368
 20
8.735487
 30
0.0
 10
55.059343
 20
8.054089
 30
0.0
 10
54.271980
 20
7.634905
 30
0.0
 10
53.461672
 20
7.257009
 30
0.0
 10
52.621919
 20
6.965869
 30
0.0
 10
51.747620
 20
6.802349
 30
0.0
 10
51.001058
 20
6.773873
 30
0.0
 10
50.253835
 20
6.905530
 30
0.0
 10
49.578331
 20
7.220631
 30
0.0
 10
49.049381
 20
7.749346
 30
0.0
 10
48.780601
 20
8.487808
 30
0.0
 10
48.747965
 20
9.270044
 30
0.0
 10
48.891328
 20
10.053718
 30
0.0
 10
49.150315
 20
10.797459
 30
0.0
 10
49.839821
 20
12.044570
 30
0.0
 10
50.715618
 20
13.170581
 30
0.0
 10
51.735649
 20
14.172978
 30
0.0
 10
52.858388
 20
15.050006
 30
0.0
 10
52.258397
 20
14.495219
 30
0.0
 10
51.707641
 20
13.894142
 30
0.0
 10
51.179504
 20
13.271673
 30
0.0
 10
50.649796
 20
12.650417
 30
0.0
 10
50.079865
 20
12.016320
 30
0.0
 10
49.580538
 20
11.313502
 30
0.0
 10
49.226464
 20
10.542443
 30
0.0
 10
49.093267
 20
9.702916
 30
0.0
 10
49.150295
 20
9.352537
 30
0.0
 10
49.302738
 20
9.036505
 30
0.0
 10
49.527144
 20
8.762636
 30
0.0
 10
49.805948
 20
8.541656
 30
0.0
 10
50.103179
 20
8.319294
 30
0.0
 10
50.437872
 20
8.168813
 30
0.0
 10
50.797260
 20
8.093685
 30
0.0
 10
51.168661
 20
8.098201
 30
0.0
 10
52.109223
 20
8.308569
 30
0.0
 10
52.984061
 20
8.707434
 30
0.0
 10
53.783027
 20
9.252377
 30
0.0
 10
54.496064
 20
9.900274
 30
0.0
 10
55.252826
 20
10.575209
 30
0.0
 10
56.040167
 20
11.223388
 30
0.0
 10
56.772745
 20
11.919800
 30
0.0
 10
57.365564
 20
12.739966
 30
0.0
 10
57.420976
 20
12.846166
 30
0.0
 10
57.398624
 20
12.948331
 30
0.0
 10
57.320236
 20
13.020156
 30
0.0
 10
57.199770
 20
13.030316
 30
0.0
 10
56.970701
 20
12.934558
 30
0.0
 10
56.805091
 20
12.744820
 30
0.0
 10
56.665642
 20
12.520312
 30
0.0
 10
56.515542
 20
12.318975
 30
0.0
 10
56.431795
 20
12.207921
 30
0.0
 10
56.334166
 20
12.091532
 30
0.0
 10
56.238428
 20
11.989170
 30
0.0
 10
56.155799
 20
11.926065
 30
0.0
 10
56.340155
 20
12.309521
 30
0.0
 10
56.489295
 20
12.705168
 30
0.0
 10
56.570843
 20
13.113487
 30
0.0
 10
56.554672
 20
13.534760
 30
0.0
 10
56.454562
 20
13.947538
 30
0.0
 10
56.211312
 20
14.285133
 30
0.0
 10
55.871240
 20
14.539330
 30
0.0
 10
55.479086
 20
14.701552
 30
0.0
 10
54.913544
 20
14.869186
 30
0.0
 10
54.328272
 20
14.895997
 30
0.0
 10
53.748841
 20
14.793776
 30
0.0
 10
53.201324
 20
14.569330
 30
0.0
 10
52.974339
 20
14.463328
 30
0.0
 10
52.741472
 20
14.346206
 30
0.0
 10
52.519148
 20
14.228716
 30
0.0
 10
52.323819
 20
14.121867
 30
0.0
 10
52.910703
 20
14.681570
 30
0.0
 10
53.551128
 20
15.180788
 30
0.0
 10
54.222119
 20
15.642418
 30
0.0
 10
54.899913
 20
16.088998
 30
0.0
 10
54.933150
 20
16.109544
 30
0.0
 10
54.966464
 20
16.129497
 30
0.0
 10
55.001338
 20
16.146797
 30
0.0
 10
55.037014
 20
16.164098
 30
0.0
 10
55.037014
 20
16.164098
 30
0.0
 10
55.037014
 20
16.164098
 30
0.0
 10
55.037014
 20
16.164098
 30
0.0
 10
55.043855
 20
16.161956
 30
0.0
  0
LWPOLYLINE
  5
102
100
AcDbEntity
  8
text
 62
7
100
AcDbPolyline
 90
41
 70
1
 10
52.847460
 20
13.913841
 30
0.0
 10
53.258771
 20
14.110748
 30
0.0
 10
53.678777
 20
14.284512
 30
0.0
 10
54.112803
 20
14.390712
 30
0.0
 10
54.567345
 20
14.386196
 30
0.0
 10
54.877013
 20
14.307993
 30
0.0
 10
55.180984
 20
14.192507
 30
0.0
 10
55.469011
 20
14.040756
 30
0.0
 10
55.729810
 20
13.852147
 30
0.0
 10
55.908891
 20
13.542324
 30
0.0
 10
55.975642
 20
13.192284
 30
0.0
 10
55.948972
 20
12.830418
 30
0.0
 10
55.847575
 20
12.486305
 30
0.0
 10
55.469364
 20
11.750523
 30
0.0
 10
54.963681
 20
11.099549
 30
0.0
 10
54.388235
 20
10.498868
 30
0.0
 10
53.802430
 20
9.913144
 30
0.0
 10
53.362747
 20
9.544110
 30
0.0
 10
52.874940
 20
9.239140
 30
0.0
 10
52.356848
 20
8.982459
 30
0.0
 10
51.825059
 20
8.759504
 30
0.0
 10
51.415558
 20
8.691573
 30
0.0
 10
50.998625
 20
8.691601
 30
0.0
 10
50.604618
 20
8.792242
 30
0.0
 10
50.265894
 20
9.035009
 30
0.0
 10
50.019955
 20
9.231266
 30
0.0
 10
49.812301
 20
9.468192
 30
0.0
 10
49.678232
 20
9.744883
 30
0.0
 10
49.655343
 20
10.062072
 30
0.0
 10
49.671063
 20
10.242920
 30
0.0
 10
49.702776
 20
10.423542
 30
0.0
 10
49.745384
 20
10.600580
 30
0.0
 10
49.800112
 20
10.768474
 30
0.0
 10
50.184380
 20
11.443155
 30
0.0
 10
50.664658
 20
12.056142
 30
0.0
 10
51.203098
 20
12.623521
 30
0.0
 10
51.760755
 20
13.163299
 30
0.0
 10
52.007728
 20
13.385324
 30
0.0
 10
52.268871
 20
13.587903
 30
0.0
 10
52.547540
 20
13.765336
 30
0.0
 10
52.847460
 20
13.913841
 30
0.0
  0
LWPOLYLINE
  5
103
100
AcDbEntity
  8
text
 62
7
100
AcDbPolyline
 90
9
 70
1
 10
2.023263
 20
6.471898
 30
0.0
 10
8.544763
 20
17.976735
 30
0.0
 10
10.357599
 20
17.976735
 30
0.0
 10
12.256760
 20
6.471898
 30
0.0
 10
10.765683
 20
6.471898
 30
0.0
 10
10.208491
 20
9.783659
 30
0.0
 10
5.554761
 20
9.783659
 30
0.0
 10
3.710534
 20
6.471898
 30
0.0
 10
2.023263
 20
6.471898
 30
0.0
  0
LWPOLYLINE
  5
104
100
AcDbEntity
  8
text
 62
7
100
AcDbPolyline
 90
6
 70
1
 10
6.213974
 20
10.968673
 30
0.0
 10
10.020145
 20
10.968673
 30
0.0
 10
9.572821
 20
13.856654
 30
0.0
 10
9.251063
 20
16.721091
 30
0.0
 10
8.105288
 20
14.374607
 30
0.0
 10
6.213974
 20
10.968673
 30
0.0
  0
LWPOLYLINE
  5
105
100
AcDbEntity
  8
text
 62
7
100
AcDbPolyline
 90
149
 70
1
 10
12.218268
 20
11.397239
 30
0.0
 10
12.524908
 20
11.425987
 30
0.0
 10
12.831548
 20
11.454734
 30
0.0
 10
13.138188
 20
11.483482
 30
0.0
 10
13.444828
 20
11.512229
 30
0.0
 10
13.441636
 20
11.430778
 30
0.0
 10
13.438440
 20
11.349327
 30
0.0
 10
13.435244
 20
11.267875
 30
0.0
 10
13.432052
 20
11.186424
 30
0.0
 10
13.447623
 20
10.920708
 30
0.0
 10
13.494337
 20
10.666571
 30
0.0
 10
13.572195
 20
10.424015
 30
0.0
 10
13.681197
 20
10.193038
 30
0.0
 10
13.826131
 20
9.980625
 30
0.0
 10
14.011792
 20
9.793766
 30
0.0
 10
14.238179
 20
9.632461
 30
0.0
 10
14.505292
 20
9.496709
 30
0.0
 10
14.806341
 20
9.389107
 30
0.0
 10
15.134541
 20
9.312247
 30
0.0
 10
15.489892
 20
9.266131
 30
0.0
 10
15.872396
 20
9.250759
 30
0.0
 10
16.401228
 20
9.281503
 30
0.0
 10
16.863383
 20
9.373734
 30
0.0
 10
17.258861
 20
9.527453
 30
0.0
 10
17.587664
 20
9.742661
 30
0.0
 10
17.846190
 20
9.997392
 30
0.0
 10
18.030851
 20
10.269695
 30
0.0
 10
18.141649
 20
10.559567
 30
0.0
 10
18.178585
 20
10.867008
 30
0.0
 10
18.159017
 20
11.082612
 30
0.0
 10
18.100323
 20
11.288635
 30
0.0
 10
18.002503
 20
11.485077
 30
0.0
 10
17.865557
 20
11.671937
 30
0.0
 10
17.636771
 20
11.866780
 30
0.0
 10
17.269840
 20
12.093565
 30
0.0
 10
16.764764
 20
12.352293
 30
0.0
 10
16.121541
 20
12.642965
 30
0.0
 10
15.612868
 20
12.868550
 30
0.0
 10
15.192036
 20
13.066188
 30
0.0
 10
14.859045
 20
13.235879
 30
0.0
 10
14.613894
 20
13.377623
 30
0.0
 10
14.318432
 20
13.589833
 30
0.0
 10
14.064495
 20
13.811227
 30
0.0
 10
13.852084
 20
14.041807
 30
0.0
 10
13.681197
 20
14.281572
 30
0.0
 10
13.549836
 20
14.534507
 30
0.0
 10
13.456007
 20
14.804613
 30
0.0
 10
13.399710
 20
15.091889
 30
0.0
 10
13.380945
 20
15.396337
 30
0.0
 10
13.405701
 20
15.748489
 30
0.0
 10
13.479965
 20
16.083077
 30
0.0
 10
13.603738
 20
16.400100
 30
0.0
 10
13.777022
 20
16.699557
 30
0.0
 10
13.998015
 20
16.973054
 30
0.0
 10
14.264928
 20
17.212216
 30
0.0
 10
14.577758
 20
17.417042
 30
0.0
 10
14.936505
 20
17.587536
 30
0.0
 10
15.330383
 20
17.721685
 30
0.0
 10
15.748619
 20
17.817509
 30
0.0
 10
16.191211
 20
17.875006
 30
0.0
 10
16.658161
 20
17.894176
 30
0.0
 10
17.207554
 20
17.870214
 30
0.0
 10
17.712232
 20
17.798344
 30
0.0
 10
18.172193
 20
17.678564
 30
0.0
 10
18.587439
 20
17.510876
 30
0.0
 10
18.953366
 20
17.303250
 30
0.0
 10
19.265395
 20
17.063686
 30
0.0
 10
19.523525
 20
16.792183
 30
0.0
 10
19.727756
 20
16.488742
 30
0.0
 10
19.882868
 20
16.172914
 30
0.0
 10
19.993664
 20
15.864277
 30
0.0
 10
20.060144
 20
15.562829
 30
0.0
 10
20.082309
 20
15.268570
 30
0.0
 10
20.081890
 20
15.235027
 30
0.0
 10
20.080690
 20
15.191905
 30
0.0
 10
20.078694
 20
15.139203
 30
0.0
 10
20.075902
 20
15.076920
 30
0.0
 10
19.774053
 20
15.052964
 30
0.0
 10
19.472205
 20
15.029008
 30
0.0
 10
19.170356
 20
15.005051
 30
0.0
 10
18.868507
 20
14.981095
 30
0.0
 10
18.864111
 20
15.168349
 30
0.0
 10
18.850933
 20
15.334045
 30
0.0
 10
18.828974
 20
15.478183
 30
0.0
 10
18.798235
 20
15.600764
 30
0.0
 10
18.725563
 20
15.788017
 30
0.0
 10
18.635327
 20
15.960102
 30
0.0
 10
18.527525
 20
16.117017
 30
0.0
 10
18.402158
 20
16.258762
 30
0.0
 10
18.255422
 20
16.386325
 30
0.0
 10
18.083535
 20
16.500714
 30
0.0
 10
17.886496
 20
16.601931
 30
0.0
 10
17.664306
 20
16.689975
 30
0.0
 10
17.422544
 20
16.761240
 30
0.0
 10
17.166810
 20
16.812145
 30
0.0
 10
16.897103
 20
16.842691
 30
0.0
 10
16.613424
 20
16.852877
 30
0.0
 10
16.130703
 20
16.824125
 30
0.0
 10
15.704681
 20
16.737881
 30
0.0
 10
15.335356
 20
16.594145
 30
0.0
 10
15.022729
 20
16.392917
 30
0.0
 10
14.832674
 20
16.202860
 30
0.0
 10
14.696921
 20
15.984058
 30
0.0
 10
14.615471
 20
15.736511
 30
0.0
 10
14.588322
 20
15.460220
 30
0.0
 10
14.599500
 20
15.292323
 30
0.0
 10
14.633038
 20
15.133611
 30
0.0
 10
14.688936
 20
14.984086
 30
0.0
 10
14.767196
 20
14.843746
 30
0.0
 10
14.874598
 20
14.708589
 30
0.0
 10
15.017935
 20
14.574633
 30
0.0
 10
15.197208
 20
14.441876
 30
0.0
 10
15.412418
 20
14.310320
 30
0.0
 10
15.635608
 20
14.194927
 30
0.0
 10
15.972990
 20
14.034020
 30
0.0
 10
16.424566
 20
13.827598
 30
0.0
 10
16.990336
 20
13.575661
 30
0.0
 10
17.455883
 20
13.364045
 30
0.0
 10
17.843174
 20
13.176387
 30
0.0
 10
18.152211
 20
13.012687
 30
0.0
 10
18.382993
 20
12.872945
 30
0.0
 10
18.623750
 20
12.694668
 30
0.0
 10
18.834962
 20
12.498425
 30
0.0
 10
19.016632
 20
12.284217
 30
0.0
 10
19.168759
 20
12.052044
 30
0.0
 10
19.288934
 20
11.802697
 30
0.0
 10
19.374776
 20
11.536982
 30
0.0
 10
19.426284
 20
11.254897
 30
0.0
 10
19.443457
 20
10.956444
 30
0.0
 10
19.414505
 20
10.583723
 30
0.0
 10
19.327662
 20
10.225777
 30
0.0
 10
19.182928
 20
9.882604
 30
0.0
 10
18.980303
 20
9.554205
 30
0.0
 10
18.726562
 20
9.251357
 30
0.0
 10
18.428505
 20
8.984844
 30
0.0
 10
18.086131
 20
8.754664
 30
0.0
 10
17.699441
 20
8.560818
 30
0.0
 10
17.275813
 20
8.407097
 30
0.0
 10
16.822639
 20
8.297298
 30
0.0
 10
16.339921
 20
8.231420
 30
0.0
 10
15.827659
 20
8.209460
 30
0.0
 10
15.068843
 20
8.252781
 30
0.0
 10
14.383095
 20
8.382743
 30
0.0
 10
13.770414
 20
8.599348
 30
0.0
 10
13.230801
 20
8.902594
 30
0.0
 10
12.790206
 20
9.318435
 30
0.0
 10
12.474582
 20
9.872823
 30
0.0
 10
12.283930
 20
10.565757
 30
0.0
 10
12.218268
 20
11.397239
 30
0.0
  0
LWPOLYLINE
  5
106
100
AcDbEntity
  8
text
 62
7
100
AcDbPolyline
 90
149
 70
1
 10
20.212322
 20
12.499624
 30
0.0
 10
20.467855
 20
12.523580
 30
0.0
 10
20.723389
 20
12.547536
 30
0.0
 10
20.978922
 20
12.571492
 30
0.0
 10
21.234456
 20
12.595449
 30
0.0
 10
21.231794
 20
12.527572
 30
0.0
 10
21.229133
 20
12.459697
 30
0.0
 10
21.226472
 20
12.391821
 30
0.0
 10
21.223811
 20
12.323945
 30
0.0
 10
21.236786
 20
12.102514
 30
0.0
 10
21.275714
 20
11.890734
 30
0.0
 10
21.340596
 20
11.688603
 30
0.0
 10
21.431432
 20
11.496123
 30
0.0
 10
21.552210
 20
11.319112
 30
0.0
 10
21.706927
 20
11.163396
 30
0.0
 10
21.895583
 20
11.028975
 30
0.0
 10
22.118178
 20
10.915849
 30
0.0
 10
22.369051
 20
10.826179
 30
0.0
 10
22.642551
 20
10.762129
 30
0.0
 10
22.938677
 20
10.723699
 30
0.0
 10
23.257431
 20
10.710890
 30
0.0
 10
23.698123
 20
10.736510
 30
0.0
 10
24.083253
 20
10.813369
 30
0.0
 10
24.412818
 20
10.941468
 30
0.0
 10
24.686821
 20
11.120808
 30
0.0
 10
24.902258
 20
11.333086
 30
0.0
 10
25.056142
 20
11.560005
 30
0.0
 10
25.148474
 20
11.801564
 30
0.0
 10
25.179255
 20
12.057764
 30
0.0
 10
25.162948
 20
12.237435
 30
0.0
 10
25.114037
 20
12.409121
 30
0.0
 10
25.032520
 20
12.572822
 30
0.0
 10
24.918398
 20
12.728539
 30
0.0
 10
24.727743
 20
12.890907
 30
0.0
 10
24.421967
 20
13.079895
 30
0.0
 10
24.001070
 20
13.295502
 30
0.0
 10
23.465051
 20
13.537728
 30
0.0
 10
23.041157
 20
13.725716
 30
0.0
 10
22.690464
 20
13.890414
 30
0.0
 10
22.412971
 20
14.031824
 30
0.0
 10
22.208679
 20
14.149944
 30
0.0
 10
21.962460
 20
14.326785
 30
0.0
 10
21.750847
 20
14.511281
 30
0.0
 10
21.573837
 20
14.703430
 30
0.0
 10
21.431432
 20
14.903235
 30
0.0
 10
21.321964
 20
15.114014
 30
0.0
 10
21.243773
 20
15.339102
 30
0.0
 10
21.196859
 20
15.578499
 30
0.0
 10
21.181222
 20
15.832205
 30
0.0
 10
21.201851
 20
16.125666
 30
0.0
 10
21.263737
 20
16.404488
 30
0.0
 10
21.366882
 20
16.668674
 30
0.0
 10
21.511286
 20
16.918222
 30
0.0
 10
21.695446
 20
17.146136
 30
0.0
 10
21.917874
 20
17.345437
 30
0.0
 10
22.178565
 20
17.516126
 30
0.0
 10
22.477521
 20
17.658204
 30
0.0
 10
22.805753
 20
17.769995
 30
0.0
 10
23.154283
 20
17.849848
 30
0.0
 10
23.523110
 20
17.897762
 30
0.0
 10
23.912235
 20
17.913738
 30
0.0
 10
24.370063
 20
17.893770
 30
0.0
 10
24.790627
 20
17.833877
 30
0.0
 10
25.173928
 20
17.734061
 30
0.0
 10
25.519966
 20
17.594321
 30
0.0
 10
25.824905
 20
17.421299
 30
0.0
 10
26.084929
 20
17.221663
 30
0.0
 10
26.300038
 20
16.995410
 30
0.0
 10
26.470231
 20
16.742543
 30
0.0
 10
26.599491
 20
16.479353
 30
0.0
 10
26.691821
 20
16.222155
 30
0.0
 10
26.747221
 20
15.970949
 30
0.0
 10
26.765691
 20
15.725733
 30
0.0
 10
26.765366
 20
15.697781
 30
0.0
 10
26.764365
 20
15.661845
 30
0.0
 10
26.762704
 20
15.617927
 30
0.0
 10
26.760378
 20
15.566024
 30
0.0
 10
26.508838
 20
15.546061
 30
0.0
 10
26.257297
 20
15.526097
 30
0.0
 10
26.005756
 20
15.506134
 30
0.0
 10
25.754215
 20
15.486170
 30
0.0
 10
25.750554
 20
15.642216
 30
0.0
 10
25.739572
 20
15.780296
 30
0.0
 10
25.721274
 20
15.900411
 30
0.0
 10
25.695658
 20
16.002561
 30
0.0
 10
25.635098
 20
16.158606
 30
0.0
 10
25.559900
 20
16.302009
 30
0.0
 10
25.470066
 20
16.432771
 30
0.0
 10
25.365593
 20
16.550893
 30
0.0
 10
25.243314
 20
16.657195
 30
0.0
 10
25.100074
 20
16.752520
 30
0.0
 10
24.935875
 20
16.836867
 30
0.0
 10
24.750716
 20
16.910237
 30
0.0
 10
24.549248
 20
16.969625
 30
0.0
 10
24.336136
 20
17.012046
 30
0.0
 10
24.111381
 20
17.037500
 30
0.0
 10
23.874982
 20
17.045989
 30
0.0
 10
23.472714
 20
17.022029
 30
0.0
 10
23.117695
 20
16.950159
 30
0.0
 10
22.809925
 20
16.830379
 30
0.0
 10
22.549402
 20
16.662689
 30
0.0
 10
22.391023
 20
16.504308
 30
0.0
 10
22.277896
 20
16.321973
 30
0.0
 10
22.210020
 20
16.115684
 30
0.0
 10
22.187397
 20
15.885441
 30
0.0
 10
22.196711
 20
15.745527
 30
0.0
 10
22.224660
 20
15.613267
 30
0.0
 10
22.271242
 20
15.488663
 30
0.0
 10
22.336458
 20
15.371713
 30
0.0
 10
22.425960
 20
15.259082
 30
0.0
 10
22.545407
 20
15.147452
 30
0.0
 10
22.694802
 20
15.036821
 30
0.0
 10
22.874143
 20
14.927191
 30
0.0
 10
23.060134
 20
14.831031
 30
0.0
 10
23.341287
 20
14.696941
 30
0.0
 10
23.717601
 20
14.524923
 30
0.0
 10
24.189075
 20
14.314975
 30
0.0
 10
24.577030
 20
14.138628
 30
0.0
 10
24.899773
 20
13.982247
 30
0.0
 10
25.157304
 20
13.845830
 30
0.0
 10
25.349622
 20
13.729378
 30
0.0
 10
25.550253
 20
13.580814
 30
0.0
 10
25.726264
 20
13.417279
 30
0.0
 10
25.877655
 20
13.238772
 30
0.0
 10
26.004427
 20
13.045294
 30
0.0
 10
26.104574
 20
12.837505
 30
0.0
 10
26.176108
 20
12.616076
 30
0.0
 10
26.219031
 20
12.381006
 30
0.0
 10
26.233342
 20
12.132295
 30
0.0
 10
26.209216
 20
11.821694
 30
0.0
 10
26.136847
 20
11.523405
 30
0.0
 10
26.016235
 20
11.237427
 30
0.0
 10
25.847380
 20
10.963761
 30
0.0
 10
25.635930
 20
10.711388
 30
0.0
 10
25.387549
 20
10.489294
 30
0.0
 10
25.102238
 20
10.297478
 30
0.0
 10
24.779996
 20
10.135939
 30
0.0
 10
24.426972
 20
10.007839
 30
0.0
 10
24.049327
 20
9.916339
 30
0.0
 10
23.647062
 20
9.861440
 30
0.0
 10
23.220177
 20
9.843141
 30
0.0
 10
22.587831
 20
9.879242
 30
0.0
 10
22.016374
 20
9.987544
 30
0.0
 10
21.505806
 20
10.168048
 30
0.0
 10
21.056129
 20
10.420753
 30
0.0
 10
20.688966
 20
10.767287
 30
0.0
 10
20.425946
 20
11.229277
 30
0.0
 10
20.267070
 20
11.806722
 30
0.0
 10
20.212322
 20
12.499624
 30
0.0
  0
LWPOLYLINE
  5
107
100
AcDbEntity
  8
text
 62
7
100
AcDbPolyline
 90
5
 70
1
 10
27.024417
 20
14.053560
 30
0.0
 10
27.219394
 20
14.950109
 30
0.0
 10
30.051687
 20
14.950109
 30
0.0
 10
29.861841
 20
14.053560
 30
0.0
 10
27.024417
 20
14.053560
 30
0.0
  0
LWPOLYLINE
  5
108
100
AcDbEntity
  8
text
 62
7
100
AcDbPolyline
 90
74
 70
1
 10
34.906511
 20
14.201276
 30
0.0
 10
35.090050
 20
14.175765
 30
0.0
 10
35.273590
 20
14.150253
 30
0.0
 10
35.457130
 20
14.124742
 30
0.0
 10
35.640670
 20
14.099230
 30
0.0
 10
35.446719
 20
13.647970
 30
0.0
 10
35.213038
 20
13.255353
 30
0.0
 10
34.939624
 20
12.921380
 30
0.0
 10
34.626473
 20
12.646052
 30
0.0
 10
34.283280
 20
12.430820
 30
0.0
 10
33.919748
 20
12.277073
 30
0.0
 10
33.535880
 20
12.184845
 30
0.0
 10
33.131666
 20
12.154167
 30
0.0
 10
32.652593
 20
12.192724
 30
0.0
 10
32.225792
 20
12.308365
 30
0.0
 10
31.851259
 20
12.501153
 30
0.0
 10
31.529006
 20
12.771025
 30
0.0
 10
31.269898
 20
13.112780
 30
0.0
 10
31.084821
 20
13.521253
 30
0.0
 10
30.973775
 20
13.996410
 30
0.0
 10
30.936760
 20
14.538284
 30
0.0
 10
30.993052
 20
15.255186
 30
0.0
 10
31.161927
 20
15.907276
 30
0.0
 10
31.443382
 20
16.494554
 30
0.0
 10
31.837428
 20
17.017020
 30
0.0
 10
32.262926
 20
17.399497
 30
0.0
 10
32.737148
 20
17.672662
 30
0.0
 10
33.260090
 20
17.836548
 30
0.0
 10
33.831765
 20
17.891188
 30
0.0
 10
34.251704
 20
17.861479
 30
0.0
 10
34.629780
 20
17.772802
 30
0.0
 10
34.965994
 20
17.624998
 30
0.0
 10
35.260347
 20
17.418033
 30
0.0
 10
35.505023
 20
17.161175
 30
0.0
 10
35.692228
 20
16.863629
 30
0.0
 10
35.829635
 20
16.529721
 30
0.0
 10
35.894220
 20
16.146501
 30
0.0
 10
35.547954
 20
16.114208
 30
0.0
 10
35.374822
 20
16.098062
 30
0.0
 10
35.201690
 20
16.081916
 30
0.0
 10
35.132267
 20
16.363703
 30
0.0
 10
35.033758
 20
16.607450
 30
0.0
 10
34.906155
 20
16.813123
 30
0.0
 10
34.749464
 20
16.980691
 30
0.0
 10
34.565805
 20
17.110637
 30
0.0
 10
34.357309
 20
17.203479
 30
0.0
 10
34.123983
 20
17.259184
 30
0.0
 10
33.865824
 20
17.277914
 30
0.0
 10
33.381193
 20
17.221369
 30
0.0
 10
32.945286
 20
17.051799
 30
0.0
 10
32.558103
 20
16.769140
 30
0.0
 10
32.219644
 20
16.373456
 30
0.0
 10
31.981231
 20
15.965435
 30
0.0
 10
31.810937
 20
15.521021
 30
0.0
 10
31.708764
 20
15.040180
 30
0.0
 10
31.674702
 20
14.522913
 30
0.0
 10
31.700956
 20
14.120608
 30
0.0
 10
31.779717
 20
13.768907
 30
0.0
 10
31.910985
 20
13.467808
 30
0.0
 10
32.094762
 20
13.217345
 30
0.0
 10
32.320638
 20
13.020326
 30
0.0
 10
32.578208
 20
12.879594
 30
0.0
 10
32.867476
 20
12.795148
 30
0.0
 10
33.188430
 20
12.767053
 30
0.0
 10
33.469178
 20
12.790627
 30
0.0
 10
33.736208
 20
12.860864
 30
0.0
 10
33.989529
 20
12.977925
 30
0.0
 10
34.229118
 20
13.141844
 30
0.0
 10
34.446005
 20
13.348551
 30
0.0
 10
34.631198
 20
13.594073
 30
0.0
 10
34.784696
 20
13.878347
 30
0.0
 10
34.906511
 20
14.201437
 30
0.0
 10
34.906511
 20
14.201567
 30
0.0
 10
34.906511
 20
14.201276
 30
0.0
  0
LWPOLYLINE
  5
109
100
AcDbEntity
  8
text
 62
7
100
AcDbPolyline
 90
9
 70
1
 10
35.678514
 20
12.248591
 30
0.0
 10
38.823283
 20
17.796408
 30
0.0
 10
39.697461
 20
17.796408
 30
0.0
 10
40.613267
 20
12.248591
 30
0.0
 10
39.894247
 20
12.248591
 30
0.0
 10
39.625558
 20
13.845570
 30
0.0
 10
37.381459
 20
13.845570
 30
0.0
 10
36.492142
 20
12.248591
 30
0.0
 10
35.678514
 20
12.248591
 30
0.0
  0
LWPOLYLINE
  5
10a
100
AcDbEntity
  8
text
 62
7
100
AcDbPolyline
 90
6
 70
1
 10
37.699340
 20
14.416992
 30
0.0
 10
39.534734
 20
14.416992
 30
0.0
 10
39.319030
 20
15.809622
 30
0.0
 10
39.163873
 20
17.190917
 30
0.0
 10
38.611361
 20
16.059375
 30
0.0
 10
37.699340
 20
14.416992
 30
0.0
  0
LWPOLYLINE
  5
10b
100
AcDbEntity
  8
text
 62
7
100
AcDbPolyline
 90
20
 70
1
 10
41.351208
 20
12.248591
 30
0.0
 10
42.509210
 20
17.796408
 30
0.0
 10
43.421232
 20
17.796408
 30
0.0
 10
43.981313
 20
14.201276
 30
0.0
 10
44.125116
 20
12.842715
 30
0.0
 10
44.897116
 20
14.360221
 30
0.0
 10
46.842257
 20
17.796408
 30
0.0
 10
47.769415
 20
17.796408
 30
0.0
 10
46.611415
 20
12.248591
 30
0.0
 10
45.881041
 20
12.248591
 30
0.0
 10
46.460042
 20
14.946789
 30
0.0
 10
47.035259
 20
17.043306
 30
0.0
 10
46.444903
 20
15.877728
 30
0.0
 10
44.378664
 20
12.248591
 30
0.0
 10
43.663428
 20
12.248591
 30
0.0
 10
43.107132
 20
15.805844
 30
0.0
 10
42.997388
 20
16.944910
 30
0.0
 10
42.811956
 20
15.786920
 30
0.0
 10
42.074016
 20
12.248591
 30
0.0
 10
41.351208
 20
12.248591
 30
0.0
  0
ENDSEC
  0
SECTION
  2
OBJECTS
  0
DICTIONARY
  5
C
330
0
100
AcDbDictionary
  3
ACAD_GROUP
350
D
  3
ACAD_MLINESTYLE
350
17
  0
DICTIONARY
  5
D
330
C
100
AcDbDictionary
  0
DICTIONARY
  5
1A
330
C
100
AcDbDictionary
  0
DICTIONARY
  5
17
330
C
100
AcDbDictionary
  3
STANDARD
350
18
  0
DICTIONARY
  5
19
330
C
100
AcDbDictionary
  0
ENDSEC
  0
EOF
