<?xml version="1.0" encoding="UTF-8" standalone="no"?>
<!-- Created with Inkscape (http://www.inkscape.org/) -->

<svg
   xmlns:dc="http://purl.org/dc/elements/1.1/"
   xmlns:cc="http://creativecommons.org/ns#"
   xmlns:rdf="http://www.w3.org/1999/02/22-rdf-syntax-ns#"
   xmlns:svg="http://www.w3.org/2000/svg"
   xmlns="http://www.w3.org/2000/svg"
   xmlns:sodipodi="http://sodipodi.sourceforge.net/DTD/sodipodi-0.dtd"
   xmlns:inkscape="http://www.inkscape.org/namespaces/inkscape"
   width="248.03149"
   height="70.866142"
   id="svg2"
   version="1.1"
   inkscape:version="0.48.5 r10040"
   sodipodi:docname="asscam_logo-outline-small.svg"
   inkscape:export-filename="C:\Documents and Settings\martins\My Documents\assbot_logo.png"
   inkscape:export-xdpi="90"
   inkscape:export-ydpi="90">
  <defs
     id="defs4" />
  <sodipodi:namedview
     id="base"
     pagecolor="#ffffff"
     bordercolor="#666666"
     borderopacity="1.0"
     inkscape:pageopacity="0.0"
     inkscape:pageshadow="2"
     inkscape:zoom="4.4434318"
     inkscape:cx="117.22312"
     inkscape:cy="18.780578"
     inkscape:document-units="mm"
     inkscape:current-layer="layer1"
     showgrid="true"
     inkscape:window-width="1920"
     inkscape:window-height="1027"
     inkscape:window-x="1912"
     inkscape:window-y="-8"
     inkscape:window-maximized="1"
     inkscape:snap-bbox="true"
     inkscape:snap-grids="true"
     units="mm">
    <inkscape:grid
       type="xygrid"
       id="grid2985"
       empspacing="5"
       visible="true"
       enabled="true"
       snapvisiblegridlinesonly="true"
       units="mm"
       spacingx="2mm"
       spacingy="2mm"
       dotted="false" />
  </sodipodi:namedview>
  <metadata
     id="metadata7">
    <rdf:RDF>
      <cc:Work
         rdf:about="">
        <dc:format>image/svg+xml</dc:format>
        <dc:type
           rdf:resource="http://purl.org/dc/dcmitype/StillImage" />
        <dc:title />
      </cc:Work>
    </rdf:RDF>
  </metadata>
  <g
     inkscape:groupmode="layer"
     id="layer2"
     inkscape:label="logo"
     style="display:inline"
     transform="translate(0,-673.22838)" />
  <g
     inkscape:label="text"
     inkscape:groupmode="layer"
     id="layer1"
     transform="translate(0,-981.49607)"
     style="display:inline">
    <path
       style="fill:none;stroke:#000000;stroke-width:0.23360874;stroke-opacity:1;display:inline"
       d="m 193.49562,987.03535 -0.76812,0.69415 -0.71341,0.76174 -0.63228,0.8272 -0.53001,0.88696 -0.69627,1.12147 -0.83905,1.04071 -0.89076,1.0125 -0.84773,1.0357 -2.34589,2.79534 -2.34713,2.79538 -2.38293,2.7588 -2.4529,2.691 -0.44036,0.5003 -0.42721,0.5108 -0.41451,0.5192 -0.41471,0.5197 0.66967,-1.9537 0.63158,-1.9822 0.68408,-1.9509 0.83004,-1.86018 0.45261,-0.7265 0.36868,-0.7895 0.26183,-0.8263 0.12725,-0.8382 -0.40216,-0.30206 -0.52202,0.0728 -0.5454,0.2563 -0.46487,0.2683 -0.48254,0.6588 -0.33739,0.7649 -0.21729,0.8112 -0.0934,0.8115 -0.0807,0.93334 -0.27979,0.9187 -0.35108,0.9098 -0.28847,0.9102 -1.00903,2.9425 -1.0368,2.9334 -1.1082,2.904 -1.227,2.8497 -0.26551,0.7323 -0.23037,0.7467 -0.20257,0.7569 -0.20237,0.7566 -0.56862,-1.5611 -0.63992,-1.5414 -0.60897,-1.5475 -0.47005,-1.581 0.15658,-0.7854 -0.20814,-0.7775 -0.37541,-0.7574 -0.34017,-0.7286 -0.7423,0.5766 -0.79044,0.6435 -0.49043,0.766 0.14787,0.9325 0.1647,0.4535 0.24011,0.4602 0.34939,0.2909 0.48011,-0.042 0.86752,2.301 0.9145,2.288 0.86577,2.3014 0.71947,2.3418 0.1213,1.2006 0.31165,1.1636 0.46573,1.1176 0.58597,1.0612 -2.10399,-0.4158 -2.12009,-0.3739 -2.10819,-0.4026 -2.07345,-0.4888 -0.1473,-0.5506 -0.50448,-0.2662 -0.64711,-0.1148 -0.5707,-0.1009 -0.47422,-0.083 -0.47296,0 -0.4201,0.1521 -0.31281,0.3736 -0.31645,0.4495 -0.37933,0.4876 -0.21537,0.5064 0.15902,0.5023 0.68251,0.3168 0.73526,0.2347 0.75757,0.095 0.74301,-0.097 0.44502,-0.3127 0.54629,6e-4 0.58328,0.1332 0.55211,0.082 2.4672,0.519 2.48489,0.4794 2.48093,0.5049 2.45149,0.5997 2.02198,0.8309 2.11509,0.5497 2.1694,0.2229 2.18848,-0.1589 2.55925,-0.4353 2.51454,-0.7119 2.43765,-0.9041 2.3297,-1.0134 -3.14132,2.9831 -3.11106,3.0218 -3.12348,3.0091 -3.17628,2.947 -0.72471,0.129 -0.64129,0.4278 -0.58871,0.5566 -0.5695,0.5102 -0.75094,0.7509 -0.80832,0.7244 -0.7224,0.7819 -0.49309,0.9246 0.11279,0.5366 0.25939,0.5162 0.37594,0.421 0.47534,0.2517 0.85442,-0.4164 0.72947,-0.6436 0.68043,-0.7237 0.7082,-0.6542 0.55831,-0.583 0.63038,-0.5579 0.54859,-0.6066 0.3155,-0.7248 0.10387,-0.4847 0.36014,-0.4044 0.44355,-0.3713 0.35795,-0.3904 4.00157,-3.8276 3.98474,-3.8584 3.99576,-3.8445 4.03449,-3.7862 2.00284,-1.6023 1.95867,-1.6646 1.87544,-1.7538 1.74884,-1.8727 -1.44232,3.5461 -1.45804,3.5464 -1.46293,3.5437 -1.45634,3.5362 -0.27972,0.2808 -0.35961,0.1901 -0.33882,0.2183 -0.21189,0.3728 -0.59798,1.2825 -0.56519,1.3037 -0.49933,1.324 -0.38317,1.3522 0.41253,0.3844 0.58089,0.1389 0.6386,0.019 0.59211,0.017 0.74883,-0.2197 0.45801,-0.6273 0.30958,-0.7962 0.31582,-0.7165 0.35173,-0.9207 0.41152,-0.9199 0.33903,-0.9308 0.13122,-0.96 -0.12996,-0.2267 -0.18113,-0.1821 -0.10728,-0.1882 0.12059,-0.2606 1.89272,-4.6227 1.87204,-4.6447 1.87927,-4.6439 1.91663,-4.621 1.09756,-1.9398 1.00003,-1.9881 0.86,-2.0476 0.67528,-2.1163 0.96166,2.5476 0.94819,2.5572 0.9469,2.5539 0.95063,2.5409 -0.53046,0.4786 -0.078,0.6782 0.18186,0.7437 0.24153,0.6649 0.28064,0.7227 0.2803,0.7226 0.28046,0.7216 0.2808,0.7234 0.86587,-0.4808 0.88076,-0.4608 0.86714,-0.4811 0.80777,-0.5657 -0.35946,-1.1869 -0.45528,-1.165 -0.48491,-1.1573 -0.45045,-1.1654 -0.34596,0.1976 -0.32987,0.1205 -0.26106,-0.067 -0.13872,-0.3854 -1.18952,-3.064 -1.20139,-3.0641 -1.1656,-3.0747 -1.08075,-3.0967 -0.20256,-1.1511 -0.20253,-1.15074 -0.30127,-1.1228 -0.48246,-1.0728 -0.25795,-0.51817 -0.1325,-0.4268 0.15578,-0.1885 0.61187,0.20119 2.4053,0.62748 2.41687,0.6291 2.4019,0.6438 2.36598,0.6507 0.0163,0.5411 0.42448,0.3172 0.5945,0.1805 0.52168,0.1403 0.7852,0.1908 0.81266,0.2698 0.8081,0.14284 0.76871,-0.18814 0.469,-0.5006 0.47827,-0.5326 0.38058,-0.5802 0.17457,-0.6467 -0.56742,-0.3987 -0.69043,-0.2254 -0.73505,-0.151 -0.69777,-0.1863 -0.62985,-0.1507 -0.63887,-0.04 -0.63325,0.071 -0.61531,0.1903 -1.75995,-0.3102 -1.74748,-0.43599 -1.74234,-0.48419 -1.75122,-0.43023 -2.25228,-0.55677 -2.23384,-0.57647 -2.19375,-0.68587 -2.13506,-0.87845 -0.54935,-0.16991 -0.55484,-0.14964 -0.56008,-0.12471 -0.56425,-0.10064 2.99412,-0.88 2.99835,-0.87676 3.00007,-0.86257 3.00094,-0.83497 0.65864,0.15434 0.69808,-0.10377 0.70231,-0.21734 0.67579,-0.16012 0.67307,-0.22233 0.75497,-0.13292 0.67967,-0.21481 0.45182,-0.45303 0.16564,-0.51379 0.17927,-0.60558 -0.0179,-0.54179 -0.41286,-0.3173 -1.25,0.27653 -1.24077,0.36482 -1.20997,0.45769 -1.15769,0.55712 -0.80318,0.4648 -0.91134,0.27148 -0.94127,0.21891 -0.8967,0.29481 -3.98386,1.16881 -3.97798,1.19772 -3.99679,1.109 -4.03942,0.90793 -3.39424,1.08449 -3.2658,1.43171 -3.12478,1.72499 -2.975,1.9622 1.66554,-1.984 1.64831,-2.00211 1.67787,-1.97411 1.73656,-1.91604 0.81388,-0.63839 0.71698,-0.76848 0.64807,-0.83873 0.61169,-0.84479 -0.0185,-0.52052 -0.46809,-0.19834 -0.62165,0.0254 -0.49139,0.17899 0,0 0,0 0,0 z m 1.54166,8.06009 2.7568,-0.96715 2.89112,-0.56753 2.92724,-0.0553 2.86457,0.57435 1.7456,0.87477 1.46302,1.29756 1.04219,1.63488 0.48235,1.8873 0.13787,1.09218 -0.016,1.104 -0.12795,1.092 -0.20403,1.0605 -0.33279,1.3369 -0.47572,1.3081 -0.55032,1.2876 -0.55687,1.2788 -0.37516,0.7566 -0.37825,0.7492 -0.43217,0.7171 -0.52312,0.665 -2.56854,3.3937 -2.95083,3.0586 -3.25971,2.7351 -3.50442,2.4144 -2.78987,1.4853 -2.87117,1.339 -2.9755,1.0316 -3.09791,0.5794 -2.6453,0.1009 -2.64764,-0.4665 -2.39352,-1.1165 -1.87423,-1.8734 -0.95237,-2.6166 -0.11564,-2.7717 0.50798,-2.7768 0.91767,-2.6353 2.44313,-4.4189 3.10322,-3.9898 3.61428,-3.5518 3.97821,-3.10758 -2.12595,1.96578 -1.9515,2.1298 -1.87135,2.2056 -1.87692,2.2013 -2.01944,2.2468 -1.76927,2.4903 -1.25459,2.7321 -0.47196,2.9747 0.20207,1.2415 0.54015,1.1198 0.79514,0.9704 0.98789,0.783 1.05318,0.7879 1.18592,0.5332 1.27342,0.2662 1.31599,-0.016 3.3327,-0.7454 3.09982,-1.4133 2.83098,-1.9309 2.52651,-2.2957 2.68144,-2.3915 2.78979,-2.2967 2.59575,-2.4676 2.10054,-2.9061 0.19634,-0.3763 -0.0792,-0.362 -0.27775,-0.2545 -0.42685,-0.036 -0.81166,0.3393 -0.58681,0.6723 -0.49411,0.7955 -0.53185,0.7134 -0.29674,0.3935 -0.34593,0.4124 -0.33923,0.3627 -0.29278,0.2236 0.65323,-1.3587 0.52845,-1.4019 0.28895,-1.4468 -0.0573,-1.4927 -0.35472,-1.4626 -0.86191,-1.1962 -1.20498,-0.9007 -1.38952,-0.5748 -2.00389,-0.59398 -2.0738,-0.095 -2.0531,0.3622 -1.94002,0.79528 -0.80428,0.3756 -0.82512,0.415 -0.78776,0.4163 -0.69211,0.3786 2.07951,-1.9832 2.26922,-1.76888 2.37753,-1.6357 2.40163,-1.58237 0.11777,-0.0728 0.11804,-0.0707 0.12357,-0.0613 0.12641,-0.0613 0,0 0,0 0,0 z m -7.7825,7.96576 1.4574,-0.6977 1.48821,-0.6157 1.53789,-0.3763 1.61058,0.016 1.09725,0.2771 1.07706,0.4092 1.02057,0.5377 0.92409,0.6683 0.63454,1.0978 0.23652,1.2403 -0.0945,1.2822 -0.35928,1.2193 -1.34012,2.6071 -1.79179,2.3066 -2.03898,2.1284 -2.07569,2.0754 -1.55793,1.3076 -1.72845,1.0806 -1.83576,0.9095 -1.88429,0.79 -1.45099,0.2407 -1.47732,-10e-5 -1.39609,-0.3566 -1.2002,-0.8602 -0.87144,-0.6954 -0.73578,-0.8395 -0.47505,-0.9804 -0.0811,-1.1239 0.0557,-0.6408 0.11237,-0.64 0.15097,-0.6273 0.19392,-0.5949 1.36158,-2.3906 1.70177,-2.172 1.90786,-2.0104 1.97595,-1.9126 0.8751,-0.7867 0.92531,-0.7178 0.98741,-0.6287 z"
       id="path3212"
       inkscape:connector-curvature="0"
       sodipodi:nodetypes="ccccccccccccccccccccccccccccccccccccccccccccccccccccccccccccccccccccccccccccccccccccccccccccccccccccccccccccccccccccccccccccccccccccccccccccccccccccccccccccccccccccccccccccccccccccccccccccccccccccccccccccccccccccccccccccccccccccccccccccccccccccccccccccccccccccccccccccccccccccccccccccccccccccccccccccccccccccccccccccccccccccccccccccccccccccccccccccccccccccccccccccccccccccccccccccccccccccccccccccccccccccccccccccccccccccccccccccccccccccccccccc" />
    <g
       style="font-size:345.45397949px;font-style:oblique;font-variant:normal;font-weight:normal;font-stretch:normal;text-align:start;line-height:125%;letter-spacing:0px;word-spacing:0px;writing-mode:lr-tb;text-anchor:start;fill:none;stroke:none;font-family:Sans;-inkscape-font-specification:Sans Oblique"
       id="text3917"
       transform="matrix(0.16485232,0,0,0.16485232,-2.4626352,902.67574)">
      <path
         d="m 58.426085,768.89758 140.172005,-247.28297 38.96477,0 40.82025,247.28297 -32.04895,0 -11.97619,-71.18241 -100.02647,0 -39.639495,71.18241 z m 90.074425,-96.65289 81.80917,0 -9.61469,-62.07376 -6.91582,-61.56773 -24.62709,50.43493 z"
         id="path3003"
         inkscape:connector-curvature="0"
         style="fill:none;stroke:#000000;stroke-opacity:1"
         sodipodi:nodetypes="ccccccccccccccc" />
    </g>
    <g
       style="font-size:281.21038818px;font-style:oblique;font-variant:normal;font-weight:normal;font-stretch:normal;text-align:start;line-height:125%;letter-spacing:0px;word-spacing:0px;writing-mode:lr-tb;text-anchor:start;fill:none;stroke:#000000;stroke-opacity:1;font-family:Sans;-inkscape-font-specification:Sans Oblique"
       id="text3921"
       transform="matrix(0.16485232,0,0,0.16485232,-0.81411131,902.67574)">
      <path
         d="m 267.55575,663.03315 6.59087,-0.61789 6.59087,-0.61789 6.59086,-0.6179 6.59087,-0.61789 -0.0686,1.7507 -0.0687,1.7507 -0.0687,1.7507 -0.0686,1.7507 0.33467,5.71126 1.00407,5.46236 1.67347,5.21346 2.34287,4.96458 3.11518,4.56557 3.99056,4.01632 4.86592,3.46706 5.7413,2.91782 6.47069,2.31279 7.05427,1.65201 7.63786,0.99122 8.22147,0.3304 11.36661,-0.66081 9.93348,-1.9824 8.50035,-3.30401 7.06723,-4.62563 5.55671,-5.47516 3.96908,-5.85283 2.38147,-6.23046 0.79389,-6.60807 -0.42059,-4.63417 -1.26156,-4.42822 -2.10253,-4.22229 -2.94349,-4.01634 -4.91748,-4.18791 -7.88676,-4.87448 -10.85602,-5.56106 -13.82531,-6.24764 -10.93334,-4.84869 -9.04529,-4.248 -7.15725,-3.64731 -5.26922,-3.04662 -6.35061,-4.5612 -5.45808,-4.75861 -4.56553,-4.95605 -3.67301,-5.15347 -2.82346,-5.43653 -2.01674,-5.80561 -1.21004,-6.17467 -0.40332,-6.54374 0.53209,-7.56911 1.59621,-7.19157 2.66037,-6.81403 3.72454,-6.43649 4.74998,-5.87849 5.73697,-5.1405 6.72392,-4.40251 7.71085,-3.66455 8.46595,-2.88339 8.98948,-2.05961 9.51301,-1.23583 10.03654,-0.41204 11.80856,0.51502 10.84745,1.54478 9.88632,2.57452 8.92522,3.60426 7.86518,4.46268 6.70669,5.14915 5.5482,5.83563 4.38972,6.52211 3.33395,6.78834 2.38143,6.63381 1.42891,6.47927 0.4764,6.32474 -0.009,0.72096 -0.0258,0.92687 -0.0429,1.13277 -0.06,1.33869 -6.48789,0.51491 -6.48788,0.51491 -6.48788,0.51492 -6.48789,0.51491 -0.0945,-4.02481 -0.28324,-3.56144 -0.47197,-3.09808 -0.66071,-2.63472 -1.56199,-4.0248 -1.93953,-3.69875 -2.31707,-3.3727 -2.69461,-3.04665 -3.15392,-2.74181 -3.69452,-2.45867 -4.23512,-2.17553 -4.77572,-1.8924 -5.19639,-1.53176 -5.4967,-1.09416 -5.79702,-0.65654 -6.09735,-0.21894 -10.37552,0.61799 -9.15686,1.85372 -7.9382,3.08943 -6.71955,4.32516 -4.085,4.08506 -2.91785,4.70289 -1.75068,5.32072 -0.58353,5.93856 0.24025,3.60875 0.72086,3.41132 1.20147,3.21388 1.68209,3.01644 2.30848,2.90504 3.08087,2.87923 3.85327,2.85344 4.62567,2.82765 4.79721,2.48023 7.25164,3.45851 9.7061,4.4368 12.16056,5.41509 10.00637,4.54844 8.32438,4.03349 6.64238,3.51855 4.9604,3.00359 5.17477,3.83185 4.53977,4.218 3.90478,4.60415 3.26978,4.9903 2.58304,5.35941 1.84507,5.71124 1.10709,6.06308 0.36912,6.4149 -0.62229,8.01119 -1.86659,7.69364 -3.11089,7.3761 -4.35519,7.05856 -5.45386,6.50935 -6.40639,5.72839 -7.35891,4.94744 -8.31145,4.16649 -9.1054,3.30405 -9.74044,2.36001 -10.37545,1.41598 -11.01047,0.47199 -16.30986,-0.93113 -14.73936,-2.79339 -13.16885,-4.65566 -11.59835,-6.51792 -9.47008,-8.93802 -6.78396,-11.9159 -4.09784,-14.89381 z"
         id="path3006"
         inkscape:connector-curvature="0"
         style="fill:none;stroke:#000000;stroke-opacity:1"
         sodipodi:nodetypes="ccccccccccccccccccccccccccccccccccccccccccccccccccccccccccccccccccccccccccccccccccccccccccccccccccccccccccccccccccccccccccccccccccccccccccccccccccccc" />
    </g>
    <g
       style="font-size:234.34199524px;font-style:oblique;font-variant:normal;font-weight:normal;font-stretch:normal;text-align:start;line-height:125%;letter-spacing:0px;word-spacing:0px;writing-mode:lr-tb;text-anchor:start;fill:none;stroke:#000000;stroke-opacity:1;font-family:Sans;-inkscape-font-specification:Sans Oblique"
       id="text3925"
       transform="matrix(0.16485232,0,0,0.16485232,2.4829335,902.67574)">
      <path
         d="m 419.37857,639.33869 5.49239,-0.51491 5.49239,-0.51491 5.49239,-0.51491 5.49239,-0.51491 -0.0572,1.45892 -0.0572,1.45891 -0.0572,1.45891 -0.0572,1.45892 0.27889,4.75938 0.83672,4.55197 1.39456,4.34456 1.9524,4.13715 2.59599,3.80464 3.32546,3.34693 4.05493,2.88922 4.78442,2.43151 5.39223,1.92735 5.87856,1.37668 6.36489,0.826 6.85123,0.27533 9.47217,-0.55067 8.2779,-1.65201 7.08363,-2.75334 5.88936,-3.85469 4.63056,-4.56267 3.30757,-4.87735 1.98457,-5.19203 0.66159,-5.50672 -0.35049,-3.86181 -1.0513,-3.69019 -1.75211,-3.51857 -2.45292,-3.34695 -4.0979,-3.48992 -6.57229,-4.06207 -9.04669,-4.63422 -11.52109,-5.20636 -9.11111,-4.04058 -7.53774,-3.54 -5.96438,-3.03943 -4.39102,-2.53885 -5.29218,-3.80099 -4.54839,-3.96552 -3.80462,-4.13003 -3.06083,-4.29456 -2.35288,-4.53045 -1.68062,-4.838 -1.00836,-5.14556 -0.33611,-5.45312 0.44341,-6.30759 1.33017,-5.99297 2.21697,-5.67836 3.10379,-5.36374 3.95832,-4.89875 4.78081,-4.28374 5.60326,-3.66876 6.42571,-3.0538 7.05496,-2.40282 7.49124,-1.71634 7.9275,-1.02986 8.36379,-0.34337 9.84047,0.42919 9.03953,1.28731 8.23861,2.14543 7.43768,3.00356 6.55431,3.71889 5.58891,4.29096 4.6235,4.86303 3.6581,5.43509 2.77829,5.65695 1.98453,5.52817 1.19076,5.39939 0.397,5.27062 -0.007,0.6008 -0.0215,0.77239 -0.0357,0.94398 -0.05,1.11558 -5.40657,0.42909 -5.40657,0.4291 -5.40658,0.42909 -5.40657,0.42909 -0.0787,-3.35401 -0.23603,-2.96787 -0.39331,-2.58173 -0.55059,-2.1956 -1.30166,-3.354 -1.61628,-3.08229 -1.93089,-2.81058 -2.24551,-2.53888 -2.62826,-2.28484 -3.07877,-2.04889 -3.52927,-1.81295 -3.97977,-1.577 -4.33032,-1.27647 -4.58059,-0.91179 -4.83085,-0.54712 -5.08112,-0.18245 -8.64627,0.515 -7.63071,1.54476 -6.61517,2.57453 -5.59962,3.6043 -3.40417,3.40421 -2.43154,3.91908 -1.45891,4.43393 -0.48627,4.9488 0.20021,3.00729 0.60072,2.84277 1.00123,2.67823 1.40174,2.5137 1.92373,2.42086 2.56739,2.39937 3.21106,2.37787 3.85472,2.35637 3.99767,2.06686 6.04305,2.88209 8.08842,3.69734 10.13379,4.51257 8.33864,3.79037 6.93698,3.36124 5.53532,2.93212 4.13366,2.50299 4.31231,3.19321 3.78315,3.515 3.25398,3.83679 2.72481,4.15859 2.15254,4.46618 1.53755,4.75936 0.92258,5.05256 0.3076,5.34575 -0.51857,6.67599 -1.55549,6.41138 -2.59241,6.14675 -3.62933,5.88213 -4.54488,5.42446 -5.33865,4.77366 -6.13243,4.12287 -6.92621,3.47207 -7.58784,2.75338 -8.11703,1.96667 -8.64621,1.17999 -9.17539,0.39332 -13.59155,-0.77594 -12.2828,-2.32783 -10.97404,-3.87972 -9.66529,-5.4316 -7.89173,-7.44835 -5.65331,-9.92992 -3.41486,-12.4115 z"
         id="path3009"
         inkscape:connector-curvature="0"
         style="fill:none;stroke:#000000;stroke-opacity:1"
         sodipodi:nodetypes="ccccccccccccccccccccccccccccccccccccccccccccccccccccccccccccccccccccccccccccccccccccccccccccccccccccccccccccccccccccccccccccccccccccccccccccccccccccc" />
    </g>
    <g
       transform="matrix(0.16778259,0,0,0.1619732,4.7908653,902.67574)"
       style="font-size:221.91719055px;font-style:oblique;font-variant:normal;font-weight:normal;font-stretch:normal;text-align:start;line-height:125%;letter-spacing:0px;word-spacing:0px;writing-mode:lr-tb;text-anchor:start;fill:none;stroke:#000000;stroke-opacity:1;font-family:Sans;-inkscape-font-specification:Sans Oblique"
       id="text3937">
      <path
         d="m 542.15961,616.70938 4.11761,-19.6128 59.81361,0 -4.00924,19.6128 z"
         id="path3012"
         inkscape:connector-curvature="0"
         style="fill:none;stroke:#000000;stroke-opacity:1" />
    </g>
    <g
       style="font-size:24px;font-style:oblique;font-weight:normal;line-height:125%;letter-spacing:0px;word-spacing:0px;fill:none;stroke:#000000;stroke-width:0.17716534;stroke-miterlimit:4;stroke-opacity:1;stroke-dasharray:none;font-family:Sans;-inkscape-font-specification:Sans Oblique"
       id="text3065"
       transform="matrix(1.1442354,0,0,1.1442354,7.0866134,-174.63735)">
      <path
         d="m 101.90025,1028.3549 0.56836,0.079 0.56836,0.079 0.56836,0.079 0.56836,0.079 -0.6006,1.3974 -0.72363,1.2158 -0.84667,1.0342 -0.96972,0.8526 -1.062754,0.6665 -1.125735,0.4761 -1.188708,0.2856 -1.251713,0.095 -1.483525,-0.1194 -1.321656,-0.3581 -1.159801,-0.597 -0.997909,-0.8357 -0.80237,-1.0583 -0.57312,-1.2649 -0.343872,-1.4714 -0.114622,-1.678 0.174318,-2.22 0.522948,-2.0193 0.871569,-1.8186 1.220227,-1.6179 1.317622,-1.1844 1.468505,-0.8459 1.619372,-0.5075 1.770282,-0.1692 1.30041,0.092 1.170772,0.2746 1.04114,0.4577 0.91151,0.6409 0.75768,0.7954 0.57971,0.9214 0.4255,1.034 0.2,1.1867 -1.07227,0.1 -0.53613,0.05 -0.53613,0.05 -0.21498,-0.8726 -0.30505,-0.7548 -0.39514,-0.6369 -0.48522,-0.5189 -0.56873,-0.4024 -0.64564,-0.2875 -0.722532,-0.1725 -0.799431,-0.058 -1.500737,0.1751 -1.349855,0.5251 -1.198973,0.8753 -1.048091,1.2253 -0.738284,1.2635 -0.527345,1.3762 -0.316395,1.489 -0.105476,1.6018 0.0813,1.2458 0.243895,1.0891 0.406493,0.9324 0.569093,0.7756 0.699462,0.6101 0.797605,0.4358 0.895765,0.2615 0.993887,0.087 0.869378,-0.073 0.826902,-0.2175 0.78445,-0.3625 0.741926,-0.5076 0.671623,-0.6401 0.57348,-0.7603 0.47533,-0.8803 0.37722,-1.0005 0,-4e-4 z"
         id="path3070"
         inkscape:connector-curvature="0"
         sodipodi:nodetypes="cccccccccccccccccccccccccccccccccccccccccccccccccccccccccccccccccccccccccc"
         style="fill:none;stroke:#000000;stroke-width:0.17716534;stroke-miterlimit:4;stroke-opacity:1;stroke-dasharray:none" />
      <path
         d="m 104.29088,1034.4017 9.73828,-17.1797 2.70703,0 2.83594,17.1797 -2.22656,0 -0.83204,-4.9453 -6.94921,0 -2.75391,4.9453 z m 6.25781,-6.7148 5.68359,0 -0.66796,-4.3125 -0.48047,-4.2774 -1.71094,3.504 z"
         id="path3072"
         inkscape:connector-curvature="0"
         sodipodi:nodetypes="ccccccccccccccc"
         style="fill:none;stroke:#000000;stroke-width:0.17716534;stroke-miterlimit:4;stroke-opacity:1;stroke-dasharray:none" />
      <path
         d="m 121.85728,1034.4017 3.58594,-17.1797 2.82422,0 1.73438,11.1329 0.44531,4.207 2.39062,-4.6992 6.02344,-10.6407 2.87109,0 -3.58593,17.1797 -2.26172,0 1.79297,-8.3554 1.78125,-6.4922 -1.82813,3.6094 -6.39844,11.2382 -2.21484,0 -1.72266,-11.0156 -0.33984,-3.5273 -0.57422,3.5859 -2.28515,10.957 z"
         id="path3074"
         inkscape:connector-curvature="0"
         sodipodi:nodetypes="cccccccccccccccccccc"
         style="fill:none;stroke:#000000;stroke-width:0.17716534;stroke-miterlimit:4;stroke-opacity:1;stroke-dasharray:none" />
    </g>
  </g>
</svg>
