<?xml version="1.0" encoding="UTF-8" standalone="no"?>
<!-- Created with Inkscape (http://www.inkscape.org/) -->

<svg
   xmlns:dc="http://purl.org/dc/elements/1.1/"
   xmlns:cc="http://creativecommons.org/ns#"
   xmlns:rdf="http://www.w3.org/1999/02/22-rdf-syntax-ns#"
   xmlns:svg="http://www.w3.org/2000/svg"
   xmlns="http://www.w3.org/2000/svg"
   xmlns:sodipodi="http://sodipodi.sourceforge.net/DTD/sodipodi-0.dtd"
   xmlns:inkscape="http://www.inkscape.org/namespaces/inkscape"
   width="389.76376"
   height="248.03149"
   id="svg3195"
   version="1.1"
   inkscape:version="0.48.4 r9939"
   sodipodi:docname="synch-logo-thick.svg">
  <defs
     id="defs3" />
  <sodipodi:namedview
     inkscape:document-units="mm"
     id="base"
     pagecolor="#ffffff"
     bordercolor="#666666"
     borderopacity="1.0"
     inkscape:pageopacity="0.0"
     inkscape:pageshadow="2"
     inkscape:zoom="3.2697461"
     inkscape:cx="194.88188"
     inkscape:cy="124.01575"
     inkscape:current-layer="layer1"
     showgrid="false"
     inkscape:window-width="1920"
     inkscape:window-height="1017"
     inkscape:window-x="-9"
     inkscape:window-y="-9"
     inkscape:window-maximized="1"
     units="mm" />
  <metadata
     id="metadata4">
    <rdf:RDF>
      <cc:Work
         rdf:about="">
        <dc:format>image/svg+xml</dc:format>
        <dc:type
           rdf:resource="http://purl.org/dc/dcmitype/StillImage" />
        <dc:title />
      </cc:Work>
    </rdf:RDF>
  </metadata>
  <g
     inkscape:label="Layer 1"
     inkscape:groupmode="layer"
     id="layer1"
     transform="translate(0,-804.33069)">
    <path
       style="fill:#000000"
       d="m 244.83799,810.09949 c -6.2412,1.65063 -12.5184,4.29089 -17.61412,8.29052 -6.52386,5.13085 -15.01515,7.54066 -22.40161,11.44965 -20.81708,9.64528 -41.46359,19.78037 -62.73465,28.22638 -3.85074,1.66499 -7.5908,3.52438 -11.354,5.3407 9.20719,-9.03338 17.38748,-19.75064 27.48009,-27.50592 4.58575,-2.63203 9.01966,-6.53014 11.54474,-11.15733 -0.30972,-3.95522 -6.05867,-2.72094 -8.85871,-2.55689 -4.74387,1.88662 -8.57333,6.35174 -10.89906,10.76992 -2.13324,5.55259 -7.92503,9.09298 -11.58146,13.7161 -13.56537,14.07339 -27.01686,28.38795 -41.911041,40.98761 -3.59228,3.31019 -6.684199,7.20823 -9.835699,10.97476 1.34548,-10.33095 0.46232,-21.07157 2.63437,-31.19921 4.429189,-3.39661 2.306099,-9.84407 2.815159,-14.56652 -4.929919,1.56166 -14.409469,1.32198 -13.817529,8.75541 -0.24209,2.59967 -0.91704,7.48658 2.97013,7.43822 -1.53476,15.35764 -1.21365,31.03693 -4.00321,46.17895 -3.20059,6.94738 -3.64814,14.81539 -2.76351,22.36632 -10.69822,-8.14078 -22.37167,-15.37841 -32.56805,-23.9676 2.57883,-3.92801 -3.66264,-6.12152 -5.93336,-8.1249 -2.28507,-1.86719 -5.34926,-3.69881 -8.03913,-1.43114 -2.34114,1.85074 -8.2005,2.85844 -7.12829,6.79253 2.72907,3.68151 6.67721,7.45997 11.36394,8.18721 3.51488,-2.08058 6.34881,2.42266 9.27196,3.79659 12.47831,9.71659 25.98462,18.42247 38.06923,28.69398 8.6618,10.64443 20.001809,19.40396 33.43186,23.11144 15.37044,5.30633 32.51405,6.4242 48.18196,6.51231 -25.90048,8.37921 -51.46592,18.13258 -77.5073,26.11132 -4.23041,-2.5 -9.62886,1.0373 -14.02415,1.9628 -5.95912,2.6929 -13.60149,3.1048 -18.20815,8.0581 -1.21882,3.046 -0.85849,7.6451 1.73042,9.8143 6.04593,1.0914 11.79234,-3.2154 17.56844,-4.4808 4.34845,-2.2468 10.71618,-2.2551 13.70825,-6.4699 0.9729,-3.2793 6.089649,-2.955 8.665339,-4.597 33.001191,-10.9694 65.902491,-23.01463 99.008091,-33.54973 15.66139,-3.68375 31.48555,-7.69439 46.17896,-14.33408 -17.58151,16.39688 -35.47825,32.71397 -53.12647,48.99411 -2.17305,1.4966 -5.21609,-0.2849 -7.2316,2.1179 -6.73713,5.7362 -13.82443,11.4657 -19.18958,18.4664 0.21752,3.8757 5.46458,5.1482 8.368,6.8442 5.21378,2.9194 8.83886,-4.0438 12.52461,-6.444 3.99829,-4.5867 10.25876,-7.824 12.73435,-13.4687 0.3267,-1.6911 -1.97921,-3.1659 0.41323,-4.2615 23.14668,-21.15982 45.9532,-43.09615 69.26844,-64.15473 11.54325,-7.93703 22.69283,-16.58589 31.6641,-27.35096 -1.18521,17.06017 -2.86627,34.21538 -4.10652,51.18943 -5.59825,-0.31169 -5.46156,6.78056 -5.88859,10.61496 -0.34791,4.86313 -0.66655,9.72858 -1.00726,14.5923 6.16835,-0.6915 12.55012,-0.2568 18.59555,-1.70455 1.52342,-7.62597 1.05667,-15.6944 1.83373,-23.47688 -2.4445,0.17509 -5.53418,0.75131 -4.33896,-2.73768 1.50356,-20.59866 2.26067,-41.37285 4.70054,-61.83022 1.80279,-7.11091 4.5609,-14.06484 3.8999,-21.59149 -0.15301,-3.62989 -0.45057,-8.1484 3.46084,-3.2284 11.932,9.97503 24.34114,20.03082 35.92558,30.01115 -3.37778,3.16809 2.36915,6.23281 4.30786,8.12037 4.11489,2.49299 7.40807,8.54128 12.73807,8.12491 3.74203,-1.67214 8.91407,-2.82993 10.92488,-6.6634 -1.35395,-4.23311 -6.48082,-6.40945 -9.6077,-9.45275 -3.00004,-2.81778 -6.80627,-4.53738 -10.89906,-4.72637 -9.48454,-5.97876 -17.62505,-14.20471 -26.6278,-21.04912 -11.33992,-9.27204 -23.0104,-17.79615 -32.30978,-29.10721 -2.62576,-2.49759 -5.4493,-4.75314 -8.44548,-6.76671 19.38521,2.96317 38.88928,5.81519 58.16276,9.14281 2.66621,3.62989 8.43184,2.70706 12.34539,4.02904 4.16095,-0.26768 9.69059,3.52341 12.98847,0.71457 1.6236,-2.11828 7.01338,-5.98062 3.54091,-8.64351 -7.7345,-1.97172 -16.04268,-3.09453 -24.07091,-2.63437 -5.74206,1.45507 -11.83533,-1.64792 -17.6825,-1.76424 -25.73183,-4.26236 -51.89843,-6.7309 -77.12901,-13.16386 -22.076,-4.10154 -44.91975,-2.96829 -66.91816,1.08474 14.81828,-6.72473 29.31541,-14.37641 44.44854,-20.30014 6.43303,-0.8436 12.46035,-4.52596 18.07901,-7.67067 3.5631,-3.22288 -3.29487,-5.82853 -5.78529,-5.44953 z m -9.47856,37.52686 c 18.14262,0.63627 37.42756,5.74819 50.93115,18.46642 8.80538,8.51999 13.26354,22.05379 8.88455,33.78192 -1.58022,6.76517 -5.49668,12.86974 -9.55605,18.18231 -4.96326,7.08813 -12.1292,12.60313 -18.5868,18.45073 -4.22657,3.2343 -8.02116,6.93289 -13.05147,8.95189 -22.89485,14.058 -49.10679,21.79595 -75.64464,25.09811 -19.7209,1.29448 -40.15804,2.23715 -59.00509,-4.45453 -15.51789,-4.8098 -31.47977,-16.38079 -34.18241,-33.42803 -1.54986,-18.02417 10.401389,-33.91286 23.08948,-45.45578 24.0796,-20.90751 55.11407,-32.71293 86.21106,-38.2242 -17.72702,4.61093 -33.72317,13.51301 -50.38879,20.79086 -17.36415,6.64625 -36.20714,15.99081 -44.396891,33.65279 -3.33253,7.40633 -1.58998,15.93821 2.634371,22.62458 3.12385,7.77433 9.55267,13.74181 17.51082,16.34859 20.55014,7.07834 43.22065,3.7717 63.12999,-3.80214 21.13051,-7.69889 44.99064,-9.07806 63.5264,-22.74818 2.97003,-1.03205 2.52897,-4.8562 -0.46489,-5.52701 -5.79482,-1.97978 -10.40253,4.09364 -15.39299,5.94025 -2.4068,1.3651 -6.49277,3.20524 -8.23886,3.38336 7.42546,-5.81216 14.90029,-12.20369 17.41058,-21.54908 3.94166,-9.15822 -0.98121,-19.18839 -8.04534,-25.27205 -8.77132,-10.03917 -22.23981,-14.79902 -35.45058,-14.04486 -5.32238,-0.11175 -11.97097,0.24974 -16.45199,0.58541 16.78256,-6.8774 35.10063,-8.91521 52.91984,-11.5964 0.86776,-0.0871 1.73704,-0.13112 2.60855,-0.15496 z m -49.14909,18.5439 c 10.08946,-0.0671 20.66593,-0.90765 29.39131,4.98464 5.62705,4.17946 10.85862,9.83055 13.81753,16.32277 2.29682,7.93449 -2.10964,16.18201 -7.85146,21.51402 -13.39085,13.16383 -32.04995,18.02232 -49.15908,24.51076 -12.12901,4.29603 -25.35273,4.24107 -38.11089,3.48587 -8.82471,-1.90843 -18.63867,-5.79948 -21.65653,-15.19972 -3.45663,-5.94112 -6.04572,-13.46932 -2.00114,-19.87355 1.8543,-3.54458 4.47171,-6.94706 7.20577,-9.65936 13.2239,-11.32214 30.42177,-16.91611 46.61803,-22.41797 7.0404,-2.36741 14.24271,-3.98007 21.74646,-3.66746 z"
       id="path3212"
       inkscape:connector-curvature="0" />
  </g>
</svg>
