  0
SECTION
  2
HEADER
  9
$ACADVER
  1
AC1014
  9
$HANDSEED
  5
FFFF
  9
$MEASUREMENT
 70
     1
  0
ENDSEC
  0
SECTION
  2
TABLES
  0
TABLE
  2
VPORT
  5
8
330
0
100
AcDbSymbolTable
 70
     4
  0
VPORT
  5
2E
330
8
100
AcDbSymbolTableRecord
100
AcDbViewportTableRecord
  2
*ACTIVE
 70
     0
 10
0.0
 20
0.0
 11
1.0
 21
1.0
 12
210.0
 22
148.5
 13
0.0
 23
0.0
 14
10.0
 24
10.0
 15
10.0
 25
10.0
 16
0.0
 26
0.0
 36
1.0
 17
0.0
 27
0.0
 37
0.0
 40
341.0
 41
1.24
 42
50.0
 43
0.0
 44
0.0
 50
0.0
 51
0.0
 71
     0
 72
   100
 73
     1
 74
     3
 75
     0
 76
     0
 77
     0
 78
     0
  0
ENDTAB
  0
TABLE
  2
LTYPE
  5
5
330
0
100
AcDbSymbolTable
 70
     1
  0
LTYPE
  5
14
330
5
100
AcDbSymbolTableRecord
100
AcDbLinetypeTableRecord
  2
BYBLOCK
 70
     0
  3

 72
    65
 73
     0
 40
0.0
  0
LTYPE
  5
15
330
5
100
AcDbSymbolTableRecord
100
AcDbLinetypeTableRecord
  2
BYLAYER
 70
     0
  3

 72
    65
 73
     0
 40
0.0
  0
LTYPE
  5
16
330
5
100
AcDbSymbolTableRecord
100
AcDbLinetypeTableRecord
  2
CONTINUOUS
 70
     0
  3
Solid line
 72
    65
 73
     0
 40
0.0
  0
ENDTAB
  0
TABLE
  2
LAYER
  5
2
100
AcDbSymbolTable
 70
2
  0
LAYER
  5
50
100
AcDbSymbolTableRecord
100
AcDbLayerTableRecord
  2
0
 70
0
  6
CONTINUOUS
  0
LAYER
  5
51
100
AcDbSymbolTableRecord
100
AcDbLayerTableRecord
  2
Layer_1
 70
0
  6
CONTINUOUS
  0
ENDTAB
  0
TABLE
  2
STYLE
  5
3
330
0
100
AcDbSymbolTable
 70
     1
  0
STYLE
  5
11
330
3
100
AcDbSymbolTableRecord
100
AcDbTextStyleTableRecord
  2
STANDARD
 70
     0
 40
0.0
 41
1.0
 50
0.0
 71
     0
 42
2.5
  3
txt
  4

  0
ENDTAB
  0
TABLE
  2
VIEW
  5
6
330
0
100
AcDbSymbolTable
 70
     0
  0
ENDTAB
  0
TABLE
  2
UCS
  5
7
330
0
100
AcDbSymbolTable
 70
     0
  0
ENDTAB
  0
TABLE
  2
APPID
  5
9
330
0
100
AcDbSymbolTable
 70
     2
  0
APPID
  5
12
330
9
100
AcDbSymbolTableRecord
100
AcDbRegAppTableRecord
  2
ACAD
 70
     0
  0
ENDTAB
  0
TABLE
  2
DIMSTYLE
  5
A
330
0
100
AcDbSymbolTable
 70
     1
  0
DIMSTYLE
105
27
330
A
100
AcDbSymbolTableRecord
100
AcDbDimStyleTableRecord
  2
ISO-25
 70
     0
  3

  4

  5

  6

  7

 40
1.0
 41
2.5
 42
0.625
 43
3.75
 44
1.25
 45
0.0
 46
0.0
 47
0.0
 48
0.0
140
2.5
141
2.5
142
0.0
143
0.03937007874016
144
1.0
145
0.0
146
1.0
147
0.625
 71
     0
 72
     0
 73
     0
 74
     0
 75
     0
 76
     0
 77
     1
 78
     8
170
     0
171
     3
172
     1
173
     0
174
     0
175
     0
176
     0
177
     0
178
     0
270
     2
271
     2
272
     2
273
     2
274
     3
340
11
275
     0
280
     0
281
     0
282
     0
283
     0
284
     8
285
     0
286
     0
287
     3
288
     0
  0
ENDTAB
  0
TABLE
  2
BLOCK_RECORD
  5
1
330
0
100
AcDbSymbolTable
 70
     1
  0
BLOCK_RECORD
  5
1F
330
1
100
AcDbSymbolTableRecord
100
AcDbBlockTableRecord
  2
*MODEL_SPACE
  0
BLOCK_RECORD
  5
1B
330
1
100
AcDbSymbolTableRecord
100
AcDbBlockTableRecord
  2
*PAPER_SPACE
  0
ENDTAB
  0
ENDSEC
  0
SECTION
  2
BLOCKS
  0
BLOCK
  5
20
330
1F
100
AcDbEntity
  8
0
100
AcDbBlockBegin
  2
*MODEL_SPACE
 70
     0
 10
0.0
 20
0.0
 30
0.0
  3
*MODEL_SPACE
  1

  0
ENDBLK
  5
21
330
1F
100
AcDbEntity
  8
0
100
AcDbBlockEnd
  0
BLOCK
  5
1C
330
1B
100
AcDbEntity
 67
     1
  8
0
100
AcDbBlockBegin
  2
*PAPER_SPACE
  1

  0
ENDBLK
  5
1D
330
1B
100
AcDbEntity
 67
     1
  8
0
100
AcDbBlockEnd
  0
ENDSEC
  0
SECTION
  2
ENTITIES
  0
LWPOLYLINE
  5
100
100
AcDbEntity
  8
Layer_1
 62
7
100
AcDbPolyline
 90
149
 70
0
 10
13.729742
 20
14.241635
 30
0.0
 10
13.208382
 20
14.057372
 30
0.0
 10
12.735516
 20
13.773682
 30
0.0
 10
12.121547
 20
13.424658
 30
0.0
 10
11.471061
 20
13.127393
 30
0.0
 10
9.710150
 20
12.305393
 30
0.0
 10
7.930019
 20
11.534164
 30
0.0
 10
7.607729
 20
11.386646
 30
0.0
 10
7.289143
 20
11.232722
 30
0.0
 10
8.045956
 20
12.036040
 30
0.0
 10
8.840254
 20
12.785283
 30
0.0
 10
9.209691
 20
13.057938
 30
0.0
 10
9.491893
 20
13.415062
 30
0.0
 10
9.294596
 20
13.574405
 30
0.0
 10
8.991863
 20
13.559447
 30
0.0
 10
8.633083
 20
13.309088
 30
0.0
 10
8.376669
 20
12.951540
 30
0.0
 10
8.082053
 20
12.544774
 30
0.0
 10
7.722955
 20
12.177348
 30
0.0
 10
6.568253
 20
10.989390
 30
0.0
 10
5.357298
 20
9.863804
 30
0.0
 10
5.070380
 20
9.563745
 30
0.0
 10
4.802122
 20
9.244354
 30
0.0
 10
4.858978
 20
10.129177
 30
0.0
 10
4.950819
 20
11.005364
 30
0.0
 10
5.113247
 20
11.388424
 30
0.0
 10
5.109722
 20
11.827590
 30
0.0
 10
4.602878
 20
11.704767
 30
0.0
 10
4.329795
 20
11.333391
 30
0.0
 10
4.326216
 20
11.067425
 30
0.0
 10
4.497439
 20
10.913529
 30
0.0
 10
4.411020
 20
9.605683
 30
0.0
 10
4.271481
 20
8.306981
 30
0.0
 10
4.107017
 20
7.688519
 30
0.0
 10
4.115493
 20
7.044516
 30
0.0
 10
3.185723
 20
7.711464
 30
0.0
 10
2.277196
 20
8.397349
 30
0.0
 10
2.212392
 20
8.667379
 30
0.0
 10
1.942288
 20
8.855960
 30
0.0
 10
1.723975
 20
8.983891
 30
0.0
 10
1.488523
 20
8.936760
 30
0.0
 10
1.215096
 20
8.789158
 30
0.0
 10
1.086167
 20
8.553333
 30
0.0
 10
1.365448
 20
8.259737
 30
0.0
 10
1.727602
 20
8.091222
 30
0.0
 10
2.001804
 20
8.057186
 30
0.0
 10
2.250958
 20
7.876931
 30
0.0
 10
3.333694
 20
7.078863
 30
0.0
 10
4.399767
 20
6.257286
 30
0.0
 10
5.242364
 20
5.458202
 30
0.0
 10
6.286820
 20
4.952770
 30
0.0
 10
7.640334
 20
4.658525
 30
0.0
 10
9.006441
 20
4.585204
 30
0.0
 10
6.821981
 20
3.839798
 30
0.0
 10
4.631558
 20
3.111355
 30
0.0
 10
4.239252
 20
3.128570
 30
0.0
 10
3.839967
 20
3.000667
 30
0.0
 10
3.297463
 20
2.821089
 30
0.0
 10
2.812213
 20
2.545838
 30
0.0
 10
2.780451
 20
2.250295
 30
0.0
 10
2.909884
 20
1.991864
 30
0.0
 10
3.411421
 20
2.068431
 30
0.0
 10
3.901531
 20
2.244791
 30
0.0
 10
4.317122
 20
2.385733
 30
0.0
 10
4.675292
 20
2.609987
 30
0.0
 10
4.885923
 20
2.774381
 30
0.0
 10
5.164405
 20
2.869462
 30
0.0
 10
7.956440
 20
3.825490
 30
0.0
 10
10.752894
 20
4.763145
 30
0.0
 10
12.076664
 20
5.105142
 30
0.0
 10
13.359456
 20
5.572248
 30
0.0
 10
11.861512
 20
4.187045
 30
0.0
 10
10.360743
 20
2.806780
 30
0.0
 10
10.153316
 20
2.766197
 30
0.0
 10
9.952557
 20
2.687231
 30
0.0
 10
9.381942
 20
2.192834
 30
0.0
 10
8.869408
 20
1.644900
 30
0.0
 10
9.048720
 20
1.405604
 30
0.0
 10
9.341738
 20
1.258594
 30
0.0
 10
9.727555
 20
1.327851
 30
0.0
 10
10.048685
 20
1.622322
 30
0.0
 10
10.440310
 20
1.980039
 30
0.0
 10
10.767473
 20
2.382544
 30
0.0
 10
10.735408
 20
2.515414
 30
0.0
 10
10.790813
 20
2.623082
 30
0.0
 10
12.742165
 20
4.435824
 30
0.0
 10
14.700655
 20
6.244275
 30
0.0
 10
15.648731
 20
6.956350
 30
0.0
 10
16.487926
 20
7.788116
 30
0.0
 10
16.373196
 20
6.341614
 30
0.0
 10
16.256134
 20
4.898724
 30
0.0
 10
15.980487
 20
4.686860
 30
0.0
 10
15.923755
 20
4.299567
 30
0.0
 10
15.895174
 20
3.887748
 30
0.0
 10
15.866901
 20
3.475901
 30
0.0
 10
16.394313
 20
3.507962
 30
0.0
 10
16.916522
 20
3.572139
 30
0.0
 10
16.984072
 20
4.231410
 30
0.0
 10
17.020027
 20
4.897285
 30
0.0
 10
16.820529
 20
4.897285
 30
0.0
 10
16.775115
 20
5.052112
 30
0.0
 10
16.887957
 20
6.800112
 30
0.0
 10
17.040435
 20
8.542100
 30
0.0
 10
17.202651
 20
9.142669
 30
0.0
 10
17.260565
 20
9.760821
 30
0.0
 10
17.272210
 20
10.032911
 30
0.0
 10
17.455912
 20
9.943052
 30
0.0
 10
18.477174
 20
9.096187
 30
0.0
 10
19.483723
 20
8.249097
 30
0.0
 10
19.492769
 20
7.992811
 30
0.0
 10
19.726881
 20
7.790740
 30
0.0
 10
20.060658
 20
7.499854
 30
0.0
 10
20.445876
 20
7.332129
 30
0.0
 10
20.790848
 20
7.474426
 30
0.0
 10
21.062528
 20
7.708247
 30
0.0
 10
20.828904
 20
8.000206
 30
0.0
 10
20.520224
 20
8.241788
 30
0.0
 10
20.235757
 20
8.430820
 30
0.0
 10
19.905031
 20
8.508572
 30
0.0
 10
19.143332
 20
9.084306
 30
0.0
 10
18.402028
 20
9.696700
 30
0.0
 10
17.446979
 20
10.475012
 30
0.0
 10
16.578311
 20
11.339628
 30
0.0
 10
16.347800
 20
11.540853
 30
0.0
 10
16.101606
 20
11.721588
 30
0.0
 10
17.745465
 20
11.471257
 30
0.0
 10
19.384593
 20
11.205516
 30
0.0
 10
19.706606
 20
11.042956
 30
0.0
 10
20.081425
 20
10.978102
 30
0.0
 10
20.466259
 20
10.904075
 30
0.0
 10
20.814557
 20
10.937772
 30
0.0
 10
21.022356
 20
11.170182
 30
0.0
 10
21.014420
 20
11.425650
 30
0.0
 10
20.341300
 20
11.551464
 30
0.0
 10
19.655743
 20
11.574324
 30
0.0
 10
19.158926
 20
11.590975
 30
0.0
 10
18.657658
 20
11.674005
 30
0.0
 10
16.470283
 20
11.999577
 30
0.0
 10
14.304129
 20
12.417040
 30
0.0
 10
12.413897
 20
12.559026
 30
0.0
 10
10.526949
 20
12.355826
 30
0.0
 10
11.774728
 20
12.945698
 30
0.0
 10
13.035837
 20
13.501648
 30
0.0
 10
13.563306
 20
13.669429
 30
0.0
 10
14.056302
 20
13.934633
 30
0.0
 10
14.021161
 20
14.164673
 30
0.0
 10
13.729754
 20
14.242227
 30
0.0
 10
13.729747
 20
14.242227
 30
0.0
 10
13.729742
 20
14.241635
 30
0.0
  0
LWPOLYLINE
  5
101
100
AcDbEntity
  8
Layer_1
 62
7
100
AcDbPolyline
 90
53
 70
0
 10
13.194725
 20
12.123444
 30
0.0
 10
14.730318
 20
11.858014
 30
0.0
 10
16.069522
 20
11.081113
 30
0.0
 10
16.599337
 20
10.195584
 30
0.0
 10
16.571009
 20
9.174278
 30
0.0
 10
16.353791
 20
8.630380
 30
0.0
 10
16.031620
 20
8.147977
 30
0.0
 10
15.538687
 20
7.601002
 30
0.0
 10
14.982493
 20
7.106549
 30
0.0
 10
14.631161
 20
6.828165
 30
0.0
 10
14.245805
 20
6.601258
 30
0.0
 10
12.188044
 20
5.665268
 30
0.0
 10
9.976060
 20
5.184587
 30
0.0
 10
8.292299
 20
5.141266
 30
0.0
 10
6.645530
 20
5.436019
 30
0.0
 10
5.409564
 20
6.120408
 30
0.0
 10
4.716112
 20
7.322872
 30
0.0
 10
5.066381
 20
8.742930
 30
0.0
 10
6.019394
 20
9.888611
 30
0.0
 10
8.303940
 20
11.293287
 30
0.0
 10
10.885557
 20
12.046172
 30
0.0
 10
9.441000
 20
11.515848
 30
0.0
 10
8.041372
 20
10.872635
 30
0.0
 10
6.594194
 20
10.156045
 30
0.0
 10
5.535400
 20
8.973110
 30
0.0
 10
5.449793
 20
8.319342
 30
0.0
 10
5.684097
 20
7.696055
 30
0.0
 10
6.075967
 20
7.125288
 30
0.0
 10
6.672490
 20
6.773273
 30
0.0
 10
8.467735
 20
6.570440
 30
0.0
 10
10.235851
 20
6.987874
 30
0.0
 10
12.083640
 20
7.503494
 30
0.0
 10
13.821583
 20
8.271901
 30
0.0
 10
13.934699
 20
8.435533
 30
0.0
 10
13.795336
 20
8.583869
 30
0.0
 10
13.343885
 20
8.497227
 30
0.0
 10
12.926484
 20
8.248589
 30
0.0
 10
12.679978
 20
8.127968
 30
0.0
 10
12.461444
 20
8.057610
 30
0.0
 10
13.056850
 20
8.590981
 30
0.0
 10
13.444179
 20
9.273931
 30
0.0
 10
13.450077
 20
10.052243
 30
0.0
 10
12.990060
 20
10.700423
 30
0.0
 10
12.083530
 20
11.325263
 30
0.0
 10
10.989062
 20
11.493185
 30
0.0
 10
10.506937
 20
11.486130
 30
0.0
 10
10.060432
 20
11.460165
 30
0.0
 10
11.532014
 20
11.876246
 30
0.0
 10
13.047481
 20
12.114723
 30
0.0
 10
13.121021
 20
12.120368
 30
0.0
 10
13.194719
 20
12.123472
 30
0.0
 10
13.194722
 20
12.123472
 30
0.0
 10
13.194725
 20
12.123444
 30
0.0
  0
LWPOLYLINE
  5
102
100
AcDbEntity
  8
Layer_1
 62
7
100
AcDbPolyline
 90
21
 70
0
 10
10.420517
 20
11.076738
 30
0.0
 10
11.278883
 20
11.062063
 30
0.0
 10
12.079501
 20
10.795278
 30
0.0
 10
12.525942
 20
10.383572
 30
0.0
 10
12.859431
 20
9.873964
 30
0.0
 10
12.807996
 20
9.211673
 30
0.0
 10
12.416257
 20
8.659590
 30
0.0
 10
11.107574
 20
7.826526
 30
0.0
 10
9.641482
 20
7.276080
 30
0.0
 10
8.579218
 20
7.070791
 30
0.0
 10
7.490322
 20
7.079258
 30
0.0
 10
6.756210
 20
7.349627
 30
0.0
 10
6.267925
 20
7.937185
 30
0.0
 10
6.052670
 20
8.488281
 30
0.0
 10
6.154968
 20
9.058962
 30
0.0
 10
6.339712
 20
9.349171
 30
0.0
 10
6.561698
 20
9.604159
 30
0.0
 10
7.814454
 20
10.360063
 30
0.0
 10
9.193043
 20
10.869559
 30
0.0
 10
9.796972
 20
11.029776
 30
0.0
 10
10.420517
 20
11.076738
 30
0.0
  0
ENDSEC
  0
SECTION
  2
OBJECTS
  0
DICTIONARY
  5
C
330
0
100
AcDbDictionary
  3
ACAD_GROUP
350
D
  3
ACAD_MLINESTYLE
350
17
  0
DICTIONARY
  5
D
330
C
100
AcDbDictionary
  0
DICTIONARY
  5
1A
330
C
100
AcDbDictionary
  0
DICTIONARY
  5
17
330
C
100
AcDbDictionary
  3
STANDARD
350
18
  0
DICTIONARY
  5
19
330
C
100
AcDbDictionary
  0
ENDSEC
  0
EOF
