<?xml version="1.0" encoding="UTF-8" standalone="no"?>
<!-- Created with Inkscape (http://www.inkscape.org/) -->

<svg
   xmlns:dc="http://purl.org/dc/elements/1.1/"
   xmlns:cc="http://creativecommons.org/ns#"
   xmlns:rdf="http://www.w3.org/1999/02/22-rdf-syntax-ns#"
   xmlns:svg="http://www.w3.org/2000/svg"
   xmlns="http://www.w3.org/2000/svg"
   xmlns:sodipodi="http://sodipodi.sourceforge.net/DTD/sodipodi-0.dtd"
   xmlns:inkscape="http://www.inkscape.org/namespaces/inkscape"
   width="77.952751"
   height="53.149605"
   id="svg3195"
   version="1.1"
   inkscape:version="0.48.4 r9939"
   sodipodi:docname="synch-logo-thick.svg">
  <defs
     id="defs3" />
  <sodipodi:namedview
     inkscape:document-units="mm"
     id="base"
     pagecolor="#ffffff"
     bordercolor="#666666"
     borderopacity="1.0"
     inkscape:pageopacity="0.0"
     inkscape:pageshadow="2"
     inkscape:zoom="15.258815"
     inkscape:cx="38.976376"
     inkscape:cy="26.574802"
     inkscape:current-layer="layer1"
     showgrid="false"
     inkscape:window-width="1920"
     inkscape:window-height="1017"
     inkscape:window-x="-9"
     inkscape:window-y="-9"
     inkscape:window-maximized="1"
     units="mm" />
  <metadata
     id="metadata4">
    <rdf:RDF>
      <cc:Work
         rdf:about="">
        <dc:format>image/svg+xml</dc:format>
        <dc:type
           rdf:resource="http://purl.org/dc/dcmitype/StillImage" />
        <dc:title></dc:title>
      </cc:Work>
    </rdf:RDF>
  </metadata>
  <g
     inkscape:label="Layer 1"
     inkscape:groupmode="layer"
     id="layer1"
     transform="translate(0,-999.21258)">
    <path
       style="fill:#000000"
       d="m 48.648693,1001.8997 c -1.24825,0.3302 -2.5037,0.8582 -3.52285,1.6581 -1.30478,1.0262 -3.00305,1.5082 -4.48035,2.29 -4.16344,1.929 -8.29276,3.9561 -12.547001,5.6453 -0.77015,0.333 -1.51817,0.7049 -2.27082,1.0681 1.84145,-1.8066 3.47752,-3.9501 5.496061,-5.5012 0.91715,-0.5264 1.80394,-1.306 2.30896,-2.2315 -0.0619,-0.791 -1.21174,-0.5441 -1.77176,-0.5113 -0.94877,0.3773 -1.71467,1.2703 -2.179821,2.154 -0.42665,1.1105 -1.58502,1.8186 -2.31631,2.7432 -2.71309,2.8147 -5.4034,5.6776 -8.38225,8.1976 -0.71847,0.662 -1.33685,1.4416 -1.96716,2.1949 0.2691,-2.0662 0.0925,-4.2143 0.52688,-6.2398 0.88585,-0.6794 0.46122,-1.9689 0.56304,-2.9134 -0.98599,0.3124 -2.88191,0.2644 -2.76352,1.7511 -0.0484,0.52 -0.18341,1.4973 0.59402,1.4877 -0.30695,3.0715 -0.24273,6.2074 -0.80064,9.2358 -0.64012,1.3895 -0.72963,2.9631 -0.55271,4.4733 -2.13965,-1.6282 -4.47436,-3.0757 -6.5136497,-4.7935 0.51577,-0.7856 -0.73253,-1.2243 -1.18668,-1.625 -0.45701,-0.3735 -1.06985,-0.7398 -1.60783,-0.2863 -0.46823,0.3702 -1.64011,0.5717 -1.42567,1.3586 0.54582,0.7363 1.33545,1.492 2.2728,1.6374 0.70298,-0.4161 1.26977,0.4845 1.85441,0.7593 2.4956697,1.9434 5.1969497,3.6845 7.6138897,5.7389 1.73237,2.1289 4.00038,3.8808 6.68641,4.6223 3.07411,1.0613 6.50285,1.2848 9.636451,1.3024 -5.180131,1.6759 -10.293251,3.6266 -15.501551,5.2223 -0.84609,-0.4999 -1.92579,0.2075 -2.80485,0.3926 -1.19183,0.5386 -2.72031,0.621 -3.6416497,1.6116 -0.24377,0.6092 -0.1717,1.5291 0.3460797,1.9629 1.2092,0.2183 2.35849,-0.6431 3.51371,-0.8962 0.8697,-0.4493 2.14325,-0.451 2.74167,-1.294 0.19458,-0.6558 1.21794,-0.591 1.73308,-0.9194 6.60028,-2.1938 13.180571,-4.6029 19.801731,-6.7099 3.1323,-0.7368 6.29715,-1.5389 9.23585,-2.8669 -3.51632,3.2794 -7.09569,6.5429 -10.62536,9.7989 -0.43461,0.2993 -1.04322,-0.057 -1.44633,0.4236 -1.34743,1.1472 -2.7649,2.2931 -3.83793,3.6933 0.0435,0.7751 1.09292,1.0296 1.67361,1.3688 1.04276,0.5839 1.76778,-0.8087 2.50493,-1.2888 0.79967,-0.9173 2.05177,-1.5648 2.54689,-2.6937 0.0653,-0.3382 -0.39585,-0.6332 0.0827,-0.8523 4.62936,-4.232 9.19069,-8.6193 13.853769,-12.831 2.30866,-1.5875 4.53859,-3.3172 6.33285,-5.4703 -0.23704,3.4121 -0.57325,6.8431 -0.82131,10.238 -1.11965,-0.062 -1.09231,1.3561 -1.17772,2.123 -0.0696,0.9726 -0.13331,1.9457 -0.20145,2.9185 1.23367,-0.1383 2.51004,-0.051 3.71913,-0.341 0.30468,-1.5252 0.21133,-3.1389 0.36675,-4.6954 -0.48891,0.035 -1.10685,0.1503 -0.8678,-0.5475 0.30071,-4.1198 0.45214,-8.2746 0.94011,-12.3661 0.36056,-1.4222 0.91219,-2.813 0.77999,-4.3183 -0.0306,-0.726 -0.0901,-1.6297 0.69217,-0.6457 2.38641,1.995 4.86826,4.0062 7.18516,6.0022 -0.67556,0.6337 0.47383,1.2466 0.86158,1.6241 0.82298,0.4986 1.48162,1.7083 2.54762,1.625 0.74842,-0.3344 1.78283,-0.566 2.18499,-1.3327 -0.27079,-0.8466 -1.29617,-1.2819 -1.92155,-1.8905 -0.60001,-0.5636 -1.36126,-0.9075 -2.17982,-0.9453 -1.89692,-1.1958 -3.52503,-2.841 -5.3256,-4.2099 -2.26799,-1.8544 -4.6021,-3.5592 -6.46199,-5.8214 -0.52515,-0.4996 -1.08987,-0.9507 -1.68911,-1.3534 3.87707,0.5926 7.77791,1.1631 11.63263,1.8286 0.53324,0.726 1.68637,0.5414 2.46909,0.8058 0.83219,-0.053 1.93813,0.7047 2.59771,0.1429 0.32472,-0.4236 1.40268,-1.1961 0.70818,-1.7287 -1.5469,-0.3943 -3.20855,-0.6189 -4.81421,-0.5269 -1.14841,0.291 -2.36708,-0.3296 -3.53652,-0.3528 -5.1464,-0.8525 -10.37975,-1.3462 -15.42589,-2.6328 -4.415229,-0.8203 -8.983999,-0.5937 -13.383709,0.2169 2.96367,-1.3449 5.86311,-2.8753 8.88976,-4.06 1.28661,-0.1687 2.49208,-0.9052 3.61582,-1.5342 0.712629,-0.6445 -0.65898,-1.1657 -1.15706,-1.0899 z m -1.89573,7.5054 c 3.628549,0.1273 7.485559,1.1497 10.186289,3.6933 1.76109,1.7041 2.65273,4.4108 1.77692,6.7565 -0.31604,1.353 -1.09934,2.5739 -1.91122,3.6365 -0.99266,1.4176 -2.42585,2.5206 -3.71738,3.6901 -0.84532,0.6469 -1.60424,1.3866 -2.61031,1.7904 -4.578999,2.8116 -9.821409,4.3592 -15.129019,5.0197 -3.9442,0.2589 -8.031651,0.4474 -11.801091,-0.8909 -3.10359,-0.962 -6.29599,-3.2762 -6.83652,-6.6857 -0.30997,-3.6048 2.08029,-6.7826 4.61793,-9.0912 4.81594,-4.1815 11.022881,-6.5426 17.242311,-7.6449 -3.54542,0.9222 -6.74467,2.7026 -10.077821,4.1582 -3.47285,1.3293 -7.24147,3.1982 -8.87943,6.7306 -0.66651,1.4813 -0.318,3.1877 0.52688,4.525 0.62477,1.5548 1.91054,2.7483 3.50218,3.2697 4.11006,1.4157 8.644191,0.7543 12.626081,-0.7604 4.22613,-1.5398 8.99818,-1.8157 12.70535,-4.5497 0.59401,-0.2064 0.5058,-0.9713 -0.093,-1.1054 -1.15897,-0.396 -2.08051,0.8187 -3.07861,1.188 -0.48137,0.2731 -1.29856,0.6411 -1.64778,0.6767 1.4851,-1.1624 2.98007,-2.4407 3.48213,-4.3098 0.78834,-1.8317 -0.19624,-3.8377 -1.60908,-5.0545 -1.75427,-2.0078 -4.44798,-2.9598 -7.09015,-2.809 -1.06449,-0.022 -2.39421,0.05 -3.29042,0.1171 3.35653,-1.3755 7.02017,-1.783 10.58403,-2.3193 0.17355,-0.017 0.34741,-0.026 0.52171,-0.031 z m -9.82987,3.7088 c 2.0179,-0.013 4.13321,-0.1815 5.87829,0.997 1.12542,0.8359 2.17174,1.9661 2.76353,3.2645 0.45936,1.587 -0.42193,3.2365 -1.5703,4.3029 -2.67819,2.6328 -6.41003,3.6045 -9.83188,4.9022 -2.42582,0.8592 -5.070581,0.8482 -7.622221,0.6971 -1.76496,-0.3816 -3.72776,-1.1599 -4.33133,-3.0399 -0.69133,-1.1883 -1.20916,-2.6939 -0.40024,-3.9748 0.37087,-0.7089 0.89435,-1.3894 1.44117,-1.9318 2.64479,-2.2645 6.08439,-3.3833 9.323661,-4.4837 1.40809,-0.4734 2.84856,-0.796 4.34932,-0.7335 z"
       id="path3212"
       inkscape:connector-curvature="0" />
  </g>
</svg>
