%
M48
M72
T01C0.6000
T02C0.7000
T03C0.8000
T04C0.9000
T05C1.0000
T06C1.0160
T07C1.1000
T08C1.2000
T09C1.3000
T10C2.5400
T11C3.0000
%
T01
X21590Y80645
X35560Y80645
X56515Y83820
X92710Y83820
X108585Y82550
X120015Y81915
X128905Y82550
T02
X136208Y63182
X138748Y63182
X138748Y55245
X136208Y55245
T03
X123825Y23749
X118491Y23749
X119062Y17463
X124142Y17463
X128270Y17463
X133350Y17463
X96202Y17463
X91122Y17463
X86995Y17463
X81915Y17463
X81661Y22479
X86995Y22479
X59690Y17463
X54610Y17463
X50165Y17463
X45085Y17463
X44831Y22479
X50165Y22479
T04
X116840Y55245
X116840Y63182
X132080Y63182
X132080Y55245
T05
X128905Y27622
X126365Y27622
X123825Y27622
X124142Y6667
X127952Y6667
X92075Y27622
X89535Y27622
X86995Y27622
X55245Y27622
X52705Y27622
X50165Y27622
X50800Y6667
X54610Y6667
X86995Y6667
X90805Y6667
T06
X80645Y73025
X78105Y73025
X75565Y73025
T07
X62547Y77153
X60007Y77153
X57467Y77153
T08
X98585Y92710
X103585Y92710
X108585Y92710
X119222Y92710
X124222Y92710
X129222Y92710
T09
X83820Y93345
X78820Y93345
X67628Y93345
X62627Y93345
X40640Y93027
X35640Y93027
X24130Y93027
X19130Y93027
X7302Y72073
X7302Y67073
X6985Y53975
X6985Y48975
T10
X40005Y30988
X65405Y30988
X76835Y30988
X102235Y30988
X113665Y30988
X139065Y30988
T11
X5000Y5000
X60007Y62166
X5000Y95000
X145000Y95000
X145000Y5000
M30
