%
M48
M72
T01C0.7000
T02C0.8000
T03C0.9000
T04C1.0000
T05C1.0160
T06C1.1000
T07C1.2000
T08C1.3000
T09C2.5400
T10C3.0000
%
T01
X136208Y55245
X138748Y55245
X138748Y63182
X136208Y63182
T02
X133350Y17463
X128270Y17463
X124142Y17463
X119062Y17463
X96202Y17463
X91122Y17463
X86995Y17463
X81915Y17463
X59690Y17463
X54610Y17463
X50165Y17463
X45085Y17463
T03
X116840Y55245
X116840Y63182
X132080Y63182
X132080Y55245
T04
X113030Y69533
X103505Y77153
X92710Y77153
X113665Y83503
X124142Y77153
X135573Y83503
X74930Y55880
X86995Y27622
X89535Y27622
X92075Y27622
X90805Y6667
X86995Y6667
X54610Y6667
X50800Y6667
X50165Y27622
X52705Y27622
X55245Y27622
X23177Y53022
X21590Y69533
X29210Y87630
X46355Y87630
X123825Y27622
X126365Y27622
X128905Y27622
X127952Y6667
X124142Y6667
T05
X80645Y73025
X78105Y73025
X75565Y73025
T06
X62547Y77153
X60007Y77153
X57467Y77153
X86043Y59372
X86043Y56832
X86043Y54292
T07
X98585Y92710
X103585Y92710
X108585Y92710
X119222Y92710
X124222Y92710
X129222Y92710
T08
X83820Y93345
X78820Y93345
X67628Y93345
X62627Y93345
X40640Y93027
X35640Y93027
X24130Y93027
X19130Y93027
X7302Y72073
X7302Y67073
X6985Y53975
X6985Y48975
T09
X40005Y30988
X65405Y30988
X76835Y30988
X102235Y30988
X113665Y30988
X139065Y30988
T10
X5000Y5000
X60007Y62166
X101028Y56832
X145000Y95000
X145000Y5000
X5000Y95000
M30
