%
M48
M72
T01C0.6000
T02C0.7000
T03C0.8000
T04C1.0000
T05C1.1000
T06C1.2000
T07C1.3000
T08C3.0000
%
T01
X115570Y36830
X125730Y36830
X125730Y45720
X115570Y45720
X115570Y54610
X125730Y54610
X125730Y64770
X115570Y64770
X115570Y72390
X125730Y72390
T02
X129540Y64770
X132080Y64770
X132080Y54610
X129540Y54610
X129540Y45720
X132080Y45720
X132080Y36830
X129540Y36830
T03
X109220Y45720
X108350Y73230
X108350Y76630
X94850Y76630
X94850Y73230
X79140Y73230
X79140Y76630
X65640Y76630
X65640Y73230
X22860Y71120
X17780Y71120
X17780Y53340
X22860Y53340
T04
X31750Y59690
X31750Y62230
X31750Y64770
T05
X31750Y80010
X31750Y82550
X31750Y85090
X70358Y33782
X81280Y26670
X81280Y24130
X81280Y21590
X93853Y30480
X86106Y33655
X104140Y26670
X104140Y24130
X104140Y21590
X43053Y18415
X21463Y18415
T06
X21510Y7620
X16510Y7620
X38100Y7620
X43100Y7620
X88900Y6350
X93900Y6350
X98900Y6350
X95250Y60960
X78740Y60960
X85170Y91440
X90170Y91440
X100410Y91440
X105410Y91440
X120730Y91440
X125730Y91440
X132715Y74930
X6350Y64770
X6350Y60960
T07
X66140Y46860
X71180Y46860
X76220Y46860
X76220Y39300
X71180Y39300
X66140Y39300
X91340Y39300
X91340Y46860
T08
X5000Y5000
X66294Y24130
X119126Y24130
X145000Y5000
X46736Y82550
X5000Y95000
X145000Y95000
M30
