%
M48
M72
T01C0.8000
T02C0.9000
T03C2.5000
T04C3.0000
%
T01
X29210Y10160
X33020Y5080
X45720Y3810
X50800Y8890
X29210Y40640
X33020Y44450
X45720Y45720
X50800Y41910
T02
X50800Y39370
X35560Y39370
X29210Y38100
X13970Y38100
X13970Y12700
X29210Y12700
X35560Y11430
X50800Y11430
T03
X58420Y12700
X58420Y20320
X58420Y30480
X58420Y38100
X35560Y29210
X27940Y29210
X27940Y21590
X35560Y21590
X12700Y21590
X6350Y21590
X6350Y29210
X12700Y29210
T04
X5000Y5000
X5000Y45000
X70000Y45000
X70000Y5000
M30
