%
M48
M72
T01C0.6000
T02C0.8000
T03C0.8128
T04C0.8300
T05C0.9000
T06C1.0000
T07C1.0160
T08C1.1000
T09C1.2000
T10C3.0000
T11C3.3020
%
T01
X8890Y29210
X8890Y39370
X40640Y49530
X43180Y45720
X50800Y49530
X53340Y45720
T02
X50800Y67310
X48260Y67310
X62230Y67310
X64770Y67310
T03
X63500Y36830
X60960Y36830
X58420Y36830
X55880Y36830
X53340Y36830
X50800Y36830
X48260Y36830
X45720Y36830
X43180Y36830
X40640Y36830
X38100Y36830
X35560Y36830
X33020Y36830
X30480Y36830
X30480Y29210
X33020Y29210
X35560Y29210
X38100Y29210
X40640Y29210
X43180Y29210
X45720Y29210
X48260Y29210
X50800Y29210
X53340Y29210
X55880Y29210
X58420Y29210
X60960Y29210
X63500Y29210
X50800Y20320
X48260Y20320
X45720Y20320
T04
X43180Y19812
X40640Y19558
X46736Y16256
X48895Y14605
X54610Y12700
X57785Y14605
X57912Y8382
X59182Y22098
X53340Y26670
X46736Y26670
X57404Y32258
X59182Y33020
X37338Y13208
X27940Y16510
X48514Y63500
X68834Y65786
T05
X70866Y49530
X63754Y49530
X74930Y30226
X78740Y30226
X78740Y23114
X74930Y23114
T06
X36830Y58420
X36830Y60960
X36830Y63500
X7620Y48260
X7620Y45720
T07
X29210Y11430
X31750Y11430
X34290Y11430
X45720Y11430
X48260Y11430
X50800Y11430
X59690Y11430
X62230Y11430
X64770Y11430
X67310Y11430
T08
X85090Y22860
X85090Y33020
X85090Y49530
X74930Y49530
T09
X92710Y48260
X92710Y53340
X92710Y41910
X92710Y36830
T10
X7500Y7500
X7500Y69500
X92500Y69500
X92500Y7500
T11
X21844Y60960
M30
