%
M48
M72
T01C0.6000
T02C0.8000
T03C0.8128
T04C0.9000
T05C1.0000
T06C1.0160
T07C1.1000
T08C1.2000
T09C3.0000
T10C3.3020
%
T01
X20320Y21590
X25400Y21590
X8890Y29210
X8890Y39370
X40640Y54610
X43180Y49530
X50800Y54610
X53340Y49530
T02
X50800Y67310
X48260Y67310
X62230Y67310
X64770Y67310
T03
X63500Y36830
X60960Y36830
X58420Y36830
X55880Y36830
X53340Y36830
X50800Y36830
X48260Y36830
X45720Y36830
X43180Y36830
X40640Y36830
X38100Y36830
X35560Y36830
X33020Y36830
X30480Y36830
X30480Y29210
X33020Y29210
X35560Y29210
X38100Y29210
X40640Y29210
X43180Y29210
X45720Y29210
X48260Y29210
X50800Y29210
X53340Y29210
X55880Y29210
X58420Y29210
X60960Y29210
X63500Y29210
X50800Y21590
X48260Y21590
X45720Y21590
T04
X45466Y25400
X40640Y25146
X37592Y21590
X33020Y26162
X41275Y32385
X53340Y25400
X63500Y21590
X69850Y21590
X74930Y23114
X78740Y23114
X78740Y30226
X74930Y30226
X73660Y15240
X71120Y15240
X76200Y15240
X54610Y14605
X43815Y17145
X35560Y6350
X24892Y39370
X47244Y63500
X63754Y49530
X70866Y49530
X66294Y65786
T05
X36830Y63500
X36830Y60960
X36830Y58420
X7620Y48260
X7620Y45720
T06
X49530Y11430
X52070Y11430
X54610Y11430
X60960Y11430
X63500Y11430
X66040Y11430
X71120Y11430
X73660Y11430
X76200Y11430
X78740Y11430
T07
X85090Y22860
X85090Y33020
X85090Y49530
X74930Y49530
X36830Y11430
X34290Y11430
X31750Y11430
X29210Y11430
X26670Y11430
X24130Y11430
T08
X92710Y36830
X92710Y41910
X92710Y48260
X92710Y53340
T09
X7500Y7500
X7500Y69500
X92500Y69500
X92500Y7500
T10
X21844Y60960
M30
